M48
; DRILL file {KiCad 7.0.5-0} date 2023 May 30, Tuesday 18:10:58
; FORMAT={-:-/ absolute / inch / decimal}
; #@! TF.CreationDate,2023-05-30T18:10:58-04:00
; #@! TF.GenerationSoftware,Kicad,Pcbnew,7.0.5-0
; #@! TF.FileFunction,Plated,1,4,PTH
FMAT,2
INCH
; #@! TA.AperFunction,Plated,PTH,ViaDrill
T1C0.0157
; #@! TA.AperFunction,Plated,PTH,ComponentDrill
T2C0.0315
; #@! TA.AperFunction,Plated,PTH,ComponentDrill
T3C0.0394
%
G90
G05
T1
X2.7Y-2.8
X3.3Y-4.2
X3.4Y-4.6
T2
X3.1Y-2.4
X3.1Y-2.5
X3.1Y-2.6
X3.1Y-2.7
X3.1Y-2.8
X3.1Y-2.9
X3.1Y-3.0
X3.1Y-3.1
X3.1Y-3.2
X3.1Y-3.3
X3.1Y-3.4
X3.1Y-3.5
X3.1Y-3.6
X3.1Y-3.7
X3.1Y-3.8
X3.1Y-3.9
X3.1Y-4.0
X3.1Y-4.1
X3.1Y-4.2
X3.1Y-4.3
X3.2Y-2.4
X3.2Y-2.5
X3.2Y-2.6
X3.2Y-2.7
X3.2Y-2.8
X3.2Y-2.9
X3.2Y-3.0
X3.2Y-3.1
X3.2Y-3.2
X3.2Y-3.3
X3.2Y-3.4
X3.2Y-3.5
X3.2Y-3.6
X3.2Y-3.7
X3.2Y-3.8
X3.2Y-3.9
X3.2Y-4.0
X3.2Y-4.1
X3.2Y-4.2
X3.2Y-4.3
X3.7Y-2.4
X3.7Y-2.5
X3.7Y-2.6
X3.7Y-2.7
X3.7Y-2.8
X3.7Y-2.9
X3.7Y-3.0
X3.7Y-3.1
X3.7Y-3.2
X3.7Y-3.3
X3.7Y-3.4
X3.7Y-3.5
X3.7Y-3.6
X3.7Y-3.7
X3.7Y-3.8
X3.7Y-3.9
X3.7Y-4.0
X3.7Y-4.1
X3.7Y-4.2
X3.7Y-4.3
X3.8Y-2.4
X3.8Y-2.5
X3.8Y-2.6
X3.8Y-2.7
X3.8Y-2.8
X3.8Y-2.9
X3.8Y-3.0
X3.8Y-3.1
X3.8Y-3.2
X3.8Y-3.3
X3.8Y-3.4
X3.8Y-3.5
X3.8Y-3.6
X3.8Y-3.7
X3.8Y-3.8
X3.8Y-3.9
X3.8Y-4.0
X3.8Y-4.1
X3.8Y-4.2
X3.8Y-4.3
T3
X2.2887Y-3.0
X2.2887Y-3.1
X2.2887Y-3.2
X2.2887Y-3.3
X2.2887Y-3.4
X2.2887Y-3.5
X2.2887Y-3.6
X2.2887Y-3.7
X2.2887Y-3.8
X2.2887Y-3.9
X2.2887Y-4.0
X2.2887Y-4.1
X2.2887Y-4.2
X2.2887Y-4.3
X2.2887Y-4.4
X2.2887Y-4.5
X2.2887Y-4.6
X2.2887Y-4.7
X2.2887Y-4.8
X2.2887Y-4.9
X2.2887Y-5.0
X2.2887Y-5.1
X2.2887Y-5.2
X2.2887Y-5.3
X2.2887Y-5.4
X2.3887Y-3.0
X2.3887Y-3.1
X2.3887Y-3.2
X2.3887Y-3.3
X2.3887Y-3.4
X2.3887Y-3.5
X2.3887Y-3.6
X2.3887Y-3.7
X2.3887Y-3.8
X2.3887Y-3.9
X2.3887Y-4.0
X2.3887Y-4.1
X2.3887Y-4.2
X2.3887Y-4.3
X2.3887Y-4.4
X2.3887Y-4.5
X2.3887Y-4.6
X2.3887Y-4.7
X2.3887Y-4.8
X2.3887Y-4.9
X2.3887Y-5.0
X2.3887Y-5.1
X2.3887Y-5.2
X2.3887Y-5.3
X2.3887Y-5.4
X2.7Y-3.6
X2.7Y-3.8
X2.7Y-4.0
X2.8Y-3.6
T0
M30
