%TF.GenerationSoftware,KiCad,Pcbnew,(6.0.6-0)*%
%TF.CreationDate,2022-07-28T07:04:44-04:00*%
%TF.ProjectId,SCSI adapter version 3,53435349-2061-4646-9170-746572207665,rev?*%
%TF.SameCoordinates,Original*%
%TF.FileFunction,Copper,L1,Top*%
%TF.FilePolarity,Positive*%
%FSLAX46Y46*%
G04 Gerber Fmt 4.6, Leading zero omitted, Abs format (unit mm)*
G04 Created by KiCad (PCBNEW (6.0.6-0)) date 2022-07-28 07:04:44*
%MOMM*%
%LPD*%
G01*
G04 APERTURE LIST*
%TA.AperFunction,ComponentPad*%
%ADD10R,1.700000X1.700000*%
%TD*%
%TA.AperFunction,ComponentPad*%
%ADD11O,1.700000X1.700000*%
%TD*%
%TA.AperFunction,ComponentPad*%
%ADD12R,1.600000X1.600000*%
%TD*%
%TA.AperFunction,ComponentPad*%
%ADD13O,1.600000X1.600000*%
%TD*%
%TA.AperFunction,ComponentPad*%
%ADD14O,1.400000X1.400000*%
%TD*%
%TA.AperFunction,ComponentPad*%
%ADD15R,2.000000X2.000000*%
%TD*%
%TA.AperFunction,ComponentPad*%
%ADD16O,2.000000X2.000000*%
%TD*%
%TA.AperFunction,ViaPad*%
%ADD17C,0.800000*%
%TD*%
%TA.AperFunction,Conductor*%
%ADD18C,0.250000*%
%TD*%
%TA.AperFunction,Conductor*%
%ADD19C,0.500000*%
%TD*%
G04 APERTURE END LIST*
D10*
%TO.P,TermPWR,1*%
%TO.N,VDD/Tpower*%
X68580000Y-91440000D03*
D11*
%TO.P,TermPWR,2*%
X71120000Y-91440000D03*
%TD*%
D12*
%TO.P,<-Socket,1*%
%TO.N,N/C*%
X96520000Y-109220000D03*
D13*
%TO.P,<-Socket,2*%
%TO.N,D7*%
X96520000Y-106680000D03*
%TO.P,<-Socket,3*%
%TO.N,D6*%
X96520000Y-104140000D03*
%TO.P,<-Socket,4*%
%TO.N,D5*%
X96520000Y-101600000D03*
%TO.P,<-Socket,5*%
%TO.N,D4*%
X96520000Y-99060000D03*
%TO.P,<-Socket,6*%
%TO.N,D3*%
X96520000Y-96520000D03*
%TO.P,<-Socket,7*%
%TO.N,D2*%
X96520000Y-93980000D03*
%TO.P,<-Socket,8*%
%TO.N,D1*%
X96520000Y-91440000D03*
%TO.P,<-Socket,9*%
%TO.N,D0*%
X96520000Y-88900000D03*
%TO.P,<-Socket,10*%
%TO.N,parity*%
X96520000Y-86360000D03*
%TO.P,<-Socket,11*%
%TO.N,GND*%
X96520000Y-83820000D03*
%TO.P,<-Socket,12*%
%TO.N,SEL*%
X96520000Y-81280000D03*
%TO.P,<-Socket,13*%
%TO.N,BSY*%
X96520000Y-78740000D03*
%TO.P,<-Socket,14*%
%TO.N,ACK*%
X96520000Y-76200000D03*
%TO.P,<-Socket,15*%
%TO.N,ATN*%
X96520000Y-73660000D03*
%TO.P,<-Socket,16*%
%TO.N,RST*%
X96520000Y-71120000D03*
%TO.P,<-Socket,17*%
%TO.N,I/O*%
X96520000Y-68580000D03*
%TO.P,<-Socket,18*%
%TO.N,C/D*%
X96520000Y-66040000D03*
%TO.P,<-Socket,19*%
%TO.N,MSG*%
X96520000Y-63500000D03*
%TO.P,<-Socket,20*%
%TO.N,REQ*%
X96520000Y-60960000D03*
%TO.P,<-Socket,21*%
%TO.N,N/C*%
X81280000Y-60960000D03*
%TO.P,<-Socket,22*%
X81280000Y-63500000D03*
%TO.P,<-Socket,23*%
X81280000Y-66040000D03*
%TO.P,<-Socket,24*%
X81280000Y-68580000D03*
%TO.P,<-Socket,25*%
X81280000Y-71120000D03*
%TO.P,<-Socket,26*%
X81280000Y-73660000D03*
%TO.P,<-Socket,27*%
X81280000Y-76200000D03*
%TO.P,<-Socket,28*%
X81280000Y-78740000D03*
%TO.P,<-Socket,29*%
X81280000Y-81280000D03*
%TO.P,<-Socket,30*%
X81280000Y-83820000D03*
%TO.P,<-Socket,31*%
%TO.N,VDD/Tpower*%
X81280000Y-86360000D03*
%TO.P,<-Socket,32*%
%TO.N,N/C*%
X81280000Y-88900000D03*
%TO.P,<-Socket,33*%
X81280000Y-91440000D03*
%TO.P,<-Socket,34*%
X81280000Y-93980000D03*
%TO.P,<-Socket,35*%
X81280000Y-96520000D03*
%TO.P,<-Socket,36*%
X81280000Y-99060000D03*
%TO.P,<-Socket,37*%
X81280000Y-101600000D03*
%TO.P,<-Socket,38*%
X81280000Y-104140000D03*
%TO.P,<-Socket,39*%
X81280000Y-106680000D03*
%TO.P,<-Socket,40*%
X81280000Y-109220000D03*
%TD*%
D12*
%TO.P,<-Socket,1*%
%TO.N,N/C*%
X93980000Y-109220000D03*
D13*
%TO.P,<-Socket,2*%
%TO.N,D7*%
X93980000Y-106680000D03*
%TO.P,<-Socket,3*%
%TO.N,D6*%
X93980000Y-104140000D03*
%TO.P,<-Socket,4*%
%TO.N,D5*%
X93980000Y-101600000D03*
%TO.P,<-Socket,5*%
%TO.N,D4*%
X93980000Y-99060000D03*
%TO.P,<-Socket,6*%
%TO.N,D3*%
X93980000Y-96520000D03*
%TO.P,<-Socket,7*%
%TO.N,D2*%
X93980000Y-93980000D03*
%TO.P,<-Socket,8*%
%TO.N,D1*%
X93980000Y-91440000D03*
%TO.P,<-Socket,9*%
%TO.N,D0*%
X93980000Y-88900000D03*
%TO.P,<-Socket,10*%
%TO.N,parity*%
X93980000Y-86360000D03*
%TO.P,<-Socket,11*%
%TO.N,GND*%
X93980000Y-83820000D03*
%TO.P,<-Socket,12*%
%TO.N,SEL*%
X93980000Y-81280000D03*
%TO.P,<-Socket,13*%
%TO.N,BSY*%
X93980000Y-78740000D03*
%TO.P,<-Socket,14*%
%TO.N,ACK*%
X93980000Y-76200000D03*
%TO.P,<-Socket,15*%
%TO.N,ATN*%
X93980000Y-73660000D03*
%TO.P,<-Socket,16*%
%TO.N,RST*%
X93980000Y-71120000D03*
%TO.P,<-Socket,17*%
%TO.N,I/O*%
X93980000Y-68580000D03*
%TO.P,<-Socket,18*%
%TO.N,C/D*%
X93980000Y-66040000D03*
%TO.P,<-Socket,19*%
%TO.N,MSG*%
X93980000Y-63500000D03*
%TO.P,<-Socket,20*%
%TO.N,REQ*%
X93980000Y-60960000D03*
%TO.P,<-Socket,21*%
%TO.N,N/C*%
X78740000Y-60960000D03*
%TO.P,<-Socket,22*%
X78740000Y-63500000D03*
%TO.P,<-Socket,23*%
X78740000Y-66040000D03*
%TO.P,<-Socket,24*%
X78740000Y-68580000D03*
%TO.P,<-Socket,25*%
X78740000Y-71120000D03*
%TO.P,<-Socket,26*%
X78740000Y-73660000D03*
%TO.P,<-Socket,27*%
X78740000Y-76200000D03*
%TO.P,<-Socket,28*%
X78740000Y-78740000D03*
%TO.P,<-Socket,29*%
X78740000Y-81280000D03*
%TO.P,<-Socket,30*%
X78740000Y-83820000D03*
%TO.P,<-Socket,31*%
%TO.N,VDD/Tpower*%
X78740000Y-86360000D03*
%TO.P,<-Socket,32*%
%TO.N,N/C*%
X78740000Y-88900000D03*
%TO.P,<-Socket,33*%
X78740000Y-91440000D03*
%TO.P,<-Socket,34*%
X78740000Y-93980000D03*
%TO.P,<-Socket,35*%
X78740000Y-96520000D03*
%TO.P,<-Socket,36*%
X78740000Y-99060000D03*
%TO.P,<-Socket,37*%
X78740000Y-101600000D03*
%TO.P,<-Socket,38*%
X78740000Y-104140000D03*
%TO.P,<-Socket,39*%
X78740000Y-106680000D03*
%TO.P,<-Socket,40*%
X78740000Y-109220000D03*
%TD*%
D10*
%TO.P,SCSI50,1*%
%TO.N,GND*%
X58133089Y-137160000D03*
D11*
%TO.P,SCSI50,2*%
%TO.N,D0*%
X60673089Y-137160000D03*
%TO.P,SCSI50,3*%
%TO.N,GND*%
X58133089Y-134620000D03*
%TO.P,SCSI50,4*%
%TO.N,D1*%
X60673089Y-134620000D03*
%TO.P,SCSI50,5*%
%TO.N,GND*%
X58133089Y-132080000D03*
%TO.P,SCSI50,6*%
%TO.N,D2*%
X60673089Y-132080000D03*
%TO.P,SCSI50,7*%
%TO.N,GND*%
X58133089Y-129540000D03*
%TO.P,SCSI50,8*%
%TO.N,D3*%
X60673089Y-129540000D03*
%TO.P,SCSI50,9*%
%TO.N,GND*%
X58133089Y-127000000D03*
%TO.P,SCSI50,10*%
%TO.N,D4*%
X60673089Y-127000000D03*
%TO.P,SCSI50,11*%
%TO.N,GND*%
X58133089Y-124460000D03*
%TO.P,SCSI50,12*%
%TO.N,D5*%
X60673089Y-124460000D03*
%TO.P,SCSI50,13*%
%TO.N,GND*%
X58133089Y-121920000D03*
%TO.P,SCSI50,14*%
%TO.N,D6*%
X60673089Y-121920000D03*
%TO.P,SCSI50,15*%
%TO.N,GND*%
X58133089Y-119380000D03*
%TO.P,SCSI50,16*%
%TO.N,D7*%
X60673089Y-119380000D03*
%TO.P,SCSI50,17*%
%TO.N,GND*%
X58133089Y-116840000D03*
%TO.P,SCSI50,18*%
%TO.N,parity*%
X60673089Y-116840000D03*
%TO.P,SCSI50,19*%
%TO.N,GND*%
X58133089Y-114300000D03*
%TO.P,SCSI50,20*%
X60673089Y-114300000D03*
D14*
%TO.P,SCSI50,21*%
%TO.N,N/C*%
X58133089Y-111760000D03*
D11*
%TO.P,SCSI50,22*%
%TO.N,GND*%
X60673089Y-111760000D03*
D14*
%TO.P,SCSI50,23*%
%TO.N,N/C*%
X58133089Y-109220000D03*
D11*
%TO.P,SCSI50,24*%
X60673089Y-109220000D03*
D14*
%TO.P,SCSI50,25*%
X58133089Y-106680000D03*
D11*
%TO.P,SCSI50,26*%
%TO.N,VDD/Tpower*%
X60673089Y-106680000D03*
D14*
%TO.P,SCSI50,27*%
%TO.N,N/C*%
X58133089Y-104140000D03*
%TO.P,SCSI50,28*%
X60673089Y-104140000D03*
D11*
%TO.P,SCSI50,29*%
%TO.N,GND*%
X58133089Y-101600000D03*
%TO.P,SCSI50,30*%
X60673089Y-101600000D03*
%TO.P,SCSI50,31*%
X58133089Y-99060000D03*
%TO.P,SCSI50,32*%
%TO.N,ATN*%
X60673089Y-99060000D03*
%TO.P,SCSI50,33*%
%TO.N,GND*%
X58133089Y-96520000D03*
%TO.P,SCSI50,34*%
X60673089Y-96520000D03*
%TO.P,SCSI50,35*%
X58133089Y-93980000D03*
%TO.P,SCSI50,36*%
%TO.N,BSY*%
X60673089Y-93980000D03*
%TO.P,SCSI50,37*%
%TO.N,GND*%
X58133089Y-91440000D03*
%TO.P,SCSI50,38*%
%TO.N,ACK*%
X60673089Y-91440000D03*
%TO.P,SCSI50,39*%
%TO.N,GND*%
X58133089Y-88900000D03*
%TO.P,SCSI50,40*%
%TO.N,RST*%
X60673089Y-88900000D03*
%TO.P,SCSI50,41*%
%TO.N,GND*%
X58133089Y-86360000D03*
%TO.P,SCSI50,42*%
%TO.N,MSG*%
X60673089Y-86360000D03*
%TO.P,SCSI50,43*%
%TO.N,GND*%
X58133089Y-83820000D03*
%TO.P,SCSI50,44*%
%TO.N,SEL*%
X60673089Y-83820000D03*
%TO.P,SCSI50,45*%
%TO.N,GND*%
X58133089Y-81280000D03*
%TO.P,SCSI50,46*%
%TO.N,C/D*%
X60673089Y-81280000D03*
%TO.P,SCSI50,47*%
%TO.N,GND*%
X58133089Y-78740000D03*
%TO.P,SCSI50,48*%
%TO.N,REQ*%
X60673089Y-78740000D03*
%TO.P,SCSI50,49*%
%TO.N,GND*%
X58133089Y-76200000D03*
%TO.P,SCSI50,50*%
%TO.N,I/O*%
X60673089Y-76200000D03*
%TD*%
D15*
%TO.P,Diode,1*%
%TO.N,VDD/Tpower*%
X68580000Y-101600000D03*
D16*
%TO.P,Diode,2*%
X68580000Y-96520000D03*
%TD*%
D17*
%TO.N,D6*%
X86360000Y-116840000D03*
%TO.N,D4*%
X83820000Y-106680000D03*
%TO.N,ATN*%
X68580000Y-71120000D03*
%TD*%
D18*
%TO.N,*%
X78740000Y-81280000D02*
X81280000Y-81280000D01*
X78740000Y-60960000D02*
X81280000Y-60960000D01*
X78740000Y-93980000D02*
X81280000Y-93980000D01*
X78740000Y-66040000D02*
X81280000Y-66040000D01*
X78740000Y-91440000D02*
X81280000Y-91440000D01*
X78740000Y-83820000D02*
X81280000Y-83820000D01*
X78740000Y-63500000D02*
X81280000Y-63500000D01*
X78740000Y-71120000D02*
X81280000Y-71120000D01*
X78740000Y-109220000D02*
X81280000Y-109220000D01*
X78740000Y-88900000D02*
X81280000Y-88900000D01*
X78740000Y-101600000D02*
X81280000Y-101600000D01*
X78740000Y-99060000D02*
X81280000Y-99060000D01*
X93980000Y-109220000D02*
X96520000Y-109220000D01*
X78740000Y-78740000D02*
X81280000Y-78740000D01*
X78740000Y-68580000D02*
X81280000Y-68580000D01*
X78740000Y-106680000D02*
X81280000Y-106680000D01*
X78740000Y-96520000D02*
X81280000Y-96520000D01*
X78740000Y-76200000D02*
X81280000Y-76200000D01*
X78740000Y-73660000D02*
X81280000Y-73660000D01*
X78740000Y-104140000D02*
X81280000Y-104140000D01*
%TO.N,GND*%
X93980000Y-83820000D02*
X96520000Y-83820000D01*
%TO.N,D7*%
X93980000Y-106680000D02*
X96520000Y-106680000D01*
%TO.N,D6*%
X86360000Y-116840000D02*
X86360000Y-111760000D01*
X86360000Y-111760000D02*
X93980000Y-104140000D01*
X93980000Y-104140000D02*
X96520000Y-104140000D01*
%TO.N,D5*%
X73660000Y-104140000D02*
X73660000Y-114300000D01*
X73660000Y-114300000D02*
X63500000Y-124460000D01*
X93980000Y-101600000D02*
X96520000Y-101600000D01*
X92855000Y-102725000D02*
X75075000Y-102725000D01*
X75075000Y-102725000D02*
X73660000Y-104140000D01*
X63500000Y-124460000D02*
X60673089Y-124460000D01*
X93980000Y-101600000D02*
X92855000Y-102725000D01*
%TO.N,D4*%
X93980000Y-99060000D02*
X96520000Y-99060000D01*
X78740000Y-111760000D02*
X63500000Y-127000000D01*
X63500000Y-127000000D02*
X60673089Y-127000000D01*
X83820000Y-106680000D02*
X83820000Y-111760000D01*
X83820000Y-111760000D02*
X78740000Y-111760000D01*
%TO.N,D3*%
X93980000Y-96520000D02*
X96520000Y-96520000D01*
%TO.N,D2*%
X93980000Y-93980000D02*
X96520000Y-93980000D01*
%TO.N,D1*%
X93980000Y-91440000D02*
X96520000Y-91440000D01*
%TO.N,D0*%
X88900000Y-134620000D02*
X88900000Y-111760000D01*
X99060000Y-88900000D02*
X96520000Y-88900000D01*
X99060000Y-111760000D02*
X99060000Y-88900000D01*
X86360000Y-137160000D02*
X60673089Y-137160000D01*
X86360000Y-137160000D02*
X88900000Y-134620000D01*
X93980000Y-88900000D02*
X96520000Y-88900000D01*
X88900000Y-111760000D02*
X99060000Y-111760000D01*
%TO.N,I/O*%
X64915000Y-67165000D02*
X92565000Y-67165000D01*
X64915000Y-67165000D02*
X60673089Y-71406911D01*
X60673089Y-71406911D02*
X60673089Y-76200000D01*
X92565000Y-67165000D02*
X93980000Y-68580000D01*
X93980000Y-68580000D02*
X96520000Y-68580000D01*
%TO.N,REQ*%
X59308089Y-77375000D02*
X60673089Y-78740000D01*
X91440000Y-58420000D02*
X93980000Y-60960000D01*
X60960000Y-58420000D02*
X91440000Y-58420000D01*
X93980000Y-60960000D02*
X96520000Y-60960000D01*
X60960000Y-58420000D02*
X59308089Y-60071911D01*
X59308089Y-60071911D02*
X59308089Y-77375000D01*
%TO.N,MSG*%
X58870000Y-57970000D02*
X98610000Y-57970000D01*
X57055000Y-84995000D02*
X59308089Y-84995000D01*
X99060000Y-58420000D02*
X99060000Y-60960000D01*
X98610000Y-57970000D02*
X99060000Y-58420000D01*
X55880000Y-60960000D02*
X55880000Y-83820000D01*
X93980000Y-63500000D02*
X96520000Y-63500000D01*
X99060000Y-60960000D02*
X96520000Y-63500000D01*
X55880000Y-60960000D02*
X58870000Y-57970000D01*
X55880000Y-83820000D02*
X57055000Y-84995000D01*
X59308089Y-84995000D02*
X60673089Y-86360000D01*
%TO.N,SEL*%
X93980000Y-81280000D02*
X92855000Y-82405000D01*
X92855000Y-82405000D02*
X62088089Y-82405000D01*
X93980000Y-81280000D02*
X96520000Y-81280000D01*
X62088089Y-82405000D02*
X60673089Y-83820000D01*
%TO.N,BSY*%
X93980000Y-78740000D02*
X96520000Y-78740000D01*
%TO.N,RST*%
X93980000Y-71120000D02*
X96520000Y-71120000D01*
%TO.N,ATN*%
X93980000Y-73660000D02*
X96520000Y-73660000D01*
X68580000Y-71120000D02*
X69705000Y-72245000D01*
X69705000Y-72245000D02*
X92565000Y-72245000D01*
X92565000Y-72245000D02*
X93980000Y-73660000D01*
%TO.N,ACK*%
X93980000Y-76200000D02*
X96520000Y-76200000D01*
%TO.N,C/D*%
X93980000Y-66040000D02*
X96520000Y-66040000D01*
D19*
%TO.N,VDD/Tpower*%
X68580000Y-101600000D02*
X65753089Y-101600000D01*
X68580000Y-91440000D02*
X68580000Y-96520000D01*
X76200000Y-86360000D02*
X71120000Y-91440000D01*
X78740000Y-86360000D02*
X76200000Y-86360000D01*
X78740000Y-86360000D02*
X81280000Y-86360000D01*
X65753089Y-101600000D02*
X60673089Y-106680000D01*
D18*
%TO.N,parity*%
X93980000Y-86360000D02*
X83820000Y-96520000D01*
X93980000Y-86360000D02*
X96520000Y-86360000D01*
X82695000Y-97645000D02*
X83820000Y-96520000D01*
X69905000Y-107608089D02*
X69905000Y-104230000D01*
X69905000Y-104230000D02*
X76490000Y-97645000D01*
X60673089Y-116840000D02*
X69905000Y-107608089D01*
X76490000Y-97645000D02*
X82695000Y-97645000D01*
%TD*%
M02*
