%TF.GenerationSoftware,KiCad,Pcbnew,(6.0.6-0)*%
%TF.CreationDate,2022-07-28T07:04:44-04:00*%
%TF.ProjectId,SCSI adapter version 3,53435349-2061-4646-9170-746572207665,rev?*%
%TF.SameCoordinates,Original*%
%TF.FileFunction,Copper,L2,Inr*%
%TF.FilePolarity,Positive*%
%FSLAX46Y46*%
G04 Gerber Fmt 4.6, Leading zero omitted, Abs format (unit mm)*
G04 Created by KiCad (PCBNEW (6.0.6-0)) date 2022-07-28 07:04:44*
%MOMM*%
%LPD*%
G01*
G04 APERTURE LIST*
%TA.AperFunction,ComponentPad*%
%ADD10R,1.700000X1.700000*%
%TD*%
%TA.AperFunction,ComponentPad*%
%ADD11O,1.700000X1.700000*%
%TD*%
%TA.AperFunction,ComponentPad*%
%ADD12R,1.600000X1.600000*%
%TD*%
%TA.AperFunction,ComponentPad*%
%ADD13O,1.600000X1.600000*%
%TD*%
%TA.AperFunction,ComponentPad*%
%ADD14O,1.400000X1.400000*%
%TD*%
%TA.AperFunction,ComponentPad*%
%ADD15R,2.000000X2.000000*%
%TD*%
%TA.AperFunction,ComponentPad*%
%ADD16O,2.000000X2.000000*%
%TD*%
%TA.AperFunction,ViaPad*%
%ADD17C,0.800000*%
%TD*%
G04 APERTURE END LIST*
D10*
%TO.N,VDD/Tpower*%
%TO.C,TermPWR*%
X68580000Y-91440000D03*
D11*
X71120000Y-91440000D03*
%TD*%
D12*
%TO.N,N/C*%
%TO.C,<-Socket*%
X96520000Y-109220000D03*
D13*
%TO.N,D7*%
X96520000Y-106680000D03*
%TO.N,D6*%
X96520000Y-104140000D03*
%TO.N,D5*%
X96520000Y-101600000D03*
%TO.N,D4*%
X96520000Y-99060000D03*
%TO.N,D3*%
X96520000Y-96520000D03*
%TO.N,D2*%
X96520000Y-93980000D03*
%TO.N,D1*%
X96520000Y-91440000D03*
%TO.N,D0*%
X96520000Y-88900000D03*
%TO.N,parity*%
X96520000Y-86360000D03*
%TO.N,GND*%
X96520000Y-83820000D03*
%TO.N,SEL*%
X96520000Y-81280000D03*
%TO.N,BSY*%
X96520000Y-78740000D03*
%TO.N,ACK*%
X96520000Y-76200000D03*
%TO.N,ATN*%
X96520000Y-73660000D03*
%TO.N,RST*%
X96520000Y-71120000D03*
%TO.N,I/O*%
X96520000Y-68580000D03*
%TO.N,C/D*%
X96520000Y-66040000D03*
%TO.N,MSG*%
X96520000Y-63500000D03*
%TO.N,REQ*%
X96520000Y-60960000D03*
%TO.N,N/C*%
X81280000Y-60960000D03*
X81280000Y-63500000D03*
X81280000Y-66040000D03*
X81280000Y-68580000D03*
X81280000Y-71120000D03*
X81280000Y-73660000D03*
X81280000Y-76200000D03*
X81280000Y-78740000D03*
X81280000Y-81280000D03*
X81280000Y-83820000D03*
%TO.N,VDD/Tpower*%
X81280000Y-86360000D03*
%TO.N,N/C*%
X81280000Y-88900000D03*
X81280000Y-91440000D03*
X81280000Y-93980000D03*
X81280000Y-96520000D03*
X81280000Y-99060000D03*
X81280000Y-101600000D03*
X81280000Y-104140000D03*
X81280000Y-106680000D03*
X81280000Y-109220000D03*
%TD*%
D12*
%TO.N,N/C*%
%TO.C,<-Socket*%
X93980000Y-109220000D03*
D13*
%TO.N,D7*%
X93980000Y-106680000D03*
%TO.N,D6*%
X93980000Y-104140000D03*
%TO.N,D5*%
X93980000Y-101600000D03*
%TO.N,D4*%
X93980000Y-99060000D03*
%TO.N,D3*%
X93980000Y-96520000D03*
%TO.N,D2*%
X93980000Y-93980000D03*
%TO.N,D1*%
X93980000Y-91440000D03*
%TO.N,D0*%
X93980000Y-88900000D03*
%TO.N,parity*%
X93980000Y-86360000D03*
%TO.N,GND*%
X93980000Y-83820000D03*
%TO.N,SEL*%
X93980000Y-81280000D03*
%TO.N,BSY*%
X93980000Y-78740000D03*
%TO.N,ACK*%
X93980000Y-76200000D03*
%TO.N,ATN*%
X93980000Y-73660000D03*
%TO.N,RST*%
X93980000Y-71120000D03*
%TO.N,I/O*%
X93980000Y-68580000D03*
%TO.N,C/D*%
X93980000Y-66040000D03*
%TO.N,MSG*%
X93980000Y-63500000D03*
%TO.N,REQ*%
X93980000Y-60960000D03*
%TO.N,N/C*%
X78740000Y-60960000D03*
X78740000Y-63500000D03*
X78740000Y-66040000D03*
X78740000Y-68580000D03*
X78740000Y-71120000D03*
X78740000Y-73660000D03*
X78740000Y-76200000D03*
X78740000Y-78740000D03*
X78740000Y-81280000D03*
X78740000Y-83820000D03*
%TO.N,VDD/Tpower*%
X78740000Y-86360000D03*
%TO.N,N/C*%
X78740000Y-88900000D03*
X78740000Y-91440000D03*
X78740000Y-93980000D03*
X78740000Y-96520000D03*
X78740000Y-99060000D03*
X78740000Y-101600000D03*
X78740000Y-104140000D03*
X78740000Y-106680000D03*
X78740000Y-109220000D03*
%TD*%
D10*
%TO.N,GND*%
%TO.C,SCSI50*%
X58133089Y-137160000D03*
D11*
%TO.N,D0*%
X60673089Y-137160000D03*
%TO.N,GND*%
X58133089Y-134620000D03*
%TO.N,D1*%
X60673089Y-134620000D03*
%TO.N,GND*%
X58133089Y-132080000D03*
%TO.N,D2*%
X60673089Y-132080000D03*
%TO.N,GND*%
X58133089Y-129540000D03*
%TO.N,D3*%
X60673089Y-129540000D03*
%TO.N,GND*%
X58133089Y-127000000D03*
%TO.N,D4*%
X60673089Y-127000000D03*
%TO.N,GND*%
X58133089Y-124460000D03*
%TO.N,D5*%
X60673089Y-124460000D03*
%TO.N,GND*%
X58133089Y-121920000D03*
%TO.N,D6*%
X60673089Y-121920000D03*
%TO.N,GND*%
X58133089Y-119380000D03*
%TO.N,D7*%
X60673089Y-119380000D03*
%TO.N,GND*%
X58133089Y-116840000D03*
%TO.N,parity*%
X60673089Y-116840000D03*
%TO.N,GND*%
X58133089Y-114300000D03*
X60673089Y-114300000D03*
D14*
%TO.N,N/C*%
X58133089Y-111760000D03*
D11*
%TO.N,GND*%
X60673089Y-111760000D03*
D14*
%TO.N,N/C*%
X58133089Y-109220000D03*
D11*
X60673089Y-109220000D03*
D14*
X58133089Y-106680000D03*
D11*
%TO.N,VDD/Tpower*%
X60673089Y-106680000D03*
D14*
%TO.N,N/C*%
X58133089Y-104140000D03*
X60673089Y-104140000D03*
D11*
%TO.N,GND*%
X58133089Y-101600000D03*
X60673089Y-101600000D03*
X58133089Y-99060000D03*
%TO.N,ATN*%
X60673089Y-99060000D03*
%TO.N,GND*%
X58133089Y-96520000D03*
X60673089Y-96520000D03*
X58133089Y-93980000D03*
%TO.N,BSY*%
X60673089Y-93980000D03*
%TO.N,GND*%
X58133089Y-91440000D03*
%TO.N,ACK*%
X60673089Y-91440000D03*
%TO.N,GND*%
X58133089Y-88900000D03*
%TO.N,RST*%
X60673089Y-88900000D03*
%TO.N,GND*%
X58133089Y-86360000D03*
%TO.N,MSG*%
X60673089Y-86360000D03*
%TO.N,GND*%
X58133089Y-83820000D03*
%TO.N,SEL*%
X60673089Y-83820000D03*
%TO.N,GND*%
X58133089Y-81280000D03*
%TO.N,C/D*%
X60673089Y-81280000D03*
%TO.N,GND*%
X58133089Y-78740000D03*
%TO.N,REQ*%
X60673089Y-78740000D03*
%TO.N,GND*%
X58133089Y-76200000D03*
%TO.N,I/O*%
X60673089Y-76200000D03*
%TD*%
D15*
%TO.N,VDD/Tpower*%
%TO.C,Diode*%
X68580000Y-101600000D03*
D16*
X68580000Y-96520000D03*
%TD*%
D17*
%TO.N,D6*%
X86360000Y-116840000D03*
%TO.N,D4*%
X83820000Y-106680000D03*
%TO.N,ATN*%
X68580000Y-71120000D03*
%TD*%
%TA.AperFunction,Conductor*%
%TO.N,GND*%
G36*
X100783562Y-56633128D02*
G01*
X100830082Y-56686760D01*
X100841494Y-56738666D01*
X100870249Y-64064258D01*
X101058889Y-112122165D01*
X101039155Y-112190364D01*
X100985682Y-112237067D01*
X100932890Y-112248660D01*
X91449133Y-112248660D01*
X91448443Y-112248658D01*
X91378931Y-112248277D01*
X91378930Y-112248277D01*
X91369957Y-112248228D01*
X91341718Y-112256318D01*
X91324899Y-112259915D01*
X91295813Y-112264080D01*
X91287640Y-112267796D01*
X91272257Y-112274790D01*
X91254811Y-112281216D01*
X91238556Y-112285873D01*
X91238555Y-112285873D01*
X91229932Y-112288344D01*
X91222347Y-112293136D01*
X91222348Y-112293136D01*
X91205106Y-112304030D01*
X91189957Y-112312210D01*
X91171393Y-112320651D01*
X91163218Y-112324368D01*
X91143608Y-112341265D01*
X91128669Y-112352326D01*
X91114382Y-112361352D01*
X91114379Y-112361355D01*
X91106794Y-112366147D01*
X91100856Y-112372879D01*
X91087368Y-112388171D01*
X91075124Y-112400274D01*
X91052873Y-112419447D01*
X91047989Y-112426982D01*
X91038796Y-112441165D01*
X91027558Y-112455979D01*
X91018702Y-112466020D01*
X91010444Y-112475383D01*
X91006635Y-112483508D01*
X91006633Y-112483512D01*
X90997979Y-112501974D01*
X90989624Y-112517027D01*
X90973648Y-112541675D01*
X90968052Y-112560388D01*
X90966233Y-112566470D01*
X90959605Y-112583841D01*
X90952435Y-112599139D01*
X90952434Y-112599143D01*
X90948624Y-112607271D01*
X90947249Y-112616139D01*
X90944124Y-112636293D01*
X90940331Y-112653081D01*
X90931914Y-112681226D01*
X90931859Y-112690202D01*
X90931859Y-112690203D01*
X90931703Y-112715718D01*
X90931665Y-112716646D01*
X90931475Y-112717868D01*
X90931477Y-112721170D01*
X90931477Y-112721172D01*
X90931495Y-112749293D01*
X90931493Y-112750143D01*
X90931124Y-112810589D01*
X90931024Y-112826881D01*
X90931445Y-112828355D01*
X90931546Y-112829821D01*
X90940959Y-127702077D01*
X90948630Y-139822977D01*
X90928671Y-139891111D01*
X90875045Y-139937637D01*
X90822630Y-139949057D01*
X54143795Y-139949057D01*
X54075674Y-139929055D01*
X54029181Y-139875399D01*
X54017795Y-139823111D01*
X54017033Y-138054669D01*
X56775090Y-138054669D01*
X56775460Y-138061490D01*
X56780984Y-138112352D01*
X56784610Y-138127604D01*
X56829765Y-138248054D01*
X56838303Y-138263649D01*
X56914804Y-138365724D01*
X56927365Y-138378285D01*
X57029440Y-138454786D01*
X57045035Y-138463324D01*
X57165483Y-138508478D01*
X57180738Y-138512105D01*
X57231603Y-138517631D01*
X57238417Y-138518000D01*
X57860974Y-138518000D01*
X57876213Y-138513525D01*
X57877418Y-138512135D01*
X57879089Y-138504452D01*
X57879089Y-138499884D01*
X58387089Y-138499884D01*
X58391564Y-138515123D01*
X58392954Y-138516328D01*
X58400637Y-138517999D01*
X59027758Y-138517999D01*
X59034579Y-138517629D01*
X59085441Y-138512105D01*
X59100693Y-138508479D01*
X59221143Y-138463324D01*
X59236738Y-138454786D01*
X59338813Y-138378285D01*
X59351374Y-138365724D01*
X59427875Y-138263649D01*
X59436413Y-138248054D01*
X59477314Y-138138952D01*
X59519956Y-138082188D01*
X59586517Y-138057488D01*
X59655866Y-138072696D01*
X59690533Y-138100684D01*
X59715954Y-138130031D01*
X59715958Y-138130035D01*
X59719339Y-138133938D01*
X59891215Y-138276632D01*
X60084089Y-138389338D01*
X60292781Y-138469030D01*
X60297849Y-138470061D01*
X60297852Y-138470062D01*
X60405106Y-138491883D01*
X60511686Y-138513567D01*
X60516861Y-138513757D01*
X60516863Y-138513757D01*
X60729762Y-138521564D01*
X60729766Y-138521564D01*
X60734926Y-138521753D01*
X60740046Y-138521097D01*
X60740048Y-138521097D01*
X60951377Y-138494025D01*
X60951378Y-138494025D01*
X60956505Y-138493368D01*
X60961455Y-138491883D01*
X61165518Y-138430661D01*
X61165523Y-138430659D01*
X61170473Y-138429174D01*
X61371083Y-138330896D01*
X61552949Y-138201173D01*
X61711185Y-138043489D01*
X61841542Y-137862077D01*
X61940519Y-137661811D01*
X62005459Y-137448069D01*
X62034618Y-137226590D01*
X62036245Y-137160000D01*
X62017941Y-136937361D01*
X61963520Y-136720702D01*
X61874443Y-136515840D01*
X61753103Y-136328277D01*
X61602759Y-136163051D01*
X61598708Y-136159852D01*
X61598704Y-136159848D01*
X61431503Y-136027800D01*
X61431499Y-136027798D01*
X61427448Y-136024598D01*
X61386142Y-136001796D01*
X61336173Y-135951364D01*
X61321401Y-135881921D01*
X61346517Y-135815516D01*
X61373869Y-135788909D01*
X61417692Y-135757650D01*
X61552949Y-135661173D01*
X61606387Y-135607922D01*
X61707524Y-135507137D01*
X61711185Y-135503489D01*
X61841542Y-135322077D01*
X61855084Y-135294678D01*
X61938225Y-135126453D01*
X61938226Y-135126451D01*
X61940519Y-135121811D01*
X62005459Y-134908069D01*
X62034618Y-134686590D01*
X62036245Y-134620000D01*
X62017941Y-134397361D01*
X61963520Y-134180702D01*
X61874443Y-133975840D01*
X61753103Y-133788277D01*
X61602759Y-133623051D01*
X61598708Y-133619852D01*
X61598704Y-133619848D01*
X61431503Y-133487800D01*
X61431499Y-133487798D01*
X61427448Y-133484598D01*
X61386142Y-133461796D01*
X61336173Y-133411364D01*
X61321401Y-133341921D01*
X61346517Y-133275516D01*
X61373869Y-133248909D01*
X61417692Y-133217650D01*
X61552949Y-133121173D01*
X61711185Y-132963489D01*
X61841542Y-132782077D01*
X61855084Y-132754678D01*
X61938225Y-132586453D01*
X61938226Y-132586451D01*
X61940519Y-132581811D01*
X62005459Y-132368069D01*
X62034618Y-132146590D01*
X62036245Y-132080000D01*
X62017941Y-131857361D01*
X61963520Y-131640702D01*
X61874443Y-131435840D01*
X61753103Y-131248277D01*
X61602759Y-131083051D01*
X61598708Y-131079852D01*
X61598704Y-131079848D01*
X61431503Y-130947800D01*
X61431499Y-130947798D01*
X61427448Y-130944598D01*
X61386142Y-130921796D01*
X61336173Y-130871364D01*
X61321401Y-130801921D01*
X61346517Y-130735516D01*
X61373869Y-130708909D01*
X61417692Y-130677650D01*
X61552949Y-130581173D01*
X61711185Y-130423489D01*
X61841542Y-130242077D01*
X61855084Y-130214678D01*
X61938225Y-130046453D01*
X61938226Y-130046451D01*
X61940519Y-130041811D01*
X62005459Y-129828069D01*
X62034618Y-129606590D01*
X62036245Y-129540000D01*
X62017941Y-129317361D01*
X61963520Y-129100702D01*
X61874443Y-128895840D01*
X61753103Y-128708277D01*
X61602759Y-128543051D01*
X61598708Y-128539852D01*
X61598704Y-128539848D01*
X61431503Y-128407800D01*
X61431499Y-128407798D01*
X61427448Y-128404598D01*
X61386142Y-128381796D01*
X61336173Y-128331364D01*
X61321401Y-128261921D01*
X61346517Y-128195516D01*
X61373869Y-128168909D01*
X61417692Y-128137650D01*
X61552949Y-128041173D01*
X61711185Y-127883489D01*
X61841542Y-127702077D01*
X61855084Y-127674678D01*
X61938225Y-127506453D01*
X61938226Y-127506451D01*
X61940519Y-127501811D01*
X62005459Y-127288069D01*
X62034618Y-127066590D01*
X62036245Y-127000000D01*
X62017941Y-126777361D01*
X61963520Y-126560702D01*
X61874443Y-126355840D01*
X61753103Y-126168277D01*
X61602759Y-126003051D01*
X61598708Y-125999852D01*
X61598704Y-125999848D01*
X61431503Y-125867800D01*
X61431499Y-125867798D01*
X61427448Y-125864598D01*
X61386142Y-125841796D01*
X61336173Y-125791364D01*
X61321401Y-125721921D01*
X61346517Y-125655516D01*
X61373869Y-125628909D01*
X61417692Y-125597650D01*
X61552949Y-125501173D01*
X61711185Y-125343489D01*
X61841542Y-125162077D01*
X61855084Y-125134678D01*
X61938225Y-124966453D01*
X61938226Y-124966451D01*
X61940519Y-124961811D01*
X62005459Y-124748069D01*
X62034618Y-124526590D01*
X62036245Y-124460000D01*
X62017941Y-124237361D01*
X61963520Y-124020702D01*
X61874443Y-123815840D01*
X61753103Y-123628277D01*
X61602759Y-123463051D01*
X61598708Y-123459852D01*
X61598704Y-123459848D01*
X61431503Y-123327800D01*
X61431499Y-123327798D01*
X61427448Y-123324598D01*
X61386142Y-123301796D01*
X61336173Y-123251364D01*
X61321401Y-123181921D01*
X61346517Y-123115516D01*
X61373869Y-123088909D01*
X61417692Y-123057650D01*
X61552949Y-122961173D01*
X61711185Y-122803489D01*
X61841542Y-122622077D01*
X61855084Y-122594678D01*
X61938225Y-122426453D01*
X61938226Y-122426451D01*
X61940519Y-122421811D01*
X62005459Y-122208069D01*
X62034618Y-121986590D01*
X62036245Y-121920000D01*
X62017941Y-121697361D01*
X61963520Y-121480702D01*
X61874443Y-121275840D01*
X61753103Y-121088277D01*
X61602759Y-120923051D01*
X61598708Y-120919852D01*
X61598704Y-120919848D01*
X61431503Y-120787800D01*
X61431499Y-120787798D01*
X61427448Y-120784598D01*
X61386142Y-120761796D01*
X61336173Y-120711364D01*
X61321401Y-120641921D01*
X61346517Y-120575516D01*
X61373869Y-120548909D01*
X61417692Y-120517650D01*
X61552949Y-120421173D01*
X61711185Y-120263489D01*
X61841542Y-120082077D01*
X61855084Y-120054678D01*
X61938225Y-119886453D01*
X61938226Y-119886451D01*
X61940519Y-119881811D01*
X62005459Y-119668069D01*
X62034618Y-119446590D01*
X62036245Y-119380000D01*
X62017941Y-119157361D01*
X61963520Y-118940702D01*
X61874443Y-118735840D01*
X61753103Y-118548277D01*
X61602759Y-118383051D01*
X61598708Y-118379852D01*
X61598704Y-118379848D01*
X61431503Y-118247800D01*
X61431499Y-118247798D01*
X61427448Y-118244598D01*
X61386142Y-118221796D01*
X61336173Y-118171364D01*
X61321401Y-118101921D01*
X61346517Y-118035516D01*
X61373869Y-118008909D01*
X61417692Y-117977650D01*
X61552949Y-117881173D01*
X61711185Y-117723489D01*
X61720759Y-117710166D01*
X61838524Y-117546277D01*
X61841542Y-117542077D01*
X61851095Y-117522749D01*
X61938225Y-117346453D01*
X61938226Y-117346451D01*
X61940519Y-117341811D01*
X62005459Y-117128069D01*
X62034618Y-116906590D01*
X62036245Y-116840000D01*
X85446496Y-116840000D01*
X85447186Y-116846565D01*
X85453844Y-116909908D01*
X85466458Y-117029928D01*
X85525473Y-117211556D01*
X85528776Y-117217278D01*
X85528777Y-117217279D01*
X85548982Y-117252275D01*
X85620960Y-117376944D01*
X85625378Y-117381851D01*
X85625379Y-117381852D01*
X85744325Y-117513955D01*
X85748747Y-117518866D01*
X85903248Y-117631118D01*
X85909276Y-117633802D01*
X85909278Y-117633803D01*
X85943389Y-117648990D01*
X86077712Y-117708794D01*
X86162480Y-117726812D01*
X86258056Y-117747128D01*
X86258061Y-117747128D01*
X86264513Y-117748500D01*
X86455487Y-117748500D01*
X86461939Y-117747128D01*
X86461944Y-117747128D01*
X86557520Y-117726812D01*
X86642288Y-117708794D01*
X86776611Y-117648990D01*
X86810722Y-117633803D01*
X86810724Y-117633802D01*
X86816752Y-117631118D01*
X86971253Y-117518866D01*
X86975675Y-117513955D01*
X87094621Y-117381852D01*
X87094622Y-117381851D01*
X87099040Y-117376944D01*
X87171018Y-117252275D01*
X87191223Y-117217279D01*
X87191224Y-117217278D01*
X87194527Y-117211556D01*
X87253542Y-117029928D01*
X87266157Y-116909908D01*
X87272814Y-116846565D01*
X87273504Y-116840000D01*
X87253542Y-116650072D01*
X87194527Y-116468444D01*
X87099040Y-116303056D01*
X87002503Y-116195840D01*
X86975675Y-116166045D01*
X86975674Y-116166044D01*
X86971253Y-116161134D01*
X86816752Y-116048882D01*
X86810724Y-116046198D01*
X86810722Y-116046197D01*
X86648319Y-115973891D01*
X86648318Y-115973891D01*
X86642288Y-115971206D01*
X86548888Y-115951353D01*
X86461944Y-115932872D01*
X86461939Y-115932872D01*
X86455487Y-115931500D01*
X86264513Y-115931500D01*
X86258061Y-115932872D01*
X86258056Y-115932872D01*
X86171112Y-115951353D01*
X86077712Y-115971206D01*
X86071682Y-115973891D01*
X86071681Y-115973891D01*
X85909278Y-116046197D01*
X85909276Y-116046198D01*
X85903248Y-116048882D01*
X85748747Y-116161134D01*
X85744326Y-116166044D01*
X85744325Y-116166045D01*
X85717498Y-116195840D01*
X85620960Y-116303056D01*
X85525473Y-116468444D01*
X85466458Y-116650072D01*
X85446496Y-116840000D01*
X62036245Y-116840000D01*
X62017941Y-116617361D01*
X61963520Y-116400702D01*
X61874443Y-116195840D01*
X61834995Y-116134862D01*
X61755911Y-116012617D01*
X61755909Y-116012614D01*
X61753103Y-116008277D01*
X61602759Y-115843051D01*
X61598708Y-115839852D01*
X61598704Y-115839848D01*
X61431503Y-115707800D01*
X61431499Y-115707798D01*
X61427448Y-115704598D01*
X61385658Y-115681529D01*
X61335687Y-115631097D01*
X61320915Y-115561654D01*
X61346031Y-115495248D01*
X61373383Y-115468641D01*
X61548417Y-115343792D01*
X61556289Y-115337139D01*
X61707141Y-115186812D01*
X61713819Y-115178965D01*
X61838092Y-115006020D01*
X61843402Y-114997183D01*
X61937759Y-114806267D01*
X61941558Y-114796672D01*
X62003466Y-114592910D01*
X62005644Y-114582837D01*
X62007075Y-114571962D01*
X62004864Y-114557778D01*
X61991706Y-114554000D01*
X58405204Y-114554000D01*
X58389965Y-114558475D01*
X58388760Y-114559865D01*
X58387089Y-114567548D01*
X58387089Y-138499884D01*
X57879089Y-138499884D01*
X57879089Y-137432115D01*
X57874614Y-137416876D01*
X57873224Y-137415671D01*
X57865541Y-137414000D01*
X56793205Y-137414000D01*
X56777966Y-137418475D01*
X56776761Y-137419865D01*
X56775090Y-137427548D01*
X56775090Y-138054669D01*
X54017033Y-138054669D01*
X54016530Y-136887885D01*
X56775089Y-136887885D01*
X56779564Y-136903124D01*
X56780954Y-136904329D01*
X56788637Y-136906000D01*
X57860974Y-136906000D01*
X57876213Y-136901525D01*
X57877418Y-136900135D01*
X57879089Y-136892452D01*
X57879089Y-134892115D01*
X57874614Y-134876876D01*
X57873224Y-134875671D01*
X57865541Y-134874000D01*
X56816314Y-134874000D01*
X56802783Y-134877973D01*
X56801346Y-134887966D01*
X56831654Y-135022446D01*
X56834734Y-135032275D01*
X56914859Y-135229603D01*
X56919502Y-135238794D01*
X57030783Y-135420388D01*
X57036866Y-135428699D01*
X57176302Y-135589667D01*
X57183667Y-135596881D01*
X57189055Y-135601354D01*
X57228688Y-135660258D01*
X57230184Y-135731239D01*
X57193067Y-135791761D01*
X57152796Y-135816278D01*
X57045037Y-135856675D01*
X57029440Y-135865214D01*
X56927365Y-135941715D01*
X56914804Y-135954276D01*
X56838303Y-136056351D01*
X56829765Y-136071946D01*
X56784611Y-136192394D01*
X56780984Y-136207649D01*
X56775458Y-136258514D01*
X56775089Y-136265328D01*
X56775089Y-136887885D01*
X54016530Y-136887885D01*
X54015438Y-134354183D01*
X56797478Y-134354183D01*
X56799001Y-134362607D01*
X56811381Y-134366000D01*
X57860974Y-134366000D01*
X57876213Y-134361525D01*
X57877418Y-134360135D01*
X57879089Y-134352452D01*
X57879089Y-132352115D01*
X57874614Y-132336876D01*
X57873224Y-132335671D01*
X57865541Y-132334000D01*
X56816314Y-132334000D01*
X56802783Y-132337973D01*
X56801346Y-132347966D01*
X56831654Y-132482446D01*
X56834734Y-132492275D01*
X56914859Y-132689603D01*
X56919502Y-132698794D01*
X57030783Y-132880388D01*
X57036866Y-132888699D01*
X57176302Y-133049667D01*
X57183669Y-133056883D01*
X57347523Y-133192916D01*
X57355970Y-133198831D01*
X57425568Y-133239501D01*
X57474292Y-133291140D01*
X57487363Y-133360923D01*
X57460632Y-133426694D01*
X57420176Y-133460053D01*
X57411551Y-133464542D01*
X57402827Y-133470036D01*
X57232522Y-133597905D01*
X57224815Y-133604748D01*
X57077679Y-133758717D01*
X57071193Y-133766727D01*
X56951187Y-133942649D01*
X56946089Y-133951623D01*
X56856427Y-134144783D01*
X56852864Y-134154470D01*
X56797478Y-134354183D01*
X54015438Y-134354183D01*
X54014344Y-131814183D01*
X56797478Y-131814183D01*
X56799001Y-131822607D01*
X56811381Y-131826000D01*
X57860974Y-131826000D01*
X57876213Y-131821525D01*
X57877418Y-131820135D01*
X57879089Y-131812452D01*
X57879089Y-129812115D01*
X57874614Y-129796876D01*
X57873224Y-129795671D01*
X57865541Y-129794000D01*
X56816314Y-129794000D01*
X56802783Y-129797973D01*
X56801346Y-129807966D01*
X56831654Y-129942446D01*
X56834734Y-129952275D01*
X56914859Y-130149603D01*
X56919502Y-130158794D01*
X57030783Y-130340388D01*
X57036866Y-130348699D01*
X57176302Y-130509667D01*
X57183669Y-130516883D01*
X57347523Y-130652916D01*
X57355970Y-130658831D01*
X57425568Y-130699501D01*
X57474292Y-130751140D01*
X57487363Y-130820923D01*
X57460632Y-130886694D01*
X57420176Y-130920053D01*
X57411551Y-130924542D01*
X57402827Y-130930036D01*
X57232522Y-131057905D01*
X57224815Y-131064748D01*
X57077679Y-131218717D01*
X57071193Y-131226727D01*
X56951187Y-131402649D01*
X56946089Y-131411623D01*
X56856427Y-131604783D01*
X56852864Y-131614470D01*
X56797478Y-131814183D01*
X54014344Y-131814183D01*
X54013249Y-129274183D01*
X56797478Y-129274183D01*
X56799001Y-129282607D01*
X56811381Y-129286000D01*
X57860974Y-129286000D01*
X57876213Y-129281525D01*
X57877418Y-129280135D01*
X57879089Y-129272452D01*
X57879089Y-127272115D01*
X57874614Y-127256876D01*
X57873224Y-127255671D01*
X57865541Y-127254000D01*
X56816314Y-127254000D01*
X56802783Y-127257973D01*
X56801346Y-127267966D01*
X56831654Y-127402446D01*
X56834734Y-127412275D01*
X56914859Y-127609603D01*
X56919502Y-127618794D01*
X57030783Y-127800388D01*
X57036866Y-127808699D01*
X57176302Y-127969667D01*
X57183669Y-127976883D01*
X57347523Y-128112916D01*
X57355970Y-128118831D01*
X57425568Y-128159501D01*
X57474292Y-128211140D01*
X57487363Y-128280923D01*
X57460632Y-128346694D01*
X57420176Y-128380053D01*
X57411551Y-128384542D01*
X57402827Y-128390036D01*
X57232522Y-128517905D01*
X57224815Y-128524748D01*
X57077679Y-128678717D01*
X57071193Y-128686727D01*
X56951187Y-128862649D01*
X56946089Y-128871623D01*
X56856427Y-129064783D01*
X56852864Y-129074470D01*
X56797478Y-129274183D01*
X54013249Y-129274183D01*
X54012155Y-126734183D01*
X56797478Y-126734183D01*
X56799001Y-126742607D01*
X56811381Y-126746000D01*
X57860974Y-126746000D01*
X57876213Y-126741525D01*
X57877418Y-126740135D01*
X57879089Y-126732452D01*
X57879089Y-124732115D01*
X57874614Y-124716876D01*
X57873224Y-124715671D01*
X57865541Y-124714000D01*
X56816314Y-124714000D01*
X56802783Y-124717973D01*
X56801346Y-124727966D01*
X56831654Y-124862446D01*
X56834734Y-124872275D01*
X56914859Y-125069603D01*
X56919502Y-125078794D01*
X57030783Y-125260388D01*
X57036866Y-125268699D01*
X57176302Y-125429667D01*
X57183669Y-125436883D01*
X57347523Y-125572916D01*
X57355970Y-125578831D01*
X57425568Y-125619501D01*
X57474292Y-125671140D01*
X57487363Y-125740923D01*
X57460632Y-125806694D01*
X57420176Y-125840053D01*
X57411551Y-125844542D01*
X57402827Y-125850036D01*
X57232522Y-125977905D01*
X57224815Y-125984748D01*
X57077679Y-126138717D01*
X57071193Y-126146727D01*
X56951187Y-126322649D01*
X56946089Y-126331623D01*
X56856427Y-126524783D01*
X56852864Y-126534470D01*
X56797478Y-126734183D01*
X54012155Y-126734183D01*
X54011060Y-124194183D01*
X56797478Y-124194183D01*
X56799001Y-124202607D01*
X56811381Y-124206000D01*
X57860974Y-124206000D01*
X57876213Y-124201525D01*
X57877418Y-124200135D01*
X57879089Y-124192452D01*
X57879089Y-122192115D01*
X57874614Y-122176876D01*
X57873224Y-122175671D01*
X57865541Y-122174000D01*
X56816314Y-122174000D01*
X56802783Y-122177973D01*
X56801346Y-122187966D01*
X56831654Y-122322446D01*
X56834734Y-122332275D01*
X56914859Y-122529603D01*
X56919502Y-122538794D01*
X57030783Y-122720388D01*
X57036866Y-122728699D01*
X57176302Y-122889667D01*
X57183669Y-122896883D01*
X57347523Y-123032916D01*
X57355970Y-123038831D01*
X57425568Y-123079501D01*
X57474292Y-123131140D01*
X57487363Y-123200923D01*
X57460632Y-123266694D01*
X57420176Y-123300053D01*
X57411551Y-123304542D01*
X57402827Y-123310036D01*
X57232522Y-123437905D01*
X57224815Y-123444748D01*
X57077679Y-123598717D01*
X57071193Y-123606727D01*
X56951187Y-123782649D01*
X56946089Y-123791623D01*
X56856427Y-123984783D01*
X56852864Y-123994470D01*
X56797478Y-124194183D01*
X54011060Y-124194183D01*
X54009966Y-121654183D01*
X56797478Y-121654183D01*
X56799001Y-121662607D01*
X56811381Y-121666000D01*
X57860974Y-121666000D01*
X57876213Y-121661525D01*
X57877418Y-121660135D01*
X57879089Y-121652452D01*
X57879089Y-119652115D01*
X57874614Y-119636876D01*
X57873224Y-119635671D01*
X57865541Y-119634000D01*
X56816314Y-119634000D01*
X56802783Y-119637973D01*
X56801346Y-119647966D01*
X56831654Y-119782446D01*
X56834734Y-119792275D01*
X56914859Y-119989603D01*
X56919502Y-119998794D01*
X57030783Y-120180388D01*
X57036866Y-120188699D01*
X57176302Y-120349667D01*
X57183669Y-120356883D01*
X57347523Y-120492916D01*
X57355970Y-120498831D01*
X57425568Y-120539501D01*
X57474292Y-120591140D01*
X57487363Y-120660923D01*
X57460632Y-120726694D01*
X57420176Y-120760053D01*
X57411551Y-120764542D01*
X57402827Y-120770036D01*
X57232522Y-120897905D01*
X57224815Y-120904748D01*
X57077679Y-121058717D01*
X57071193Y-121066727D01*
X56951187Y-121242649D01*
X56946089Y-121251623D01*
X56856427Y-121444783D01*
X56852864Y-121454470D01*
X56797478Y-121654183D01*
X54009966Y-121654183D01*
X54008872Y-119114183D01*
X56797478Y-119114183D01*
X56799001Y-119122607D01*
X56811381Y-119126000D01*
X57860974Y-119126000D01*
X57876213Y-119121525D01*
X57877418Y-119120135D01*
X57879089Y-119112452D01*
X57879089Y-117112115D01*
X57874614Y-117096876D01*
X57873224Y-117095671D01*
X57865541Y-117094000D01*
X56816314Y-117094000D01*
X56802783Y-117097973D01*
X56801346Y-117107966D01*
X56831654Y-117242446D01*
X56834734Y-117252275D01*
X56914859Y-117449603D01*
X56919502Y-117458794D01*
X57030783Y-117640388D01*
X57036866Y-117648699D01*
X57176302Y-117809667D01*
X57183669Y-117816883D01*
X57347523Y-117952916D01*
X57355970Y-117958831D01*
X57425568Y-117999501D01*
X57474292Y-118051140D01*
X57487363Y-118120923D01*
X57460632Y-118186694D01*
X57420176Y-118220053D01*
X57411551Y-118224542D01*
X57402827Y-118230036D01*
X57232522Y-118357905D01*
X57224815Y-118364748D01*
X57077679Y-118518717D01*
X57071193Y-118526727D01*
X56951187Y-118702649D01*
X56946089Y-118711623D01*
X56856427Y-118904783D01*
X56852864Y-118914470D01*
X56797478Y-119114183D01*
X54008872Y-119114183D01*
X54007778Y-116574183D01*
X56797478Y-116574183D01*
X56799001Y-116582607D01*
X56811381Y-116586000D01*
X57860974Y-116586000D01*
X57876213Y-116581525D01*
X57877418Y-116580135D01*
X57879089Y-116572452D01*
X57879089Y-114572115D01*
X57874614Y-114556876D01*
X57873224Y-114555671D01*
X57865541Y-114554000D01*
X56816314Y-114554000D01*
X56802783Y-114557973D01*
X56801346Y-114567966D01*
X56831654Y-114702446D01*
X56834734Y-114712275D01*
X56914859Y-114909603D01*
X56919502Y-114918794D01*
X57030783Y-115100388D01*
X57036866Y-115108699D01*
X57176302Y-115269667D01*
X57183669Y-115276883D01*
X57347523Y-115412916D01*
X57355970Y-115418831D01*
X57425568Y-115459501D01*
X57474292Y-115511140D01*
X57487363Y-115580923D01*
X57460632Y-115646694D01*
X57420176Y-115680053D01*
X57411551Y-115684542D01*
X57402827Y-115690036D01*
X57232522Y-115817905D01*
X57224815Y-115824748D01*
X57077679Y-115978717D01*
X57071193Y-115986727D01*
X56951187Y-116162649D01*
X56946089Y-116171623D01*
X56856427Y-116364783D01*
X56852864Y-116374470D01*
X56797478Y-116574183D01*
X54007778Y-116574183D01*
X54006684Y-114034183D01*
X56797478Y-114034183D01*
X56799001Y-114042607D01*
X56811381Y-114046000D01*
X60400974Y-114046000D01*
X60416213Y-114041525D01*
X60417418Y-114040135D01*
X60419089Y-114032452D01*
X60419089Y-114027885D01*
X60927089Y-114027885D01*
X60931564Y-114043124D01*
X60932954Y-114044329D01*
X60940637Y-114046000D01*
X61991433Y-114046000D01*
X62004964Y-114042027D01*
X62006269Y-114032947D01*
X61964303Y-113865875D01*
X61960983Y-113856124D01*
X61876061Y-113660814D01*
X61871194Y-113651739D01*
X61755515Y-113472926D01*
X61749225Y-113464757D01*
X61605895Y-113307240D01*
X61598362Y-113300215D01*
X61431228Y-113168222D01*
X61422641Y-113162517D01*
X61385205Y-113141851D01*
X61335235Y-113091419D01*
X61320463Y-113021976D01*
X61345579Y-112955571D01*
X61372931Y-112928964D01*
X61548416Y-112803792D01*
X61556289Y-112797139D01*
X61707141Y-112646812D01*
X61713819Y-112638965D01*
X61838092Y-112466020D01*
X61843402Y-112457183D01*
X61937759Y-112266267D01*
X61941558Y-112256672D01*
X62003466Y-112052910D01*
X62005644Y-112042837D01*
X62007075Y-112031962D01*
X62004864Y-112017778D01*
X61991706Y-112014000D01*
X60945204Y-112014000D01*
X60929965Y-112018475D01*
X60928760Y-112019865D01*
X60927089Y-112027548D01*
X60927089Y-114027885D01*
X60419089Y-114027885D01*
X60419089Y-111632000D01*
X60439091Y-111563879D01*
X60492747Y-111517386D01*
X60545089Y-111506000D01*
X61991433Y-111506000D01*
X62004964Y-111502027D01*
X62006269Y-111492947D01*
X61964303Y-111325875D01*
X61960983Y-111316124D01*
X61876061Y-111120814D01*
X61871194Y-111111739D01*
X61755515Y-110932926D01*
X61749225Y-110924757D01*
X61605895Y-110767240D01*
X61598362Y-110760215D01*
X61431228Y-110628222D01*
X61422645Y-110622520D01*
X61385691Y-110602120D01*
X61335720Y-110551687D01*
X61320948Y-110482245D01*
X61346064Y-110415839D01*
X61373416Y-110389232D01*
X61411751Y-110361888D01*
X61552949Y-110261173D01*
X61584877Y-110229357D01*
X61634298Y-110180107D01*
X61711185Y-110103489D01*
X61742587Y-110059789D01*
X61838524Y-109926277D01*
X61841542Y-109922077D01*
X61861717Y-109881257D01*
X61938225Y-109726453D01*
X61938226Y-109726451D01*
X61940519Y-109721811D01*
X62005459Y-109508069D01*
X62034618Y-109286590D01*
X62036245Y-109220000D01*
X77426502Y-109220000D01*
X77446457Y-109448087D01*
X77447881Y-109453400D01*
X77447881Y-109453402D01*
X77495094Y-109629600D01*
X77505716Y-109669243D01*
X77508039Y-109674224D01*
X77508039Y-109674225D01*
X77600151Y-109871762D01*
X77600154Y-109871767D01*
X77602477Y-109876749D01*
X77605634Y-109881257D01*
X77709078Y-110028990D01*
X77733802Y-110064300D01*
X77895700Y-110226198D01*
X77900208Y-110229355D01*
X77900211Y-110229357D01*
X77940445Y-110257529D01*
X78083251Y-110357523D01*
X78088233Y-110359846D01*
X78088238Y-110359849D01*
X78260982Y-110440400D01*
X78290757Y-110454284D01*
X78296065Y-110455706D01*
X78296067Y-110455707D01*
X78506598Y-110512119D01*
X78506600Y-110512119D01*
X78511913Y-110513543D01*
X78740000Y-110533498D01*
X78968087Y-110513543D01*
X78973400Y-110512119D01*
X78973402Y-110512119D01*
X79183933Y-110455707D01*
X79183935Y-110455706D01*
X79189243Y-110454284D01*
X79219018Y-110440400D01*
X79391762Y-110359849D01*
X79391767Y-110359846D01*
X79396749Y-110357523D01*
X79539555Y-110257529D01*
X79579789Y-110229357D01*
X79579792Y-110229355D01*
X79584300Y-110226198D01*
X79746198Y-110064300D01*
X79770923Y-110028990D01*
X79874366Y-109881257D01*
X79877523Y-109876749D01*
X79879846Y-109871767D01*
X79879849Y-109871762D01*
X79895805Y-109837543D01*
X79942722Y-109784258D01*
X80010999Y-109764797D01*
X80078959Y-109785339D01*
X80124195Y-109837543D01*
X80140151Y-109871762D01*
X80140154Y-109871767D01*
X80142477Y-109876749D01*
X80145634Y-109881257D01*
X80249078Y-110028990D01*
X80273802Y-110064300D01*
X80435700Y-110226198D01*
X80440208Y-110229355D01*
X80440211Y-110229357D01*
X80480445Y-110257529D01*
X80623251Y-110357523D01*
X80628233Y-110359846D01*
X80628238Y-110359849D01*
X80800982Y-110440400D01*
X80830757Y-110454284D01*
X80836065Y-110455706D01*
X80836067Y-110455707D01*
X81046598Y-110512119D01*
X81046600Y-110512119D01*
X81051913Y-110513543D01*
X81280000Y-110533498D01*
X81508087Y-110513543D01*
X81513400Y-110512119D01*
X81513402Y-110512119D01*
X81723933Y-110455707D01*
X81723935Y-110455706D01*
X81729243Y-110454284D01*
X81759018Y-110440400D01*
X81931762Y-110359849D01*
X81931767Y-110359846D01*
X81936749Y-110357523D01*
X82079555Y-110257529D01*
X82119789Y-110229357D01*
X82119792Y-110229355D01*
X82124300Y-110226198D01*
X82286198Y-110064300D01*
X82310923Y-110028990D01*
X82414366Y-109881257D01*
X82417523Y-109876749D01*
X82419846Y-109871767D01*
X82419849Y-109871762D01*
X82511961Y-109674225D01*
X82511961Y-109674224D01*
X82514284Y-109669243D01*
X82524907Y-109629600D01*
X82572119Y-109453402D01*
X82572119Y-109453400D01*
X82573543Y-109448087D01*
X82593498Y-109220000D01*
X82573543Y-108991913D01*
X82572119Y-108986598D01*
X82515707Y-108776067D01*
X82515706Y-108776065D01*
X82514284Y-108770757D01*
X82497288Y-108734309D01*
X82419849Y-108568238D01*
X82419846Y-108568233D01*
X82417523Y-108563251D01*
X82328651Y-108436329D01*
X82289357Y-108380211D01*
X82289355Y-108380208D01*
X82286198Y-108375700D01*
X82124300Y-108213802D01*
X82119792Y-108210645D01*
X82119789Y-108210643D01*
X82041611Y-108155902D01*
X81936749Y-108082477D01*
X81931767Y-108080154D01*
X81931762Y-108080151D01*
X81897543Y-108064195D01*
X81844258Y-108017278D01*
X81824797Y-107949001D01*
X81845339Y-107881041D01*
X81897543Y-107835805D01*
X81931762Y-107819849D01*
X81931767Y-107819846D01*
X81936749Y-107817523D01*
X82105289Y-107699510D01*
X82119789Y-107689357D01*
X82119792Y-107689355D01*
X82124300Y-107686198D01*
X82286198Y-107524300D01*
X82310923Y-107488990D01*
X82389032Y-107377438D01*
X82417523Y-107336749D01*
X82419846Y-107331767D01*
X82419849Y-107331762D01*
X82511961Y-107134225D01*
X82511961Y-107134224D01*
X82514284Y-107129243D01*
X82524907Y-107089600D01*
X82572119Y-106913402D01*
X82572119Y-106913400D01*
X82573543Y-106908087D01*
X82593498Y-106680000D01*
X82906496Y-106680000D01*
X82907186Y-106686565D01*
X82913844Y-106749908D01*
X82926458Y-106869928D01*
X82985473Y-107051556D01*
X82988776Y-107057278D01*
X82988777Y-107057279D01*
X83007438Y-107089600D01*
X83080960Y-107216944D01*
X83085378Y-107221851D01*
X83085379Y-107221852D01*
X83154861Y-107299020D01*
X83208747Y-107358866D01*
X83363248Y-107471118D01*
X83369276Y-107473802D01*
X83369278Y-107473803D01*
X83394625Y-107485088D01*
X83537712Y-107548794D01*
X83624009Y-107567137D01*
X83718056Y-107587128D01*
X83718061Y-107587128D01*
X83724513Y-107588500D01*
X83915487Y-107588500D01*
X83921939Y-107587128D01*
X83921944Y-107587128D01*
X84015991Y-107567137D01*
X84102288Y-107548794D01*
X84245375Y-107485088D01*
X84270722Y-107473803D01*
X84270724Y-107473802D01*
X84276752Y-107471118D01*
X84431253Y-107358866D01*
X84485139Y-107299020D01*
X84554621Y-107221852D01*
X84554622Y-107221851D01*
X84559040Y-107216944D01*
X84632562Y-107089600D01*
X84651223Y-107057279D01*
X84651224Y-107057278D01*
X84654527Y-107051556D01*
X84713542Y-106869928D01*
X84726157Y-106749908D01*
X84732814Y-106686565D01*
X84733504Y-106680000D01*
X92666502Y-106680000D01*
X92686457Y-106908087D01*
X92687881Y-106913400D01*
X92687881Y-106913402D01*
X92735094Y-107089600D01*
X92745716Y-107129243D01*
X92748039Y-107134224D01*
X92748039Y-107134225D01*
X92840151Y-107331762D01*
X92840154Y-107331767D01*
X92842477Y-107336749D01*
X92870968Y-107377438D01*
X92949078Y-107488990D01*
X92973802Y-107524300D01*
X93135700Y-107686198D01*
X93140211Y-107689357D01*
X93144424Y-107692892D01*
X93143473Y-107694026D01*
X93183471Y-107744071D01*
X93190776Y-107814690D01*
X93158742Y-107878049D01*
X93097538Y-107914030D01*
X93080483Y-107917082D01*
X93069684Y-107918255D01*
X92933295Y-107969385D01*
X92816739Y-108056739D01*
X92729385Y-108173295D01*
X92678255Y-108309684D01*
X92671500Y-108371866D01*
X92671500Y-110068134D01*
X92678255Y-110130316D01*
X92729385Y-110266705D01*
X92816739Y-110383261D01*
X92933295Y-110470615D01*
X93069684Y-110521745D01*
X93131866Y-110528500D01*
X94828134Y-110528500D01*
X94890316Y-110521745D01*
X95026705Y-110470615D01*
X95143261Y-110383261D01*
X95149174Y-110375372D01*
X95149878Y-110374845D01*
X95154992Y-110369731D01*
X95155730Y-110370469D01*
X95206031Y-110332857D01*
X95276849Y-110327830D01*
X95339143Y-110361888D01*
X95350823Y-110375367D01*
X95356739Y-110383261D01*
X95473295Y-110470615D01*
X95609684Y-110521745D01*
X95671866Y-110528500D01*
X97368134Y-110528500D01*
X97430316Y-110521745D01*
X97566705Y-110470615D01*
X97683261Y-110383261D01*
X97770615Y-110266705D01*
X97821745Y-110130316D01*
X97828500Y-110068134D01*
X97828500Y-108371866D01*
X97821745Y-108309684D01*
X97770615Y-108173295D01*
X97683261Y-108056739D01*
X97566705Y-107969385D01*
X97430316Y-107918255D01*
X97419526Y-107917083D01*
X97417394Y-107916197D01*
X97414778Y-107915575D01*
X97414879Y-107915152D01*
X97353965Y-107889845D01*
X97313537Y-107831483D01*
X97311078Y-107760529D01*
X97347371Y-107699510D01*
X97356031Y-107692511D01*
X97359793Y-107689354D01*
X97364300Y-107686198D01*
X97526198Y-107524300D01*
X97550923Y-107488990D01*
X97629032Y-107377438D01*
X97657523Y-107336749D01*
X97659846Y-107331767D01*
X97659849Y-107331762D01*
X97751961Y-107134225D01*
X97751961Y-107134224D01*
X97754284Y-107129243D01*
X97764907Y-107089600D01*
X97812119Y-106913402D01*
X97812119Y-106913400D01*
X97813543Y-106908087D01*
X97833498Y-106680000D01*
X97813543Y-106451913D01*
X97812119Y-106446598D01*
X97755707Y-106236067D01*
X97755706Y-106236065D01*
X97754284Y-106230757D01*
X97737288Y-106194309D01*
X97659849Y-106028238D01*
X97659846Y-106028233D01*
X97657523Y-106023251D01*
X97563437Y-105888882D01*
X97529357Y-105840211D01*
X97529355Y-105840208D01*
X97526198Y-105835700D01*
X97364300Y-105673802D01*
X97359792Y-105670645D01*
X97359789Y-105670643D01*
X97281611Y-105615902D01*
X97176749Y-105542477D01*
X97171767Y-105540154D01*
X97171762Y-105540151D01*
X97137543Y-105524195D01*
X97084258Y-105477278D01*
X97064797Y-105409001D01*
X97085339Y-105341041D01*
X97137543Y-105295805D01*
X97171762Y-105279849D01*
X97171767Y-105279846D01*
X97176749Y-105277523D01*
X97305409Y-105187434D01*
X97359789Y-105149357D01*
X97359792Y-105149355D01*
X97364300Y-105146198D01*
X97526198Y-104984300D01*
X97657523Y-104796749D01*
X97659846Y-104791767D01*
X97659849Y-104791762D01*
X97751961Y-104594225D01*
X97751961Y-104594224D01*
X97754284Y-104589243D01*
X97764907Y-104549600D01*
X97812119Y-104373402D01*
X97812119Y-104373400D01*
X97813543Y-104368087D01*
X97833498Y-104140000D01*
X97813543Y-103911913D01*
X97796377Y-103847848D01*
X97755707Y-103696067D01*
X97755706Y-103696065D01*
X97754284Y-103690757D01*
X97683250Y-103538423D01*
X97659849Y-103488238D01*
X97659846Y-103488233D01*
X97657523Y-103483251D01*
X97526198Y-103295700D01*
X97364300Y-103133802D01*
X97359792Y-103130645D01*
X97359789Y-103130643D01*
X97268963Y-103067046D01*
X97176749Y-103002477D01*
X97171767Y-103000154D01*
X97171762Y-103000151D01*
X97137543Y-102984195D01*
X97084258Y-102937278D01*
X97064797Y-102869001D01*
X97085339Y-102801041D01*
X97137543Y-102755805D01*
X97171762Y-102739849D01*
X97171767Y-102739846D01*
X97176749Y-102737523D01*
X97299558Y-102651531D01*
X97359789Y-102609357D01*
X97359792Y-102609355D01*
X97364300Y-102606198D01*
X97526198Y-102444300D01*
X97657523Y-102256749D01*
X97659846Y-102251767D01*
X97659849Y-102251762D01*
X97751961Y-102054225D01*
X97751961Y-102054224D01*
X97754284Y-102049243D01*
X97802858Y-101867966D01*
X97812119Y-101833402D01*
X97812119Y-101833400D01*
X97813543Y-101828087D01*
X97833498Y-101600000D01*
X97813543Y-101371913D01*
X97805829Y-101343124D01*
X97755707Y-101156067D01*
X97755706Y-101156065D01*
X97754284Y-101150757D01*
X97665713Y-100960814D01*
X97659849Y-100948238D01*
X97659846Y-100948233D01*
X97657523Y-100943251D01*
X97526198Y-100755700D01*
X97364300Y-100593802D01*
X97359792Y-100590645D01*
X97359789Y-100590643D01*
X97226824Y-100497540D01*
X97176749Y-100462477D01*
X97171767Y-100460154D01*
X97171762Y-100460151D01*
X97137543Y-100444195D01*
X97084258Y-100397278D01*
X97064797Y-100329001D01*
X97085339Y-100261041D01*
X97137543Y-100215805D01*
X97171762Y-100199849D01*
X97171767Y-100199846D01*
X97176749Y-100197523D01*
X97310069Y-100104171D01*
X97359789Y-100069357D01*
X97359792Y-100069355D01*
X97364300Y-100066198D01*
X97526198Y-99904300D01*
X97550923Y-99868990D01*
X97625784Y-99762077D01*
X97657523Y-99716749D01*
X97659846Y-99711767D01*
X97659849Y-99711762D01*
X97751961Y-99514225D01*
X97751961Y-99514224D01*
X97754284Y-99509243D01*
X97798846Y-99342939D01*
X97812119Y-99293402D01*
X97812119Y-99293400D01*
X97813543Y-99288087D01*
X97833498Y-99060000D01*
X97813543Y-98831913D01*
X97806600Y-98806000D01*
X97755707Y-98616067D01*
X97755706Y-98616065D01*
X97754284Y-98610757D01*
X97675805Y-98442457D01*
X97659849Y-98408238D01*
X97659846Y-98408233D01*
X97657523Y-98403251D01*
X97538260Y-98232926D01*
X97529357Y-98220211D01*
X97529355Y-98220208D01*
X97526198Y-98215700D01*
X97364300Y-98053802D01*
X97359792Y-98050645D01*
X97359789Y-98050643D01*
X97281611Y-97995902D01*
X97176749Y-97922477D01*
X97171767Y-97920154D01*
X97171762Y-97920151D01*
X97137543Y-97904195D01*
X97084258Y-97857278D01*
X97064797Y-97789001D01*
X97085339Y-97721041D01*
X97137543Y-97675805D01*
X97171762Y-97659849D01*
X97171767Y-97659846D01*
X97176749Y-97657523D01*
X97281611Y-97584098D01*
X97359789Y-97529357D01*
X97359792Y-97529355D01*
X97364300Y-97526198D01*
X97526198Y-97364300D01*
X97657523Y-97176749D01*
X97659846Y-97171767D01*
X97659849Y-97171762D01*
X97751961Y-96974225D01*
X97751961Y-96974224D01*
X97754284Y-96969243D01*
X97802858Y-96787966D01*
X97812119Y-96753402D01*
X97812119Y-96753400D01*
X97813543Y-96748087D01*
X97833498Y-96520000D01*
X97813543Y-96291913D01*
X97805829Y-96263124D01*
X97755707Y-96076067D01*
X97755706Y-96076065D01*
X97754284Y-96070757D01*
X97745727Y-96052406D01*
X97659849Y-95868238D01*
X97659846Y-95868233D01*
X97657523Y-95863251D01*
X97526198Y-95675700D01*
X97364300Y-95513802D01*
X97359792Y-95510645D01*
X97359789Y-95510643D01*
X97268644Y-95446823D01*
X97176749Y-95382477D01*
X97171767Y-95380154D01*
X97171762Y-95380151D01*
X97137543Y-95364195D01*
X97084258Y-95317278D01*
X97064797Y-95249001D01*
X97085339Y-95181041D01*
X97137543Y-95135805D01*
X97171762Y-95119849D01*
X97171767Y-95119846D01*
X97176749Y-95117523D01*
X97310069Y-95024171D01*
X97359789Y-94989357D01*
X97359792Y-94989355D01*
X97364300Y-94986198D01*
X97526198Y-94824300D01*
X97550923Y-94788990D01*
X97625784Y-94682077D01*
X97657523Y-94636749D01*
X97659846Y-94631767D01*
X97659849Y-94631762D01*
X97751961Y-94434225D01*
X97751961Y-94434224D01*
X97754284Y-94429243D01*
X97798846Y-94262939D01*
X97812119Y-94213402D01*
X97812119Y-94213400D01*
X97813543Y-94208087D01*
X97833498Y-93980000D01*
X97813543Y-93751913D01*
X97806600Y-93726000D01*
X97755707Y-93536067D01*
X97755706Y-93536065D01*
X97754284Y-93530757D01*
X97675805Y-93362457D01*
X97659849Y-93328238D01*
X97659846Y-93328233D01*
X97657523Y-93323251D01*
X97538260Y-93152926D01*
X97529357Y-93140211D01*
X97529355Y-93140208D01*
X97526198Y-93135700D01*
X97364300Y-92973802D01*
X97359792Y-92970645D01*
X97359789Y-92970643D01*
X97281611Y-92915902D01*
X97176749Y-92842477D01*
X97171767Y-92840154D01*
X97171762Y-92840151D01*
X97137543Y-92824195D01*
X97084258Y-92777278D01*
X97064797Y-92709001D01*
X97085339Y-92641041D01*
X97137543Y-92595805D01*
X97171762Y-92579849D01*
X97171767Y-92579846D01*
X97176749Y-92577523D01*
X97310069Y-92484171D01*
X97359789Y-92449357D01*
X97359792Y-92449355D01*
X97364300Y-92446198D01*
X97526198Y-92284300D01*
X97550923Y-92248990D01*
X97625784Y-92142077D01*
X97657523Y-92096749D01*
X97659846Y-92091767D01*
X97659849Y-92091762D01*
X97751961Y-91894225D01*
X97751961Y-91894224D01*
X97754284Y-91889243D01*
X97798846Y-91722939D01*
X97812119Y-91673402D01*
X97812119Y-91673400D01*
X97813543Y-91668087D01*
X97833498Y-91440000D01*
X97813543Y-91211913D01*
X97806600Y-91186000D01*
X97755707Y-90996067D01*
X97755706Y-90996065D01*
X97754284Y-90990757D01*
X97675805Y-90822457D01*
X97659849Y-90788238D01*
X97659846Y-90788233D01*
X97657523Y-90783251D01*
X97538260Y-90612926D01*
X97529357Y-90600211D01*
X97529355Y-90600208D01*
X97526198Y-90595700D01*
X97364300Y-90433802D01*
X97359792Y-90430645D01*
X97359789Y-90430643D01*
X97224780Y-90336109D01*
X97176749Y-90302477D01*
X97171767Y-90300154D01*
X97171762Y-90300151D01*
X97137543Y-90284195D01*
X97084258Y-90237278D01*
X97064797Y-90169001D01*
X97085339Y-90101041D01*
X97137543Y-90055805D01*
X97171762Y-90039849D01*
X97171767Y-90039846D01*
X97176749Y-90037523D01*
X97310069Y-89944171D01*
X97359789Y-89909357D01*
X97359792Y-89909355D01*
X97364300Y-89906198D01*
X97526198Y-89744300D01*
X97550923Y-89708990D01*
X97625784Y-89602077D01*
X97657523Y-89556749D01*
X97659846Y-89551767D01*
X97659849Y-89551762D01*
X97751961Y-89354225D01*
X97751961Y-89354224D01*
X97754284Y-89349243D01*
X97798846Y-89182939D01*
X97812119Y-89133402D01*
X97812119Y-89133400D01*
X97813543Y-89128087D01*
X97833498Y-88900000D01*
X97813543Y-88671913D01*
X97806600Y-88646000D01*
X97755707Y-88456067D01*
X97755706Y-88456065D01*
X97754284Y-88450757D01*
X97675805Y-88282457D01*
X97659849Y-88248238D01*
X97659846Y-88248233D01*
X97657523Y-88243251D01*
X97538260Y-88072926D01*
X97529357Y-88060211D01*
X97529355Y-88060208D01*
X97526198Y-88055700D01*
X97364300Y-87893802D01*
X97359792Y-87890645D01*
X97359789Y-87890643D01*
X97281611Y-87835902D01*
X97176749Y-87762477D01*
X97171767Y-87760154D01*
X97171762Y-87760151D01*
X97137543Y-87744195D01*
X97084258Y-87697278D01*
X97064797Y-87629001D01*
X97085339Y-87561041D01*
X97137543Y-87515805D01*
X97171762Y-87499849D01*
X97171767Y-87499846D01*
X97176749Y-87497523D01*
X97310069Y-87404171D01*
X97359789Y-87369357D01*
X97359792Y-87369355D01*
X97364300Y-87366198D01*
X97526198Y-87204300D01*
X97550923Y-87168990D01*
X97625784Y-87062077D01*
X97657523Y-87016749D01*
X97659846Y-87011767D01*
X97659849Y-87011762D01*
X97751961Y-86814225D01*
X97751961Y-86814224D01*
X97754284Y-86809243D01*
X97798846Y-86642939D01*
X97812119Y-86593402D01*
X97812119Y-86593400D01*
X97813543Y-86588087D01*
X97833498Y-86360000D01*
X97813543Y-86131913D01*
X97806600Y-86106000D01*
X97755707Y-85916067D01*
X97755706Y-85916065D01*
X97754284Y-85910757D01*
X97675805Y-85742457D01*
X97659849Y-85708238D01*
X97659846Y-85708233D01*
X97657523Y-85703251D01*
X97538260Y-85532926D01*
X97529357Y-85520211D01*
X97529355Y-85520208D01*
X97526198Y-85515700D01*
X97364300Y-85353802D01*
X97359792Y-85350645D01*
X97359789Y-85350643D01*
X97281611Y-85295902D01*
X97176749Y-85222477D01*
X97171767Y-85220154D01*
X97171762Y-85220151D01*
X97136951Y-85203919D01*
X97083666Y-85157002D01*
X97064205Y-85088725D01*
X97084747Y-85020765D01*
X97136951Y-84975529D01*
X97171511Y-84959414D01*
X97181007Y-84953931D01*
X97359467Y-84828972D01*
X97367875Y-84821916D01*
X97521916Y-84667875D01*
X97528972Y-84659467D01*
X97653931Y-84481007D01*
X97659414Y-84471511D01*
X97751490Y-84274053D01*
X97755236Y-84263761D01*
X97801394Y-84091497D01*
X97801058Y-84077401D01*
X97793116Y-84074000D01*
X92712033Y-84074000D01*
X92698502Y-84077973D01*
X92697273Y-84086522D01*
X92744764Y-84263761D01*
X92748510Y-84274053D01*
X92840586Y-84471511D01*
X92846069Y-84481007D01*
X92971028Y-84659467D01*
X92978084Y-84667875D01*
X93132125Y-84821916D01*
X93140533Y-84828972D01*
X93318993Y-84953931D01*
X93328489Y-84959414D01*
X93363049Y-84975529D01*
X93416334Y-85022446D01*
X93435795Y-85090723D01*
X93415253Y-85158683D01*
X93363049Y-85203919D01*
X93328238Y-85220151D01*
X93328233Y-85220154D01*
X93323251Y-85222477D01*
X93218389Y-85295902D01*
X93140211Y-85350643D01*
X93140208Y-85350645D01*
X93135700Y-85353802D01*
X92973802Y-85515700D01*
X92970645Y-85520208D01*
X92970643Y-85520211D01*
X92961740Y-85532926D01*
X92842477Y-85703251D01*
X92840154Y-85708233D01*
X92840151Y-85708238D01*
X92824195Y-85742457D01*
X92745716Y-85910757D01*
X92744294Y-85916065D01*
X92744293Y-85916067D01*
X92693400Y-86106000D01*
X92686457Y-86131913D01*
X92666502Y-86360000D01*
X92686457Y-86588087D01*
X92687881Y-86593400D01*
X92687881Y-86593402D01*
X92701155Y-86642939D01*
X92745716Y-86809243D01*
X92748039Y-86814224D01*
X92748039Y-86814225D01*
X92840151Y-87011762D01*
X92840154Y-87011767D01*
X92842477Y-87016749D01*
X92874216Y-87062077D01*
X92949078Y-87168990D01*
X92973802Y-87204300D01*
X93135700Y-87366198D01*
X93140208Y-87369355D01*
X93140211Y-87369357D01*
X93189931Y-87404171D01*
X93323251Y-87497523D01*
X93328233Y-87499846D01*
X93328238Y-87499849D01*
X93362457Y-87515805D01*
X93415742Y-87562722D01*
X93435203Y-87630999D01*
X93414661Y-87698959D01*
X93362457Y-87744195D01*
X93328238Y-87760151D01*
X93328233Y-87760154D01*
X93323251Y-87762477D01*
X93218389Y-87835902D01*
X93140211Y-87890643D01*
X93140208Y-87890645D01*
X93135700Y-87893802D01*
X92973802Y-88055700D01*
X92970645Y-88060208D01*
X92970643Y-88060211D01*
X92961740Y-88072926D01*
X92842477Y-88243251D01*
X92840154Y-88248233D01*
X92840151Y-88248238D01*
X92824195Y-88282457D01*
X92745716Y-88450757D01*
X92744294Y-88456065D01*
X92744293Y-88456067D01*
X92693400Y-88646000D01*
X92686457Y-88671913D01*
X92666502Y-88900000D01*
X92686457Y-89128087D01*
X92687881Y-89133400D01*
X92687881Y-89133402D01*
X92701155Y-89182939D01*
X92745716Y-89349243D01*
X92748039Y-89354224D01*
X92748039Y-89354225D01*
X92840151Y-89551762D01*
X92840154Y-89551767D01*
X92842477Y-89556749D01*
X92874216Y-89602077D01*
X92949078Y-89708990D01*
X92973802Y-89744300D01*
X93135700Y-89906198D01*
X93140208Y-89909355D01*
X93140211Y-89909357D01*
X93189931Y-89944171D01*
X93323251Y-90037523D01*
X93328233Y-90039846D01*
X93328238Y-90039849D01*
X93362457Y-90055805D01*
X93415742Y-90102722D01*
X93435203Y-90170999D01*
X93414661Y-90238959D01*
X93362457Y-90284195D01*
X93328238Y-90300151D01*
X93328233Y-90300154D01*
X93323251Y-90302477D01*
X93275220Y-90336109D01*
X93140211Y-90430643D01*
X93140208Y-90430645D01*
X93135700Y-90433802D01*
X92973802Y-90595700D01*
X92970645Y-90600208D01*
X92970643Y-90600211D01*
X92961740Y-90612926D01*
X92842477Y-90783251D01*
X92840154Y-90788233D01*
X92840151Y-90788238D01*
X92824195Y-90822457D01*
X92745716Y-90990757D01*
X92744294Y-90996065D01*
X92744293Y-90996067D01*
X92693400Y-91186000D01*
X92686457Y-91211913D01*
X92666502Y-91440000D01*
X92686457Y-91668087D01*
X92687881Y-91673400D01*
X92687881Y-91673402D01*
X92701155Y-91722939D01*
X92745716Y-91889243D01*
X92748039Y-91894224D01*
X92748039Y-91894225D01*
X92840151Y-92091762D01*
X92840154Y-92091767D01*
X92842477Y-92096749D01*
X92874216Y-92142077D01*
X92949078Y-92248990D01*
X92973802Y-92284300D01*
X93135700Y-92446198D01*
X93140208Y-92449355D01*
X93140211Y-92449357D01*
X93189931Y-92484171D01*
X93323251Y-92577523D01*
X93328233Y-92579846D01*
X93328238Y-92579849D01*
X93362457Y-92595805D01*
X93415742Y-92642722D01*
X93435203Y-92710999D01*
X93414661Y-92778959D01*
X93362457Y-92824195D01*
X93328238Y-92840151D01*
X93328233Y-92840154D01*
X93323251Y-92842477D01*
X93218389Y-92915902D01*
X93140211Y-92970643D01*
X93140208Y-92970645D01*
X93135700Y-92973802D01*
X92973802Y-93135700D01*
X92970645Y-93140208D01*
X92970643Y-93140211D01*
X92961740Y-93152926D01*
X92842477Y-93323251D01*
X92840154Y-93328233D01*
X92840151Y-93328238D01*
X92824195Y-93362457D01*
X92745716Y-93530757D01*
X92744294Y-93536065D01*
X92744293Y-93536067D01*
X92693400Y-93726000D01*
X92686457Y-93751913D01*
X92666502Y-93980000D01*
X92686457Y-94208087D01*
X92687881Y-94213400D01*
X92687881Y-94213402D01*
X92701155Y-94262939D01*
X92745716Y-94429243D01*
X92748039Y-94434224D01*
X92748039Y-94434225D01*
X92840151Y-94631762D01*
X92840154Y-94631767D01*
X92842477Y-94636749D01*
X92874216Y-94682077D01*
X92949078Y-94788990D01*
X92973802Y-94824300D01*
X93135700Y-94986198D01*
X93140208Y-94989355D01*
X93140211Y-94989357D01*
X93189931Y-95024171D01*
X93323251Y-95117523D01*
X93328233Y-95119846D01*
X93328238Y-95119849D01*
X93362457Y-95135805D01*
X93415742Y-95182722D01*
X93435203Y-95250999D01*
X93414661Y-95318959D01*
X93362457Y-95364195D01*
X93328238Y-95380151D01*
X93328233Y-95380154D01*
X93323251Y-95382477D01*
X93231356Y-95446823D01*
X93140211Y-95510643D01*
X93140208Y-95510645D01*
X93135700Y-95513802D01*
X92973802Y-95675700D01*
X92842477Y-95863251D01*
X92840154Y-95868233D01*
X92840151Y-95868238D01*
X92754273Y-96052406D01*
X92745716Y-96070757D01*
X92744294Y-96076065D01*
X92744293Y-96076067D01*
X92694171Y-96263124D01*
X92686457Y-96291913D01*
X92666502Y-96520000D01*
X92686457Y-96748087D01*
X92687881Y-96753400D01*
X92687881Y-96753402D01*
X92697143Y-96787966D01*
X92745716Y-96969243D01*
X92748039Y-96974224D01*
X92748039Y-96974225D01*
X92840151Y-97171762D01*
X92840154Y-97171767D01*
X92842477Y-97176749D01*
X92973802Y-97364300D01*
X93135700Y-97526198D01*
X93140208Y-97529355D01*
X93140211Y-97529357D01*
X93218389Y-97584098D01*
X93323251Y-97657523D01*
X93328233Y-97659846D01*
X93328238Y-97659849D01*
X93362457Y-97675805D01*
X93415742Y-97722722D01*
X93435203Y-97790999D01*
X93414661Y-97858959D01*
X93362457Y-97904195D01*
X93328238Y-97920151D01*
X93328233Y-97920154D01*
X93323251Y-97922477D01*
X93218389Y-97995902D01*
X93140211Y-98050643D01*
X93140208Y-98050645D01*
X93135700Y-98053802D01*
X92973802Y-98215700D01*
X92970645Y-98220208D01*
X92970643Y-98220211D01*
X92961740Y-98232926D01*
X92842477Y-98403251D01*
X92840154Y-98408233D01*
X92840151Y-98408238D01*
X92824195Y-98442457D01*
X92745716Y-98610757D01*
X92744294Y-98616065D01*
X92744293Y-98616067D01*
X92693400Y-98806000D01*
X92686457Y-98831913D01*
X92666502Y-99060000D01*
X92686457Y-99288087D01*
X92687881Y-99293400D01*
X92687881Y-99293402D01*
X92701155Y-99342939D01*
X92745716Y-99509243D01*
X92748039Y-99514224D01*
X92748039Y-99514225D01*
X92840151Y-99711762D01*
X92840154Y-99711767D01*
X92842477Y-99716749D01*
X92874216Y-99762077D01*
X92949078Y-99868990D01*
X92973802Y-99904300D01*
X93135700Y-100066198D01*
X93140208Y-100069355D01*
X93140211Y-100069357D01*
X93189931Y-100104171D01*
X93323251Y-100197523D01*
X93328233Y-100199846D01*
X93328238Y-100199849D01*
X93362457Y-100215805D01*
X93415742Y-100262722D01*
X93435203Y-100330999D01*
X93414661Y-100398959D01*
X93362457Y-100444195D01*
X93328238Y-100460151D01*
X93328233Y-100460154D01*
X93323251Y-100462477D01*
X93273176Y-100497540D01*
X93140211Y-100590643D01*
X93140208Y-100590645D01*
X93135700Y-100593802D01*
X92973802Y-100755700D01*
X92842477Y-100943251D01*
X92840154Y-100948233D01*
X92840151Y-100948238D01*
X92834287Y-100960814D01*
X92745716Y-101150757D01*
X92744294Y-101156065D01*
X92744293Y-101156067D01*
X92694171Y-101343124D01*
X92686457Y-101371913D01*
X92666502Y-101600000D01*
X92686457Y-101828087D01*
X92687881Y-101833400D01*
X92687881Y-101833402D01*
X92697143Y-101867966D01*
X92745716Y-102049243D01*
X92748039Y-102054224D01*
X92748039Y-102054225D01*
X92840151Y-102251762D01*
X92840154Y-102251767D01*
X92842477Y-102256749D01*
X92973802Y-102444300D01*
X93135700Y-102606198D01*
X93140208Y-102609355D01*
X93140211Y-102609357D01*
X93200442Y-102651531D01*
X93323251Y-102737523D01*
X93328233Y-102739846D01*
X93328238Y-102739849D01*
X93362457Y-102755805D01*
X93415742Y-102802722D01*
X93435203Y-102870999D01*
X93414661Y-102938959D01*
X93362457Y-102984195D01*
X93328238Y-103000151D01*
X93328233Y-103000154D01*
X93323251Y-103002477D01*
X93231037Y-103067046D01*
X93140211Y-103130643D01*
X93140208Y-103130645D01*
X93135700Y-103133802D01*
X92973802Y-103295700D01*
X92842477Y-103483251D01*
X92840154Y-103488233D01*
X92840151Y-103488238D01*
X92816750Y-103538423D01*
X92745716Y-103690757D01*
X92744294Y-103696065D01*
X92744293Y-103696067D01*
X92703623Y-103847848D01*
X92686457Y-103911913D01*
X92666502Y-104140000D01*
X92686457Y-104368087D01*
X92687881Y-104373400D01*
X92687881Y-104373402D01*
X92735094Y-104549600D01*
X92745716Y-104589243D01*
X92748039Y-104594224D01*
X92748039Y-104594225D01*
X92840151Y-104791762D01*
X92840154Y-104791767D01*
X92842477Y-104796749D01*
X92973802Y-104984300D01*
X93135700Y-105146198D01*
X93140208Y-105149355D01*
X93140211Y-105149357D01*
X93194591Y-105187434D01*
X93323251Y-105277523D01*
X93328233Y-105279846D01*
X93328238Y-105279849D01*
X93362457Y-105295805D01*
X93415742Y-105342722D01*
X93435203Y-105410999D01*
X93414661Y-105478959D01*
X93362457Y-105524195D01*
X93328238Y-105540151D01*
X93328233Y-105540154D01*
X93323251Y-105542477D01*
X93218389Y-105615902D01*
X93140211Y-105670643D01*
X93140208Y-105670645D01*
X93135700Y-105673802D01*
X92973802Y-105835700D01*
X92970645Y-105840208D01*
X92970643Y-105840211D01*
X92936563Y-105888882D01*
X92842477Y-106023251D01*
X92840154Y-106028233D01*
X92840151Y-106028238D01*
X92762712Y-106194309D01*
X92745716Y-106230757D01*
X92744294Y-106236065D01*
X92744293Y-106236067D01*
X92687881Y-106446598D01*
X92686457Y-106451913D01*
X92666502Y-106680000D01*
X84733504Y-106680000D01*
X84713542Y-106490072D01*
X84654527Y-106308444D01*
X84559040Y-106143056D01*
X84534447Y-106115742D01*
X84435675Y-106006045D01*
X84435674Y-106006044D01*
X84431253Y-106001134D01*
X84276752Y-105888882D01*
X84270724Y-105886198D01*
X84270722Y-105886197D01*
X84108319Y-105813891D01*
X84108318Y-105813891D01*
X84102288Y-105811206D01*
X84008888Y-105791353D01*
X83921944Y-105772872D01*
X83921939Y-105772872D01*
X83915487Y-105771500D01*
X83724513Y-105771500D01*
X83718061Y-105772872D01*
X83718056Y-105772872D01*
X83631113Y-105791353D01*
X83537712Y-105811206D01*
X83531682Y-105813891D01*
X83531681Y-105813891D01*
X83369278Y-105886197D01*
X83369276Y-105886198D01*
X83363248Y-105888882D01*
X83208747Y-106001134D01*
X83204326Y-106006044D01*
X83204325Y-106006045D01*
X83105554Y-106115742D01*
X83080960Y-106143056D01*
X82985473Y-106308444D01*
X82926458Y-106490072D01*
X82906496Y-106680000D01*
X82593498Y-106680000D01*
X82573543Y-106451913D01*
X82572119Y-106446598D01*
X82515707Y-106236067D01*
X82515706Y-106236065D01*
X82514284Y-106230757D01*
X82497288Y-106194309D01*
X82419849Y-106028238D01*
X82419846Y-106028233D01*
X82417523Y-106023251D01*
X82323437Y-105888882D01*
X82289357Y-105840211D01*
X82289355Y-105840208D01*
X82286198Y-105835700D01*
X82124300Y-105673802D01*
X82119792Y-105670645D01*
X82119789Y-105670643D01*
X82041611Y-105615902D01*
X81936749Y-105542477D01*
X81931767Y-105540154D01*
X81931762Y-105540151D01*
X81897543Y-105524195D01*
X81844258Y-105477278D01*
X81824797Y-105409001D01*
X81845339Y-105341041D01*
X81897543Y-105295805D01*
X81931762Y-105279849D01*
X81931767Y-105279846D01*
X81936749Y-105277523D01*
X82065409Y-105187434D01*
X82119789Y-105149357D01*
X82119792Y-105149355D01*
X82124300Y-105146198D01*
X82286198Y-104984300D01*
X82417523Y-104796749D01*
X82419846Y-104791767D01*
X82419849Y-104791762D01*
X82511961Y-104594225D01*
X82511961Y-104594224D01*
X82514284Y-104589243D01*
X82524907Y-104549600D01*
X82572119Y-104373402D01*
X82572119Y-104373400D01*
X82573543Y-104368087D01*
X82593498Y-104140000D01*
X82573543Y-103911913D01*
X82556377Y-103847848D01*
X82515707Y-103696067D01*
X82515706Y-103696065D01*
X82514284Y-103690757D01*
X82443250Y-103538423D01*
X82419849Y-103488238D01*
X82419846Y-103488233D01*
X82417523Y-103483251D01*
X82286198Y-103295700D01*
X82124300Y-103133802D01*
X82119792Y-103130645D01*
X82119789Y-103130643D01*
X82028963Y-103067046D01*
X81936749Y-103002477D01*
X81931767Y-103000154D01*
X81931762Y-103000151D01*
X81897543Y-102984195D01*
X81844258Y-102937278D01*
X81824797Y-102869001D01*
X81845339Y-102801041D01*
X81897543Y-102755805D01*
X81931762Y-102739849D01*
X81931767Y-102739846D01*
X81936749Y-102737523D01*
X82059558Y-102651531D01*
X82119789Y-102609357D01*
X82119792Y-102609355D01*
X82124300Y-102606198D01*
X82286198Y-102444300D01*
X82417523Y-102256749D01*
X82419846Y-102251767D01*
X82419849Y-102251762D01*
X82511961Y-102054225D01*
X82511961Y-102054224D01*
X82514284Y-102049243D01*
X82562858Y-101867966D01*
X82572119Y-101833402D01*
X82572119Y-101833400D01*
X82573543Y-101828087D01*
X82593498Y-101600000D01*
X82573543Y-101371913D01*
X82565829Y-101343124D01*
X82515707Y-101156067D01*
X82515706Y-101156065D01*
X82514284Y-101150757D01*
X82425713Y-100960814D01*
X82419849Y-100948238D01*
X82419846Y-100948233D01*
X82417523Y-100943251D01*
X82286198Y-100755700D01*
X82124300Y-100593802D01*
X82119792Y-100590645D01*
X82119789Y-100590643D01*
X81986824Y-100497540D01*
X81936749Y-100462477D01*
X81931767Y-100460154D01*
X81931762Y-100460151D01*
X81897543Y-100444195D01*
X81844258Y-100397278D01*
X81824797Y-100329001D01*
X81845339Y-100261041D01*
X81897543Y-100215805D01*
X81931762Y-100199849D01*
X81931767Y-100199846D01*
X81936749Y-100197523D01*
X82070069Y-100104171D01*
X82119789Y-100069357D01*
X82119792Y-100069355D01*
X82124300Y-100066198D01*
X82286198Y-99904300D01*
X82310923Y-99868990D01*
X82385784Y-99762077D01*
X82417523Y-99716749D01*
X82419846Y-99711767D01*
X82419849Y-99711762D01*
X82511961Y-99514225D01*
X82511961Y-99514224D01*
X82514284Y-99509243D01*
X82558846Y-99342939D01*
X82572119Y-99293402D01*
X82572119Y-99293400D01*
X82573543Y-99288087D01*
X82593498Y-99060000D01*
X82573543Y-98831913D01*
X82566600Y-98806000D01*
X82515707Y-98616067D01*
X82515706Y-98616065D01*
X82514284Y-98610757D01*
X82435805Y-98442457D01*
X82419849Y-98408238D01*
X82419846Y-98408233D01*
X82417523Y-98403251D01*
X82298260Y-98232926D01*
X82289357Y-98220211D01*
X82289355Y-98220208D01*
X82286198Y-98215700D01*
X82124300Y-98053802D01*
X82119792Y-98050645D01*
X82119789Y-98050643D01*
X82041611Y-97995902D01*
X81936749Y-97922477D01*
X81931767Y-97920154D01*
X81931762Y-97920151D01*
X81897543Y-97904195D01*
X81844258Y-97857278D01*
X81824797Y-97789001D01*
X81845339Y-97721041D01*
X81897543Y-97675805D01*
X81931762Y-97659849D01*
X81931767Y-97659846D01*
X81936749Y-97657523D01*
X82041611Y-97584098D01*
X82119789Y-97529357D01*
X82119792Y-97529355D01*
X82124300Y-97526198D01*
X82286198Y-97364300D01*
X82417523Y-97176749D01*
X82419846Y-97171767D01*
X82419849Y-97171762D01*
X82511961Y-96974225D01*
X82511961Y-96974224D01*
X82514284Y-96969243D01*
X82562858Y-96787966D01*
X82572119Y-96753402D01*
X82572119Y-96753400D01*
X82573543Y-96748087D01*
X82593498Y-96520000D01*
X82573543Y-96291913D01*
X82565829Y-96263124D01*
X82515707Y-96076067D01*
X82515706Y-96076065D01*
X82514284Y-96070757D01*
X82505727Y-96052406D01*
X82419849Y-95868238D01*
X82419846Y-95868233D01*
X82417523Y-95863251D01*
X82286198Y-95675700D01*
X82124300Y-95513802D01*
X82119792Y-95510645D01*
X82119789Y-95510643D01*
X82028644Y-95446823D01*
X81936749Y-95382477D01*
X81931767Y-95380154D01*
X81931762Y-95380151D01*
X81897543Y-95364195D01*
X81844258Y-95317278D01*
X81824797Y-95249001D01*
X81845339Y-95181041D01*
X81897543Y-95135805D01*
X81931762Y-95119849D01*
X81931767Y-95119846D01*
X81936749Y-95117523D01*
X82070069Y-95024171D01*
X82119789Y-94989357D01*
X82119792Y-94989355D01*
X82124300Y-94986198D01*
X82286198Y-94824300D01*
X82310923Y-94788990D01*
X82385784Y-94682077D01*
X82417523Y-94636749D01*
X82419846Y-94631767D01*
X82419849Y-94631762D01*
X82511961Y-94434225D01*
X82511961Y-94434224D01*
X82514284Y-94429243D01*
X82558846Y-94262939D01*
X82572119Y-94213402D01*
X82572119Y-94213400D01*
X82573543Y-94208087D01*
X82593498Y-93980000D01*
X82573543Y-93751913D01*
X82566600Y-93726000D01*
X82515707Y-93536067D01*
X82515706Y-93536065D01*
X82514284Y-93530757D01*
X82435805Y-93362457D01*
X82419849Y-93328238D01*
X82419846Y-93328233D01*
X82417523Y-93323251D01*
X82298260Y-93152926D01*
X82289357Y-93140211D01*
X82289355Y-93140208D01*
X82286198Y-93135700D01*
X82124300Y-92973802D01*
X82119792Y-92970645D01*
X82119789Y-92970643D01*
X82041611Y-92915902D01*
X81936749Y-92842477D01*
X81931767Y-92840154D01*
X81931762Y-92840151D01*
X81897543Y-92824195D01*
X81844258Y-92777278D01*
X81824797Y-92709001D01*
X81845339Y-92641041D01*
X81897543Y-92595805D01*
X81931762Y-92579849D01*
X81931767Y-92579846D01*
X81936749Y-92577523D01*
X82070069Y-92484171D01*
X82119789Y-92449357D01*
X82119792Y-92449355D01*
X82124300Y-92446198D01*
X82286198Y-92284300D01*
X82310923Y-92248990D01*
X82385784Y-92142077D01*
X82417523Y-92096749D01*
X82419846Y-92091767D01*
X82419849Y-92091762D01*
X82511961Y-91894225D01*
X82511961Y-91894224D01*
X82514284Y-91889243D01*
X82558846Y-91722939D01*
X82572119Y-91673402D01*
X82572119Y-91673400D01*
X82573543Y-91668087D01*
X82593498Y-91440000D01*
X82573543Y-91211913D01*
X82566600Y-91186000D01*
X82515707Y-90996067D01*
X82515706Y-90996065D01*
X82514284Y-90990757D01*
X82435805Y-90822457D01*
X82419849Y-90788238D01*
X82419846Y-90788233D01*
X82417523Y-90783251D01*
X82298260Y-90612926D01*
X82289357Y-90600211D01*
X82289355Y-90600208D01*
X82286198Y-90595700D01*
X82124300Y-90433802D01*
X82119792Y-90430645D01*
X82119789Y-90430643D01*
X81984780Y-90336109D01*
X81936749Y-90302477D01*
X81931767Y-90300154D01*
X81931762Y-90300151D01*
X81897543Y-90284195D01*
X81844258Y-90237278D01*
X81824797Y-90169001D01*
X81845339Y-90101041D01*
X81897543Y-90055805D01*
X81931762Y-90039849D01*
X81931767Y-90039846D01*
X81936749Y-90037523D01*
X82070069Y-89944171D01*
X82119789Y-89909357D01*
X82119792Y-89909355D01*
X82124300Y-89906198D01*
X82286198Y-89744300D01*
X82310923Y-89708990D01*
X82385784Y-89602077D01*
X82417523Y-89556749D01*
X82419846Y-89551767D01*
X82419849Y-89551762D01*
X82511961Y-89354225D01*
X82511961Y-89354224D01*
X82514284Y-89349243D01*
X82558846Y-89182939D01*
X82572119Y-89133402D01*
X82572119Y-89133400D01*
X82573543Y-89128087D01*
X82593498Y-88900000D01*
X82573543Y-88671913D01*
X82566600Y-88646000D01*
X82515707Y-88456067D01*
X82515706Y-88456065D01*
X82514284Y-88450757D01*
X82435805Y-88282457D01*
X82419849Y-88248238D01*
X82419846Y-88248233D01*
X82417523Y-88243251D01*
X82298260Y-88072926D01*
X82289357Y-88060211D01*
X82289355Y-88060208D01*
X82286198Y-88055700D01*
X82124300Y-87893802D01*
X82119792Y-87890645D01*
X82119789Y-87890643D01*
X82041611Y-87835902D01*
X81936749Y-87762477D01*
X81931767Y-87760154D01*
X81931762Y-87760151D01*
X81897543Y-87744195D01*
X81844258Y-87697278D01*
X81824797Y-87629001D01*
X81845339Y-87561041D01*
X81897543Y-87515805D01*
X81931762Y-87499849D01*
X81931767Y-87499846D01*
X81936749Y-87497523D01*
X82070069Y-87404171D01*
X82119789Y-87369357D01*
X82119792Y-87369355D01*
X82124300Y-87366198D01*
X82286198Y-87204300D01*
X82310923Y-87168990D01*
X82385784Y-87062077D01*
X82417523Y-87016749D01*
X82419846Y-87011767D01*
X82419849Y-87011762D01*
X82511961Y-86814225D01*
X82511961Y-86814224D01*
X82514284Y-86809243D01*
X82558846Y-86642939D01*
X82572119Y-86593402D01*
X82572119Y-86593400D01*
X82573543Y-86588087D01*
X82593498Y-86360000D01*
X82573543Y-86131913D01*
X82566600Y-86106000D01*
X82515707Y-85916067D01*
X82515706Y-85916065D01*
X82514284Y-85910757D01*
X82435805Y-85742457D01*
X82419849Y-85708238D01*
X82419846Y-85708233D01*
X82417523Y-85703251D01*
X82298260Y-85532926D01*
X82289357Y-85520211D01*
X82289355Y-85520208D01*
X82286198Y-85515700D01*
X82124300Y-85353802D01*
X82119792Y-85350645D01*
X82119789Y-85350643D01*
X82041611Y-85295902D01*
X81936749Y-85222477D01*
X81931767Y-85220154D01*
X81931762Y-85220151D01*
X81897543Y-85204195D01*
X81844258Y-85157278D01*
X81824797Y-85089001D01*
X81845339Y-85021041D01*
X81897543Y-84975805D01*
X81931762Y-84959849D01*
X81931767Y-84959846D01*
X81936749Y-84957523D01*
X82070069Y-84864171D01*
X82119789Y-84829357D01*
X82119792Y-84829355D01*
X82124300Y-84826198D01*
X82286198Y-84664300D01*
X82310923Y-84628990D01*
X82385784Y-84522077D01*
X82417523Y-84476749D01*
X82419846Y-84471767D01*
X82419849Y-84471762D01*
X82511961Y-84274225D01*
X82511961Y-84274224D01*
X82514284Y-84269243D01*
X82558846Y-84102939D01*
X82572119Y-84053402D01*
X82572119Y-84053400D01*
X82573543Y-84048087D01*
X82593498Y-83820000D01*
X82573543Y-83591913D01*
X82566600Y-83566000D01*
X82515707Y-83376067D01*
X82515706Y-83376065D01*
X82514284Y-83370757D01*
X82460148Y-83254661D01*
X82419849Y-83168238D01*
X82419846Y-83168233D01*
X82417523Y-83163251D01*
X82298260Y-82992926D01*
X82289357Y-82980211D01*
X82289355Y-82980208D01*
X82286198Y-82975700D01*
X82124300Y-82813802D01*
X82119792Y-82810645D01*
X82119789Y-82810643D01*
X82041611Y-82755902D01*
X81936749Y-82682477D01*
X81931767Y-82680154D01*
X81931762Y-82680151D01*
X81897543Y-82664195D01*
X81844258Y-82617278D01*
X81824797Y-82549001D01*
X81845339Y-82481041D01*
X81897543Y-82435805D01*
X81931762Y-82419849D01*
X81931767Y-82419846D01*
X81936749Y-82417523D01*
X82070069Y-82324171D01*
X82119789Y-82289357D01*
X82119792Y-82289355D01*
X82124300Y-82286198D01*
X82286198Y-82124300D01*
X82310923Y-82088990D01*
X82385784Y-81982077D01*
X82417523Y-81936749D01*
X82419846Y-81931767D01*
X82419849Y-81931762D01*
X82511961Y-81734225D01*
X82511961Y-81734224D01*
X82514284Y-81729243D01*
X82558846Y-81562939D01*
X82572119Y-81513402D01*
X82572119Y-81513400D01*
X82573543Y-81508087D01*
X82593498Y-81280000D01*
X92666502Y-81280000D01*
X92686457Y-81508087D01*
X92687881Y-81513400D01*
X92687881Y-81513402D01*
X92701155Y-81562939D01*
X92745716Y-81729243D01*
X92748039Y-81734224D01*
X92748039Y-81734225D01*
X92840151Y-81931762D01*
X92840154Y-81931767D01*
X92842477Y-81936749D01*
X92874216Y-81982077D01*
X92949078Y-82088990D01*
X92973802Y-82124300D01*
X93135700Y-82286198D01*
X93140208Y-82289355D01*
X93140211Y-82289357D01*
X93189931Y-82324171D01*
X93323251Y-82417523D01*
X93328233Y-82419846D01*
X93328238Y-82419849D01*
X93363049Y-82436081D01*
X93416334Y-82482998D01*
X93435795Y-82551275D01*
X93415253Y-82619235D01*
X93363049Y-82664471D01*
X93328489Y-82680586D01*
X93318993Y-82686069D01*
X93140533Y-82811028D01*
X93132125Y-82818084D01*
X92978084Y-82972125D01*
X92971028Y-82980533D01*
X92846069Y-83158993D01*
X92840586Y-83168489D01*
X92748510Y-83365947D01*
X92744764Y-83376239D01*
X92698606Y-83548503D01*
X92698942Y-83562599D01*
X92706884Y-83566000D01*
X97787967Y-83566000D01*
X97801498Y-83562027D01*
X97802727Y-83553478D01*
X97755236Y-83376239D01*
X97751490Y-83365947D01*
X97659414Y-83168489D01*
X97653931Y-83158993D01*
X97528972Y-82980533D01*
X97521916Y-82972125D01*
X97367875Y-82818084D01*
X97359467Y-82811028D01*
X97181007Y-82686069D01*
X97171511Y-82680586D01*
X97136951Y-82664471D01*
X97083666Y-82617554D01*
X97064205Y-82549277D01*
X97084747Y-82481317D01*
X97136951Y-82436081D01*
X97171762Y-82419849D01*
X97171767Y-82419846D01*
X97176749Y-82417523D01*
X97310069Y-82324171D01*
X97359789Y-82289357D01*
X97359792Y-82289355D01*
X97364300Y-82286198D01*
X97526198Y-82124300D01*
X97550923Y-82088990D01*
X97625784Y-81982077D01*
X97657523Y-81936749D01*
X97659846Y-81931767D01*
X97659849Y-81931762D01*
X97751961Y-81734225D01*
X97751961Y-81734224D01*
X97754284Y-81729243D01*
X97798846Y-81562939D01*
X97812119Y-81513402D01*
X97812119Y-81513400D01*
X97813543Y-81508087D01*
X97833498Y-81280000D01*
X97813543Y-81051913D01*
X97806600Y-81026000D01*
X97755707Y-80836067D01*
X97755706Y-80836065D01*
X97754284Y-80830757D01*
X97675805Y-80662457D01*
X97659849Y-80628238D01*
X97659846Y-80628233D01*
X97657523Y-80623251D01*
X97538260Y-80452926D01*
X97529357Y-80440211D01*
X97529355Y-80440208D01*
X97526198Y-80435700D01*
X97364300Y-80273802D01*
X97359792Y-80270645D01*
X97359789Y-80270643D01*
X97281611Y-80215902D01*
X97176749Y-80142477D01*
X97171767Y-80140154D01*
X97171762Y-80140151D01*
X97137543Y-80124195D01*
X97084258Y-80077278D01*
X97064797Y-80009001D01*
X97085339Y-79941041D01*
X97137543Y-79895805D01*
X97171762Y-79879849D01*
X97171767Y-79879846D01*
X97176749Y-79877523D01*
X97310069Y-79784171D01*
X97359789Y-79749357D01*
X97359792Y-79749355D01*
X97364300Y-79746198D01*
X97526198Y-79584300D01*
X97550923Y-79548990D01*
X97625784Y-79442077D01*
X97657523Y-79396749D01*
X97659846Y-79391767D01*
X97659849Y-79391762D01*
X97751961Y-79194225D01*
X97751961Y-79194224D01*
X97754284Y-79189243D01*
X97798846Y-79022939D01*
X97812119Y-78973402D01*
X97812119Y-78973400D01*
X97813543Y-78968087D01*
X97833498Y-78740000D01*
X97813543Y-78511913D01*
X97806600Y-78486000D01*
X97755707Y-78296067D01*
X97755706Y-78296065D01*
X97754284Y-78290757D01*
X97675805Y-78122457D01*
X97659849Y-78088238D01*
X97659846Y-78088233D01*
X97657523Y-78083251D01*
X97538260Y-77912926D01*
X97529357Y-77900211D01*
X97529355Y-77900208D01*
X97526198Y-77895700D01*
X97364300Y-77733802D01*
X97359792Y-77730645D01*
X97359789Y-77730643D01*
X97281611Y-77675902D01*
X97176749Y-77602477D01*
X97171767Y-77600154D01*
X97171762Y-77600151D01*
X97137543Y-77584195D01*
X97084258Y-77537278D01*
X97064797Y-77469001D01*
X97085339Y-77401041D01*
X97137543Y-77355805D01*
X97171762Y-77339849D01*
X97171767Y-77339846D01*
X97176749Y-77337523D01*
X97310069Y-77244171D01*
X97359789Y-77209357D01*
X97359792Y-77209355D01*
X97364300Y-77206198D01*
X97526198Y-77044300D01*
X97550923Y-77008990D01*
X97625784Y-76902077D01*
X97657523Y-76856749D01*
X97659846Y-76851767D01*
X97659849Y-76851762D01*
X97751961Y-76654225D01*
X97751961Y-76654224D01*
X97754284Y-76649243D01*
X97798846Y-76482939D01*
X97812119Y-76433402D01*
X97812119Y-76433400D01*
X97813543Y-76428087D01*
X97833498Y-76200000D01*
X97813543Y-75971913D01*
X97806600Y-75946000D01*
X97755707Y-75756067D01*
X97755706Y-75756065D01*
X97754284Y-75750757D01*
X97675805Y-75582457D01*
X97659849Y-75548238D01*
X97659846Y-75548233D01*
X97657523Y-75543251D01*
X97538260Y-75372926D01*
X97529357Y-75360211D01*
X97529355Y-75360208D01*
X97526198Y-75355700D01*
X97364300Y-75193802D01*
X97359792Y-75190645D01*
X97359789Y-75190643D01*
X97281611Y-75135902D01*
X97176749Y-75062477D01*
X97171767Y-75060154D01*
X97171762Y-75060151D01*
X97137543Y-75044195D01*
X97084258Y-74997278D01*
X97064797Y-74929001D01*
X97085339Y-74861041D01*
X97137543Y-74815805D01*
X97171762Y-74799849D01*
X97171767Y-74799846D01*
X97176749Y-74797523D01*
X97281611Y-74724098D01*
X97359789Y-74669357D01*
X97359792Y-74669355D01*
X97364300Y-74666198D01*
X97526198Y-74504300D01*
X97657523Y-74316749D01*
X97659846Y-74311767D01*
X97659849Y-74311762D01*
X97751961Y-74114225D01*
X97751961Y-74114224D01*
X97754284Y-74109243D01*
X97813543Y-73888087D01*
X97833498Y-73660000D01*
X97813543Y-73431913D01*
X97754284Y-73210757D01*
X97675805Y-73042457D01*
X97659849Y-73008238D01*
X97659846Y-73008233D01*
X97657523Y-73003251D01*
X97526198Y-72815700D01*
X97364300Y-72653802D01*
X97359792Y-72650645D01*
X97359789Y-72650643D01*
X97281611Y-72595902D01*
X97176749Y-72522477D01*
X97171767Y-72520154D01*
X97171762Y-72520151D01*
X97137543Y-72504195D01*
X97084258Y-72457278D01*
X97064797Y-72389001D01*
X97085339Y-72321041D01*
X97137543Y-72275805D01*
X97171762Y-72259849D01*
X97171767Y-72259846D01*
X97176749Y-72257523D01*
X97281611Y-72184098D01*
X97359789Y-72129357D01*
X97359792Y-72129355D01*
X97364300Y-72126198D01*
X97526198Y-71964300D01*
X97561557Y-71913803D01*
X97584098Y-71881611D01*
X97657523Y-71776749D01*
X97659846Y-71771767D01*
X97659849Y-71771762D01*
X97751961Y-71574225D01*
X97751961Y-71574224D01*
X97754284Y-71569243D01*
X97776785Y-71485271D01*
X97812119Y-71353402D01*
X97812119Y-71353400D01*
X97813543Y-71348087D01*
X97833498Y-71120000D01*
X97813543Y-70891913D01*
X97790000Y-70804050D01*
X97755707Y-70676067D01*
X97755706Y-70676065D01*
X97754284Y-70670757D01*
X97675805Y-70502457D01*
X97659849Y-70468238D01*
X97659846Y-70468233D01*
X97657523Y-70463251D01*
X97563437Y-70328882D01*
X97529357Y-70280211D01*
X97529355Y-70280208D01*
X97526198Y-70275700D01*
X97364300Y-70113802D01*
X97359792Y-70110645D01*
X97359789Y-70110643D01*
X97281611Y-70055902D01*
X97176749Y-69982477D01*
X97171767Y-69980154D01*
X97171762Y-69980151D01*
X97137543Y-69964195D01*
X97084258Y-69917278D01*
X97064797Y-69849001D01*
X97085339Y-69781041D01*
X97137543Y-69735805D01*
X97171762Y-69719849D01*
X97171767Y-69719846D01*
X97176749Y-69717523D01*
X97281611Y-69644098D01*
X97359789Y-69589357D01*
X97359792Y-69589355D01*
X97364300Y-69586198D01*
X97526198Y-69424300D01*
X97657523Y-69236749D01*
X97659846Y-69231767D01*
X97659849Y-69231762D01*
X97751961Y-69034225D01*
X97751961Y-69034224D01*
X97754284Y-69029243D01*
X97813543Y-68808087D01*
X97833498Y-68580000D01*
X97813543Y-68351913D01*
X97754284Y-68130757D01*
X97675805Y-67962457D01*
X97659849Y-67928238D01*
X97659846Y-67928233D01*
X97657523Y-67923251D01*
X97526198Y-67735700D01*
X97364300Y-67573802D01*
X97359792Y-67570645D01*
X97359789Y-67570643D01*
X97281611Y-67515902D01*
X97176749Y-67442477D01*
X97171767Y-67440154D01*
X97171762Y-67440151D01*
X97137543Y-67424195D01*
X97084258Y-67377278D01*
X97064797Y-67309001D01*
X97085339Y-67241041D01*
X97137543Y-67195805D01*
X97171762Y-67179849D01*
X97171767Y-67179846D01*
X97176749Y-67177523D01*
X97281611Y-67104098D01*
X97359789Y-67049357D01*
X97359792Y-67049355D01*
X97364300Y-67046198D01*
X97526198Y-66884300D01*
X97657523Y-66696749D01*
X97659846Y-66691767D01*
X97659849Y-66691762D01*
X97751961Y-66494225D01*
X97751961Y-66494224D01*
X97754284Y-66489243D01*
X97813543Y-66268087D01*
X97833498Y-66040000D01*
X97813543Y-65811913D01*
X97754284Y-65590757D01*
X97675805Y-65422457D01*
X97659849Y-65388238D01*
X97659846Y-65388233D01*
X97657523Y-65383251D01*
X97526198Y-65195700D01*
X97364300Y-65033802D01*
X97359792Y-65030645D01*
X97359789Y-65030643D01*
X97281611Y-64975902D01*
X97176749Y-64902477D01*
X97171767Y-64900154D01*
X97171762Y-64900151D01*
X97137543Y-64884195D01*
X97084258Y-64837278D01*
X97064797Y-64769001D01*
X97085339Y-64701041D01*
X97137543Y-64655805D01*
X97171762Y-64639849D01*
X97171767Y-64639846D01*
X97176749Y-64637523D01*
X97281611Y-64564098D01*
X97359789Y-64509357D01*
X97359792Y-64509355D01*
X97364300Y-64506198D01*
X97526198Y-64344300D01*
X97657523Y-64156749D01*
X97659846Y-64151767D01*
X97659849Y-64151762D01*
X97751961Y-63954225D01*
X97751961Y-63954224D01*
X97754284Y-63949243D01*
X97813543Y-63728087D01*
X97833498Y-63500000D01*
X97813543Y-63271913D01*
X97754284Y-63050757D01*
X97675805Y-62882457D01*
X97659849Y-62848238D01*
X97659846Y-62848233D01*
X97657523Y-62843251D01*
X97526198Y-62655700D01*
X97364300Y-62493802D01*
X97359792Y-62490645D01*
X97359789Y-62490643D01*
X97281611Y-62435902D01*
X97176749Y-62362477D01*
X97171767Y-62360154D01*
X97171762Y-62360151D01*
X97137543Y-62344195D01*
X97084258Y-62297278D01*
X97064797Y-62229001D01*
X97085339Y-62161041D01*
X97137543Y-62115805D01*
X97171762Y-62099849D01*
X97171767Y-62099846D01*
X97176749Y-62097523D01*
X97281611Y-62024098D01*
X97359789Y-61969357D01*
X97359792Y-61969355D01*
X97364300Y-61966198D01*
X97526198Y-61804300D01*
X97657523Y-61616749D01*
X97659846Y-61611767D01*
X97659849Y-61611762D01*
X97751961Y-61414225D01*
X97751961Y-61414224D01*
X97754284Y-61409243D01*
X97813543Y-61188087D01*
X97833498Y-60960000D01*
X97813543Y-60731913D01*
X97754284Y-60510757D01*
X97675805Y-60342457D01*
X97659849Y-60308238D01*
X97659846Y-60308233D01*
X97657523Y-60303251D01*
X97526198Y-60115700D01*
X97364300Y-59953802D01*
X97359792Y-59950645D01*
X97359789Y-59950643D01*
X97281611Y-59895902D01*
X97176749Y-59822477D01*
X97171767Y-59820154D01*
X97171762Y-59820151D01*
X96974225Y-59728039D01*
X96974224Y-59728039D01*
X96969243Y-59725716D01*
X96963935Y-59724294D01*
X96963933Y-59724293D01*
X96753402Y-59667881D01*
X96753400Y-59667881D01*
X96748087Y-59666457D01*
X96520000Y-59646502D01*
X96291913Y-59666457D01*
X96286600Y-59667881D01*
X96286598Y-59667881D01*
X96076067Y-59724293D01*
X96076065Y-59724294D01*
X96070757Y-59725716D01*
X96065776Y-59728039D01*
X96065775Y-59728039D01*
X95868238Y-59820151D01*
X95868233Y-59820154D01*
X95863251Y-59822477D01*
X95758389Y-59895902D01*
X95680211Y-59950643D01*
X95680208Y-59950645D01*
X95675700Y-59953802D01*
X95513802Y-60115700D01*
X95382477Y-60303251D01*
X95380154Y-60308233D01*
X95380151Y-60308238D01*
X95364195Y-60342457D01*
X95317278Y-60395742D01*
X95249001Y-60415203D01*
X95181041Y-60394661D01*
X95135805Y-60342457D01*
X95119849Y-60308238D01*
X95119846Y-60308233D01*
X95117523Y-60303251D01*
X94986198Y-60115700D01*
X94824300Y-59953802D01*
X94819792Y-59950645D01*
X94819789Y-59950643D01*
X94741611Y-59895902D01*
X94636749Y-59822477D01*
X94631767Y-59820154D01*
X94631762Y-59820151D01*
X94434225Y-59728039D01*
X94434224Y-59728039D01*
X94429243Y-59725716D01*
X94423935Y-59724294D01*
X94423933Y-59724293D01*
X94213402Y-59667881D01*
X94213400Y-59667881D01*
X94208087Y-59666457D01*
X93980000Y-59646502D01*
X93751913Y-59666457D01*
X93746600Y-59667881D01*
X93746598Y-59667881D01*
X93536067Y-59724293D01*
X93536065Y-59724294D01*
X93530757Y-59725716D01*
X93525776Y-59728039D01*
X93525775Y-59728039D01*
X93328238Y-59820151D01*
X93328233Y-59820154D01*
X93323251Y-59822477D01*
X93218389Y-59895902D01*
X93140211Y-59950643D01*
X93140208Y-59950645D01*
X93135700Y-59953802D01*
X92973802Y-60115700D01*
X92842477Y-60303251D01*
X92840154Y-60308233D01*
X92840151Y-60308238D01*
X92824195Y-60342457D01*
X92745716Y-60510757D01*
X92686457Y-60731913D01*
X92666502Y-60960000D01*
X92686457Y-61188087D01*
X92745716Y-61409243D01*
X92748039Y-61414224D01*
X92748039Y-61414225D01*
X92840151Y-61611762D01*
X92840154Y-61611767D01*
X92842477Y-61616749D01*
X92973802Y-61804300D01*
X93135700Y-61966198D01*
X93140208Y-61969355D01*
X93140211Y-61969357D01*
X93218389Y-62024098D01*
X93323251Y-62097523D01*
X93328233Y-62099846D01*
X93328238Y-62099849D01*
X93362457Y-62115805D01*
X93415742Y-62162722D01*
X93435203Y-62230999D01*
X93414661Y-62298959D01*
X93362457Y-62344195D01*
X93328238Y-62360151D01*
X93328233Y-62360154D01*
X93323251Y-62362477D01*
X93218389Y-62435902D01*
X93140211Y-62490643D01*
X93140208Y-62490645D01*
X93135700Y-62493802D01*
X92973802Y-62655700D01*
X92842477Y-62843251D01*
X92840154Y-62848233D01*
X92840151Y-62848238D01*
X92824195Y-62882457D01*
X92745716Y-63050757D01*
X92686457Y-63271913D01*
X92666502Y-63500000D01*
X92686457Y-63728087D01*
X92745716Y-63949243D01*
X92748039Y-63954224D01*
X92748039Y-63954225D01*
X92840151Y-64151762D01*
X92840154Y-64151767D01*
X92842477Y-64156749D01*
X92973802Y-64344300D01*
X93135700Y-64506198D01*
X93140208Y-64509355D01*
X93140211Y-64509357D01*
X93218389Y-64564098D01*
X93323251Y-64637523D01*
X93328233Y-64639846D01*
X93328238Y-64639849D01*
X93362457Y-64655805D01*
X93415742Y-64702722D01*
X93435203Y-64770999D01*
X93414661Y-64838959D01*
X93362457Y-64884195D01*
X93328238Y-64900151D01*
X93328233Y-64900154D01*
X93323251Y-64902477D01*
X93218389Y-64975902D01*
X93140211Y-65030643D01*
X93140208Y-65030645D01*
X93135700Y-65033802D01*
X92973802Y-65195700D01*
X92842477Y-65383251D01*
X92840154Y-65388233D01*
X92840151Y-65388238D01*
X92824195Y-65422457D01*
X92745716Y-65590757D01*
X92686457Y-65811913D01*
X92666502Y-66040000D01*
X92686457Y-66268087D01*
X92745716Y-66489243D01*
X92748039Y-66494224D01*
X92748039Y-66494225D01*
X92840151Y-66691762D01*
X92840154Y-66691767D01*
X92842477Y-66696749D01*
X92973802Y-66884300D01*
X93135700Y-67046198D01*
X93140208Y-67049355D01*
X93140211Y-67049357D01*
X93218389Y-67104098D01*
X93323251Y-67177523D01*
X93328233Y-67179846D01*
X93328238Y-67179849D01*
X93362457Y-67195805D01*
X93415742Y-67242722D01*
X93435203Y-67310999D01*
X93414661Y-67378959D01*
X93362457Y-67424195D01*
X93328238Y-67440151D01*
X93328233Y-67440154D01*
X93323251Y-67442477D01*
X93218389Y-67515902D01*
X93140211Y-67570643D01*
X93140208Y-67570645D01*
X93135700Y-67573802D01*
X92973802Y-67735700D01*
X92842477Y-67923251D01*
X92840154Y-67928233D01*
X92840151Y-67928238D01*
X92824195Y-67962457D01*
X92745716Y-68130757D01*
X92686457Y-68351913D01*
X92666502Y-68580000D01*
X92686457Y-68808087D01*
X92745716Y-69029243D01*
X92748039Y-69034224D01*
X92748039Y-69034225D01*
X92840151Y-69231762D01*
X92840154Y-69231767D01*
X92842477Y-69236749D01*
X92973802Y-69424300D01*
X93135700Y-69586198D01*
X93140208Y-69589355D01*
X93140211Y-69589357D01*
X93218389Y-69644098D01*
X93323251Y-69717523D01*
X93328233Y-69719846D01*
X93328238Y-69719849D01*
X93362457Y-69735805D01*
X93415742Y-69782722D01*
X93435203Y-69850999D01*
X93414661Y-69918959D01*
X93362457Y-69964195D01*
X93328238Y-69980151D01*
X93328233Y-69980154D01*
X93323251Y-69982477D01*
X93218389Y-70055902D01*
X93140211Y-70110643D01*
X93140208Y-70110645D01*
X93135700Y-70113802D01*
X92973802Y-70275700D01*
X92970645Y-70280208D01*
X92970643Y-70280211D01*
X92936563Y-70328882D01*
X92842477Y-70463251D01*
X92840154Y-70468233D01*
X92840151Y-70468238D01*
X92824195Y-70502457D01*
X92745716Y-70670757D01*
X92744294Y-70676065D01*
X92744293Y-70676067D01*
X92710000Y-70804050D01*
X92686457Y-70891913D01*
X92666502Y-71120000D01*
X92686457Y-71348087D01*
X92687881Y-71353400D01*
X92687881Y-71353402D01*
X92723216Y-71485271D01*
X92745716Y-71569243D01*
X92748039Y-71574224D01*
X92748039Y-71574225D01*
X92840151Y-71771762D01*
X92840154Y-71771767D01*
X92842477Y-71776749D01*
X92915902Y-71881611D01*
X92938444Y-71913803D01*
X92973802Y-71964300D01*
X93135700Y-72126198D01*
X93140208Y-72129355D01*
X93140211Y-72129357D01*
X93218389Y-72184098D01*
X93323251Y-72257523D01*
X93328233Y-72259846D01*
X93328238Y-72259849D01*
X93362457Y-72275805D01*
X93415742Y-72322722D01*
X93435203Y-72390999D01*
X93414661Y-72458959D01*
X93362457Y-72504195D01*
X93328238Y-72520151D01*
X93328233Y-72520154D01*
X93323251Y-72522477D01*
X93218389Y-72595902D01*
X93140211Y-72650643D01*
X93140208Y-72650645D01*
X93135700Y-72653802D01*
X92973802Y-72815700D01*
X92842477Y-73003251D01*
X92840154Y-73008233D01*
X92840151Y-73008238D01*
X92824195Y-73042457D01*
X92745716Y-73210757D01*
X92686457Y-73431913D01*
X92666502Y-73660000D01*
X92686457Y-73888087D01*
X92745716Y-74109243D01*
X92748039Y-74114224D01*
X92748039Y-74114225D01*
X92840151Y-74311762D01*
X92840154Y-74311767D01*
X92842477Y-74316749D01*
X92973802Y-74504300D01*
X93135700Y-74666198D01*
X93140208Y-74669355D01*
X93140211Y-74669357D01*
X93218389Y-74724098D01*
X93323251Y-74797523D01*
X93328233Y-74799846D01*
X93328238Y-74799849D01*
X93362457Y-74815805D01*
X93415742Y-74862722D01*
X93435203Y-74930999D01*
X93414661Y-74998959D01*
X93362457Y-75044195D01*
X93328238Y-75060151D01*
X93328233Y-75060154D01*
X93323251Y-75062477D01*
X93218389Y-75135902D01*
X93140211Y-75190643D01*
X93140208Y-75190645D01*
X93135700Y-75193802D01*
X92973802Y-75355700D01*
X92970645Y-75360208D01*
X92970643Y-75360211D01*
X92961740Y-75372926D01*
X92842477Y-75543251D01*
X92840154Y-75548233D01*
X92840151Y-75548238D01*
X92824195Y-75582457D01*
X92745716Y-75750757D01*
X92744294Y-75756065D01*
X92744293Y-75756067D01*
X92693400Y-75946000D01*
X92686457Y-75971913D01*
X92666502Y-76200000D01*
X92686457Y-76428087D01*
X92687881Y-76433400D01*
X92687881Y-76433402D01*
X92701155Y-76482939D01*
X92745716Y-76649243D01*
X92748039Y-76654224D01*
X92748039Y-76654225D01*
X92840151Y-76851762D01*
X92840154Y-76851767D01*
X92842477Y-76856749D01*
X92874216Y-76902077D01*
X92949078Y-77008990D01*
X92973802Y-77044300D01*
X93135700Y-77206198D01*
X93140208Y-77209355D01*
X93140211Y-77209357D01*
X93189931Y-77244171D01*
X93323251Y-77337523D01*
X93328233Y-77339846D01*
X93328238Y-77339849D01*
X93362457Y-77355805D01*
X93415742Y-77402722D01*
X93435203Y-77470999D01*
X93414661Y-77538959D01*
X93362457Y-77584195D01*
X93328238Y-77600151D01*
X93328233Y-77600154D01*
X93323251Y-77602477D01*
X93218389Y-77675902D01*
X93140211Y-77730643D01*
X93140208Y-77730645D01*
X93135700Y-77733802D01*
X92973802Y-77895700D01*
X92970645Y-77900208D01*
X92970643Y-77900211D01*
X92961740Y-77912926D01*
X92842477Y-78083251D01*
X92840154Y-78088233D01*
X92840151Y-78088238D01*
X92824195Y-78122457D01*
X92745716Y-78290757D01*
X92744294Y-78296065D01*
X92744293Y-78296067D01*
X92693400Y-78486000D01*
X92686457Y-78511913D01*
X92666502Y-78740000D01*
X92686457Y-78968087D01*
X92687881Y-78973400D01*
X92687881Y-78973402D01*
X92701155Y-79022939D01*
X92745716Y-79189243D01*
X92748039Y-79194224D01*
X92748039Y-79194225D01*
X92840151Y-79391762D01*
X92840154Y-79391767D01*
X92842477Y-79396749D01*
X92874216Y-79442077D01*
X92949078Y-79548990D01*
X92973802Y-79584300D01*
X93135700Y-79746198D01*
X93140208Y-79749355D01*
X93140211Y-79749357D01*
X93189931Y-79784171D01*
X93323251Y-79877523D01*
X93328233Y-79879846D01*
X93328238Y-79879849D01*
X93362457Y-79895805D01*
X93415742Y-79942722D01*
X93435203Y-80010999D01*
X93414661Y-80078959D01*
X93362457Y-80124195D01*
X93328238Y-80140151D01*
X93328233Y-80140154D01*
X93323251Y-80142477D01*
X93218389Y-80215902D01*
X93140211Y-80270643D01*
X93140208Y-80270645D01*
X93135700Y-80273802D01*
X92973802Y-80435700D01*
X92970645Y-80440208D01*
X92970643Y-80440211D01*
X92961740Y-80452926D01*
X92842477Y-80623251D01*
X92840154Y-80628233D01*
X92840151Y-80628238D01*
X92824195Y-80662457D01*
X92745716Y-80830757D01*
X92744294Y-80836065D01*
X92744293Y-80836067D01*
X92693400Y-81026000D01*
X92686457Y-81051913D01*
X92666502Y-81280000D01*
X82593498Y-81280000D01*
X82573543Y-81051913D01*
X82566600Y-81026000D01*
X82515707Y-80836067D01*
X82515706Y-80836065D01*
X82514284Y-80830757D01*
X82435805Y-80662457D01*
X82419849Y-80628238D01*
X82419846Y-80628233D01*
X82417523Y-80623251D01*
X82298260Y-80452926D01*
X82289357Y-80440211D01*
X82289355Y-80440208D01*
X82286198Y-80435700D01*
X82124300Y-80273802D01*
X82119792Y-80270645D01*
X82119789Y-80270643D01*
X82041611Y-80215902D01*
X81936749Y-80142477D01*
X81931767Y-80140154D01*
X81931762Y-80140151D01*
X81897543Y-80124195D01*
X81844258Y-80077278D01*
X81824797Y-80009001D01*
X81845339Y-79941041D01*
X81897543Y-79895805D01*
X81931762Y-79879849D01*
X81931767Y-79879846D01*
X81936749Y-79877523D01*
X82070069Y-79784171D01*
X82119789Y-79749357D01*
X82119792Y-79749355D01*
X82124300Y-79746198D01*
X82286198Y-79584300D01*
X82310923Y-79548990D01*
X82385784Y-79442077D01*
X82417523Y-79396749D01*
X82419846Y-79391767D01*
X82419849Y-79391762D01*
X82511961Y-79194225D01*
X82511961Y-79194224D01*
X82514284Y-79189243D01*
X82558846Y-79022939D01*
X82572119Y-78973402D01*
X82572119Y-78973400D01*
X82573543Y-78968087D01*
X82593498Y-78740000D01*
X82573543Y-78511913D01*
X82566600Y-78486000D01*
X82515707Y-78296067D01*
X82515706Y-78296065D01*
X82514284Y-78290757D01*
X82435805Y-78122457D01*
X82419849Y-78088238D01*
X82419846Y-78088233D01*
X82417523Y-78083251D01*
X82298260Y-77912926D01*
X82289357Y-77900211D01*
X82289355Y-77900208D01*
X82286198Y-77895700D01*
X82124300Y-77733802D01*
X82119792Y-77730645D01*
X82119789Y-77730643D01*
X82041611Y-77675902D01*
X81936749Y-77602477D01*
X81931767Y-77600154D01*
X81931762Y-77600151D01*
X81897543Y-77584195D01*
X81844258Y-77537278D01*
X81824797Y-77469001D01*
X81845339Y-77401041D01*
X81897543Y-77355805D01*
X81931762Y-77339849D01*
X81931767Y-77339846D01*
X81936749Y-77337523D01*
X82070069Y-77244171D01*
X82119789Y-77209357D01*
X82119792Y-77209355D01*
X82124300Y-77206198D01*
X82286198Y-77044300D01*
X82310923Y-77008990D01*
X82385784Y-76902077D01*
X82417523Y-76856749D01*
X82419846Y-76851767D01*
X82419849Y-76851762D01*
X82511961Y-76654225D01*
X82511961Y-76654224D01*
X82514284Y-76649243D01*
X82558846Y-76482939D01*
X82572119Y-76433402D01*
X82572119Y-76433400D01*
X82573543Y-76428087D01*
X82593498Y-76200000D01*
X82573543Y-75971913D01*
X82566600Y-75946000D01*
X82515707Y-75756067D01*
X82515706Y-75756065D01*
X82514284Y-75750757D01*
X82435805Y-75582457D01*
X82419849Y-75548238D01*
X82419846Y-75548233D01*
X82417523Y-75543251D01*
X82298260Y-75372926D01*
X82289357Y-75360211D01*
X82289355Y-75360208D01*
X82286198Y-75355700D01*
X82124300Y-75193802D01*
X82119792Y-75190645D01*
X82119789Y-75190643D01*
X82041611Y-75135902D01*
X81936749Y-75062477D01*
X81931767Y-75060154D01*
X81931762Y-75060151D01*
X81897543Y-75044195D01*
X81844258Y-74997278D01*
X81824797Y-74929001D01*
X81845339Y-74861041D01*
X81897543Y-74815805D01*
X81931762Y-74799849D01*
X81931767Y-74799846D01*
X81936749Y-74797523D01*
X82041611Y-74724098D01*
X82119789Y-74669357D01*
X82119792Y-74669355D01*
X82124300Y-74666198D01*
X82286198Y-74504300D01*
X82417523Y-74316749D01*
X82419846Y-74311767D01*
X82419849Y-74311762D01*
X82511961Y-74114225D01*
X82511961Y-74114224D01*
X82514284Y-74109243D01*
X82573543Y-73888087D01*
X82593498Y-73660000D01*
X82573543Y-73431913D01*
X82514284Y-73210757D01*
X82435805Y-73042457D01*
X82419849Y-73008238D01*
X82419846Y-73008233D01*
X82417523Y-73003251D01*
X82286198Y-72815700D01*
X82124300Y-72653802D01*
X82119792Y-72650645D01*
X82119789Y-72650643D01*
X82041611Y-72595902D01*
X81936749Y-72522477D01*
X81931767Y-72520154D01*
X81931762Y-72520151D01*
X81897543Y-72504195D01*
X81844258Y-72457278D01*
X81824797Y-72389001D01*
X81845339Y-72321041D01*
X81897543Y-72275805D01*
X81931762Y-72259849D01*
X81931767Y-72259846D01*
X81936749Y-72257523D01*
X82041611Y-72184098D01*
X82119789Y-72129357D01*
X82119792Y-72129355D01*
X82124300Y-72126198D01*
X82286198Y-71964300D01*
X82321557Y-71913803D01*
X82344098Y-71881611D01*
X82417523Y-71776749D01*
X82419846Y-71771767D01*
X82419849Y-71771762D01*
X82511961Y-71574225D01*
X82511961Y-71574224D01*
X82514284Y-71569243D01*
X82536785Y-71485271D01*
X82572119Y-71353402D01*
X82572119Y-71353400D01*
X82573543Y-71348087D01*
X82593498Y-71120000D01*
X82573543Y-70891913D01*
X82550000Y-70804050D01*
X82515707Y-70676067D01*
X82515706Y-70676065D01*
X82514284Y-70670757D01*
X82435805Y-70502457D01*
X82419849Y-70468238D01*
X82419846Y-70468233D01*
X82417523Y-70463251D01*
X82323437Y-70328882D01*
X82289357Y-70280211D01*
X82289355Y-70280208D01*
X82286198Y-70275700D01*
X82124300Y-70113802D01*
X82119792Y-70110645D01*
X82119789Y-70110643D01*
X82041611Y-70055902D01*
X81936749Y-69982477D01*
X81931767Y-69980154D01*
X81931762Y-69980151D01*
X81897543Y-69964195D01*
X81844258Y-69917278D01*
X81824797Y-69849001D01*
X81845339Y-69781041D01*
X81897543Y-69735805D01*
X81931762Y-69719849D01*
X81931767Y-69719846D01*
X81936749Y-69717523D01*
X82041611Y-69644098D01*
X82119789Y-69589357D01*
X82119792Y-69589355D01*
X82124300Y-69586198D01*
X82286198Y-69424300D01*
X82417523Y-69236749D01*
X82419846Y-69231767D01*
X82419849Y-69231762D01*
X82511961Y-69034225D01*
X82511961Y-69034224D01*
X82514284Y-69029243D01*
X82573543Y-68808087D01*
X82593498Y-68580000D01*
X82573543Y-68351913D01*
X82514284Y-68130757D01*
X82435805Y-67962457D01*
X82419849Y-67928238D01*
X82419846Y-67928233D01*
X82417523Y-67923251D01*
X82286198Y-67735700D01*
X82124300Y-67573802D01*
X82119792Y-67570645D01*
X82119789Y-67570643D01*
X82041611Y-67515902D01*
X81936749Y-67442477D01*
X81931767Y-67440154D01*
X81931762Y-67440151D01*
X81897543Y-67424195D01*
X81844258Y-67377278D01*
X81824797Y-67309001D01*
X81845339Y-67241041D01*
X81897543Y-67195805D01*
X81931762Y-67179849D01*
X81931767Y-67179846D01*
X81936749Y-67177523D01*
X82041611Y-67104098D01*
X82119789Y-67049357D01*
X82119792Y-67049355D01*
X82124300Y-67046198D01*
X82286198Y-66884300D01*
X82417523Y-66696749D01*
X82419846Y-66691767D01*
X82419849Y-66691762D01*
X82511961Y-66494225D01*
X82511961Y-66494224D01*
X82514284Y-66489243D01*
X82573543Y-66268087D01*
X82593498Y-66040000D01*
X82573543Y-65811913D01*
X82514284Y-65590757D01*
X82435805Y-65422457D01*
X82419849Y-65388238D01*
X82419846Y-65388233D01*
X82417523Y-65383251D01*
X82286198Y-65195700D01*
X82124300Y-65033802D01*
X82119792Y-65030645D01*
X82119789Y-65030643D01*
X82041611Y-64975902D01*
X81936749Y-64902477D01*
X81931767Y-64900154D01*
X81931762Y-64900151D01*
X81897543Y-64884195D01*
X81844258Y-64837278D01*
X81824797Y-64769001D01*
X81845339Y-64701041D01*
X81897543Y-64655805D01*
X81931762Y-64639849D01*
X81931767Y-64639846D01*
X81936749Y-64637523D01*
X82041611Y-64564098D01*
X82119789Y-64509357D01*
X82119792Y-64509355D01*
X82124300Y-64506198D01*
X82286198Y-64344300D01*
X82417523Y-64156749D01*
X82419846Y-64151767D01*
X82419849Y-64151762D01*
X82511961Y-63954225D01*
X82511961Y-63954224D01*
X82514284Y-63949243D01*
X82573543Y-63728087D01*
X82593498Y-63500000D01*
X82573543Y-63271913D01*
X82514284Y-63050757D01*
X82435805Y-62882457D01*
X82419849Y-62848238D01*
X82419846Y-62848233D01*
X82417523Y-62843251D01*
X82286198Y-62655700D01*
X82124300Y-62493802D01*
X82119792Y-62490645D01*
X82119789Y-62490643D01*
X82041611Y-62435902D01*
X81936749Y-62362477D01*
X81931767Y-62360154D01*
X81931762Y-62360151D01*
X81897543Y-62344195D01*
X81844258Y-62297278D01*
X81824797Y-62229001D01*
X81845339Y-62161041D01*
X81897543Y-62115805D01*
X81931762Y-62099849D01*
X81931767Y-62099846D01*
X81936749Y-62097523D01*
X82041611Y-62024098D01*
X82119789Y-61969357D01*
X82119792Y-61969355D01*
X82124300Y-61966198D01*
X82286198Y-61804300D01*
X82417523Y-61616749D01*
X82419846Y-61611767D01*
X82419849Y-61611762D01*
X82511961Y-61414225D01*
X82511961Y-61414224D01*
X82514284Y-61409243D01*
X82573543Y-61188087D01*
X82593498Y-60960000D01*
X82573543Y-60731913D01*
X82514284Y-60510757D01*
X82435805Y-60342457D01*
X82419849Y-60308238D01*
X82419846Y-60308233D01*
X82417523Y-60303251D01*
X82286198Y-60115700D01*
X82124300Y-59953802D01*
X82119792Y-59950645D01*
X82119789Y-59950643D01*
X82041611Y-59895902D01*
X81936749Y-59822477D01*
X81931767Y-59820154D01*
X81931762Y-59820151D01*
X81734225Y-59728039D01*
X81734224Y-59728039D01*
X81729243Y-59725716D01*
X81723935Y-59724294D01*
X81723933Y-59724293D01*
X81513402Y-59667881D01*
X81513400Y-59667881D01*
X81508087Y-59666457D01*
X81280000Y-59646502D01*
X81051913Y-59666457D01*
X81046600Y-59667881D01*
X81046598Y-59667881D01*
X80836067Y-59724293D01*
X80836065Y-59724294D01*
X80830757Y-59725716D01*
X80825776Y-59728039D01*
X80825775Y-59728039D01*
X80628238Y-59820151D01*
X80628233Y-59820154D01*
X80623251Y-59822477D01*
X80518389Y-59895902D01*
X80440211Y-59950643D01*
X80440208Y-59950645D01*
X80435700Y-59953802D01*
X80273802Y-60115700D01*
X80142477Y-60303251D01*
X80140154Y-60308233D01*
X80140151Y-60308238D01*
X80124195Y-60342457D01*
X80077278Y-60395742D01*
X80009001Y-60415203D01*
X79941041Y-60394661D01*
X79895805Y-60342457D01*
X79879849Y-60308238D01*
X79879846Y-60308233D01*
X79877523Y-60303251D01*
X79746198Y-60115700D01*
X79584300Y-59953802D01*
X79579792Y-59950645D01*
X79579789Y-59950643D01*
X79501611Y-59895902D01*
X79396749Y-59822477D01*
X79391767Y-59820154D01*
X79391762Y-59820151D01*
X79194225Y-59728039D01*
X79194224Y-59728039D01*
X79189243Y-59725716D01*
X79183935Y-59724294D01*
X79183933Y-59724293D01*
X78973402Y-59667881D01*
X78973400Y-59667881D01*
X78968087Y-59666457D01*
X78740000Y-59646502D01*
X78511913Y-59666457D01*
X78506600Y-59667881D01*
X78506598Y-59667881D01*
X78296067Y-59724293D01*
X78296065Y-59724294D01*
X78290757Y-59725716D01*
X78285776Y-59728039D01*
X78285775Y-59728039D01*
X78088238Y-59820151D01*
X78088233Y-59820154D01*
X78083251Y-59822477D01*
X77978389Y-59895902D01*
X77900211Y-59950643D01*
X77900208Y-59950645D01*
X77895700Y-59953802D01*
X77733802Y-60115700D01*
X77602477Y-60303251D01*
X77600154Y-60308233D01*
X77600151Y-60308238D01*
X77584195Y-60342457D01*
X77505716Y-60510757D01*
X77446457Y-60731913D01*
X77426502Y-60960000D01*
X77446457Y-61188087D01*
X77505716Y-61409243D01*
X77508039Y-61414224D01*
X77508039Y-61414225D01*
X77600151Y-61611762D01*
X77600154Y-61611767D01*
X77602477Y-61616749D01*
X77733802Y-61804300D01*
X77895700Y-61966198D01*
X77900208Y-61969355D01*
X77900211Y-61969357D01*
X77978389Y-62024098D01*
X78083251Y-62097523D01*
X78088233Y-62099846D01*
X78088238Y-62099849D01*
X78122457Y-62115805D01*
X78175742Y-62162722D01*
X78195203Y-62230999D01*
X78174661Y-62298959D01*
X78122457Y-62344195D01*
X78088238Y-62360151D01*
X78088233Y-62360154D01*
X78083251Y-62362477D01*
X77978389Y-62435902D01*
X77900211Y-62490643D01*
X77900208Y-62490645D01*
X77895700Y-62493802D01*
X77733802Y-62655700D01*
X77602477Y-62843251D01*
X77600154Y-62848233D01*
X77600151Y-62848238D01*
X77584195Y-62882457D01*
X77505716Y-63050757D01*
X77446457Y-63271913D01*
X77426502Y-63500000D01*
X77446457Y-63728087D01*
X77505716Y-63949243D01*
X77508039Y-63954224D01*
X77508039Y-63954225D01*
X77600151Y-64151762D01*
X77600154Y-64151767D01*
X77602477Y-64156749D01*
X77733802Y-64344300D01*
X77895700Y-64506198D01*
X77900208Y-64509355D01*
X77900211Y-64509357D01*
X77978389Y-64564098D01*
X78083251Y-64637523D01*
X78088233Y-64639846D01*
X78088238Y-64639849D01*
X78122457Y-64655805D01*
X78175742Y-64702722D01*
X78195203Y-64770999D01*
X78174661Y-64838959D01*
X78122457Y-64884195D01*
X78088238Y-64900151D01*
X78088233Y-64900154D01*
X78083251Y-64902477D01*
X77978389Y-64975902D01*
X77900211Y-65030643D01*
X77900208Y-65030645D01*
X77895700Y-65033802D01*
X77733802Y-65195700D01*
X77602477Y-65383251D01*
X77600154Y-65388233D01*
X77600151Y-65388238D01*
X77584195Y-65422457D01*
X77505716Y-65590757D01*
X77446457Y-65811913D01*
X77426502Y-66040000D01*
X77446457Y-66268087D01*
X77505716Y-66489243D01*
X77508039Y-66494224D01*
X77508039Y-66494225D01*
X77600151Y-66691762D01*
X77600154Y-66691767D01*
X77602477Y-66696749D01*
X77733802Y-66884300D01*
X77895700Y-67046198D01*
X77900208Y-67049355D01*
X77900211Y-67049357D01*
X77978389Y-67104098D01*
X78083251Y-67177523D01*
X78088233Y-67179846D01*
X78088238Y-67179849D01*
X78122457Y-67195805D01*
X78175742Y-67242722D01*
X78195203Y-67310999D01*
X78174661Y-67378959D01*
X78122457Y-67424195D01*
X78088238Y-67440151D01*
X78088233Y-67440154D01*
X78083251Y-67442477D01*
X77978389Y-67515902D01*
X77900211Y-67570643D01*
X77900208Y-67570645D01*
X77895700Y-67573802D01*
X77733802Y-67735700D01*
X77602477Y-67923251D01*
X77600154Y-67928233D01*
X77600151Y-67928238D01*
X77584195Y-67962457D01*
X77505716Y-68130757D01*
X77446457Y-68351913D01*
X77426502Y-68580000D01*
X77446457Y-68808087D01*
X77505716Y-69029243D01*
X77508039Y-69034224D01*
X77508039Y-69034225D01*
X77600151Y-69231762D01*
X77600154Y-69231767D01*
X77602477Y-69236749D01*
X77733802Y-69424300D01*
X77895700Y-69586198D01*
X77900208Y-69589355D01*
X77900211Y-69589357D01*
X77978389Y-69644098D01*
X78083251Y-69717523D01*
X78088233Y-69719846D01*
X78088238Y-69719849D01*
X78122457Y-69735805D01*
X78175742Y-69782722D01*
X78195203Y-69850999D01*
X78174661Y-69918959D01*
X78122457Y-69964195D01*
X78088238Y-69980151D01*
X78088233Y-69980154D01*
X78083251Y-69982477D01*
X77978389Y-70055902D01*
X77900211Y-70110643D01*
X77900208Y-70110645D01*
X77895700Y-70113802D01*
X77733802Y-70275700D01*
X77730645Y-70280208D01*
X77730643Y-70280211D01*
X77696563Y-70328882D01*
X77602477Y-70463251D01*
X77600154Y-70468233D01*
X77600151Y-70468238D01*
X77584195Y-70502457D01*
X77505716Y-70670757D01*
X77504294Y-70676065D01*
X77504293Y-70676067D01*
X77470000Y-70804050D01*
X77446457Y-70891913D01*
X77426502Y-71120000D01*
X77446457Y-71348087D01*
X77447881Y-71353400D01*
X77447881Y-71353402D01*
X77483216Y-71485271D01*
X77505716Y-71569243D01*
X77508039Y-71574224D01*
X77508039Y-71574225D01*
X77600151Y-71771762D01*
X77600154Y-71771767D01*
X77602477Y-71776749D01*
X77675902Y-71881611D01*
X77698444Y-71913803D01*
X77733802Y-71964300D01*
X77895700Y-72126198D01*
X77900208Y-72129355D01*
X77900211Y-72129357D01*
X77978389Y-72184098D01*
X78083251Y-72257523D01*
X78088233Y-72259846D01*
X78088238Y-72259849D01*
X78122457Y-72275805D01*
X78175742Y-72322722D01*
X78195203Y-72390999D01*
X78174661Y-72458959D01*
X78122457Y-72504195D01*
X78088238Y-72520151D01*
X78088233Y-72520154D01*
X78083251Y-72522477D01*
X77978389Y-72595902D01*
X77900211Y-72650643D01*
X77900208Y-72650645D01*
X77895700Y-72653802D01*
X77733802Y-72815700D01*
X77602477Y-73003251D01*
X77600154Y-73008233D01*
X77600151Y-73008238D01*
X77584195Y-73042457D01*
X77505716Y-73210757D01*
X77446457Y-73431913D01*
X77426502Y-73660000D01*
X77446457Y-73888087D01*
X77505716Y-74109243D01*
X77508039Y-74114224D01*
X77508039Y-74114225D01*
X77600151Y-74311762D01*
X77600154Y-74311767D01*
X77602477Y-74316749D01*
X77733802Y-74504300D01*
X77895700Y-74666198D01*
X77900208Y-74669355D01*
X77900211Y-74669357D01*
X77978389Y-74724098D01*
X78083251Y-74797523D01*
X78088233Y-74799846D01*
X78088238Y-74799849D01*
X78122457Y-74815805D01*
X78175742Y-74862722D01*
X78195203Y-74930999D01*
X78174661Y-74998959D01*
X78122457Y-75044195D01*
X78088238Y-75060151D01*
X78088233Y-75060154D01*
X78083251Y-75062477D01*
X77978389Y-75135902D01*
X77900211Y-75190643D01*
X77900208Y-75190645D01*
X77895700Y-75193802D01*
X77733802Y-75355700D01*
X77730645Y-75360208D01*
X77730643Y-75360211D01*
X77721740Y-75372926D01*
X77602477Y-75543251D01*
X77600154Y-75548233D01*
X77600151Y-75548238D01*
X77584195Y-75582457D01*
X77505716Y-75750757D01*
X77504294Y-75756065D01*
X77504293Y-75756067D01*
X77453400Y-75946000D01*
X77446457Y-75971913D01*
X77426502Y-76200000D01*
X77446457Y-76428087D01*
X77447881Y-76433400D01*
X77447881Y-76433402D01*
X77461155Y-76482939D01*
X77505716Y-76649243D01*
X77508039Y-76654224D01*
X77508039Y-76654225D01*
X77600151Y-76851762D01*
X77600154Y-76851767D01*
X77602477Y-76856749D01*
X77634216Y-76902077D01*
X77709078Y-77008990D01*
X77733802Y-77044300D01*
X77895700Y-77206198D01*
X77900208Y-77209355D01*
X77900211Y-77209357D01*
X77949931Y-77244171D01*
X78083251Y-77337523D01*
X78088233Y-77339846D01*
X78088238Y-77339849D01*
X78122457Y-77355805D01*
X78175742Y-77402722D01*
X78195203Y-77470999D01*
X78174661Y-77538959D01*
X78122457Y-77584195D01*
X78088238Y-77600151D01*
X78088233Y-77600154D01*
X78083251Y-77602477D01*
X77978389Y-77675902D01*
X77900211Y-77730643D01*
X77900208Y-77730645D01*
X77895700Y-77733802D01*
X77733802Y-77895700D01*
X77730645Y-77900208D01*
X77730643Y-77900211D01*
X77721740Y-77912926D01*
X77602477Y-78083251D01*
X77600154Y-78088233D01*
X77600151Y-78088238D01*
X77584195Y-78122457D01*
X77505716Y-78290757D01*
X77504294Y-78296065D01*
X77504293Y-78296067D01*
X77453400Y-78486000D01*
X77446457Y-78511913D01*
X77426502Y-78740000D01*
X77446457Y-78968087D01*
X77447881Y-78973400D01*
X77447881Y-78973402D01*
X77461155Y-79022939D01*
X77505716Y-79189243D01*
X77508039Y-79194224D01*
X77508039Y-79194225D01*
X77600151Y-79391762D01*
X77600154Y-79391767D01*
X77602477Y-79396749D01*
X77634216Y-79442077D01*
X77709078Y-79548990D01*
X77733802Y-79584300D01*
X77895700Y-79746198D01*
X77900208Y-79749355D01*
X77900211Y-79749357D01*
X77949931Y-79784171D01*
X78083251Y-79877523D01*
X78088233Y-79879846D01*
X78088238Y-79879849D01*
X78122457Y-79895805D01*
X78175742Y-79942722D01*
X78195203Y-80010999D01*
X78174661Y-80078959D01*
X78122457Y-80124195D01*
X78088238Y-80140151D01*
X78088233Y-80140154D01*
X78083251Y-80142477D01*
X77978389Y-80215902D01*
X77900211Y-80270643D01*
X77900208Y-80270645D01*
X77895700Y-80273802D01*
X77733802Y-80435700D01*
X77730645Y-80440208D01*
X77730643Y-80440211D01*
X77721740Y-80452926D01*
X77602477Y-80623251D01*
X77600154Y-80628233D01*
X77600151Y-80628238D01*
X77584195Y-80662457D01*
X77505716Y-80830757D01*
X77504294Y-80836065D01*
X77504293Y-80836067D01*
X77453400Y-81026000D01*
X77446457Y-81051913D01*
X77426502Y-81280000D01*
X77446457Y-81508087D01*
X77447881Y-81513400D01*
X77447881Y-81513402D01*
X77461155Y-81562939D01*
X77505716Y-81729243D01*
X77508039Y-81734224D01*
X77508039Y-81734225D01*
X77600151Y-81931762D01*
X77600154Y-81931767D01*
X77602477Y-81936749D01*
X77634216Y-81982077D01*
X77709078Y-82088990D01*
X77733802Y-82124300D01*
X77895700Y-82286198D01*
X77900208Y-82289355D01*
X77900211Y-82289357D01*
X77949931Y-82324171D01*
X78083251Y-82417523D01*
X78088233Y-82419846D01*
X78088238Y-82419849D01*
X78122457Y-82435805D01*
X78175742Y-82482722D01*
X78195203Y-82550999D01*
X78174661Y-82618959D01*
X78122457Y-82664195D01*
X78088238Y-82680151D01*
X78088233Y-82680154D01*
X78083251Y-82682477D01*
X77978389Y-82755902D01*
X77900211Y-82810643D01*
X77900208Y-82810645D01*
X77895700Y-82813802D01*
X77733802Y-82975700D01*
X77730645Y-82980208D01*
X77730643Y-82980211D01*
X77721740Y-82992926D01*
X77602477Y-83163251D01*
X77600154Y-83168233D01*
X77600151Y-83168238D01*
X77559852Y-83254661D01*
X77505716Y-83370757D01*
X77504294Y-83376065D01*
X77504293Y-83376067D01*
X77453400Y-83566000D01*
X77446457Y-83591913D01*
X77426502Y-83820000D01*
X77446457Y-84048087D01*
X77447881Y-84053400D01*
X77447881Y-84053402D01*
X77461155Y-84102939D01*
X77505716Y-84269243D01*
X77508039Y-84274224D01*
X77508039Y-84274225D01*
X77600151Y-84471762D01*
X77600154Y-84471767D01*
X77602477Y-84476749D01*
X77634216Y-84522077D01*
X77709078Y-84628990D01*
X77733802Y-84664300D01*
X77895700Y-84826198D01*
X77900208Y-84829355D01*
X77900211Y-84829357D01*
X77949931Y-84864171D01*
X78083251Y-84957523D01*
X78088233Y-84959846D01*
X78088238Y-84959849D01*
X78122457Y-84975805D01*
X78175742Y-85022722D01*
X78195203Y-85090999D01*
X78174661Y-85158959D01*
X78122457Y-85204195D01*
X78088238Y-85220151D01*
X78088233Y-85220154D01*
X78083251Y-85222477D01*
X77978389Y-85295902D01*
X77900211Y-85350643D01*
X77900208Y-85350645D01*
X77895700Y-85353802D01*
X77733802Y-85515700D01*
X77730645Y-85520208D01*
X77730643Y-85520211D01*
X77721740Y-85532926D01*
X77602477Y-85703251D01*
X77600154Y-85708233D01*
X77600151Y-85708238D01*
X77584195Y-85742457D01*
X77505716Y-85910757D01*
X77504294Y-85916065D01*
X77504293Y-85916067D01*
X77453400Y-86106000D01*
X77446457Y-86131913D01*
X77426502Y-86360000D01*
X77446457Y-86588087D01*
X77447881Y-86593400D01*
X77447881Y-86593402D01*
X77461155Y-86642939D01*
X77505716Y-86809243D01*
X77508039Y-86814224D01*
X77508039Y-86814225D01*
X77600151Y-87011762D01*
X77600154Y-87011767D01*
X77602477Y-87016749D01*
X77634216Y-87062077D01*
X77709078Y-87168990D01*
X77733802Y-87204300D01*
X77895700Y-87366198D01*
X77900208Y-87369355D01*
X77900211Y-87369357D01*
X77949931Y-87404171D01*
X78083251Y-87497523D01*
X78088233Y-87499846D01*
X78088238Y-87499849D01*
X78122457Y-87515805D01*
X78175742Y-87562722D01*
X78195203Y-87630999D01*
X78174661Y-87698959D01*
X78122457Y-87744195D01*
X78088238Y-87760151D01*
X78088233Y-87760154D01*
X78083251Y-87762477D01*
X77978389Y-87835902D01*
X77900211Y-87890643D01*
X77900208Y-87890645D01*
X77895700Y-87893802D01*
X77733802Y-88055700D01*
X77730645Y-88060208D01*
X77730643Y-88060211D01*
X77721740Y-88072926D01*
X77602477Y-88243251D01*
X77600154Y-88248233D01*
X77600151Y-88248238D01*
X77584195Y-88282457D01*
X77505716Y-88450757D01*
X77504294Y-88456065D01*
X77504293Y-88456067D01*
X77453400Y-88646000D01*
X77446457Y-88671913D01*
X77426502Y-88900000D01*
X77446457Y-89128087D01*
X77447881Y-89133400D01*
X77447881Y-89133402D01*
X77461155Y-89182939D01*
X77505716Y-89349243D01*
X77508039Y-89354224D01*
X77508039Y-89354225D01*
X77600151Y-89551762D01*
X77600154Y-89551767D01*
X77602477Y-89556749D01*
X77634216Y-89602077D01*
X77709078Y-89708990D01*
X77733802Y-89744300D01*
X77895700Y-89906198D01*
X77900208Y-89909355D01*
X77900211Y-89909357D01*
X77949931Y-89944171D01*
X78083251Y-90037523D01*
X78088233Y-90039846D01*
X78088238Y-90039849D01*
X78122457Y-90055805D01*
X78175742Y-90102722D01*
X78195203Y-90170999D01*
X78174661Y-90238959D01*
X78122457Y-90284195D01*
X78088238Y-90300151D01*
X78088233Y-90300154D01*
X78083251Y-90302477D01*
X78035220Y-90336109D01*
X77900211Y-90430643D01*
X77900208Y-90430645D01*
X77895700Y-90433802D01*
X77733802Y-90595700D01*
X77730645Y-90600208D01*
X77730643Y-90600211D01*
X77721740Y-90612926D01*
X77602477Y-90783251D01*
X77600154Y-90788233D01*
X77600151Y-90788238D01*
X77584195Y-90822457D01*
X77505716Y-90990757D01*
X77504294Y-90996065D01*
X77504293Y-90996067D01*
X77453400Y-91186000D01*
X77446457Y-91211913D01*
X77426502Y-91440000D01*
X77446457Y-91668087D01*
X77447881Y-91673400D01*
X77447881Y-91673402D01*
X77461155Y-91722939D01*
X77505716Y-91889243D01*
X77508039Y-91894224D01*
X77508039Y-91894225D01*
X77600151Y-92091762D01*
X77600154Y-92091767D01*
X77602477Y-92096749D01*
X77634216Y-92142077D01*
X77709078Y-92248990D01*
X77733802Y-92284300D01*
X77895700Y-92446198D01*
X77900208Y-92449355D01*
X77900211Y-92449357D01*
X77949931Y-92484171D01*
X78083251Y-92577523D01*
X78088233Y-92579846D01*
X78088238Y-92579849D01*
X78122457Y-92595805D01*
X78175742Y-92642722D01*
X78195203Y-92710999D01*
X78174661Y-92778959D01*
X78122457Y-92824195D01*
X78088238Y-92840151D01*
X78088233Y-92840154D01*
X78083251Y-92842477D01*
X77978389Y-92915902D01*
X77900211Y-92970643D01*
X77900208Y-92970645D01*
X77895700Y-92973802D01*
X77733802Y-93135700D01*
X77730645Y-93140208D01*
X77730643Y-93140211D01*
X77721740Y-93152926D01*
X77602477Y-93323251D01*
X77600154Y-93328233D01*
X77600151Y-93328238D01*
X77584195Y-93362457D01*
X77505716Y-93530757D01*
X77504294Y-93536065D01*
X77504293Y-93536067D01*
X77453400Y-93726000D01*
X77446457Y-93751913D01*
X77426502Y-93980000D01*
X77446457Y-94208087D01*
X77447881Y-94213400D01*
X77447881Y-94213402D01*
X77461155Y-94262939D01*
X77505716Y-94429243D01*
X77508039Y-94434224D01*
X77508039Y-94434225D01*
X77600151Y-94631762D01*
X77600154Y-94631767D01*
X77602477Y-94636749D01*
X77634216Y-94682077D01*
X77709078Y-94788990D01*
X77733802Y-94824300D01*
X77895700Y-94986198D01*
X77900208Y-94989355D01*
X77900211Y-94989357D01*
X77949931Y-95024171D01*
X78083251Y-95117523D01*
X78088233Y-95119846D01*
X78088238Y-95119849D01*
X78122457Y-95135805D01*
X78175742Y-95182722D01*
X78195203Y-95250999D01*
X78174661Y-95318959D01*
X78122457Y-95364195D01*
X78088238Y-95380151D01*
X78088233Y-95380154D01*
X78083251Y-95382477D01*
X77991356Y-95446823D01*
X77900211Y-95510643D01*
X77900208Y-95510645D01*
X77895700Y-95513802D01*
X77733802Y-95675700D01*
X77602477Y-95863251D01*
X77600154Y-95868233D01*
X77600151Y-95868238D01*
X77514273Y-96052406D01*
X77505716Y-96070757D01*
X77504294Y-96076065D01*
X77504293Y-96076067D01*
X77454171Y-96263124D01*
X77446457Y-96291913D01*
X77426502Y-96520000D01*
X77446457Y-96748087D01*
X77447881Y-96753400D01*
X77447881Y-96753402D01*
X77457143Y-96787966D01*
X77505716Y-96969243D01*
X77508039Y-96974224D01*
X77508039Y-96974225D01*
X77600151Y-97171762D01*
X77600154Y-97171767D01*
X77602477Y-97176749D01*
X77733802Y-97364300D01*
X77895700Y-97526198D01*
X77900208Y-97529355D01*
X77900211Y-97529357D01*
X77978389Y-97584098D01*
X78083251Y-97657523D01*
X78088233Y-97659846D01*
X78088238Y-97659849D01*
X78122457Y-97675805D01*
X78175742Y-97722722D01*
X78195203Y-97790999D01*
X78174661Y-97858959D01*
X78122457Y-97904195D01*
X78088238Y-97920151D01*
X78088233Y-97920154D01*
X78083251Y-97922477D01*
X77978389Y-97995902D01*
X77900211Y-98050643D01*
X77900208Y-98050645D01*
X77895700Y-98053802D01*
X77733802Y-98215700D01*
X77730645Y-98220208D01*
X77730643Y-98220211D01*
X77721740Y-98232926D01*
X77602477Y-98403251D01*
X77600154Y-98408233D01*
X77600151Y-98408238D01*
X77584195Y-98442457D01*
X77505716Y-98610757D01*
X77504294Y-98616065D01*
X77504293Y-98616067D01*
X77453400Y-98806000D01*
X77446457Y-98831913D01*
X77426502Y-99060000D01*
X77446457Y-99288087D01*
X77447881Y-99293400D01*
X77447881Y-99293402D01*
X77461155Y-99342939D01*
X77505716Y-99509243D01*
X77508039Y-99514224D01*
X77508039Y-99514225D01*
X77600151Y-99711762D01*
X77600154Y-99711767D01*
X77602477Y-99716749D01*
X77634216Y-99762077D01*
X77709078Y-99868990D01*
X77733802Y-99904300D01*
X77895700Y-100066198D01*
X77900208Y-100069355D01*
X77900211Y-100069357D01*
X77949931Y-100104171D01*
X78083251Y-100197523D01*
X78088233Y-100199846D01*
X78088238Y-100199849D01*
X78122457Y-100215805D01*
X78175742Y-100262722D01*
X78195203Y-100330999D01*
X78174661Y-100398959D01*
X78122457Y-100444195D01*
X78088238Y-100460151D01*
X78088233Y-100460154D01*
X78083251Y-100462477D01*
X78033176Y-100497540D01*
X77900211Y-100590643D01*
X77900208Y-100590645D01*
X77895700Y-100593802D01*
X77733802Y-100755700D01*
X77602477Y-100943251D01*
X77600154Y-100948233D01*
X77600151Y-100948238D01*
X77594287Y-100960814D01*
X77505716Y-101150757D01*
X77504294Y-101156065D01*
X77504293Y-101156067D01*
X77454171Y-101343124D01*
X77446457Y-101371913D01*
X77426502Y-101600000D01*
X77446457Y-101828087D01*
X77447881Y-101833400D01*
X77447881Y-101833402D01*
X77457143Y-101867966D01*
X77505716Y-102049243D01*
X77508039Y-102054224D01*
X77508039Y-102054225D01*
X77600151Y-102251762D01*
X77600154Y-102251767D01*
X77602477Y-102256749D01*
X77733802Y-102444300D01*
X77895700Y-102606198D01*
X77900208Y-102609355D01*
X77900211Y-102609357D01*
X77960442Y-102651531D01*
X78083251Y-102737523D01*
X78088233Y-102739846D01*
X78088238Y-102739849D01*
X78122457Y-102755805D01*
X78175742Y-102802722D01*
X78195203Y-102870999D01*
X78174661Y-102938959D01*
X78122457Y-102984195D01*
X78088238Y-103000151D01*
X78088233Y-103000154D01*
X78083251Y-103002477D01*
X77991037Y-103067046D01*
X77900211Y-103130643D01*
X77900208Y-103130645D01*
X77895700Y-103133802D01*
X77733802Y-103295700D01*
X77602477Y-103483251D01*
X77600154Y-103488233D01*
X77600151Y-103488238D01*
X77576750Y-103538423D01*
X77505716Y-103690757D01*
X77504294Y-103696065D01*
X77504293Y-103696067D01*
X77463623Y-103847848D01*
X77446457Y-103911913D01*
X77426502Y-104140000D01*
X77446457Y-104368087D01*
X77447881Y-104373400D01*
X77447881Y-104373402D01*
X77495094Y-104549600D01*
X77505716Y-104589243D01*
X77508039Y-104594224D01*
X77508039Y-104594225D01*
X77600151Y-104791762D01*
X77600154Y-104791767D01*
X77602477Y-104796749D01*
X77733802Y-104984300D01*
X77895700Y-105146198D01*
X77900208Y-105149355D01*
X77900211Y-105149357D01*
X77954591Y-105187434D01*
X78083251Y-105277523D01*
X78088233Y-105279846D01*
X78088238Y-105279849D01*
X78122457Y-105295805D01*
X78175742Y-105342722D01*
X78195203Y-105410999D01*
X78174661Y-105478959D01*
X78122457Y-105524195D01*
X78088238Y-105540151D01*
X78088233Y-105540154D01*
X78083251Y-105542477D01*
X77978389Y-105615902D01*
X77900211Y-105670643D01*
X77900208Y-105670645D01*
X77895700Y-105673802D01*
X77733802Y-105835700D01*
X77730645Y-105840208D01*
X77730643Y-105840211D01*
X77696563Y-105888882D01*
X77602477Y-106023251D01*
X77600154Y-106028233D01*
X77600151Y-106028238D01*
X77522712Y-106194309D01*
X77505716Y-106230757D01*
X77504294Y-106236065D01*
X77504293Y-106236067D01*
X77447881Y-106446598D01*
X77446457Y-106451913D01*
X77426502Y-106680000D01*
X77446457Y-106908087D01*
X77447881Y-106913400D01*
X77447881Y-106913402D01*
X77495094Y-107089600D01*
X77505716Y-107129243D01*
X77508039Y-107134224D01*
X77508039Y-107134225D01*
X77600151Y-107331762D01*
X77600154Y-107331767D01*
X77602477Y-107336749D01*
X77630968Y-107377438D01*
X77709078Y-107488990D01*
X77733802Y-107524300D01*
X77895700Y-107686198D01*
X77900208Y-107689355D01*
X77900211Y-107689357D01*
X77914711Y-107699510D01*
X78083251Y-107817523D01*
X78088233Y-107819846D01*
X78088238Y-107819849D01*
X78122457Y-107835805D01*
X78175742Y-107882722D01*
X78195203Y-107950999D01*
X78174661Y-108018959D01*
X78122457Y-108064195D01*
X78088238Y-108080151D01*
X78088233Y-108080154D01*
X78083251Y-108082477D01*
X77978389Y-108155902D01*
X77900211Y-108210643D01*
X77900208Y-108210645D01*
X77895700Y-108213802D01*
X77733802Y-108375700D01*
X77730645Y-108380208D01*
X77730643Y-108380211D01*
X77691349Y-108436329D01*
X77602477Y-108563251D01*
X77600154Y-108568233D01*
X77600151Y-108568238D01*
X77522712Y-108734309D01*
X77505716Y-108770757D01*
X77504294Y-108776065D01*
X77504293Y-108776067D01*
X77447881Y-108986598D01*
X77446457Y-108991913D01*
X77426502Y-109220000D01*
X62036245Y-109220000D01*
X62017941Y-108997361D01*
X61963520Y-108780702D01*
X61874443Y-108575840D01*
X61753103Y-108388277D01*
X61602759Y-108223051D01*
X61598708Y-108219852D01*
X61598704Y-108219848D01*
X61431503Y-108087800D01*
X61431499Y-108087798D01*
X61427448Y-108084598D01*
X61386142Y-108061796D01*
X61336173Y-108011364D01*
X61321401Y-107941921D01*
X61346517Y-107875516D01*
X61373869Y-107848909D01*
X61422296Y-107814366D01*
X61552949Y-107721173D01*
X61581712Y-107692511D01*
X61634298Y-107640107D01*
X61711185Y-107563489D01*
X61720759Y-107550166D01*
X61838524Y-107386277D01*
X61841542Y-107382077D01*
X61851095Y-107362749D01*
X61938225Y-107186453D01*
X61938226Y-107186451D01*
X61940519Y-107181811D01*
X62005459Y-106968069D01*
X62034618Y-106746590D01*
X62036245Y-106680000D01*
X62017941Y-106457361D01*
X61963520Y-106240702D01*
X61874443Y-106035840D01*
X61784189Y-105896329D01*
X61755911Y-105852617D01*
X61755909Y-105852614D01*
X61753103Y-105848277D01*
X61602759Y-105683051D01*
X61598708Y-105679852D01*
X61598704Y-105679848D01*
X61431503Y-105547800D01*
X61431499Y-105547798D01*
X61427448Y-105544598D01*
X61419393Y-105540151D01*
X61231878Y-105436638D01*
X61232641Y-105435256D01*
X61184090Y-105393695D01*
X61163678Y-105325696D01*
X61183270Y-105257456D01*
X61236427Y-105210743D01*
X61274662Y-105192914D01*
X61274666Y-105192912D01*
X61279647Y-105190589D01*
X61452865Y-105069301D01*
X61602390Y-104919776D01*
X61723678Y-104746558D01*
X61799512Y-104583933D01*
X61810722Y-104559892D01*
X61810723Y-104559891D01*
X61813045Y-104554910D01*
X61864573Y-104362607D01*
X61866351Y-104355970D01*
X61866351Y-104355968D01*
X61867775Y-104350655D01*
X61886205Y-104140000D01*
X61867775Y-103929345D01*
X61866351Y-103924030D01*
X61814468Y-103730400D01*
X61814467Y-103730398D01*
X61813045Y-103725090D01*
X61810722Y-103720108D01*
X61726001Y-103538423D01*
X61725999Y-103538420D01*
X61723678Y-103533442D01*
X61602390Y-103360224D01*
X61452865Y-103210699D01*
X61279647Y-103089411D01*
X61274666Y-103087088D01*
X61274662Y-103087086D01*
X61231685Y-103067046D01*
X61178400Y-103020130D01*
X61158938Y-102951853D01*
X61179479Y-102883892D01*
X61229501Y-102839700D01*
X61366184Y-102772739D01*
X61375034Y-102767464D01*
X61542330Y-102648134D01*
X67071500Y-102648134D01*
X67078255Y-102710316D01*
X67129385Y-102846705D01*
X67216739Y-102963261D01*
X67333295Y-103050615D01*
X67469684Y-103101745D01*
X67531866Y-103108500D01*
X69628134Y-103108500D01*
X69690316Y-103101745D01*
X69826705Y-103050615D01*
X69943261Y-102963261D01*
X70030615Y-102846705D01*
X70081745Y-102710316D01*
X70088500Y-102648134D01*
X70088500Y-100551866D01*
X70081745Y-100489684D01*
X70030615Y-100353295D01*
X69943261Y-100236739D01*
X69826705Y-100149385D01*
X69690316Y-100098255D01*
X69628134Y-100091500D01*
X67531866Y-100091500D01*
X67469684Y-100098255D01*
X67333295Y-100149385D01*
X67216739Y-100236739D01*
X67129385Y-100353295D01*
X67078255Y-100489684D01*
X67071500Y-100551866D01*
X67071500Y-102648134D01*
X61542330Y-102648134D01*
X61548417Y-102643792D01*
X61556289Y-102637139D01*
X61707141Y-102486812D01*
X61713819Y-102478965D01*
X61838092Y-102306020D01*
X61843402Y-102297183D01*
X61937759Y-102106267D01*
X61941558Y-102096672D01*
X62003466Y-101892910D01*
X62005644Y-101882837D01*
X62007075Y-101871962D01*
X62004864Y-101857778D01*
X61991706Y-101854000D01*
X56816314Y-101854000D01*
X56802783Y-101857973D01*
X56801346Y-101867966D01*
X56831654Y-102002446D01*
X56834734Y-102012275D01*
X56914859Y-102209603D01*
X56919502Y-102218794D01*
X57030783Y-102400388D01*
X57036866Y-102408699D01*
X57176302Y-102569667D01*
X57183669Y-102576883D01*
X57347523Y-102712916D01*
X57355970Y-102718831D01*
X57539845Y-102826279D01*
X57549138Y-102830732D01*
X57563714Y-102836298D01*
X57620217Y-102879285D01*
X57644509Y-102945997D01*
X57628878Y-103015251D01*
X57572014Y-103068202D01*
X57531512Y-103087088D01*
X57531509Y-103087090D01*
X57526531Y-103089411D01*
X57353313Y-103210699D01*
X57203788Y-103360224D01*
X57082500Y-103533442D01*
X57080179Y-103538420D01*
X57080177Y-103538423D01*
X56995456Y-103720108D01*
X56993133Y-103725090D01*
X56991711Y-103730398D01*
X56991710Y-103730400D01*
X56939827Y-103924030D01*
X56938403Y-103929345D01*
X56919973Y-104140000D01*
X56938403Y-104350655D01*
X56939827Y-104355968D01*
X56939827Y-104355970D01*
X56941606Y-104362607D01*
X56993133Y-104554910D01*
X56995455Y-104559891D01*
X56995456Y-104559892D01*
X57006667Y-104583933D01*
X57082500Y-104746558D01*
X57203788Y-104919776D01*
X57353313Y-105069301D01*
X57526531Y-105190589D01*
X57531509Y-105192910D01*
X57531512Y-105192912D01*
X57672754Y-105258774D01*
X57718179Y-105279956D01*
X57723487Y-105281378D01*
X57723489Y-105281379D01*
X57749293Y-105288293D01*
X57809916Y-105325245D01*
X57840937Y-105389106D01*
X57832509Y-105459600D01*
X57787306Y-105514347D01*
X57749293Y-105531707D01*
X57723489Y-105538621D01*
X57723487Y-105538622D01*
X57718179Y-105540044D01*
X57713198Y-105542366D01*
X57713197Y-105542367D01*
X57531512Y-105627088D01*
X57531509Y-105627090D01*
X57526531Y-105629411D01*
X57353313Y-105750699D01*
X57203788Y-105900224D01*
X57082500Y-106073442D01*
X57080179Y-106078420D01*
X57080177Y-106078423D01*
X57004505Y-106240702D01*
X56993133Y-106265090D01*
X56991711Y-106270398D01*
X56991710Y-106270400D01*
X56940231Y-106462522D01*
X56938403Y-106469345D01*
X56919973Y-106680000D01*
X56938403Y-106890655D01*
X56939827Y-106895968D01*
X56939827Y-106895970D01*
X56941606Y-106902607D01*
X56993133Y-107094910D01*
X56995455Y-107099891D01*
X56995456Y-107099892D01*
X57033656Y-107181811D01*
X57082500Y-107286558D01*
X57203788Y-107459776D01*
X57353313Y-107609301D01*
X57526531Y-107730589D01*
X57531509Y-107732910D01*
X57531512Y-107732912D01*
X57706191Y-107814366D01*
X57718179Y-107819956D01*
X57723487Y-107821378D01*
X57723489Y-107821379D01*
X57749293Y-107828293D01*
X57809916Y-107865245D01*
X57840937Y-107929106D01*
X57832509Y-107999600D01*
X57787306Y-108054347D01*
X57749293Y-108071707D01*
X57723489Y-108078621D01*
X57723487Y-108078622D01*
X57718179Y-108080044D01*
X57713198Y-108082366D01*
X57713197Y-108082367D01*
X57531512Y-108167088D01*
X57531509Y-108167090D01*
X57526531Y-108169411D01*
X57353313Y-108290699D01*
X57203788Y-108440224D01*
X57082500Y-108613442D01*
X57080179Y-108618420D01*
X57080177Y-108618423D01*
X57004505Y-108780702D01*
X56993133Y-108805090D01*
X56991711Y-108810398D01*
X56991710Y-108810400D01*
X56940231Y-109002522D01*
X56938403Y-109009345D01*
X56919973Y-109220000D01*
X56938403Y-109430655D01*
X56939827Y-109435968D01*
X56939827Y-109435970D01*
X56941606Y-109442607D01*
X56993133Y-109634910D01*
X56995455Y-109639891D01*
X56995456Y-109639892D01*
X57033656Y-109721811D01*
X57082500Y-109826558D01*
X57203788Y-109999776D01*
X57353313Y-110149301D01*
X57526531Y-110270589D01*
X57531509Y-110272910D01*
X57531512Y-110272912D01*
X57706191Y-110354366D01*
X57718179Y-110359956D01*
X57723487Y-110361378D01*
X57723489Y-110361379D01*
X57749293Y-110368293D01*
X57809916Y-110405245D01*
X57840937Y-110469106D01*
X57832509Y-110539600D01*
X57787306Y-110594347D01*
X57749293Y-110611707D01*
X57723489Y-110618621D01*
X57723487Y-110618622D01*
X57718179Y-110620044D01*
X57713198Y-110622366D01*
X57713197Y-110622367D01*
X57531512Y-110707088D01*
X57531509Y-110707090D01*
X57526531Y-110709411D01*
X57353313Y-110830699D01*
X57203788Y-110980224D01*
X57082500Y-111153442D01*
X57080179Y-111158420D01*
X57080177Y-111158423D01*
X57006640Y-111316124D01*
X56993133Y-111345090D01*
X56938403Y-111549345D01*
X56919973Y-111760000D01*
X56938403Y-111970655D01*
X56939827Y-111975968D01*
X56939827Y-111975970D01*
X56951030Y-112017778D01*
X56993133Y-112174910D01*
X56995455Y-112179891D01*
X56995456Y-112179892D01*
X57075864Y-112352326D01*
X57082500Y-112366558D01*
X57203788Y-112539776D01*
X57353313Y-112689301D01*
X57526531Y-112810589D01*
X57531509Y-112812910D01*
X57531512Y-112812912D01*
X57572711Y-112832123D01*
X57625996Y-112879040D01*
X57645457Y-112947317D01*
X57624915Y-113015277D01*
X57577642Y-113058081D01*
X57411547Y-113144545D01*
X57402827Y-113150036D01*
X57232522Y-113277905D01*
X57224815Y-113284748D01*
X57077679Y-113438717D01*
X57071193Y-113446727D01*
X56951187Y-113622649D01*
X56946089Y-113631623D01*
X56856427Y-113824783D01*
X56852864Y-113834470D01*
X56797478Y-114034183D01*
X54006684Y-114034183D01*
X54001212Y-101334183D01*
X56797478Y-101334183D01*
X56799001Y-101342607D01*
X56811381Y-101346000D01*
X57860974Y-101346000D01*
X57876213Y-101341525D01*
X57877418Y-101340135D01*
X57879089Y-101332452D01*
X57879089Y-101327885D01*
X58387089Y-101327885D01*
X58391564Y-101343124D01*
X58392954Y-101344329D01*
X58400637Y-101346000D01*
X61991433Y-101346000D01*
X62004964Y-101342027D01*
X62006269Y-101332947D01*
X61964303Y-101165875D01*
X61960983Y-101156124D01*
X61876061Y-100960814D01*
X61871194Y-100951739D01*
X61755515Y-100772926D01*
X61749225Y-100764757D01*
X61605895Y-100607240D01*
X61598362Y-100600215D01*
X61431228Y-100468222D01*
X61422645Y-100462520D01*
X61385691Y-100442120D01*
X61335720Y-100391687D01*
X61320948Y-100322245D01*
X61346064Y-100255839D01*
X61373416Y-100229232D01*
X61396886Y-100212491D01*
X61552949Y-100101173D01*
X61584877Y-100069357D01*
X61707524Y-99947137D01*
X61711185Y-99943489D01*
X61742587Y-99899789D01*
X61838524Y-99766277D01*
X61841542Y-99762077D01*
X61855084Y-99734678D01*
X61938225Y-99566453D01*
X61938226Y-99566451D01*
X61940519Y-99561811D01*
X62005459Y-99348069D01*
X62034618Y-99126590D01*
X62036245Y-99060000D01*
X62017941Y-98837361D01*
X61963520Y-98620702D01*
X61874443Y-98415840D01*
X61753103Y-98228277D01*
X61602759Y-98063051D01*
X61598708Y-98059852D01*
X61598704Y-98059848D01*
X61431503Y-97927800D01*
X61431499Y-97927798D01*
X61427448Y-97924598D01*
X61385658Y-97901529D01*
X61335687Y-97851097D01*
X61320915Y-97781654D01*
X61346031Y-97715248D01*
X61373383Y-97688641D01*
X61548417Y-97563792D01*
X61556289Y-97557139D01*
X61707141Y-97406812D01*
X61713819Y-97398965D01*
X61838092Y-97226020D01*
X61843402Y-97217183D01*
X61937759Y-97026267D01*
X61941558Y-97016672D01*
X62003466Y-96812910D01*
X62005644Y-96802837D01*
X62007075Y-96791962D01*
X62004864Y-96777778D01*
X61991706Y-96774000D01*
X58405204Y-96774000D01*
X58389965Y-96778475D01*
X58388760Y-96779865D01*
X58387089Y-96787548D01*
X58387089Y-101327885D01*
X57879089Y-101327885D01*
X57879089Y-99332115D01*
X57874614Y-99316876D01*
X57873224Y-99315671D01*
X57865541Y-99314000D01*
X56816314Y-99314000D01*
X56802783Y-99317973D01*
X56801346Y-99327966D01*
X56831654Y-99462446D01*
X56834734Y-99472275D01*
X56914859Y-99669603D01*
X56919502Y-99678794D01*
X57030783Y-99860388D01*
X57036866Y-99868699D01*
X57176302Y-100029667D01*
X57183669Y-100036883D01*
X57347523Y-100172916D01*
X57355970Y-100178831D01*
X57425568Y-100219501D01*
X57474292Y-100271140D01*
X57487363Y-100340923D01*
X57460632Y-100406694D01*
X57420176Y-100440053D01*
X57411551Y-100444542D01*
X57402827Y-100450036D01*
X57232522Y-100577905D01*
X57224815Y-100584748D01*
X57077679Y-100738717D01*
X57071193Y-100746727D01*
X56951187Y-100922649D01*
X56946089Y-100931623D01*
X56856427Y-101124783D01*
X56852864Y-101134470D01*
X56797478Y-101334183D01*
X54001212Y-101334183D01*
X54000118Y-98794183D01*
X56797478Y-98794183D01*
X56799001Y-98802607D01*
X56811381Y-98806000D01*
X57860974Y-98806000D01*
X57876213Y-98801525D01*
X57877418Y-98800135D01*
X57879089Y-98792452D01*
X57879089Y-96792115D01*
X57874614Y-96776876D01*
X57873224Y-96775671D01*
X57865541Y-96774000D01*
X56816314Y-96774000D01*
X56802783Y-96777973D01*
X56801346Y-96787966D01*
X56831654Y-96922446D01*
X56834734Y-96932275D01*
X56914859Y-97129603D01*
X56919502Y-97138794D01*
X57030783Y-97320388D01*
X57036866Y-97328699D01*
X57176302Y-97489667D01*
X57183669Y-97496883D01*
X57347523Y-97632916D01*
X57355970Y-97638831D01*
X57425568Y-97679501D01*
X57474292Y-97731140D01*
X57487363Y-97800923D01*
X57460632Y-97866694D01*
X57420176Y-97900053D01*
X57411551Y-97904542D01*
X57402827Y-97910036D01*
X57232522Y-98037905D01*
X57224815Y-98044748D01*
X57077679Y-98198717D01*
X57071193Y-98206727D01*
X56951187Y-98382649D01*
X56946089Y-98391623D01*
X56856427Y-98584783D01*
X56852864Y-98594470D01*
X56797478Y-98794183D01*
X54000118Y-98794183D01*
X53999138Y-96520000D01*
X67066835Y-96520000D01*
X67085465Y-96756711D01*
X67086619Y-96761518D01*
X67086620Y-96761524D01*
X67121640Y-96907391D01*
X67140895Y-96987594D01*
X67142788Y-96992165D01*
X67142789Y-96992167D01*
X67203524Y-97138794D01*
X67231760Y-97206963D01*
X67234346Y-97211183D01*
X67353241Y-97405202D01*
X67353245Y-97405208D01*
X67355824Y-97409416D01*
X67510031Y-97589969D01*
X67690584Y-97744176D01*
X67694792Y-97746755D01*
X67694798Y-97746759D01*
X67823644Y-97825716D01*
X67893037Y-97868240D01*
X67897607Y-97870133D01*
X67897611Y-97870135D01*
X68037847Y-97928222D01*
X68112406Y-97959105D01*
X68192609Y-97978360D01*
X68338476Y-98013380D01*
X68338482Y-98013381D01*
X68343289Y-98014535D01*
X68580000Y-98033165D01*
X68816711Y-98014535D01*
X68821518Y-98013381D01*
X68821524Y-98013380D01*
X68967391Y-97978360D01*
X69047594Y-97959105D01*
X69122153Y-97928222D01*
X69262389Y-97870135D01*
X69262393Y-97870133D01*
X69266963Y-97868240D01*
X69336356Y-97825716D01*
X69465202Y-97746759D01*
X69465208Y-97746755D01*
X69469416Y-97744176D01*
X69649969Y-97589969D01*
X69804176Y-97409416D01*
X69806755Y-97405208D01*
X69806759Y-97405202D01*
X69925654Y-97211183D01*
X69928240Y-97206963D01*
X69956477Y-97138794D01*
X70017211Y-96992167D01*
X70017212Y-96992165D01*
X70019105Y-96987594D01*
X70038360Y-96907391D01*
X70073380Y-96761524D01*
X70073381Y-96761518D01*
X70074535Y-96756711D01*
X70093165Y-96520000D01*
X70074535Y-96283289D01*
X70070385Y-96266000D01*
X70024785Y-96076067D01*
X70019105Y-96052406D01*
X70017211Y-96047833D01*
X69930135Y-95837611D01*
X69930133Y-95837607D01*
X69928240Y-95833037D01*
X69918999Y-95817957D01*
X69806759Y-95634798D01*
X69806755Y-95634792D01*
X69804176Y-95630584D01*
X69649969Y-95450031D01*
X69469416Y-95295824D01*
X69465208Y-95293245D01*
X69465202Y-95293241D01*
X69271183Y-95174346D01*
X69266963Y-95171760D01*
X69262393Y-95169867D01*
X69262389Y-95169865D01*
X69052167Y-95082789D01*
X69052165Y-95082788D01*
X69047594Y-95080895D01*
X68967391Y-95061640D01*
X68821524Y-95026620D01*
X68821518Y-95026619D01*
X68816711Y-95025465D01*
X68580000Y-95006835D01*
X68343289Y-95025465D01*
X68338482Y-95026619D01*
X68338476Y-95026620D01*
X68192609Y-95061640D01*
X68112406Y-95080895D01*
X68107835Y-95082788D01*
X68107833Y-95082789D01*
X67897611Y-95169865D01*
X67897607Y-95169867D01*
X67893037Y-95171760D01*
X67888817Y-95174346D01*
X67694798Y-95293241D01*
X67694792Y-95293245D01*
X67690584Y-95295824D01*
X67510031Y-95450031D01*
X67355824Y-95630584D01*
X67353245Y-95634792D01*
X67353241Y-95634798D01*
X67241001Y-95817957D01*
X67231760Y-95833037D01*
X67229867Y-95837607D01*
X67229865Y-95837611D01*
X67142789Y-96047833D01*
X67140895Y-96052406D01*
X67135215Y-96076067D01*
X67089616Y-96266000D01*
X67085465Y-96283289D01*
X67066835Y-96520000D01*
X53999138Y-96520000D01*
X53999024Y-96254183D01*
X56797478Y-96254183D01*
X56799001Y-96262607D01*
X56811381Y-96266000D01*
X57860974Y-96266000D01*
X57876213Y-96261525D01*
X57877418Y-96260135D01*
X57879089Y-96252452D01*
X57879089Y-96247885D01*
X58387089Y-96247885D01*
X58391564Y-96263124D01*
X58392954Y-96264329D01*
X58400637Y-96266000D01*
X61991433Y-96266000D01*
X62004964Y-96262027D01*
X62006269Y-96252947D01*
X61964303Y-96085875D01*
X61960983Y-96076124D01*
X61876061Y-95880814D01*
X61871194Y-95871739D01*
X61755515Y-95692926D01*
X61749225Y-95684757D01*
X61605895Y-95527240D01*
X61598362Y-95520215D01*
X61431228Y-95388222D01*
X61422645Y-95382520D01*
X61385691Y-95362120D01*
X61335720Y-95311687D01*
X61320948Y-95242245D01*
X61346064Y-95175839D01*
X61373416Y-95149232D01*
X61396886Y-95132491D01*
X61552949Y-95021173D01*
X61584877Y-94989357D01*
X61707524Y-94867137D01*
X61711185Y-94863489D01*
X61742587Y-94819789D01*
X61838524Y-94686277D01*
X61841542Y-94682077D01*
X61855084Y-94654678D01*
X61938225Y-94486453D01*
X61938226Y-94486451D01*
X61940519Y-94481811D01*
X62005459Y-94268069D01*
X62034618Y-94046590D01*
X62036245Y-93980000D01*
X62017941Y-93757361D01*
X61963520Y-93540702D01*
X61874443Y-93335840D01*
X61753103Y-93148277D01*
X61602759Y-92983051D01*
X61598708Y-92979852D01*
X61598704Y-92979848D01*
X61431503Y-92847800D01*
X61431499Y-92847798D01*
X61427448Y-92844598D01*
X61386142Y-92821796D01*
X61336173Y-92771364D01*
X61321401Y-92701921D01*
X61346517Y-92635516D01*
X61373869Y-92608909D01*
X61422296Y-92574366D01*
X61552949Y-92481173D01*
X61584877Y-92449357D01*
X61696488Y-92338134D01*
X67221500Y-92338134D01*
X67228255Y-92400316D01*
X67279385Y-92536705D01*
X67366739Y-92653261D01*
X67483295Y-92740615D01*
X67619684Y-92791745D01*
X67681866Y-92798500D01*
X69478134Y-92798500D01*
X69540316Y-92791745D01*
X69676705Y-92740615D01*
X69793261Y-92653261D01*
X69880615Y-92536705D01*
X69902799Y-92477529D01*
X69924598Y-92419382D01*
X69967240Y-92362618D01*
X70033802Y-92337918D01*
X70103150Y-92353126D01*
X70137817Y-92381114D01*
X70166250Y-92413938D01*
X70338126Y-92556632D01*
X70531000Y-92669338D01*
X70739692Y-92749030D01*
X70744760Y-92750061D01*
X70744763Y-92750062D01*
X70849466Y-92771364D01*
X70958597Y-92793567D01*
X70963772Y-92793757D01*
X70963774Y-92793757D01*
X71176673Y-92801564D01*
X71176677Y-92801564D01*
X71181837Y-92801753D01*
X71186957Y-92801097D01*
X71186959Y-92801097D01*
X71398288Y-92774025D01*
X71398289Y-92774025D01*
X71403416Y-92773368D01*
X71408366Y-92771883D01*
X71612429Y-92710661D01*
X71612434Y-92710659D01*
X71617384Y-92709174D01*
X71817994Y-92610896D01*
X71999860Y-92481173D01*
X72031788Y-92449357D01*
X72143616Y-92337918D01*
X72158096Y-92323489D01*
X72189498Y-92279789D01*
X72285435Y-92146277D01*
X72288453Y-92142077D01*
X72301995Y-92114678D01*
X72385136Y-91946453D01*
X72385137Y-91946451D01*
X72387430Y-91941811D01*
X72452370Y-91728069D01*
X72481529Y-91506590D01*
X72483156Y-91440000D01*
X72464852Y-91217361D01*
X72410431Y-91000702D01*
X72321354Y-90795840D01*
X72200014Y-90608277D01*
X72049670Y-90443051D01*
X72045619Y-90439852D01*
X72045615Y-90439848D01*
X71878414Y-90307800D01*
X71878410Y-90307798D01*
X71874359Y-90304598D01*
X71866304Y-90300151D01*
X71822136Y-90275769D01*
X71678789Y-90196638D01*
X71673920Y-90194914D01*
X71673916Y-90194912D01*
X71473087Y-90123795D01*
X71473083Y-90123794D01*
X71468212Y-90122069D01*
X71463119Y-90121162D01*
X71463116Y-90121161D01*
X71253373Y-90083800D01*
X71253367Y-90083799D01*
X71248284Y-90082894D01*
X71174452Y-90081992D01*
X71030081Y-90080228D01*
X71030079Y-90080228D01*
X71024911Y-90080165D01*
X70804091Y-90113955D01*
X70591756Y-90183357D01*
X70393607Y-90286507D01*
X70389474Y-90289610D01*
X70389471Y-90289612D01*
X70219100Y-90417530D01*
X70214965Y-90420635D01*
X70158537Y-90479684D01*
X70134283Y-90505064D01*
X70072759Y-90540494D01*
X70001846Y-90537037D01*
X69944060Y-90495791D01*
X69925207Y-90462243D01*
X69883767Y-90351703D01*
X69880615Y-90343295D01*
X69793261Y-90226739D01*
X69676705Y-90139385D01*
X69540316Y-90088255D01*
X69478134Y-90081500D01*
X67681866Y-90081500D01*
X67619684Y-90088255D01*
X67483295Y-90139385D01*
X67366739Y-90226739D01*
X67279385Y-90343295D01*
X67228255Y-90479684D01*
X67221500Y-90541866D01*
X67221500Y-92338134D01*
X61696488Y-92338134D01*
X61696705Y-92337918D01*
X61711185Y-92323489D01*
X61742587Y-92279789D01*
X61838524Y-92146277D01*
X61841542Y-92142077D01*
X61855084Y-92114678D01*
X61938225Y-91946453D01*
X61938226Y-91946451D01*
X61940519Y-91941811D01*
X62005459Y-91728069D01*
X62034618Y-91506590D01*
X62036245Y-91440000D01*
X62017941Y-91217361D01*
X61963520Y-91000702D01*
X61874443Y-90795840D01*
X61753103Y-90608277D01*
X61602759Y-90443051D01*
X61598708Y-90439852D01*
X61598704Y-90439848D01*
X61431503Y-90307800D01*
X61431499Y-90307798D01*
X61427448Y-90304598D01*
X61386142Y-90281796D01*
X61336173Y-90231364D01*
X61321401Y-90161921D01*
X61346517Y-90095516D01*
X61373869Y-90068909D01*
X61422296Y-90034366D01*
X61552949Y-89941173D01*
X61584877Y-89909357D01*
X61707524Y-89787137D01*
X61711185Y-89783489D01*
X61742587Y-89739789D01*
X61838524Y-89606277D01*
X61841542Y-89602077D01*
X61855084Y-89574678D01*
X61938225Y-89406453D01*
X61938226Y-89406451D01*
X61940519Y-89401811D01*
X62005459Y-89188069D01*
X62034618Y-88966590D01*
X62036245Y-88900000D01*
X62017941Y-88677361D01*
X61963520Y-88460702D01*
X61874443Y-88255840D01*
X61753103Y-88068277D01*
X61602759Y-87903051D01*
X61598708Y-87899852D01*
X61598704Y-87899848D01*
X61431503Y-87767800D01*
X61431499Y-87767798D01*
X61427448Y-87764598D01*
X61386142Y-87741796D01*
X61336173Y-87691364D01*
X61321401Y-87621921D01*
X61346517Y-87555516D01*
X61373869Y-87528909D01*
X61422296Y-87494366D01*
X61552949Y-87401173D01*
X61584877Y-87369357D01*
X61707524Y-87247137D01*
X61711185Y-87243489D01*
X61742587Y-87199789D01*
X61838524Y-87066277D01*
X61841542Y-87062077D01*
X61855084Y-87034678D01*
X61938225Y-86866453D01*
X61938226Y-86866451D01*
X61940519Y-86861811D01*
X62005459Y-86648069D01*
X62034618Y-86426590D01*
X62036245Y-86360000D01*
X62017941Y-86137361D01*
X61963520Y-85920702D01*
X61874443Y-85715840D01*
X61753103Y-85528277D01*
X61602759Y-85363051D01*
X61598708Y-85359852D01*
X61598704Y-85359848D01*
X61431503Y-85227800D01*
X61431499Y-85227798D01*
X61427448Y-85224598D01*
X61386142Y-85201796D01*
X61336173Y-85151364D01*
X61321401Y-85081921D01*
X61346517Y-85015516D01*
X61373869Y-84988909D01*
X61422906Y-84953931D01*
X61552949Y-84861173D01*
X61584877Y-84829357D01*
X61707524Y-84707137D01*
X61711185Y-84703489D01*
X61742587Y-84659789D01*
X61838524Y-84526277D01*
X61841542Y-84522077D01*
X61855084Y-84494678D01*
X61938225Y-84326453D01*
X61938226Y-84326451D01*
X61940519Y-84321811D01*
X62005459Y-84108069D01*
X62034618Y-83886590D01*
X62036245Y-83820000D01*
X62017941Y-83597361D01*
X61963520Y-83380702D01*
X61874443Y-83175840D01*
X61753103Y-82988277D01*
X61602759Y-82823051D01*
X61598708Y-82819852D01*
X61598704Y-82819848D01*
X61431503Y-82687800D01*
X61431499Y-82687798D01*
X61427448Y-82684598D01*
X61386142Y-82661796D01*
X61336173Y-82611364D01*
X61321401Y-82541921D01*
X61346517Y-82475516D01*
X61373869Y-82448909D01*
X61422296Y-82414366D01*
X61552949Y-82321173D01*
X61584877Y-82289357D01*
X61707524Y-82167137D01*
X61711185Y-82163489D01*
X61742587Y-82119789D01*
X61838524Y-81986277D01*
X61841542Y-81982077D01*
X61855084Y-81954678D01*
X61938225Y-81786453D01*
X61938226Y-81786451D01*
X61940519Y-81781811D01*
X62005459Y-81568069D01*
X62034618Y-81346590D01*
X62036245Y-81280000D01*
X62017941Y-81057361D01*
X61963520Y-80840702D01*
X61874443Y-80635840D01*
X61753103Y-80448277D01*
X61602759Y-80283051D01*
X61598708Y-80279852D01*
X61598704Y-80279848D01*
X61431503Y-80147800D01*
X61431499Y-80147798D01*
X61427448Y-80144598D01*
X61386142Y-80121796D01*
X61336173Y-80071364D01*
X61321401Y-80001921D01*
X61346517Y-79935516D01*
X61373869Y-79908909D01*
X61422296Y-79874366D01*
X61552949Y-79781173D01*
X61584877Y-79749357D01*
X61707524Y-79627137D01*
X61711185Y-79623489D01*
X61742587Y-79579789D01*
X61838524Y-79446277D01*
X61841542Y-79442077D01*
X61855084Y-79414678D01*
X61938225Y-79246453D01*
X61938226Y-79246451D01*
X61940519Y-79241811D01*
X62005459Y-79028069D01*
X62034618Y-78806590D01*
X62036245Y-78740000D01*
X62017941Y-78517361D01*
X61963520Y-78300702D01*
X61874443Y-78095840D01*
X61753103Y-77908277D01*
X61602759Y-77743051D01*
X61598708Y-77739852D01*
X61598704Y-77739848D01*
X61431503Y-77607800D01*
X61431499Y-77607798D01*
X61427448Y-77604598D01*
X61386142Y-77581796D01*
X61336173Y-77531364D01*
X61321401Y-77461921D01*
X61346517Y-77395516D01*
X61373869Y-77368909D01*
X61422296Y-77334366D01*
X61552949Y-77241173D01*
X61584877Y-77209357D01*
X61707524Y-77087137D01*
X61711185Y-77083489D01*
X61742587Y-77039789D01*
X61838524Y-76906277D01*
X61841542Y-76902077D01*
X61855084Y-76874678D01*
X61938225Y-76706453D01*
X61938226Y-76706451D01*
X61940519Y-76701811D01*
X62005459Y-76488069D01*
X62034618Y-76266590D01*
X62036245Y-76200000D01*
X62017941Y-75977361D01*
X61963520Y-75760702D01*
X61874443Y-75555840D01*
X61753103Y-75368277D01*
X61602759Y-75203051D01*
X61598708Y-75199852D01*
X61598704Y-75199848D01*
X61431503Y-75067800D01*
X61431499Y-75067798D01*
X61427448Y-75064598D01*
X61419393Y-75060151D01*
X61375225Y-75035769D01*
X61231878Y-74956638D01*
X61227009Y-74954914D01*
X61227005Y-74954912D01*
X61026176Y-74883795D01*
X61026172Y-74883794D01*
X61021301Y-74882069D01*
X61016208Y-74881162D01*
X61016205Y-74881161D01*
X60806462Y-74843800D01*
X60806456Y-74843799D01*
X60801373Y-74842894D01*
X60727541Y-74841992D01*
X60583170Y-74840228D01*
X60583168Y-74840228D01*
X60578000Y-74840165D01*
X60357180Y-74873955D01*
X60144845Y-74943357D01*
X59946696Y-75046507D01*
X59942563Y-75049610D01*
X59942560Y-75049612D01*
X59921221Y-75065634D01*
X59768054Y-75180635D01*
X59613718Y-75342138D01*
X59610804Y-75346410D01*
X59610803Y-75346411D01*
X59505987Y-75500066D01*
X59451076Y-75545069D01*
X59380551Y-75553240D01*
X59316804Y-75521986D01*
X59296107Y-75497502D01*
X59215515Y-75372926D01*
X59209225Y-75364757D01*
X59065895Y-75207240D01*
X59058362Y-75200215D01*
X58891228Y-75068222D01*
X58882641Y-75062517D01*
X58696206Y-74959599D01*
X58686794Y-74955369D01*
X58486048Y-74884280D01*
X58476077Y-74881646D01*
X58404926Y-74868972D01*
X58391629Y-74870432D01*
X58387089Y-74884989D01*
X58387089Y-96247885D01*
X57879089Y-96247885D01*
X57879089Y-94252115D01*
X57874614Y-94236876D01*
X57873224Y-94235671D01*
X57865541Y-94234000D01*
X56816314Y-94234000D01*
X56802783Y-94237973D01*
X56801346Y-94247966D01*
X56831654Y-94382446D01*
X56834734Y-94392275D01*
X56914859Y-94589603D01*
X56919502Y-94598794D01*
X57030783Y-94780388D01*
X57036866Y-94788699D01*
X57176302Y-94949667D01*
X57183669Y-94956883D01*
X57347523Y-95092916D01*
X57355970Y-95098831D01*
X57425568Y-95139501D01*
X57474292Y-95191140D01*
X57487363Y-95260923D01*
X57460632Y-95326694D01*
X57420176Y-95360053D01*
X57411551Y-95364542D01*
X57402827Y-95370036D01*
X57232522Y-95497905D01*
X57224815Y-95504748D01*
X57077679Y-95658717D01*
X57071193Y-95666727D01*
X56951187Y-95842649D01*
X56946089Y-95851623D01*
X56856427Y-96044783D01*
X56852864Y-96054470D01*
X56797478Y-96254183D01*
X53999024Y-96254183D01*
X53997930Y-93714183D01*
X56797478Y-93714183D01*
X56799001Y-93722607D01*
X56811381Y-93726000D01*
X57860974Y-93726000D01*
X57876213Y-93721525D01*
X57877418Y-93720135D01*
X57879089Y-93712452D01*
X57879089Y-91712115D01*
X57874614Y-91696876D01*
X57873224Y-91695671D01*
X57865541Y-91694000D01*
X56816314Y-91694000D01*
X56802783Y-91697973D01*
X56801346Y-91707966D01*
X56831654Y-91842446D01*
X56834734Y-91852275D01*
X56914859Y-92049603D01*
X56919502Y-92058794D01*
X57030783Y-92240388D01*
X57036866Y-92248699D01*
X57176302Y-92409667D01*
X57183669Y-92416883D01*
X57347523Y-92552916D01*
X57355970Y-92558831D01*
X57425568Y-92599501D01*
X57474292Y-92651140D01*
X57487363Y-92720923D01*
X57460632Y-92786694D01*
X57420176Y-92820053D01*
X57411551Y-92824542D01*
X57402827Y-92830036D01*
X57232522Y-92957905D01*
X57224815Y-92964748D01*
X57077679Y-93118717D01*
X57071193Y-93126727D01*
X56951187Y-93302649D01*
X56946089Y-93311623D01*
X56856427Y-93504783D01*
X56852864Y-93514470D01*
X56797478Y-93714183D01*
X53997930Y-93714183D01*
X53996836Y-91174183D01*
X56797478Y-91174183D01*
X56799001Y-91182607D01*
X56811381Y-91186000D01*
X57860974Y-91186000D01*
X57876213Y-91181525D01*
X57877418Y-91180135D01*
X57879089Y-91172452D01*
X57879089Y-89172115D01*
X57874614Y-89156876D01*
X57873224Y-89155671D01*
X57865541Y-89154000D01*
X56816314Y-89154000D01*
X56802783Y-89157973D01*
X56801346Y-89167966D01*
X56831654Y-89302446D01*
X56834734Y-89312275D01*
X56914859Y-89509603D01*
X56919502Y-89518794D01*
X57030783Y-89700388D01*
X57036866Y-89708699D01*
X57176302Y-89869667D01*
X57183669Y-89876883D01*
X57347523Y-90012916D01*
X57355970Y-90018831D01*
X57425568Y-90059501D01*
X57474292Y-90111140D01*
X57487363Y-90180923D01*
X57460632Y-90246694D01*
X57420176Y-90280053D01*
X57411551Y-90284542D01*
X57402827Y-90290036D01*
X57232522Y-90417905D01*
X57224815Y-90424748D01*
X57077679Y-90578717D01*
X57071193Y-90586727D01*
X56951187Y-90762649D01*
X56946089Y-90771623D01*
X56856427Y-90964783D01*
X56852864Y-90974470D01*
X56797478Y-91174183D01*
X53996836Y-91174183D01*
X53995742Y-88634183D01*
X56797478Y-88634183D01*
X56799001Y-88642607D01*
X56811381Y-88646000D01*
X57860974Y-88646000D01*
X57876213Y-88641525D01*
X57877418Y-88640135D01*
X57879089Y-88632452D01*
X57879089Y-86632115D01*
X57874614Y-86616876D01*
X57873224Y-86615671D01*
X57865541Y-86614000D01*
X56816314Y-86614000D01*
X56802783Y-86617973D01*
X56801346Y-86627966D01*
X56831654Y-86762446D01*
X56834734Y-86772275D01*
X56914859Y-86969603D01*
X56919502Y-86978794D01*
X57030783Y-87160388D01*
X57036866Y-87168699D01*
X57176302Y-87329667D01*
X57183669Y-87336883D01*
X57347523Y-87472916D01*
X57355970Y-87478831D01*
X57425568Y-87519501D01*
X57474292Y-87571140D01*
X57487363Y-87640923D01*
X57460632Y-87706694D01*
X57420176Y-87740053D01*
X57411551Y-87744542D01*
X57402827Y-87750036D01*
X57232522Y-87877905D01*
X57224815Y-87884748D01*
X57077679Y-88038717D01*
X57071193Y-88046727D01*
X56951187Y-88222649D01*
X56946089Y-88231623D01*
X56856427Y-88424783D01*
X56852864Y-88434470D01*
X56797478Y-88634183D01*
X53995742Y-88634183D01*
X53994648Y-86094183D01*
X56797478Y-86094183D01*
X56799001Y-86102607D01*
X56811381Y-86106000D01*
X57860974Y-86106000D01*
X57876213Y-86101525D01*
X57877418Y-86100135D01*
X57879089Y-86092452D01*
X57879089Y-84092115D01*
X57874614Y-84076876D01*
X57873224Y-84075671D01*
X57865541Y-84074000D01*
X56816314Y-84074000D01*
X56802783Y-84077973D01*
X56801346Y-84087966D01*
X56831654Y-84222446D01*
X56834734Y-84232275D01*
X56914859Y-84429603D01*
X56919502Y-84438794D01*
X57030783Y-84620388D01*
X57036866Y-84628699D01*
X57176302Y-84789667D01*
X57183669Y-84796883D01*
X57347523Y-84932916D01*
X57355970Y-84938831D01*
X57425568Y-84979501D01*
X57474292Y-85031140D01*
X57487363Y-85100923D01*
X57460632Y-85166694D01*
X57420176Y-85200053D01*
X57411551Y-85204542D01*
X57402827Y-85210036D01*
X57232522Y-85337905D01*
X57224815Y-85344748D01*
X57077679Y-85498717D01*
X57071193Y-85506727D01*
X56951187Y-85682649D01*
X56946089Y-85691623D01*
X56856427Y-85884783D01*
X56852864Y-85894470D01*
X56797478Y-86094183D01*
X53994648Y-86094183D01*
X53993764Y-84042607D01*
X53993554Y-83554183D01*
X56797478Y-83554183D01*
X56799001Y-83562607D01*
X56811381Y-83566000D01*
X57860974Y-83566000D01*
X57876213Y-83561525D01*
X57877418Y-83560135D01*
X57879089Y-83552452D01*
X57879089Y-81552115D01*
X57874614Y-81536876D01*
X57873224Y-81535671D01*
X57865541Y-81534000D01*
X56816314Y-81534000D01*
X56802783Y-81537973D01*
X56801346Y-81547966D01*
X56831654Y-81682446D01*
X56834734Y-81692275D01*
X56914859Y-81889603D01*
X56919502Y-81898794D01*
X57030783Y-82080388D01*
X57036866Y-82088699D01*
X57176302Y-82249667D01*
X57183669Y-82256883D01*
X57347523Y-82392916D01*
X57355970Y-82398831D01*
X57425568Y-82439501D01*
X57474292Y-82491140D01*
X57487363Y-82560923D01*
X57460632Y-82626694D01*
X57420176Y-82660053D01*
X57411551Y-82664542D01*
X57402827Y-82670036D01*
X57232522Y-82797905D01*
X57224815Y-82804748D01*
X57077679Y-82958717D01*
X57071193Y-82966727D01*
X56951187Y-83142649D01*
X56946089Y-83151623D01*
X56856427Y-83344783D01*
X56852864Y-83354470D01*
X56797478Y-83554183D01*
X53993554Y-83554183D01*
X53992459Y-81014183D01*
X56797478Y-81014183D01*
X56799001Y-81022607D01*
X56811381Y-81026000D01*
X57860974Y-81026000D01*
X57876213Y-81021525D01*
X57877418Y-81020135D01*
X57879089Y-81012452D01*
X57879089Y-79012115D01*
X57874614Y-78996876D01*
X57873224Y-78995671D01*
X57865541Y-78994000D01*
X56816314Y-78994000D01*
X56802783Y-78997973D01*
X56801346Y-79007966D01*
X56831654Y-79142446D01*
X56834734Y-79152275D01*
X56914859Y-79349603D01*
X56919502Y-79358794D01*
X57030783Y-79540388D01*
X57036866Y-79548699D01*
X57176302Y-79709667D01*
X57183669Y-79716883D01*
X57347523Y-79852916D01*
X57355970Y-79858831D01*
X57425568Y-79899501D01*
X57474292Y-79951140D01*
X57487363Y-80020923D01*
X57460632Y-80086694D01*
X57420176Y-80120053D01*
X57411551Y-80124542D01*
X57402827Y-80130036D01*
X57232522Y-80257905D01*
X57224815Y-80264748D01*
X57077679Y-80418717D01*
X57071193Y-80426727D01*
X56951187Y-80602649D01*
X56946089Y-80611623D01*
X56856427Y-80804783D01*
X56852864Y-80814470D01*
X56797478Y-81014183D01*
X53992459Y-81014183D01*
X53991365Y-78474183D01*
X56797478Y-78474183D01*
X56799001Y-78482607D01*
X56811381Y-78486000D01*
X57860974Y-78486000D01*
X57876213Y-78481525D01*
X57877418Y-78480135D01*
X57879089Y-78472452D01*
X57879089Y-76472115D01*
X57874614Y-76456876D01*
X57873224Y-76455671D01*
X57865541Y-76454000D01*
X56816314Y-76454000D01*
X56802783Y-76457973D01*
X56801346Y-76467966D01*
X56831654Y-76602446D01*
X56834734Y-76612275D01*
X56914859Y-76809603D01*
X56919502Y-76818794D01*
X57030783Y-77000388D01*
X57036866Y-77008699D01*
X57176302Y-77169667D01*
X57183669Y-77176883D01*
X57347523Y-77312916D01*
X57355970Y-77318831D01*
X57425568Y-77359501D01*
X57474292Y-77411140D01*
X57487363Y-77480923D01*
X57460632Y-77546694D01*
X57420176Y-77580053D01*
X57411551Y-77584542D01*
X57402827Y-77590036D01*
X57232522Y-77717905D01*
X57224815Y-77724748D01*
X57077679Y-77878717D01*
X57071193Y-77886727D01*
X56951187Y-78062649D01*
X56946089Y-78071623D01*
X56856427Y-78264783D01*
X56852864Y-78274470D01*
X56797478Y-78474183D01*
X53991365Y-78474183D01*
X53990271Y-75934183D01*
X56797478Y-75934183D01*
X56799001Y-75942607D01*
X56811381Y-75946000D01*
X57860974Y-75946000D01*
X57876213Y-75941525D01*
X57877418Y-75940135D01*
X57879089Y-75932452D01*
X57879089Y-74883102D01*
X57875171Y-74869758D01*
X57860895Y-74867771D01*
X57822413Y-74873660D01*
X57812377Y-74876051D01*
X57609957Y-74942212D01*
X57600448Y-74946209D01*
X57411552Y-75044542D01*
X57402827Y-75050036D01*
X57232522Y-75177905D01*
X57224815Y-75184748D01*
X57077679Y-75338717D01*
X57071193Y-75346727D01*
X56951187Y-75522649D01*
X56946089Y-75531623D01*
X56856427Y-75724783D01*
X56852864Y-75734470D01*
X56797478Y-75934183D01*
X53990271Y-75934183D01*
X53988197Y-71120000D01*
X67666496Y-71120000D01*
X67686458Y-71309928D01*
X67745473Y-71491556D01*
X67840960Y-71656944D01*
X67845378Y-71661851D01*
X67845379Y-71661852D01*
X67944342Y-71771762D01*
X67968747Y-71798866D01*
X68123248Y-71911118D01*
X68129276Y-71913802D01*
X68129278Y-71913803D01*
X68232565Y-71959789D01*
X68297712Y-71988794D01*
X68391112Y-72008647D01*
X68478056Y-72027128D01*
X68478061Y-72027128D01*
X68484513Y-72028500D01*
X68675487Y-72028500D01*
X68681939Y-72027128D01*
X68681944Y-72027128D01*
X68768888Y-72008647D01*
X68862288Y-71988794D01*
X68927435Y-71959789D01*
X69030722Y-71913803D01*
X69030724Y-71913802D01*
X69036752Y-71911118D01*
X69191253Y-71798866D01*
X69215658Y-71771762D01*
X69314621Y-71661852D01*
X69314622Y-71661851D01*
X69319040Y-71656944D01*
X69414527Y-71491556D01*
X69473542Y-71309928D01*
X69493504Y-71120000D01*
X69473542Y-70930072D01*
X69414527Y-70748444D01*
X69319040Y-70583056D01*
X69294447Y-70555742D01*
X69195675Y-70446045D01*
X69195674Y-70446044D01*
X69191253Y-70441134D01*
X69036752Y-70328882D01*
X69030724Y-70326198D01*
X69030722Y-70326197D01*
X68868319Y-70253891D01*
X68868318Y-70253891D01*
X68862288Y-70251206D01*
X68768888Y-70231353D01*
X68681944Y-70212872D01*
X68681939Y-70212872D01*
X68675487Y-70211500D01*
X68484513Y-70211500D01*
X68478061Y-70212872D01*
X68478056Y-70212872D01*
X68391112Y-70231353D01*
X68297712Y-70251206D01*
X68291682Y-70253891D01*
X68291681Y-70253891D01*
X68129278Y-70326197D01*
X68129276Y-70326198D01*
X68123248Y-70328882D01*
X67968747Y-70441134D01*
X67964326Y-70446044D01*
X67964325Y-70446045D01*
X67865554Y-70555742D01*
X67840960Y-70583056D01*
X67745473Y-70748444D01*
X67686458Y-70930072D01*
X67666496Y-71120000D01*
X53988197Y-71120000D01*
X53982012Y-56763020D01*
X54001985Y-56694892D01*
X54055620Y-56648376D01*
X54107948Y-56636967D01*
X87650347Y-56619834D01*
X100715431Y-56613161D01*
X100783562Y-56633128D01*
G37*
%TD.AperFunction*%
%TD*%
M02*
