%TF.GenerationSoftware,KiCad,Pcbnew,(6.0.6-0)*%
%TF.CreationDate,2022-07-28T07:04:45-04:00*%
%TF.ProjectId,SCSI adapter version 3,53435349-2061-4646-9170-746572207665,rev?*%
%TF.SameCoordinates,Original*%
%TF.FileFunction,Legend,Top*%
%TF.FilePolarity,Positive*%
%FSLAX46Y46*%
G04 Gerber Fmt 4.6, Leading zero omitted, Abs format (unit mm)*
G04 Created by KiCad (PCBNEW (6.0.6-0)) date 2022-07-28 07:04:45*
%MOMM*%
%LPD*%
G01*
G04 APERTURE LIST*
%ADD10C,0.300000*%
%ADD11C,0.250000*%
%ADD12C,0.150000*%
%ADD13C,0.120000*%
G04 APERTURE END LIST*
D10*
X75792053Y-61495714D02*
X75720624Y-61567142D01*
X75506338Y-61638571D01*
X75363481Y-61638571D01*
X75149195Y-61567142D01*
X75006338Y-61424285D01*
X74934910Y-61281428D01*
X74863481Y-60995714D01*
X74863481Y-60781428D01*
X74934910Y-60495714D01*
X75006338Y-60352857D01*
X75149195Y-60210000D01*
X75363481Y-60138571D01*
X75506338Y-60138571D01*
X75720624Y-60210000D01*
X75792053Y-60281428D01*
X76363481Y-61567142D02*
X76577767Y-61638571D01*
X76934910Y-61638571D01*
X77077767Y-61567142D01*
X77149195Y-61495714D01*
X77220624Y-61352857D01*
X77220624Y-61210000D01*
X77149195Y-61067142D01*
X77077767Y-60995714D01*
X76934910Y-60924285D01*
X76649195Y-60852857D01*
X76506338Y-60781428D01*
X76434910Y-60710000D01*
X76363481Y-60567142D01*
X76363481Y-60424285D01*
X76434910Y-60281428D01*
X76506338Y-60210000D01*
X76649195Y-60138571D01*
X77006338Y-60138571D01*
X77220624Y-60210000D01*
X74020708Y-69300739D02*
X74020708Y-67800739D01*
X75020708Y-67800739D02*
X75306423Y-67800739D01*
X75449280Y-67872168D01*
X75592137Y-68015025D01*
X75663565Y-68300739D01*
X75663565Y-68800739D01*
X75592137Y-69086453D01*
X75449280Y-69229310D01*
X75306423Y-69300739D01*
X75020708Y-69300739D01*
X74877851Y-69229310D01*
X74734994Y-69086453D01*
X74663565Y-68800739D01*
X74663565Y-68300739D01*
X74734994Y-68015025D01*
X74877851Y-67872168D01*
X75020708Y-67800739D01*
X77163565Y-69300739D02*
X76663565Y-68586453D01*
X76306423Y-69300739D02*
X76306423Y-67800739D01*
X76877851Y-67800739D01*
X77020708Y-67872168D01*
X77092137Y-67943596D01*
X77163565Y-68086453D01*
X77163565Y-68300739D01*
X77092137Y-68443596D01*
X77020708Y-68515025D01*
X76877851Y-68586453D01*
X76306423Y-68586453D01*
X75128571Y-89145602D02*
X75842857Y-89145602D01*
X74985714Y-89574173D02*
X75485714Y-88074173D01*
X75985714Y-89574173D01*
X77271428Y-89574173D02*
X76414285Y-89574173D01*
X76842857Y-89574173D02*
X76842857Y-88074173D01*
X76700000Y-88288459D01*
X76557142Y-88431316D01*
X76414285Y-88502744D01*
D11*
X98242445Y-81633025D02*
X98385303Y-81680644D01*
X98623398Y-81680644D01*
X98718636Y-81633025D01*
X98766255Y-81585406D01*
X98813874Y-81490168D01*
X98813874Y-81394930D01*
X98766255Y-81299692D01*
X98718636Y-81252073D01*
X98623398Y-81204454D01*
X98432922Y-81156835D01*
X98337683Y-81109216D01*
X98290064Y-81061597D01*
X98242445Y-80966359D01*
X98242445Y-80871121D01*
X98290064Y-80775883D01*
X98337683Y-80728264D01*
X98432922Y-80680644D01*
X98671017Y-80680644D01*
X98813874Y-80728264D01*
X99242445Y-81156835D02*
X99575779Y-81156835D01*
X99718636Y-81680644D02*
X99242445Y-81680644D01*
X99242445Y-80680644D01*
X99718636Y-80680644D01*
X100623398Y-81680644D02*
X100147207Y-81680644D01*
X100147207Y-80680644D01*
D10*
X74818829Y-102257578D02*
X74818829Y-100757578D01*
X75175972Y-100757578D01*
X75390257Y-100829007D01*
X75533114Y-100971864D01*
X75604543Y-101114721D01*
X75675972Y-101400435D01*
X75675972Y-101614721D01*
X75604543Y-101900435D01*
X75533114Y-102043292D01*
X75390257Y-102186149D01*
X75175972Y-102257578D01*
X74818829Y-102257578D01*
X76961686Y-101257578D02*
X76961686Y-102257578D01*
X76604543Y-100686149D02*
X76247400Y-101757578D01*
X77175972Y-101757578D01*
X74818829Y-97177578D02*
X74818829Y-95677578D01*
X75175972Y-95677578D01*
X75390257Y-95749007D01*
X75533114Y-95891864D01*
X75604543Y-96034721D01*
X75675972Y-96320435D01*
X75675972Y-96534721D01*
X75604543Y-96820435D01*
X75533114Y-96963292D01*
X75390257Y-97106149D01*
X75175972Y-97177578D01*
X74818829Y-97177578D01*
X76961686Y-95677578D02*
X76675972Y-95677578D01*
X76533114Y-95749007D01*
X76461686Y-95820435D01*
X76318829Y-96034721D01*
X76247400Y-96320435D01*
X76247400Y-96891864D01*
X76318829Y-97034721D01*
X76390257Y-97106149D01*
X76533114Y-97177578D01*
X76818829Y-97177578D01*
X76961686Y-97106149D01*
X77033114Y-97034721D01*
X77104543Y-96891864D01*
X77104543Y-96534721D01*
X77033114Y-96391864D01*
X76961686Y-96320435D01*
X76818829Y-96249007D01*
X76533114Y-96249007D01*
X76390257Y-96320435D01*
X76318829Y-96391864D01*
X76247400Y-96534721D01*
X73196179Y-64228599D02*
X73196179Y-62728599D01*
X73553322Y-62728599D01*
X73767608Y-62800028D01*
X73910465Y-62942885D01*
X73981893Y-63085742D01*
X74053322Y-63371456D01*
X74053322Y-63585742D01*
X73981893Y-63871456D01*
X73910465Y-64014313D01*
X73767608Y-64157170D01*
X73553322Y-64228599D01*
X73196179Y-64228599D01*
X75553322Y-64228599D02*
X75053322Y-63514313D01*
X74696179Y-64228599D02*
X74696179Y-62728599D01*
X75267608Y-62728599D01*
X75410465Y-62800028D01*
X75481893Y-62871456D01*
X75553322Y-63014313D01*
X75553322Y-63228599D01*
X75481893Y-63371456D01*
X75410465Y-63442885D01*
X75267608Y-63514313D01*
X74696179Y-63514313D01*
X77196179Y-64371456D02*
X77053322Y-64300028D01*
X76910465Y-64157170D01*
X76696179Y-63942885D01*
X76553322Y-63871456D01*
X76410465Y-63871456D01*
X76481893Y-64228599D02*
X76339036Y-64157170D01*
X76196179Y-64014313D01*
X76124751Y-63728599D01*
X76124751Y-63228599D01*
X76196179Y-62942885D01*
X76339036Y-62800028D01*
X76481893Y-62728599D01*
X76767608Y-62728599D01*
X76910465Y-62800028D01*
X77053322Y-62942885D01*
X77124751Y-63228599D01*
X77124751Y-63728599D01*
X77053322Y-64014313D01*
X76910465Y-64157170D01*
X76767608Y-64228599D01*
X76481893Y-64228599D01*
X74741190Y-79418571D02*
X74241190Y-78704285D01*
X73884047Y-79418571D02*
X73884047Y-77918571D01*
X74455476Y-77918571D01*
X74598333Y-77990000D01*
X74669761Y-78061428D01*
X74741190Y-78204285D01*
X74741190Y-78418571D01*
X74669761Y-78561428D01*
X74598333Y-78632857D01*
X74455476Y-78704285D01*
X73884047Y-78704285D01*
X75312619Y-79347142D02*
X75526904Y-79418571D01*
X75884047Y-79418571D01*
X76026904Y-79347142D01*
X76098333Y-79275714D01*
X76169761Y-79132857D01*
X76169761Y-78990000D01*
X76098333Y-78847142D01*
X76026904Y-78775714D01*
X75884047Y-78704285D01*
X75598333Y-78632857D01*
X75455476Y-78561428D01*
X75384047Y-78490000D01*
X75312619Y-78347142D01*
X75312619Y-78204285D01*
X75384047Y-78061428D01*
X75455476Y-77990000D01*
X75598333Y-77918571D01*
X75955476Y-77918571D01*
X76169761Y-77990000D01*
X76598333Y-77918571D02*
X77455476Y-77918571D01*
X77026904Y-79418571D02*
X77026904Y-77918571D01*
X74004745Y-81925602D02*
X74004745Y-80425602D01*
X75004745Y-80425602D02*
X75290460Y-80425602D01*
X75433317Y-80497031D01*
X75576174Y-80639888D01*
X75647603Y-80925602D01*
X75647603Y-81425602D01*
X75576174Y-81711316D01*
X75433317Y-81854173D01*
X75290460Y-81925602D01*
X75004745Y-81925602D01*
X74861888Y-81854173D01*
X74719031Y-81711316D01*
X74647603Y-81425602D01*
X74647603Y-80925602D01*
X74719031Y-80639888D01*
X74861888Y-80497031D01*
X75004745Y-80425602D01*
X76147603Y-80425602D02*
X76504745Y-81925602D01*
X76790460Y-80854173D01*
X77076174Y-81925602D01*
X77433317Y-80425602D01*
D11*
X98235698Y-69066244D02*
X98235698Y-68066244D01*
X99426175Y-68018625D02*
X98569032Y-69304340D01*
X99949984Y-68066244D02*
X100140460Y-68066244D01*
X100235698Y-68113864D01*
X100330937Y-68209102D01*
X100378556Y-68399578D01*
X100378556Y-68732911D01*
X100330937Y-68923387D01*
X100235698Y-69018625D01*
X100140460Y-69066244D01*
X99949984Y-69066244D01*
X99854746Y-69018625D01*
X99759508Y-68923387D01*
X99711889Y-68732911D01*
X99711889Y-68399578D01*
X99759508Y-68209102D01*
X99854746Y-68113864D01*
X99949984Y-68066244D01*
X98246740Y-64004347D02*
X98246740Y-63004347D01*
X98580073Y-63718633D01*
X98913406Y-63004347D01*
X98913406Y-64004347D01*
X99341978Y-63956728D02*
X99484835Y-64004347D01*
X99722930Y-64004347D01*
X99818168Y-63956728D01*
X99865787Y-63909109D01*
X99913406Y-63813871D01*
X99913406Y-63718633D01*
X99865787Y-63623395D01*
X99818168Y-63575776D01*
X99722930Y-63528157D01*
X99532454Y-63480538D01*
X99437216Y-63432919D01*
X99389597Y-63385300D01*
X99341978Y-63290062D01*
X99341978Y-63194824D01*
X99389597Y-63099586D01*
X99437216Y-63051967D01*
X99532454Y-63004347D01*
X99770549Y-63004347D01*
X99913406Y-63051967D01*
X100865787Y-63051967D02*
X100770549Y-63004347D01*
X100627692Y-63004347D01*
X100484835Y-63051967D01*
X100389597Y-63147205D01*
X100341978Y-63242443D01*
X100294359Y-63432919D01*
X100294359Y-63575776D01*
X100341978Y-63766252D01*
X100389597Y-63861490D01*
X100484835Y-63956728D01*
X100627692Y-64004347D01*
X100722930Y-64004347D01*
X100865787Y-63956728D01*
X100913406Y-63909109D01*
X100913406Y-63575776D01*
X100722930Y-63575776D01*
X98276178Y-104610468D02*
X98276178Y-103610468D01*
X98514274Y-103610468D01*
X98657131Y-103658088D01*
X98752369Y-103753326D01*
X98799988Y-103848564D01*
X98847607Y-104039040D01*
X98847607Y-104181897D01*
X98799988Y-104372373D01*
X98752369Y-104467611D01*
X98657131Y-104562849D01*
X98514274Y-104610468D01*
X98276178Y-104610468D01*
X99609512Y-104086659D02*
X99752369Y-104134278D01*
X99799988Y-104181897D01*
X99847607Y-104277135D01*
X99847607Y-104419992D01*
X99799988Y-104515230D01*
X99752369Y-104562849D01*
X99657131Y-104610468D01*
X99276178Y-104610468D01*
X99276178Y-103610468D01*
X99609512Y-103610468D01*
X99704750Y-103658088D01*
X99752369Y-103705707D01*
X99799988Y-103800945D01*
X99799988Y-103896183D01*
X99752369Y-103991421D01*
X99704750Y-104039040D01*
X99609512Y-104086659D01*
X99276178Y-104086659D01*
X100704750Y-103610468D02*
X100514274Y-103610468D01*
X100419035Y-103658088D01*
X100371416Y-103705707D01*
X100276178Y-103848564D01*
X100228559Y-104039040D01*
X100228559Y-104419992D01*
X100276178Y-104515230D01*
X100323797Y-104562849D01*
X100419035Y-104610468D01*
X100609512Y-104610468D01*
X100704750Y-104562849D01*
X100752369Y-104515230D01*
X100799988Y-104419992D01*
X100799988Y-104181897D01*
X100752369Y-104086659D01*
X100704750Y-104039040D01*
X100609512Y-103991421D01*
X100419035Y-103991421D01*
X100323797Y-104039040D01*
X100276178Y-104086659D01*
X100228559Y-104181897D01*
X98236942Y-86824021D02*
X98236942Y-85824021D01*
X98475037Y-85824021D01*
X98617894Y-85871641D01*
X98713132Y-85966879D01*
X98760751Y-86062117D01*
X98808370Y-86252593D01*
X98808370Y-86395450D01*
X98760751Y-86585926D01*
X98713132Y-86681164D01*
X98617894Y-86776402D01*
X98475037Y-86824021D01*
X98236942Y-86824021D01*
X99570275Y-86300212D02*
X99713132Y-86347831D01*
X99760751Y-86395450D01*
X99808370Y-86490688D01*
X99808370Y-86633545D01*
X99760751Y-86728783D01*
X99713132Y-86776402D01*
X99617894Y-86824021D01*
X99236942Y-86824021D01*
X99236942Y-85824021D01*
X99570275Y-85824021D01*
X99665513Y-85871641D01*
X99713132Y-85919260D01*
X99760751Y-86014498D01*
X99760751Y-86109736D01*
X99713132Y-86204974D01*
X99665513Y-86252593D01*
X99570275Y-86300212D01*
X99236942Y-86300212D01*
X100236942Y-86824021D02*
X100236942Y-85824021D01*
X100617894Y-85824021D01*
X100713132Y-85871641D01*
X100760751Y-85919260D01*
X100808370Y-86014498D01*
X100808370Y-86157355D01*
X100760751Y-86252593D01*
X100713132Y-86300212D01*
X100617894Y-86347831D01*
X100236942Y-86347831D01*
X98834951Y-71597193D02*
X98501618Y-71121003D01*
X98263523Y-71597193D02*
X98263523Y-70597193D01*
X98644475Y-70597193D01*
X98739713Y-70644813D01*
X98787332Y-70692432D01*
X98834951Y-70787670D01*
X98834951Y-70930527D01*
X98787332Y-71025765D01*
X98739713Y-71073384D01*
X98644475Y-71121003D01*
X98263523Y-71121003D01*
X99215904Y-71549574D02*
X99358761Y-71597193D01*
X99596856Y-71597193D01*
X99692094Y-71549574D01*
X99739713Y-71501955D01*
X99787332Y-71406717D01*
X99787332Y-71311479D01*
X99739713Y-71216241D01*
X99692094Y-71168622D01*
X99596856Y-71121003D01*
X99406380Y-71073384D01*
X99311142Y-71025765D01*
X99263523Y-70978146D01*
X99215904Y-70882908D01*
X99215904Y-70787670D01*
X99263523Y-70692432D01*
X99311142Y-70644813D01*
X99406380Y-70597193D01*
X99644475Y-70597193D01*
X99787332Y-70644813D01*
X100073047Y-70597193D02*
X100644475Y-70597193D01*
X100358761Y-71597193D02*
X100358761Y-70597193D01*
D10*
X75128571Y-91737617D02*
X75842857Y-91737617D01*
X74985714Y-92166188D02*
X75485714Y-90666188D01*
X75985714Y-92166188D01*
X76414285Y-90809045D02*
X76485714Y-90737617D01*
X76628571Y-90666188D01*
X76985714Y-90666188D01*
X77128571Y-90737617D01*
X77200000Y-90809045D01*
X77271428Y-90951902D01*
X77271428Y-91094759D01*
X77200000Y-91309045D01*
X76342857Y-92166188D01*
X77271428Y-92166188D01*
X74818829Y-104797578D02*
X74818829Y-103297578D01*
X75175972Y-103297578D01*
X75390257Y-103369007D01*
X75533114Y-103511864D01*
X75604543Y-103654721D01*
X75675972Y-103940435D01*
X75675972Y-104154721D01*
X75604543Y-104440435D01*
X75533114Y-104583292D01*
X75390257Y-104726149D01*
X75175972Y-104797578D01*
X74818829Y-104797578D01*
X76175972Y-103297578D02*
X77104543Y-103297578D01*
X76604543Y-103869007D01*
X76818829Y-103869007D01*
X76961686Y-103940435D01*
X77033114Y-104011864D01*
X77104543Y-104154721D01*
X77104543Y-104511864D01*
X77033114Y-104654721D01*
X76961686Y-104726149D01*
X76818829Y-104797578D01*
X76390257Y-104797578D01*
X76247400Y-104726149D01*
X76175972Y-104654721D01*
D11*
X74574571Y-76089077D02*
X74907905Y-76089077D01*
X75050762Y-76612886D02*
X74574571Y-76612886D01*
X74574571Y-75612886D01*
X75050762Y-75612886D01*
X75669809Y-75612886D02*
X75860286Y-75612886D01*
X75955524Y-75660506D01*
X76050762Y-75755744D01*
X76098381Y-75946220D01*
X76098381Y-76279553D01*
X76050762Y-76470029D01*
X75955524Y-76565267D01*
X75860286Y-76612886D01*
X75669809Y-76612886D01*
X75574571Y-76565267D01*
X75479333Y-76470029D01*
X75431714Y-76279553D01*
X75431714Y-75946220D01*
X75479333Y-75755744D01*
X75574571Y-75660506D01*
X75669809Y-75612886D01*
X76526952Y-76612886D02*
X76526952Y-75612886D01*
X76907905Y-75612886D01*
X77003143Y-75660506D01*
X77050762Y-75708125D01*
X77098381Y-75803363D01*
X77098381Y-75946220D01*
X77050762Y-76041458D01*
X77003143Y-76089077D01*
X76907905Y-76136696D01*
X76526952Y-76136696D01*
X98804167Y-61371296D02*
X98470834Y-60895106D01*
X98232738Y-61371296D02*
X98232738Y-60371296D01*
X98613691Y-60371296D01*
X98708929Y-60418916D01*
X98756548Y-60466535D01*
X98804167Y-60561773D01*
X98804167Y-60704630D01*
X98756548Y-60799868D01*
X98708929Y-60847487D01*
X98613691Y-60895106D01*
X98232738Y-60895106D01*
X99232738Y-60847487D02*
X99566072Y-60847487D01*
X99708929Y-61371296D02*
X99232738Y-61371296D01*
X99232738Y-60371296D01*
X99708929Y-60371296D01*
X100804167Y-61466535D02*
X100708929Y-61418916D01*
X100613691Y-61323677D01*
X100470834Y-61180820D01*
X100375595Y-61133201D01*
X100280357Y-61133201D01*
X100327976Y-61371296D02*
X100232738Y-61323677D01*
X100137500Y-61228439D01*
X100089881Y-61037963D01*
X100089881Y-60704630D01*
X100137500Y-60514154D01*
X100232738Y-60418916D01*
X100327976Y-60371296D01*
X100518453Y-60371296D01*
X100613691Y-60418916D01*
X100708929Y-60514154D01*
X100756548Y-60704630D01*
X100756548Y-61037963D01*
X100708929Y-61228439D01*
X100613691Y-61323677D01*
X100518453Y-61371296D01*
X100327976Y-61371296D01*
X98257007Y-109704828D02*
X98257007Y-108704828D01*
X98495103Y-108704828D01*
X98637960Y-108752448D01*
X98733198Y-108847686D01*
X98780817Y-108942924D01*
X98828436Y-109133400D01*
X98828436Y-109276257D01*
X98780817Y-109466733D01*
X98733198Y-109561971D01*
X98637960Y-109657209D01*
X98495103Y-109704828D01*
X98257007Y-109704828D01*
X99447483Y-108704828D02*
X99542722Y-108704828D01*
X99637960Y-108752448D01*
X99685579Y-108800067D01*
X99733198Y-108895305D01*
X99780817Y-109085781D01*
X99780817Y-109323876D01*
X99733198Y-109514352D01*
X99685579Y-109609590D01*
X99637960Y-109657209D01*
X99542722Y-109704828D01*
X99447483Y-109704828D01*
X99352245Y-109657209D01*
X99304626Y-109609590D01*
X99257007Y-109514352D01*
X99209388Y-109323876D01*
X99209388Y-109085781D01*
X99257007Y-108895305D01*
X99304626Y-108800067D01*
X99352245Y-108752448D01*
X99447483Y-108704828D01*
D10*
X74818829Y-109877578D02*
X74818829Y-108377578D01*
X75175972Y-108377578D01*
X75390257Y-108449007D01*
X75533114Y-108591864D01*
X75604543Y-108734721D01*
X75675972Y-109020435D01*
X75675972Y-109234721D01*
X75604543Y-109520435D01*
X75533114Y-109663292D01*
X75390257Y-109806149D01*
X75175972Y-109877578D01*
X74818829Y-109877578D01*
X77104543Y-109877578D02*
X76247400Y-109877578D01*
X76675972Y-109877578D02*
X76675972Y-108377578D01*
X76533114Y-108591864D01*
X76390257Y-108734721D01*
X76247400Y-108806149D01*
X69705587Y-137391340D02*
X68455587Y-137391340D01*
X68872253Y-136796102D02*
X69705587Y-136796102D01*
X68991301Y-136796102D02*
X68931777Y-136736579D01*
X68872253Y-136617531D01*
X68872253Y-136438960D01*
X68931777Y-136319912D01*
X69050825Y-136260388D01*
X69705587Y-136260388D01*
X69705587Y-135665150D02*
X68872253Y-135665150D01*
X68455587Y-135665150D02*
X68515111Y-135724674D01*
X68574634Y-135665150D01*
X68515111Y-135605626D01*
X68455587Y-135665150D01*
X68574634Y-135665150D01*
X68872253Y-135248483D02*
X68872253Y-134772293D01*
X68455587Y-135069912D02*
X69527015Y-135069912D01*
X69646063Y-135010388D01*
X69705587Y-134891340D01*
X69705587Y-134772293D01*
X69705587Y-134355626D02*
X68872253Y-134355626D01*
X68455587Y-134355626D02*
X68515111Y-134415150D01*
X68574634Y-134355626D01*
X68515111Y-134296102D01*
X68455587Y-134355626D01*
X68574634Y-134355626D01*
X69705587Y-133224674D02*
X69050825Y-133224674D01*
X68931777Y-133284198D01*
X68872253Y-133403245D01*
X68872253Y-133641340D01*
X68931777Y-133760388D01*
X69646063Y-133224674D02*
X69705587Y-133343721D01*
X69705587Y-133641340D01*
X69646063Y-133760388D01*
X69527015Y-133819912D01*
X69407968Y-133819912D01*
X69288920Y-133760388D01*
X69229396Y-133641340D01*
X69229396Y-133343721D01*
X69169872Y-133224674D01*
X69705587Y-132450864D02*
X69646063Y-132569912D01*
X69527015Y-132629436D01*
X68455587Y-132629436D01*
X69705587Y-131022293D02*
X68455587Y-131022293D01*
X68455587Y-130724674D01*
X68515111Y-130546102D01*
X68634158Y-130427055D01*
X68753206Y-130367531D01*
X68991301Y-130308007D01*
X69169872Y-130308007D01*
X69407968Y-130367531D01*
X69527015Y-130427055D01*
X69646063Y-130546102D01*
X69705587Y-130724674D01*
X69705587Y-131022293D01*
X69646063Y-129296102D02*
X69705587Y-129415150D01*
X69705587Y-129653245D01*
X69646063Y-129772293D01*
X69527015Y-129831817D01*
X69050825Y-129831817D01*
X68931777Y-129772293D01*
X68872253Y-129653245D01*
X68872253Y-129415150D01*
X68931777Y-129296102D01*
X69050825Y-129236579D01*
X69169872Y-129236579D01*
X69288920Y-129831817D01*
X69646063Y-128760388D02*
X69705587Y-128641340D01*
X69705587Y-128403245D01*
X69646063Y-128284198D01*
X69527015Y-128224674D01*
X69467491Y-128224674D01*
X69348444Y-128284198D01*
X69288920Y-128403245D01*
X69288920Y-128581817D01*
X69229396Y-128700864D01*
X69110349Y-128760388D01*
X69050825Y-128760388D01*
X68931777Y-128700864D01*
X68872253Y-128581817D01*
X68872253Y-128403245D01*
X68931777Y-128284198D01*
X69705587Y-127688960D02*
X68872253Y-127688960D01*
X68455587Y-127688960D02*
X68515111Y-127748483D01*
X68574634Y-127688960D01*
X68515111Y-127629436D01*
X68455587Y-127688960D01*
X68574634Y-127688960D01*
X68872253Y-126558007D02*
X69884158Y-126558007D01*
X70003206Y-126617531D01*
X70062730Y-126677055D01*
X70122253Y-126796102D01*
X70122253Y-126974674D01*
X70062730Y-127093721D01*
X69646063Y-126558007D02*
X69705587Y-126677055D01*
X69705587Y-126915150D01*
X69646063Y-127034198D01*
X69586539Y-127093721D01*
X69467491Y-127153245D01*
X69110349Y-127153245D01*
X68991301Y-127093721D01*
X68931777Y-127034198D01*
X68872253Y-126915150D01*
X68872253Y-126677055D01*
X68931777Y-126558007D01*
X68872253Y-125962769D02*
X69705587Y-125962769D01*
X68991301Y-125962769D02*
X68931777Y-125903245D01*
X68872253Y-125784198D01*
X68872253Y-125605626D01*
X68931777Y-125486579D01*
X69050825Y-125427055D01*
X69705587Y-125427055D01*
X69705587Y-123879436D02*
X68455587Y-123879436D01*
X68931777Y-123879436D02*
X68872253Y-123760388D01*
X68872253Y-123522293D01*
X68931777Y-123403245D01*
X68991301Y-123343721D01*
X69110349Y-123284198D01*
X69467491Y-123284198D01*
X69586539Y-123343721D01*
X69646063Y-123403245D01*
X69705587Y-123522293D01*
X69705587Y-123760388D01*
X69646063Y-123879436D01*
X68872253Y-122867531D02*
X69705587Y-122569912D01*
X68872253Y-122272293D02*
X69705587Y-122569912D01*
X70003206Y-122688960D01*
X70062730Y-122748483D01*
X70122253Y-122867531D01*
X69586539Y-121796102D02*
X69646063Y-121736579D01*
X69705587Y-121796102D01*
X69646063Y-121855626D01*
X69586539Y-121796102D01*
X69705587Y-121796102D01*
X68931777Y-121796102D02*
X68991301Y-121736579D01*
X69050825Y-121796102D01*
X68991301Y-121855626D01*
X68931777Y-121796102D01*
X69050825Y-121796102D01*
X71063325Y-136974674D02*
X71122849Y-136796102D01*
X71182372Y-136736579D01*
X71301420Y-136677055D01*
X71479991Y-136677055D01*
X71599039Y-136736579D01*
X71658563Y-136796102D01*
X71718087Y-136915150D01*
X71718087Y-137391340D01*
X70468087Y-137391340D01*
X70468087Y-136974674D01*
X70527611Y-136855626D01*
X70587134Y-136796102D01*
X70706182Y-136736579D01*
X70825230Y-136736579D01*
X70944277Y-136796102D01*
X71003801Y-136855626D01*
X71063325Y-136974674D01*
X71063325Y-137391340D01*
X71718087Y-136141340D02*
X70884753Y-136141340D01*
X70468087Y-136141340D02*
X70527611Y-136200864D01*
X70587134Y-136141340D01*
X70527611Y-136081817D01*
X70468087Y-136141340D01*
X70587134Y-136141340D01*
X70884753Y-135010388D02*
X71896658Y-135010388D01*
X72015706Y-135069912D01*
X72075230Y-135129436D01*
X72134753Y-135248483D01*
X72134753Y-135427055D01*
X72075230Y-135546102D01*
X71658563Y-135010388D02*
X71718087Y-135129436D01*
X71718087Y-135367531D01*
X71658563Y-135486579D01*
X71599039Y-135546102D01*
X71479991Y-135605626D01*
X71122849Y-135605626D01*
X71003801Y-135546102D01*
X70944277Y-135486579D01*
X70884753Y-135367531D01*
X70884753Y-135129436D01*
X70944277Y-135010388D01*
X71063325Y-133998483D02*
X71122849Y-133819912D01*
X71182372Y-133760388D01*
X71301420Y-133700864D01*
X71479991Y-133700864D01*
X71599039Y-133760388D01*
X71658563Y-133819912D01*
X71718087Y-133938960D01*
X71718087Y-134415150D01*
X70468087Y-134415150D01*
X70468087Y-133998483D01*
X70527611Y-133879436D01*
X70587134Y-133819912D01*
X70706182Y-133760388D01*
X70825230Y-133760388D01*
X70944277Y-133819912D01*
X71003801Y-133879436D01*
X71063325Y-133998483D01*
X71063325Y-134415150D01*
X71718087Y-132629436D02*
X71063325Y-132629436D01*
X70944277Y-132688960D01*
X70884753Y-132808007D01*
X70884753Y-133046102D01*
X70944277Y-133165150D01*
X71658563Y-132629436D02*
X71718087Y-132748483D01*
X71718087Y-133046102D01*
X71658563Y-133165150D01*
X71539515Y-133224674D01*
X71420468Y-133224674D01*
X71301420Y-133165150D01*
X71241896Y-133046102D01*
X71241896Y-132748483D01*
X71182372Y-132629436D01*
X71718087Y-131498483D02*
X70468087Y-131498483D01*
X71658563Y-131498483D02*
X71718087Y-131617531D01*
X71718087Y-131855626D01*
X71658563Y-131974674D01*
X71599039Y-132034198D01*
X71479991Y-132093721D01*
X71122849Y-132093721D01*
X71003801Y-132034198D01*
X70944277Y-131974674D01*
X70884753Y-131855626D01*
X70884753Y-131617531D01*
X70944277Y-131498483D01*
X71063325Y-130486579D02*
X71122849Y-130308007D01*
X71182372Y-130248483D01*
X71301420Y-130188960D01*
X71479991Y-130188960D01*
X71599039Y-130248483D01*
X71658563Y-130308007D01*
X71718087Y-130427055D01*
X71718087Y-130903245D01*
X70468087Y-130903245D01*
X70468087Y-130486579D01*
X70527611Y-130367531D01*
X70587134Y-130308007D01*
X70706182Y-130248483D01*
X70825230Y-130248483D01*
X70944277Y-130308007D01*
X71003801Y-130367531D01*
X71063325Y-130486579D01*
X71063325Y-130903245D01*
X71718087Y-129653245D02*
X70884753Y-129653245D01*
X70468087Y-129653245D02*
X70527611Y-129712769D01*
X70587134Y-129653245D01*
X70527611Y-129593721D01*
X70468087Y-129653245D01*
X70587134Y-129653245D01*
X71718087Y-128879436D02*
X71658563Y-128998483D01*
X71599039Y-129058007D01*
X71479991Y-129117531D01*
X71122849Y-129117531D01*
X71003801Y-129058007D01*
X70944277Y-128998483D01*
X70884753Y-128879436D01*
X70884753Y-128700864D01*
X70944277Y-128581817D01*
X71003801Y-128522293D01*
X71122849Y-128462769D01*
X71479991Y-128462769D01*
X71599039Y-128522293D01*
X71658563Y-128581817D01*
X71718087Y-128700864D01*
X71718087Y-128879436D01*
X71718087Y-127748483D02*
X71658563Y-127867531D01*
X71539515Y-127927055D01*
X70468087Y-127927055D01*
X71718087Y-127093721D02*
X71658563Y-127212769D01*
X71599039Y-127272293D01*
X71479991Y-127331817D01*
X71122849Y-127331817D01*
X71003801Y-127272293D01*
X70944277Y-127212769D01*
X70884753Y-127093721D01*
X70884753Y-126915150D01*
X70944277Y-126796102D01*
X71003801Y-126736579D01*
X71122849Y-126677055D01*
X71479991Y-126677055D01*
X71599039Y-126736579D01*
X71658563Y-126796102D01*
X71718087Y-126915150D01*
X71718087Y-127093721D01*
X70884753Y-125605626D02*
X71896658Y-125605626D01*
X72015706Y-125665150D01*
X72075230Y-125724674D01*
X72134753Y-125843721D01*
X72134753Y-126022293D01*
X72075230Y-126141340D01*
X71658563Y-125605626D02*
X71718087Y-125724674D01*
X71718087Y-125962769D01*
X71658563Y-126081817D01*
X71599039Y-126141340D01*
X71479991Y-126200864D01*
X71122849Y-126200864D01*
X71003801Y-126141340D01*
X70944277Y-126081817D01*
X70884753Y-125962769D01*
X70884753Y-125724674D01*
X70944277Y-125605626D01*
X71718087Y-125010388D02*
X70884753Y-125010388D01*
X70468087Y-125010388D02*
X70527611Y-125069912D01*
X70587134Y-125010388D01*
X70527611Y-124950864D01*
X70468087Y-125010388D01*
X70587134Y-125010388D01*
X71658563Y-124474674D02*
X71718087Y-124355626D01*
X71718087Y-124117531D01*
X71658563Y-123998483D01*
X71539515Y-123938960D01*
X71479991Y-123938960D01*
X71360944Y-123998483D01*
X71301420Y-124117531D01*
X71301420Y-124296102D01*
X71241896Y-124415150D01*
X71122849Y-124474674D01*
X71063325Y-124474674D01*
X70944277Y-124415150D01*
X70884753Y-124296102D01*
X70884753Y-124117531D01*
X70944277Y-123998483D01*
X70884753Y-123581817D02*
X70884753Y-123105626D01*
X70468087Y-123403245D02*
X71539515Y-123403245D01*
X71658563Y-123343721D01*
X71718087Y-123224674D01*
X71718087Y-123105626D01*
X70468087Y-122629436D02*
X70706182Y-122748483D01*
X71658563Y-122153245D02*
X71718087Y-122034198D01*
X71718087Y-121796102D01*
X71658563Y-121677055D01*
X71539515Y-121617531D01*
X71479991Y-121617531D01*
X71360944Y-121677055D01*
X71301420Y-121796102D01*
X71301420Y-121974674D01*
X71241896Y-122093721D01*
X71122849Y-122153245D01*
X71063325Y-122153245D01*
X70944277Y-122093721D01*
X70884753Y-121974674D01*
X70884753Y-121796102D01*
X70944277Y-121677055D01*
X71063325Y-119712769D02*
X71122849Y-119534198D01*
X71182372Y-119474674D01*
X71301420Y-119415150D01*
X71479991Y-119415150D01*
X71599039Y-119474674D01*
X71658563Y-119534198D01*
X71718087Y-119653245D01*
X71718087Y-120129436D01*
X70468087Y-120129436D01*
X70468087Y-119712769D01*
X70527611Y-119593721D01*
X70587134Y-119534198D01*
X70706182Y-119474674D01*
X70825230Y-119474674D01*
X70944277Y-119534198D01*
X71003801Y-119593721D01*
X71063325Y-119712769D01*
X71063325Y-120129436D01*
X71718087Y-118879436D02*
X70884753Y-118879436D01*
X70468087Y-118879436D02*
X70527611Y-118938960D01*
X70587134Y-118879436D01*
X70527611Y-118819912D01*
X70468087Y-118879436D01*
X70587134Y-118879436D01*
X70884753Y-117748483D02*
X71896658Y-117748483D01*
X72015706Y-117808007D01*
X72075230Y-117867531D01*
X72134753Y-117986579D01*
X72134753Y-118165150D01*
X72075230Y-118284198D01*
X71658563Y-117748483D02*
X71718087Y-117867531D01*
X71718087Y-118105626D01*
X71658563Y-118224674D01*
X71599039Y-118284198D01*
X71479991Y-118343721D01*
X71122849Y-118343721D01*
X71003801Y-118284198D01*
X70944277Y-118224674D01*
X70884753Y-118105626D01*
X70884753Y-117867531D01*
X70944277Y-117748483D01*
X71063325Y-115784198D02*
X71122849Y-115605626D01*
X71182372Y-115546102D01*
X71301420Y-115486579D01*
X71479991Y-115486579D01*
X71599039Y-115546102D01*
X71658563Y-115605626D01*
X71718087Y-115724674D01*
X71718087Y-116200864D01*
X70468087Y-116200864D01*
X70468087Y-115784198D01*
X70527611Y-115665150D01*
X70587134Y-115605626D01*
X70706182Y-115546102D01*
X70825230Y-115546102D01*
X70944277Y-115605626D01*
X71003801Y-115665150D01*
X71063325Y-115784198D01*
X71063325Y-116200864D01*
X71718087Y-114415150D02*
X71063325Y-114415150D01*
X70944277Y-114474674D01*
X70884753Y-114593721D01*
X70884753Y-114831817D01*
X70944277Y-114950864D01*
X71658563Y-114415150D02*
X71718087Y-114534198D01*
X71718087Y-114831817D01*
X71658563Y-114950864D01*
X71539515Y-115010388D01*
X71420468Y-115010388D01*
X71301420Y-114950864D01*
X71241896Y-114831817D01*
X71241896Y-114534198D01*
X71182372Y-114415150D01*
X71718087Y-113284198D02*
X70468087Y-113284198D01*
X71658563Y-113284198D02*
X71718087Y-113403245D01*
X71718087Y-113641340D01*
X71658563Y-113760388D01*
X71599039Y-113819912D01*
X71479991Y-113879436D01*
X71122849Y-113879436D01*
X71003801Y-113819912D01*
X70944277Y-113760388D01*
X70884753Y-113641340D01*
X70884753Y-113403245D01*
X70944277Y-113284198D01*
X71063325Y-111319912D02*
X71122849Y-111141340D01*
X71182372Y-111081817D01*
X71301420Y-111022293D01*
X71479991Y-111022293D01*
X71599039Y-111081817D01*
X71658563Y-111141340D01*
X71718087Y-111260388D01*
X71718087Y-111736579D01*
X70468087Y-111736579D01*
X70468087Y-111319912D01*
X70527611Y-111200864D01*
X70587134Y-111141340D01*
X70706182Y-111081817D01*
X70825230Y-111081817D01*
X70944277Y-111141340D01*
X71003801Y-111200864D01*
X71063325Y-111319912D01*
X71063325Y-111736579D01*
X71658563Y-110010388D02*
X71718087Y-110129436D01*
X71718087Y-110367531D01*
X71658563Y-110486579D01*
X71539515Y-110546102D01*
X71063325Y-110546102D01*
X70944277Y-110486579D01*
X70884753Y-110367531D01*
X70884753Y-110129436D01*
X70944277Y-110010388D01*
X71063325Y-109950864D01*
X71182372Y-109950864D01*
X71301420Y-110546102D01*
X70884753Y-109415150D02*
X71718087Y-109415150D01*
X71003801Y-109415150D02*
X70944277Y-109355626D01*
X70884753Y-109236579D01*
X70884753Y-109058007D01*
X70944277Y-108938960D01*
X71063325Y-108879436D01*
X71718087Y-108879436D01*
X71658563Y-107748483D02*
X71718087Y-107867531D01*
X71718087Y-108105626D01*
X71658563Y-108224674D01*
X71599039Y-108284198D01*
X71479991Y-108343721D01*
X71122849Y-108343721D01*
X71003801Y-108284198D01*
X70944277Y-108224674D01*
X70884753Y-108105626D01*
X70884753Y-107867531D01*
X70944277Y-107748483D01*
X71718087Y-107212769D02*
X70468087Y-107212769D01*
X71718087Y-106677055D02*
X71063325Y-106677055D01*
X70944277Y-106736579D01*
X70884753Y-106855626D01*
X70884753Y-107034198D01*
X70944277Y-107153245D01*
X71003801Y-107212769D01*
X73966749Y-66764669D02*
X73966749Y-65264669D01*
X75538178Y-66764669D02*
X75038178Y-66050383D01*
X74681035Y-66764669D02*
X74681035Y-65264669D01*
X75252464Y-65264669D01*
X75395321Y-65336098D01*
X75466749Y-65407526D01*
X75538178Y-65550383D01*
X75538178Y-65764669D01*
X75466749Y-65907526D01*
X75395321Y-65978955D01*
X75252464Y-66050383D01*
X74681035Y-66050383D01*
X77181035Y-66907526D02*
X77038178Y-66836098D01*
X76895321Y-66693240D01*
X76681035Y-66478955D01*
X76538178Y-66407526D01*
X76395321Y-66407526D01*
X76466749Y-66764669D02*
X76323892Y-66693240D01*
X76181035Y-66550383D01*
X76109606Y-66264669D01*
X76109606Y-65764669D01*
X76181035Y-65478955D01*
X76323892Y-65336098D01*
X76466749Y-65264669D01*
X76752464Y-65264669D01*
X76895321Y-65336098D01*
X77038178Y-65478955D01*
X77109606Y-65764669D01*
X77109606Y-66264669D01*
X77038178Y-66550383D01*
X76895321Y-66693240D01*
X76752464Y-66764669D01*
X76466749Y-66764669D01*
D11*
X98205895Y-96999807D02*
X98205895Y-95999807D01*
X98443991Y-95999807D01*
X98586848Y-96047427D01*
X98682086Y-96142665D01*
X98729705Y-96237903D01*
X98777324Y-96428379D01*
X98777324Y-96571236D01*
X98729705Y-96761712D01*
X98682086Y-96856950D01*
X98586848Y-96952188D01*
X98443991Y-96999807D01*
X98205895Y-96999807D01*
X99539229Y-96475998D02*
X99682086Y-96523617D01*
X99729705Y-96571236D01*
X99777324Y-96666474D01*
X99777324Y-96809331D01*
X99729705Y-96904569D01*
X99682086Y-96952188D01*
X99586848Y-96999807D01*
X99205895Y-96999807D01*
X99205895Y-95999807D01*
X99539229Y-95999807D01*
X99634467Y-96047427D01*
X99682086Y-96095046D01*
X99729705Y-96190284D01*
X99729705Y-96285522D01*
X99682086Y-96380760D01*
X99634467Y-96428379D01*
X99539229Y-96475998D01*
X99205895Y-96475998D01*
X100110657Y-95999807D02*
X100729705Y-95999807D01*
X100396371Y-96380760D01*
X100539229Y-96380760D01*
X100634467Y-96428379D01*
X100682086Y-96475998D01*
X100729705Y-96571236D01*
X100729705Y-96809331D01*
X100682086Y-96904569D01*
X100634467Y-96952188D01*
X100539229Y-96999807D01*
X100253514Y-96999807D01*
X100158276Y-96952188D01*
X100110657Y-96904569D01*
X98579077Y-78662844D02*
X98721934Y-78710463D01*
X98769553Y-78758082D01*
X98817172Y-78853320D01*
X98817172Y-78996177D01*
X98769553Y-79091415D01*
X98721934Y-79139034D01*
X98626696Y-79186653D01*
X98245744Y-79186653D01*
X98245744Y-78186653D01*
X98579077Y-78186653D01*
X98674315Y-78234273D01*
X98721934Y-78281892D01*
X98769553Y-78377130D01*
X98769553Y-78472368D01*
X98721934Y-78567606D01*
X98674315Y-78615225D01*
X98579077Y-78662844D01*
X98245744Y-78662844D01*
X99198125Y-79139034D02*
X99340982Y-79186653D01*
X99579077Y-79186653D01*
X99674315Y-79139034D01*
X99721934Y-79091415D01*
X99769553Y-78996177D01*
X99769553Y-78900939D01*
X99721934Y-78805701D01*
X99674315Y-78758082D01*
X99579077Y-78710463D01*
X99388601Y-78662844D01*
X99293363Y-78615225D01*
X99245744Y-78567606D01*
X99198125Y-78472368D01*
X99198125Y-78377130D01*
X99245744Y-78281892D01*
X99293363Y-78234273D01*
X99388601Y-78186653D01*
X99626696Y-78186653D01*
X99769553Y-78234273D01*
X100388601Y-78710463D02*
X100388601Y-79186653D01*
X100055268Y-78186653D02*
X100388601Y-78710463D01*
X100721934Y-78186653D01*
D10*
X73350158Y-85524649D02*
X73850158Y-87024649D01*
X74350158Y-85524649D01*
X74850158Y-87024649D02*
X74850158Y-85524649D01*
X75207300Y-85524649D01*
X75421586Y-85596078D01*
X75564443Y-85738935D01*
X75635872Y-85881792D01*
X75707300Y-86167506D01*
X75707300Y-86381792D01*
X75635872Y-86667506D01*
X75564443Y-86810363D01*
X75421586Y-86953220D01*
X75207300Y-87024649D01*
X74850158Y-87024649D01*
X76350158Y-87024649D02*
X76350158Y-85524649D01*
X76707300Y-85524649D01*
X76921586Y-85596078D01*
X77064443Y-85738935D01*
X77135872Y-85881792D01*
X77207300Y-86167506D01*
X77207300Y-86381792D01*
X77135872Y-86667506D01*
X77064443Y-86810363D01*
X76921586Y-86953220D01*
X76707300Y-87024649D01*
X76350158Y-87024649D01*
X74818829Y-99717578D02*
X74818829Y-98217578D01*
X75175972Y-98217578D01*
X75390257Y-98289007D01*
X75533114Y-98431864D01*
X75604543Y-98574721D01*
X75675972Y-98860435D01*
X75675972Y-99074721D01*
X75604543Y-99360435D01*
X75533114Y-99503292D01*
X75390257Y-99646149D01*
X75175972Y-99717578D01*
X74818829Y-99717578D01*
X77033114Y-98217578D02*
X76318829Y-98217578D01*
X76247400Y-98931864D01*
X76318829Y-98860435D01*
X76461686Y-98789007D01*
X76818829Y-98789007D01*
X76961686Y-98860435D01*
X77033114Y-98931864D01*
X77104543Y-99074721D01*
X77104543Y-99431864D01*
X77033114Y-99574721D01*
X76961686Y-99646149D01*
X76818829Y-99717578D01*
X76461686Y-99717578D01*
X76318829Y-99646149D01*
X76247400Y-99574721D01*
D11*
X98233323Y-89429681D02*
X98233323Y-88429681D01*
X98471419Y-88429681D01*
X98614276Y-88477301D01*
X98709514Y-88572539D01*
X98757133Y-88667777D01*
X98804752Y-88858253D01*
X98804752Y-89001110D01*
X98757133Y-89191586D01*
X98709514Y-89286824D01*
X98614276Y-89382062D01*
X98471419Y-89429681D01*
X98233323Y-89429681D01*
X99566657Y-88905872D02*
X99709514Y-88953491D01*
X99757133Y-89001110D01*
X99804752Y-89096348D01*
X99804752Y-89239205D01*
X99757133Y-89334443D01*
X99709514Y-89382062D01*
X99614276Y-89429681D01*
X99233323Y-89429681D01*
X99233323Y-88429681D01*
X99566657Y-88429681D01*
X99661895Y-88477301D01*
X99709514Y-88524920D01*
X99757133Y-88620158D01*
X99757133Y-88715396D01*
X99709514Y-88810634D01*
X99661895Y-88858253D01*
X99566657Y-88905872D01*
X99233323Y-88905872D01*
X100423799Y-88429681D02*
X100519038Y-88429681D01*
X100614276Y-88477301D01*
X100661895Y-88524920D01*
X100709514Y-88620158D01*
X100757133Y-88810634D01*
X100757133Y-89048729D01*
X100709514Y-89239205D01*
X100661895Y-89334443D01*
X100614276Y-89382062D01*
X100519038Y-89429681D01*
X100423799Y-89429681D01*
X100328561Y-89382062D01*
X100280942Y-89334443D01*
X100233323Y-89239205D01*
X100185704Y-89048729D01*
X100185704Y-88810634D01*
X100233323Y-88620158D01*
X100280942Y-88524920D01*
X100328561Y-88477301D01*
X100423799Y-88429681D01*
X98891604Y-66415244D02*
X98843985Y-66462863D01*
X98701128Y-66510482D01*
X98605890Y-66510482D01*
X98463032Y-66462863D01*
X98367794Y-66367625D01*
X98320175Y-66272387D01*
X98272556Y-66081911D01*
X98272556Y-65939054D01*
X98320175Y-65748578D01*
X98367794Y-65653340D01*
X98463032Y-65558102D01*
X98605890Y-65510482D01*
X98701128Y-65510482D01*
X98843985Y-65558102D01*
X98891604Y-65605721D01*
X100034461Y-65462863D02*
X99177318Y-66748578D01*
X100367794Y-66510482D02*
X100367794Y-65510482D01*
X100605890Y-65510482D01*
X100748747Y-65558102D01*
X100843985Y-65653340D01*
X100891604Y-65748578D01*
X100939223Y-65939054D01*
X100939223Y-66081911D01*
X100891604Y-66272387D01*
X100843985Y-66367625D01*
X100748747Y-66462863D01*
X100605890Y-66510482D01*
X100367794Y-66510482D01*
X98342981Y-76398189D02*
X98819172Y-76398189D01*
X98247743Y-76683903D02*
X98581077Y-75683903D01*
X98914410Y-76683903D01*
X99819172Y-76588665D02*
X99771553Y-76636284D01*
X99628696Y-76683903D01*
X99533457Y-76683903D01*
X99390600Y-76636284D01*
X99295362Y-76541046D01*
X99247743Y-76445808D01*
X99200124Y-76255332D01*
X99200124Y-76112475D01*
X99247743Y-75921999D01*
X99295362Y-75826761D01*
X99390600Y-75731523D01*
X99533457Y-75683903D01*
X99628696Y-75683903D01*
X99771553Y-75731523D01*
X99819172Y-75779142D01*
X100247743Y-76683903D02*
X100247743Y-75683903D01*
X100819172Y-76683903D02*
X100390600Y-76112475D01*
X100819172Y-75683903D02*
X100247743Y-76255332D01*
X98813158Y-83303582D02*
X98717920Y-83255962D01*
X98575063Y-83255962D01*
X98432205Y-83303582D01*
X98336967Y-83398820D01*
X98289348Y-83494058D01*
X98241729Y-83684534D01*
X98241729Y-83827391D01*
X98289348Y-84017867D01*
X98336967Y-84113105D01*
X98432205Y-84208343D01*
X98575063Y-84255962D01*
X98670301Y-84255962D01*
X98813158Y-84208343D01*
X98860777Y-84160724D01*
X98860777Y-83827391D01*
X98670301Y-83827391D01*
X99289348Y-84255962D02*
X99289348Y-83255962D01*
X99860777Y-84255962D01*
X99860777Y-83255962D01*
X100336967Y-84255962D02*
X100336967Y-83255962D01*
X100575063Y-83255962D01*
X100717920Y-83303582D01*
X100813158Y-83398820D01*
X100860777Y-83494058D01*
X100908396Y-83684534D01*
X100908396Y-83827391D01*
X100860777Y-84017867D01*
X100813158Y-84113105D01*
X100717920Y-84208343D01*
X100575063Y-84255962D01*
X100336967Y-84255962D01*
D10*
X75128571Y-84136713D02*
X75842857Y-84136713D01*
X74985714Y-84565284D02*
X75485714Y-83065284D01*
X75985714Y-84565284D01*
X76771428Y-83065284D02*
X76914285Y-83065284D01*
X77057142Y-83136713D01*
X77128571Y-83208141D01*
X77200000Y-83350998D01*
X77271428Y-83636713D01*
X77271428Y-83993855D01*
X77200000Y-84279570D01*
X77128571Y-84422427D01*
X77057142Y-84493855D01*
X76914285Y-84565284D01*
X76771428Y-84565284D01*
X76628571Y-84493855D01*
X76557142Y-84422427D01*
X76485714Y-84279570D01*
X76414285Y-83993855D01*
X76414285Y-83636713D01*
X76485714Y-83350998D01*
X76557142Y-83208141D01*
X76628571Y-83136713D01*
X76771428Y-83065284D01*
D11*
X98243729Y-107108976D02*
X98243729Y-106108976D01*
X98481825Y-106108976D01*
X98624682Y-106156596D01*
X98719920Y-106251834D01*
X98767539Y-106347072D01*
X98815158Y-106537548D01*
X98815158Y-106680405D01*
X98767539Y-106870881D01*
X98719920Y-106966119D01*
X98624682Y-107061357D01*
X98481825Y-107108976D01*
X98243729Y-107108976D01*
X99577063Y-106585167D02*
X99719920Y-106632786D01*
X99767539Y-106680405D01*
X99815158Y-106775643D01*
X99815158Y-106918500D01*
X99767539Y-107013738D01*
X99719920Y-107061357D01*
X99624682Y-107108976D01*
X99243729Y-107108976D01*
X99243729Y-106108976D01*
X99577063Y-106108976D01*
X99672301Y-106156596D01*
X99719920Y-106204215D01*
X99767539Y-106299453D01*
X99767539Y-106394691D01*
X99719920Y-106489929D01*
X99672301Y-106537548D01*
X99577063Y-106585167D01*
X99243729Y-106585167D01*
X100148491Y-106108976D02*
X100815158Y-106108976D01*
X100386586Y-107108976D01*
X98233323Y-94476432D02*
X98233323Y-93476432D01*
X98471419Y-93476432D01*
X98614276Y-93524052D01*
X98709514Y-93619290D01*
X98757133Y-93714528D01*
X98804752Y-93905004D01*
X98804752Y-94047861D01*
X98757133Y-94238337D01*
X98709514Y-94333575D01*
X98614276Y-94428813D01*
X98471419Y-94476432D01*
X98233323Y-94476432D01*
X99566657Y-93952623D02*
X99709514Y-94000242D01*
X99757133Y-94047861D01*
X99804752Y-94143099D01*
X99804752Y-94285956D01*
X99757133Y-94381194D01*
X99709514Y-94428813D01*
X99614276Y-94476432D01*
X99233323Y-94476432D01*
X99233323Y-93476432D01*
X99566657Y-93476432D01*
X99661895Y-93524052D01*
X99709514Y-93571671D01*
X99757133Y-93666909D01*
X99757133Y-93762147D01*
X99709514Y-93857385D01*
X99661895Y-93905004D01*
X99566657Y-93952623D01*
X99233323Y-93952623D01*
X100185704Y-93571671D02*
X100233323Y-93524052D01*
X100328561Y-93476432D01*
X100566657Y-93476432D01*
X100661895Y-93524052D01*
X100709514Y-93571671D01*
X100757133Y-93666909D01*
X100757133Y-93762147D01*
X100709514Y-93905004D01*
X100138085Y-94476432D01*
X100757133Y-94476432D01*
D10*
X72211324Y-74372878D02*
X72211324Y-72872878D01*
X72568467Y-72872878D01*
X72782753Y-72944307D01*
X72925610Y-73087164D01*
X72997039Y-73230021D01*
X73068467Y-73515735D01*
X73068467Y-73730021D01*
X72997039Y-74015735D01*
X72925610Y-74158592D01*
X72782753Y-74301449D01*
X72568467Y-74372878D01*
X72211324Y-74372878D01*
X73639896Y-73944307D02*
X74354181Y-73944307D01*
X73497039Y-74372878D02*
X73997039Y-72872878D01*
X74497039Y-74372878D01*
X75854181Y-74230021D02*
X75782753Y-74301449D01*
X75568467Y-74372878D01*
X75425610Y-74372878D01*
X75211324Y-74301449D01*
X75068467Y-74158592D01*
X74997039Y-74015735D01*
X74925610Y-73730021D01*
X74925610Y-73515735D01*
X74997039Y-73230021D01*
X75068467Y-73087164D01*
X75211324Y-72944307D01*
X75425610Y-72872878D01*
X75568467Y-72872878D01*
X75782753Y-72944307D01*
X75854181Y-73015735D01*
X76497039Y-74372878D02*
X76497039Y-72872878D01*
X77354181Y-74372878D02*
X76711324Y-73515735D01*
X77354181Y-72872878D02*
X76497039Y-73730021D01*
X74818829Y-94637578D02*
X74818829Y-93137578D01*
X75175972Y-93137578D01*
X75390257Y-93209007D01*
X75533114Y-93351864D01*
X75604543Y-93494721D01*
X75675972Y-93780435D01*
X75675972Y-93994721D01*
X75604543Y-94280435D01*
X75533114Y-94423292D01*
X75390257Y-94566149D01*
X75175972Y-94637578D01*
X74818829Y-94637578D01*
X76175972Y-93137578D02*
X77175972Y-93137578D01*
X76533114Y-94637578D01*
D11*
X98211281Y-99516109D02*
X98211281Y-98516109D01*
X98449377Y-98516109D01*
X98592234Y-98563729D01*
X98687472Y-98658967D01*
X98735091Y-98754205D01*
X98782710Y-98944681D01*
X98782710Y-99087538D01*
X98735091Y-99278014D01*
X98687472Y-99373252D01*
X98592234Y-99468490D01*
X98449377Y-99516109D01*
X98211281Y-99516109D01*
X99544615Y-98992300D02*
X99687472Y-99039919D01*
X99735091Y-99087538D01*
X99782710Y-99182776D01*
X99782710Y-99325633D01*
X99735091Y-99420871D01*
X99687472Y-99468490D01*
X99592234Y-99516109D01*
X99211281Y-99516109D01*
X99211281Y-98516109D01*
X99544615Y-98516109D01*
X99639853Y-98563729D01*
X99687472Y-98611348D01*
X99735091Y-98706586D01*
X99735091Y-98801824D01*
X99687472Y-98897062D01*
X99639853Y-98944681D01*
X99544615Y-98992300D01*
X99211281Y-98992300D01*
X100639853Y-98849443D02*
X100639853Y-99516109D01*
X100401757Y-98468490D02*
X100163662Y-99182776D01*
X100782710Y-99182776D01*
X98211281Y-102047065D02*
X98211281Y-101047065D01*
X98449377Y-101047065D01*
X98592234Y-101094685D01*
X98687472Y-101189923D01*
X98735091Y-101285161D01*
X98782710Y-101475637D01*
X98782710Y-101618494D01*
X98735091Y-101808970D01*
X98687472Y-101904208D01*
X98592234Y-101999446D01*
X98449377Y-102047065D01*
X98211281Y-102047065D01*
X99544615Y-101523256D02*
X99687472Y-101570875D01*
X99735091Y-101618494D01*
X99782710Y-101713732D01*
X99782710Y-101856589D01*
X99735091Y-101951827D01*
X99687472Y-101999446D01*
X99592234Y-102047065D01*
X99211281Y-102047065D01*
X99211281Y-101047065D01*
X99544615Y-101047065D01*
X99639853Y-101094685D01*
X99687472Y-101142304D01*
X99735091Y-101237542D01*
X99735091Y-101332780D01*
X99687472Y-101428018D01*
X99639853Y-101475637D01*
X99544615Y-101523256D01*
X99211281Y-101523256D01*
X100687472Y-101047065D02*
X100211281Y-101047065D01*
X100163662Y-101523256D01*
X100211281Y-101475637D01*
X100306519Y-101428018D01*
X100544615Y-101428018D01*
X100639853Y-101475637D01*
X100687472Y-101523256D01*
X100735091Y-101618494D01*
X100735091Y-101856589D01*
X100687472Y-101951827D01*
X100639853Y-101999446D01*
X100544615Y-102047065D01*
X100306519Y-102047065D01*
X100211281Y-101999446D01*
X100163662Y-101951827D01*
D10*
X74519933Y-71728890D02*
X74019933Y-71014604D01*
X73662790Y-71728890D02*
X73662790Y-70228890D01*
X74234219Y-70228890D01*
X74377076Y-70300319D01*
X74448505Y-70371747D01*
X74519933Y-70514604D01*
X74519933Y-70728890D01*
X74448505Y-70871747D01*
X74377076Y-70943176D01*
X74234219Y-71014604D01*
X73662790Y-71014604D01*
X75162790Y-71728890D02*
X75162790Y-70228890D01*
X75519933Y-70228890D01*
X75734219Y-70300319D01*
X75877076Y-70443176D01*
X75948505Y-70586033D01*
X76019933Y-70871747D01*
X76019933Y-71086033D01*
X75948505Y-71371747D01*
X75877076Y-71514604D01*
X75734219Y-71657461D01*
X75519933Y-71728890D01*
X75162790Y-71728890D01*
X76948505Y-71014604D02*
X76948505Y-71728890D01*
X76448505Y-70228890D02*
X76948505Y-71014604D01*
X77448505Y-70228890D01*
D11*
X98338966Y-73916867D02*
X98815157Y-73916867D01*
X98243728Y-74202581D02*
X98577062Y-73202581D01*
X98910395Y-74202581D01*
X99100871Y-73202581D02*
X99672300Y-73202581D01*
X99386585Y-74202581D02*
X99386585Y-73202581D01*
X100005633Y-74202581D02*
X100005633Y-73202581D01*
X100577062Y-74202581D01*
X100577062Y-73202581D01*
D10*
X74818829Y-107337578D02*
X74818829Y-105837578D01*
X75175972Y-105837578D01*
X75390257Y-105909007D01*
X75533114Y-106051864D01*
X75604543Y-106194721D01*
X75675972Y-106480435D01*
X75675972Y-106694721D01*
X75604543Y-106980435D01*
X75533114Y-107123292D01*
X75390257Y-107266149D01*
X75175972Y-107337578D01*
X74818829Y-107337578D01*
X76247400Y-105980435D02*
X76318829Y-105909007D01*
X76461686Y-105837578D01*
X76818829Y-105837578D01*
X76961686Y-105909007D01*
X77033114Y-105980435D01*
X77104543Y-106123292D01*
X77104543Y-106266149D01*
X77033114Y-106480435D01*
X76175972Y-107337578D01*
X77104543Y-107337578D01*
D11*
X98233323Y-91898200D02*
X98233323Y-90898200D01*
X98471419Y-90898200D01*
X98614276Y-90945820D01*
X98709514Y-91041058D01*
X98757133Y-91136296D01*
X98804752Y-91326772D01*
X98804752Y-91469629D01*
X98757133Y-91660105D01*
X98709514Y-91755343D01*
X98614276Y-91850581D01*
X98471419Y-91898200D01*
X98233323Y-91898200D01*
X99566657Y-91374391D02*
X99709514Y-91422010D01*
X99757133Y-91469629D01*
X99804752Y-91564867D01*
X99804752Y-91707724D01*
X99757133Y-91802962D01*
X99709514Y-91850581D01*
X99614276Y-91898200D01*
X99233323Y-91898200D01*
X99233323Y-90898200D01*
X99566657Y-90898200D01*
X99661895Y-90945820D01*
X99709514Y-90993439D01*
X99757133Y-91088677D01*
X99757133Y-91183915D01*
X99709514Y-91279153D01*
X99661895Y-91326772D01*
X99566657Y-91374391D01*
X99233323Y-91374391D01*
X100757133Y-91898200D02*
X100185704Y-91898200D01*
X100471419Y-91898200D02*
X100471419Y-90898200D01*
X100376180Y-91041058D01*
X100280942Y-91136296D01*
X100185704Y-91183915D01*
D12*
%TO.C,TermPWR*%
X66588095Y-88562380D02*
X67159523Y-88562380D01*
X66873809Y-89562380D02*
X66873809Y-88562380D01*
X67873809Y-89514761D02*
X67778571Y-89562380D01*
X67588095Y-89562380D01*
X67492857Y-89514761D01*
X67445238Y-89419523D01*
X67445238Y-89038571D01*
X67492857Y-88943333D01*
X67588095Y-88895714D01*
X67778571Y-88895714D01*
X67873809Y-88943333D01*
X67921428Y-89038571D01*
X67921428Y-89133809D01*
X67445238Y-89229047D01*
X68350000Y-89562380D02*
X68350000Y-88895714D01*
X68350000Y-89086190D02*
X68397619Y-88990952D01*
X68445238Y-88943333D01*
X68540476Y-88895714D01*
X68635714Y-88895714D01*
X68969047Y-89562380D02*
X68969047Y-88895714D01*
X68969047Y-88990952D02*
X69016666Y-88943333D01*
X69111904Y-88895714D01*
X69254761Y-88895714D01*
X69350000Y-88943333D01*
X69397619Y-89038571D01*
X69397619Y-89562380D01*
X69397619Y-89038571D02*
X69445238Y-88943333D01*
X69540476Y-88895714D01*
X69683333Y-88895714D01*
X69778571Y-88943333D01*
X69826190Y-89038571D01*
X69826190Y-89562380D01*
X70302380Y-89562380D02*
X70302380Y-88562380D01*
X70683333Y-88562380D01*
X70778571Y-88610000D01*
X70826190Y-88657619D01*
X70873809Y-88752857D01*
X70873809Y-88895714D01*
X70826190Y-88990952D01*
X70778571Y-89038571D01*
X70683333Y-89086190D01*
X70302380Y-89086190D01*
X71207142Y-88562380D02*
X71445238Y-89562380D01*
X71635714Y-88848095D01*
X71826190Y-89562380D01*
X72064285Y-88562380D01*
X73016666Y-89562380D02*
X72683333Y-89086190D01*
X72445238Y-89562380D02*
X72445238Y-88562380D01*
X72826190Y-88562380D01*
X72921428Y-88610000D01*
X72969047Y-88657619D01*
X73016666Y-88752857D01*
X73016666Y-88895714D01*
X72969047Y-88990952D01*
X72921428Y-89038571D01*
X72826190Y-89086190D01*
X72445238Y-89086190D01*
D13*
X67250000Y-92710000D02*
X67250000Y-92770000D01*
X67250000Y-91440000D02*
X67250000Y-90110000D01*
X69850000Y-90110000D02*
X72450000Y-90110000D01*
X67250000Y-92770000D02*
X72450000Y-92770000D01*
X67250000Y-92710000D02*
X69850000Y-92710000D01*
X72450000Y-90110000D02*
X72450000Y-92770000D01*
X69850000Y-92710000D02*
X69850000Y-90110000D01*
X67250000Y-90110000D02*
X68580000Y-90110000D01*
%TO.C,<-Socket*%
X79950000Y-59570000D02*
X79950000Y-110610000D01*
X82440000Y-110550000D02*
X87900000Y-110550000D01*
X95360000Y-110550000D02*
X95360000Y-59630000D01*
X97850000Y-59570000D02*
X79950000Y-59570000D01*
X79950000Y-110610000D02*
X97850000Y-110610000D01*
X97850000Y-110610000D02*
X97850000Y-59570000D01*
X82440000Y-59630000D02*
X82440000Y-110550000D01*
X89900000Y-110550000D02*
X95360000Y-110550000D01*
X95360000Y-59630000D02*
X82440000Y-59630000D01*
X89900000Y-110550000D02*
G75*
G03*
X87900000Y-110550000I-1000000J0D01*
G01*
X92820000Y-59630000D02*
X79900000Y-59630000D01*
X79900000Y-59630000D02*
X79900000Y-110550000D01*
X79900000Y-110550000D02*
X85360000Y-110550000D01*
X92820000Y-110550000D02*
X92820000Y-59630000D01*
X87360000Y-110550000D02*
X92820000Y-110550000D01*
X87360000Y-110550000D02*
G75*
G03*
X85360000Y-110550000I-1000000J0D01*
G01*
%TD*%
M02*
