%TF.GenerationSoftware,KiCad,Pcbnew,(6.0.6-0)*%
%TF.CreationDate,2023-05-29T07:50:41-04:00*%
%TF.ProjectId,SCSI adapter version 3,53435349-2061-4646-9170-746572207665,rev?*%
%TF.SameCoordinates,Original*%
%TF.FileFunction,Copper,L3,Inr*%
%TF.FilePolarity,Positive*%
%FSLAX46Y46*%
G04 Gerber Fmt 4.6, Leading zero omitted, Abs format (unit mm)*
G04 Created by KiCad (PCBNEW (6.0.6-0)) date 2023-05-29 07:50:41*
%MOMM*%
%LPD*%
G01*
G04 APERTURE LIST*
%TA.AperFunction,ComponentPad*%
%ADD10R,1.700000X1.700000*%
%TD*%
%TA.AperFunction,ComponentPad*%
%ADD11O,1.700000X1.700000*%
%TD*%
%TA.AperFunction,ComponentPad*%
%ADD12R,1.600000X1.600000*%
%TD*%
%TA.AperFunction,ComponentPad*%
%ADD13O,1.600000X1.600000*%
%TD*%
%TA.AperFunction,ComponentPad*%
%ADD14O,1.400000X1.400000*%
%TD*%
%TA.AperFunction,ComponentPad*%
%ADD15R,2.000000X2.000000*%
%TD*%
%TA.AperFunction,ComponentPad*%
%ADD16O,2.000000X2.000000*%
%TD*%
%TA.AperFunction,ViaPad*%
%ADD17C,0.800000*%
%TD*%
G04 APERTURE END LIST*
D10*
%TO.N,VDD/Tpower*%
%TO.C,TermPWR*%
X68580000Y-91440000D03*
D11*
X71120000Y-91440000D03*
%TD*%
D12*
%TO.N,N/C*%
%TO.C,<-Socket*%
X96520000Y-109220000D03*
D13*
%TO.N,D7*%
X96520000Y-106680000D03*
%TO.N,D6*%
X96520000Y-104140000D03*
%TO.N,D5*%
X96520000Y-101600000D03*
%TO.N,D4*%
X96520000Y-99060000D03*
%TO.N,D3*%
X96520000Y-96520000D03*
%TO.N,D2*%
X96520000Y-93980000D03*
%TO.N,D1*%
X96520000Y-91440000D03*
%TO.N,D0*%
X96520000Y-88900000D03*
%TO.N,parity*%
X96520000Y-86360000D03*
%TO.N,GND*%
X96520000Y-83820000D03*
%TO.N,SEL*%
X96520000Y-81280000D03*
%TO.N,BSY*%
X96520000Y-78740000D03*
%TO.N,ACK*%
X96520000Y-76200000D03*
%TO.N,ATN*%
X96520000Y-73660000D03*
%TO.N,RST*%
X96520000Y-71120000D03*
%TO.N,I/O*%
X96520000Y-68580000D03*
%TO.N,C/D*%
X96520000Y-66040000D03*
%TO.N,MSG*%
X96520000Y-63500000D03*
%TO.N,REQ*%
X96520000Y-60960000D03*
%TO.N,N/C*%
X81280000Y-60960000D03*
X81280000Y-63500000D03*
X81280000Y-66040000D03*
X81280000Y-68580000D03*
X81280000Y-71120000D03*
X81280000Y-73660000D03*
X81280000Y-76200000D03*
X81280000Y-78740000D03*
X81280000Y-81280000D03*
X81280000Y-83820000D03*
%TO.N,VDD/Tpower*%
X81280000Y-86360000D03*
%TO.N,N/C*%
X81280000Y-88900000D03*
X81280000Y-91440000D03*
X81280000Y-93980000D03*
X81280000Y-96520000D03*
X81280000Y-99060000D03*
X81280000Y-101600000D03*
X81280000Y-104140000D03*
X81280000Y-106680000D03*
X81280000Y-109220000D03*
%TD*%
D12*
%TO.N,N/C*%
%TO.C,<-Socket*%
X93980000Y-109220000D03*
D13*
%TO.N,D7*%
X93980000Y-106680000D03*
%TO.N,D6*%
X93980000Y-104140000D03*
%TO.N,D5*%
X93980000Y-101600000D03*
%TO.N,D4*%
X93980000Y-99060000D03*
%TO.N,D3*%
X93980000Y-96520000D03*
%TO.N,D2*%
X93980000Y-93980000D03*
%TO.N,D1*%
X93980000Y-91440000D03*
%TO.N,D0*%
X93980000Y-88900000D03*
%TO.N,parity*%
X93980000Y-86360000D03*
%TO.N,GND*%
X93980000Y-83820000D03*
%TO.N,SEL*%
X93980000Y-81280000D03*
%TO.N,BSY*%
X93980000Y-78740000D03*
%TO.N,ACK*%
X93980000Y-76200000D03*
%TO.N,ATN*%
X93980000Y-73660000D03*
%TO.N,RST*%
X93980000Y-71120000D03*
%TO.N,I/O*%
X93980000Y-68580000D03*
%TO.N,C/D*%
X93980000Y-66040000D03*
%TO.N,MSG*%
X93980000Y-63500000D03*
%TO.N,REQ*%
X93980000Y-60960000D03*
%TO.N,N/C*%
X78740000Y-60960000D03*
X78740000Y-63500000D03*
X78740000Y-66040000D03*
X78740000Y-68580000D03*
X78740000Y-71120000D03*
X78740000Y-73660000D03*
X78740000Y-76200000D03*
X78740000Y-78740000D03*
X78740000Y-81280000D03*
X78740000Y-83820000D03*
%TO.N,VDD/Tpower*%
X78740000Y-86360000D03*
%TO.N,N/C*%
X78740000Y-88900000D03*
X78740000Y-91440000D03*
X78740000Y-93980000D03*
X78740000Y-96520000D03*
X78740000Y-99060000D03*
X78740000Y-101600000D03*
X78740000Y-104140000D03*
X78740000Y-106680000D03*
X78740000Y-109220000D03*
%TD*%
D10*
%TO.N,GND*%
%TO.C,SCSI50*%
X58133089Y-137160000D03*
D11*
%TO.N,D0*%
X60673089Y-137160000D03*
%TO.N,GND*%
X58133089Y-134620000D03*
%TO.N,D1*%
X60673089Y-134620000D03*
%TO.N,GND*%
X58133089Y-132080000D03*
%TO.N,D2*%
X60673089Y-132080000D03*
%TO.N,GND*%
X58133089Y-129540000D03*
%TO.N,D3*%
X60673089Y-129540000D03*
%TO.N,GND*%
X58133089Y-127000000D03*
%TO.N,D4*%
X60673089Y-127000000D03*
%TO.N,GND*%
X58133089Y-124460000D03*
%TO.N,D5*%
X60673089Y-124460000D03*
%TO.N,GND*%
X58133089Y-121920000D03*
%TO.N,D6*%
X60673089Y-121920000D03*
%TO.N,GND*%
X58133089Y-119380000D03*
%TO.N,D7*%
X60673089Y-119380000D03*
%TO.N,GND*%
X58133089Y-116840000D03*
%TO.N,parity*%
X60673089Y-116840000D03*
%TO.N,GND*%
X58133089Y-114300000D03*
X60673089Y-114300000D03*
D14*
%TO.N,N/C*%
X58133089Y-111760000D03*
D11*
%TO.N,GND*%
X60673089Y-111760000D03*
D14*
%TO.N,N/C*%
X58133089Y-109220000D03*
D11*
X60673089Y-109220000D03*
D14*
X58133089Y-106680000D03*
D11*
%TO.N,VDD/Tpower*%
X60673089Y-106680000D03*
D14*
%TO.N,N/C*%
X58133089Y-104140000D03*
X60673089Y-104140000D03*
D11*
%TO.N,GND*%
X58133089Y-101600000D03*
X60673089Y-101600000D03*
X58133089Y-99060000D03*
%TO.N,ATN*%
X60673089Y-99060000D03*
%TO.N,GND*%
X58133089Y-96520000D03*
X60673089Y-96520000D03*
X58133089Y-93980000D03*
%TO.N,BSY*%
X60673089Y-93980000D03*
%TO.N,GND*%
X58133089Y-91440000D03*
%TO.N,ACK*%
X60673089Y-91440000D03*
%TO.N,GND*%
X58133089Y-88900000D03*
%TO.N,RST*%
X60673089Y-88900000D03*
%TO.N,GND*%
X58133089Y-86360000D03*
%TO.N,MSG*%
X60673089Y-86360000D03*
%TO.N,GND*%
X58133089Y-83820000D03*
%TO.N,SEL*%
X60673089Y-83820000D03*
%TO.N,GND*%
X58133089Y-81280000D03*
%TO.N,C/D*%
X60673089Y-81280000D03*
%TO.N,GND*%
X58133089Y-78740000D03*
%TO.N,REQ*%
X60673089Y-78740000D03*
%TO.N,GND*%
X58133089Y-76200000D03*
%TO.N,I/O*%
X60673089Y-76200000D03*
%TD*%
D15*
%TO.N,VDD/Tpower*%
%TO.C,Diode*%
X68580000Y-101600000D03*
D16*
X68580000Y-96520000D03*
%TD*%
D17*
%TO.N,D6*%
X86360000Y-116840000D03*
%TO.N,D4*%
X83820000Y-106680000D03*
%TO.N,ATN*%
X68580000Y-71120000D03*
%TD*%
M02*
