%TF.GenerationSoftware,KiCad,Pcbnew,7.0.5-0*%
%TF.CreationDate,2023-05-30T18:10:52-04:00*%
%TF.ProjectId,SCSI adapter version 3,53435349-2061-4646-9170-746572207665,rev?*%
%TF.SameCoordinates,Original*%
%TF.FileFunction,Legend,Top*%
%TF.FilePolarity,Positive*%
%FSLAX46Y46*%
G04 Gerber Fmt 4.6, Leading zero omitted, Abs format (unit mm)*
G04 Created by KiCad (PCBNEW 7.0.5-0) date 2023-05-30 18:10:52*
%MOMM*%
%LPD*%
G01*
G04 APERTURE LIST*
%ADD10C,0.300000*%
%ADD11C,0.250000*%
%ADD12C,0.150000*%
%ADD13C,0.120000*%
G04 APERTURE END LIST*
D10*
X75792053Y-61495471D02*
X75720625Y-61566900D01*
X75720625Y-61566900D02*
X75506339Y-61638328D01*
X75506339Y-61638328D02*
X75363482Y-61638328D01*
X75363482Y-61638328D02*
X75149196Y-61566900D01*
X75149196Y-61566900D02*
X75006339Y-61424042D01*
X75006339Y-61424042D02*
X74934910Y-61281185D01*
X74934910Y-61281185D02*
X74863482Y-60995471D01*
X74863482Y-60995471D02*
X74863482Y-60781185D01*
X74863482Y-60781185D02*
X74934910Y-60495471D01*
X74934910Y-60495471D02*
X75006339Y-60352614D01*
X75006339Y-60352614D02*
X75149196Y-60209757D01*
X75149196Y-60209757D02*
X75363482Y-60138328D01*
X75363482Y-60138328D02*
X75506339Y-60138328D01*
X75506339Y-60138328D02*
X75720625Y-60209757D01*
X75720625Y-60209757D02*
X75792053Y-60281185D01*
X76363482Y-61566900D02*
X76577768Y-61638328D01*
X76577768Y-61638328D02*
X76934910Y-61638328D01*
X76934910Y-61638328D02*
X77077768Y-61566900D01*
X77077768Y-61566900D02*
X77149196Y-61495471D01*
X77149196Y-61495471D02*
X77220625Y-61352614D01*
X77220625Y-61352614D02*
X77220625Y-61209757D01*
X77220625Y-61209757D02*
X77149196Y-61066900D01*
X77149196Y-61066900D02*
X77077768Y-60995471D01*
X77077768Y-60995471D02*
X76934910Y-60924042D01*
X76934910Y-60924042D02*
X76649196Y-60852614D01*
X76649196Y-60852614D02*
X76506339Y-60781185D01*
X76506339Y-60781185D02*
X76434910Y-60709757D01*
X76434910Y-60709757D02*
X76363482Y-60566900D01*
X76363482Y-60566900D02*
X76363482Y-60424042D01*
X76363482Y-60424042D02*
X76434910Y-60281185D01*
X76434910Y-60281185D02*
X76506339Y-60209757D01*
X76506339Y-60209757D02*
X76649196Y-60138328D01*
X76649196Y-60138328D02*
X77006339Y-60138328D01*
X77006339Y-60138328D02*
X77220625Y-60209757D01*
X74020708Y-69300496D02*
X74020708Y-67800496D01*
X75020709Y-67800496D02*
X75306423Y-67800496D01*
X75306423Y-67800496D02*
X75449280Y-67871925D01*
X75449280Y-67871925D02*
X75592137Y-68014782D01*
X75592137Y-68014782D02*
X75663566Y-68300496D01*
X75663566Y-68300496D02*
X75663566Y-68800496D01*
X75663566Y-68800496D02*
X75592137Y-69086210D01*
X75592137Y-69086210D02*
X75449280Y-69229068D01*
X75449280Y-69229068D02*
X75306423Y-69300496D01*
X75306423Y-69300496D02*
X75020709Y-69300496D01*
X75020709Y-69300496D02*
X74877852Y-69229068D01*
X74877852Y-69229068D02*
X74734994Y-69086210D01*
X74734994Y-69086210D02*
X74663566Y-68800496D01*
X74663566Y-68800496D02*
X74663566Y-68300496D01*
X74663566Y-68300496D02*
X74734994Y-68014782D01*
X74734994Y-68014782D02*
X74877852Y-67871925D01*
X74877852Y-67871925D02*
X75020709Y-67800496D01*
X77163566Y-69300496D02*
X76663566Y-68586210D01*
X76306423Y-69300496D02*
X76306423Y-67800496D01*
X76306423Y-67800496D02*
X76877852Y-67800496D01*
X76877852Y-67800496D02*
X77020709Y-67871925D01*
X77020709Y-67871925D02*
X77092138Y-67943353D01*
X77092138Y-67943353D02*
X77163566Y-68086210D01*
X77163566Y-68086210D02*
X77163566Y-68300496D01*
X77163566Y-68300496D02*
X77092138Y-68443353D01*
X77092138Y-68443353D02*
X77020709Y-68514782D01*
X77020709Y-68514782D02*
X76877852Y-68586210D01*
X76877852Y-68586210D02*
X76306423Y-68586210D01*
X75128572Y-89145359D02*
X75842858Y-89145359D01*
X74985715Y-89573930D02*
X75485715Y-88073930D01*
X75485715Y-88073930D02*
X75985715Y-89573930D01*
X77271429Y-89573930D02*
X76414286Y-89573930D01*
X76842857Y-89573930D02*
X76842857Y-88073930D01*
X76842857Y-88073930D02*
X76700000Y-88288216D01*
X76700000Y-88288216D02*
X76557143Y-88431073D01*
X76557143Y-88431073D02*
X76414286Y-88502502D01*
D11*
X98242446Y-81630264D02*
X98385303Y-81677883D01*
X98385303Y-81677883D02*
X98623398Y-81677883D01*
X98623398Y-81677883D02*
X98718636Y-81630264D01*
X98718636Y-81630264D02*
X98766255Y-81582644D01*
X98766255Y-81582644D02*
X98813874Y-81487406D01*
X98813874Y-81487406D02*
X98813874Y-81392168D01*
X98813874Y-81392168D02*
X98766255Y-81296930D01*
X98766255Y-81296930D02*
X98718636Y-81249311D01*
X98718636Y-81249311D02*
X98623398Y-81201692D01*
X98623398Y-81201692D02*
X98432922Y-81154073D01*
X98432922Y-81154073D02*
X98337684Y-81106454D01*
X98337684Y-81106454D02*
X98290065Y-81058835D01*
X98290065Y-81058835D02*
X98242446Y-80963597D01*
X98242446Y-80963597D02*
X98242446Y-80868359D01*
X98242446Y-80868359D02*
X98290065Y-80773121D01*
X98290065Y-80773121D02*
X98337684Y-80725502D01*
X98337684Y-80725502D02*
X98432922Y-80677883D01*
X98432922Y-80677883D02*
X98671017Y-80677883D01*
X98671017Y-80677883D02*
X98813874Y-80725502D01*
X99242446Y-81154073D02*
X99575779Y-81154073D01*
X99718636Y-81677883D02*
X99242446Y-81677883D01*
X99242446Y-81677883D02*
X99242446Y-80677883D01*
X99242446Y-80677883D02*
X99718636Y-80677883D01*
X100623398Y-81677883D02*
X100147208Y-81677883D01*
X100147208Y-81677883D02*
X100147208Y-80677883D01*
D10*
X74818829Y-102257335D02*
X74818829Y-100757335D01*
X74818829Y-100757335D02*
X75175972Y-100757335D01*
X75175972Y-100757335D02*
X75390258Y-100828764D01*
X75390258Y-100828764D02*
X75533115Y-100971621D01*
X75533115Y-100971621D02*
X75604544Y-101114478D01*
X75604544Y-101114478D02*
X75675972Y-101400192D01*
X75675972Y-101400192D02*
X75675972Y-101614478D01*
X75675972Y-101614478D02*
X75604544Y-101900192D01*
X75604544Y-101900192D02*
X75533115Y-102043049D01*
X75533115Y-102043049D02*
X75390258Y-102185907D01*
X75390258Y-102185907D02*
X75175972Y-102257335D01*
X75175972Y-102257335D02*
X74818829Y-102257335D01*
X76961687Y-101257335D02*
X76961687Y-102257335D01*
X76604544Y-100685907D02*
X76247401Y-101757335D01*
X76247401Y-101757335D02*
X77175972Y-101757335D01*
X74818829Y-97177335D02*
X74818829Y-95677335D01*
X74818829Y-95677335D02*
X75175972Y-95677335D01*
X75175972Y-95677335D02*
X75390258Y-95748764D01*
X75390258Y-95748764D02*
X75533115Y-95891621D01*
X75533115Y-95891621D02*
X75604544Y-96034478D01*
X75604544Y-96034478D02*
X75675972Y-96320192D01*
X75675972Y-96320192D02*
X75675972Y-96534478D01*
X75675972Y-96534478D02*
X75604544Y-96820192D01*
X75604544Y-96820192D02*
X75533115Y-96963049D01*
X75533115Y-96963049D02*
X75390258Y-97105907D01*
X75390258Y-97105907D02*
X75175972Y-97177335D01*
X75175972Y-97177335D02*
X74818829Y-97177335D01*
X76961687Y-95677335D02*
X76675972Y-95677335D01*
X76675972Y-95677335D02*
X76533115Y-95748764D01*
X76533115Y-95748764D02*
X76461687Y-95820192D01*
X76461687Y-95820192D02*
X76318829Y-96034478D01*
X76318829Y-96034478D02*
X76247401Y-96320192D01*
X76247401Y-96320192D02*
X76247401Y-96891621D01*
X76247401Y-96891621D02*
X76318829Y-97034478D01*
X76318829Y-97034478D02*
X76390258Y-97105907D01*
X76390258Y-97105907D02*
X76533115Y-97177335D01*
X76533115Y-97177335D02*
X76818829Y-97177335D01*
X76818829Y-97177335D02*
X76961687Y-97105907D01*
X76961687Y-97105907D02*
X77033115Y-97034478D01*
X77033115Y-97034478D02*
X77104544Y-96891621D01*
X77104544Y-96891621D02*
X77104544Y-96534478D01*
X77104544Y-96534478D02*
X77033115Y-96391621D01*
X77033115Y-96391621D02*
X76961687Y-96320192D01*
X76961687Y-96320192D02*
X76818829Y-96248764D01*
X76818829Y-96248764D02*
X76533115Y-96248764D01*
X76533115Y-96248764D02*
X76390258Y-96320192D01*
X76390258Y-96320192D02*
X76318829Y-96391621D01*
X76318829Y-96391621D02*
X76247401Y-96534478D01*
X73196179Y-64228356D02*
X73196179Y-62728356D01*
X73196179Y-62728356D02*
X73553322Y-62728356D01*
X73553322Y-62728356D02*
X73767608Y-62799785D01*
X73767608Y-62799785D02*
X73910465Y-62942642D01*
X73910465Y-62942642D02*
X73981894Y-63085499D01*
X73981894Y-63085499D02*
X74053322Y-63371213D01*
X74053322Y-63371213D02*
X74053322Y-63585499D01*
X74053322Y-63585499D02*
X73981894Y-63871213D01*
X73981894Y-63871213D02*
X73910465Y-64014070D01*
X73910465Y-64014070D02*
X73767608Y-64156928D01*
X73767608Y-64156928D02*
X73553322Y-64228356D01*
X73553322Y-64228356D02*
X73196179Y-64228356D01*
X75553322Y-64228356D02*
X75053322Y-63514070D01*
X74696179Y-64228356D02*
X74696179Y-62728356D01*
X74696179Y-62728356D02*
X75267608Y-62728356D01*
X75267608Y-62728356D02*
X75410465Y-62799785D01*
X75410465Y-62799785D02*
X75481894Y-62871213D01*
X75481894Y-62871213D02*
X75553322Y-63014070D01*
X75553322Y-63014070D02*
X75553322Y-63228356D01*
X75553322Y-63228356D02*
X75481894Y-63371213D01*
X75481894Y-63371213D02*
X75410465Y-63442642D01*
X75410465Y-63442642D02*
X75267608Y-63514070D01*
X75267608Y-63514070D02*
X74696179Y-63514070D01*
X77196179Y-64371213D02*
X77053322Y-64299785D01*
X77053322Y-64299785D02*
X76910465Y-64156928D01*
X76910465Y-64156928D02*
X76696179Y-63942642D01*
X76696179Y-63942642D02*
X76553322Y-63871213D01*
X76553322Y-63871213D02*
X76410465Y-63871213D01*
X76481894Y-64228356D02*
X76339037Y-64156928D01*
X76339037Y-64156928D02*
X76196179Y-64014070D01*
X76196179Y-64014070D02*
X76124751Y-63728356D01*
X76124751Y-63728356D02*
X76124751Y-63228356D01*
X76124751Y-63228356D02*
X76196179Y-62942642D01*
X76196179Y-62942642D02*
X76339037Y-62799785D01*
X76339037Y-62799785D02*
X76481894Y-62728356D01*
X76481894Y-62728356D02*
X76767608Y-62728356D01*
X76767608Y-62728356D02*
X76910465Y-62799785D01*
X76910465Y-62799785D02*
X77053322Y-62942642D01*
X77053322Y-62942642D02*
X77124751Y-63228356D01*
X77124751Y-63228356D02*
X77124751Y-63728356D01*
X77124751Y-63728356D02*
X77053322Y-64014070D01*
X77053322Y-64014070D02*
X76910465Y-64156928D01*
X76910465Y-64156928D02*
X76767608Y-64228356D01*
X76767608Y-64228356D02*
X76481894Y-64228356D01*
X74741190Y-79418328D02*
X74241190Y-78704042D01*
X73884047Y-79418328D02*
X73884047Y-77918328D01*
X73884047Y-77918328D02*
X74455476Y-77918328D01*
X74455476Y-77918328D02*
X74598333Y-77989757D01*
X74598333Y-77989757D02*
X74669762Y-78061185D01*
X74669762Y-78061185D02*
X74741190Y-78204042D01*
X74741190Y-78204042D02*
X74741190Y-78418328D01*
X74741190Y-78418328D02*
X74669762Y-78561185D01*
X74669762Y-78561185D02*
X74598333Y-78632614D01*
X74598333Y-78632614D02*
X74455476Y-78704042D01*
X74455476Y-78704042D02*
X73884047Y-78704042D01*
X75312619Y-79346900D02*
X75526905Y-79418328D01*
X75526905Y-79418328D02*
X75884047Y-79418328D01*
X75884047Y-79418328D02*
X76026905Y-79346900D01*
X76026905Y-79346900D02*
X76098333Y-79275471D01*
X76098333Y-79275471D02*
X76169762Y-79132614D01*
X76169762Y-79132614D02*
X76169762Y-78989757D01*
X76169762Y-78989757D02*
X76098333Y-78846900D01*
X76098333Y-78846900D02*
X76026905Y-78775471D01*
X76026905Y-78775471D02*
X75884047Y-78704042D01*
X75884047Y-78704042D02*
X75598333Y-78632614D01*
X75598333Y-78632614D02*
X75455476Y-78561185D01*
X75455476Y-78561185D02*
X75384047Y-78489757D01*
X75384047Y-78489757D02*
X75312619Y-78346900D01*
X75312619Y-78346900D02*
X75312619Y-78204042D01*
X75312619Y-78204042D02*
X75384047Y-78061185D01*
X75384047Y-78061185D02*
X75455476Y-77989757D01*
X75455476Y-77989757D02*
X75598333Y-77918328D01*
X75598333Y-77918328D02*
X75955476Y-77918328D01*
X75955476Y-77918328D02*
X76169762Y-77989757D01*
X76598333Y-77918328D02*
X77455476Y-77918328D01*
X77026904Y-79418328D02*
X77026904Y-77918328D01*
X74004745Y-81925359D02*
X74004745Y-80425359D01*
X75004746Y-80425359D02*
X75290460Y-80425359D01*
X75290460Y-80425359D02*
X75433317Y-80496788D01*
X75433317Y-80496788D02*
X75576174Y-80639645D01*
X75576174Y-80639645D02*
X75647603Y-80925359D01*
X75647603Y-80925359D02*
X75647603Y-81425359D01*
X75647603Y-81425359D02*
X75576174Y-81711073D01*
X75576174Y-81711073D02*
X75433317Y-81853931D01*
X75433317Y-81853931D02*
X75290460Y-81925359D01*
X75290460Y-81925359D02*
X75004746Y-81925359D01*
X75004746Y-81925359D02*
X74861889Y-81853931D01*
X74861889Y-81853931D02*
X74719031Y-81711073D01*
X74719031Y-81711073D02*
X74647603Y-81425359D01*
X74647603Y-81425359D02*
X74647603Y-80925359D01*
X74647603Y-80925359D02*
X74719031Y-80639645D01*
X74719031Y-80639645D02*
X74861889Y-80496788D01*
X74861889Y-80496788D02*
X75004746Y-80425359D01*
X76147603Y-80425359D02*
X76504746Y-81925359D01*
X76504746Y-81925359D02*
X76790460Y-80853931D01*
X76790460Y-80853931D02*
X77076175Y-81925359D01*
X77076175Y-81925359D02*
X77433318Y-80425359D01*
D11*
X98235699Y-69063483D02*
X98235699Y-68063483D01*
X99426174Y-68015864D02*
X98569032Y-69301578D01*
X99949984Y-68063483D02*
X100140460Y-68063483D01*
X100140460Y-68063483D02*
X100235698Y-68111102D01*
X100235698Y-68111102D02*
X100330936Y-68206340D01*
X100330936Y-68206340D02*
X100378555Y-68396816D01*
X100378555Y-68396816D02*
X100378555Y-68730149D01*
X100378555Y-68730149D02*
X100330936Y-68920625D01*
X100330936Y-68920625D02*
X100235698Y-69015864D01*
X100235698Y-69015864D02*
X100140460Y-69063483D01*
X100140460Y-69063483D02*
X99949984Y-69063483D01*
X99949984Y-69063483D02*
X99854746Y-69015864D01*
X99854746Y-69015864D02*
X99759508Y-68920625D01*
X99759508Y-68920625D02*
X99711889Y-68730149D01*
X99711889Y-68730149D02*
X99711889Y-68396816D01*
X99711889Y-68396816D02*
X99759508Y-68206340D01*
X99759508Y-68206340D02*
X99854746Y-68111102D01*
X99854746Y-68111102D02*
X99949984Y-68063483D01*
X98246740Y-64001586D02*
X98246740Y-63001586D01*
X98246740Y-63001586D02*
X98580073Y-63715871D01*
X98580073Y-63715871D02*
X98913406Y-63001586D01*
X98913406Y-63001586D02*
X98913406Y-64001586D01*
X99341978Y-63953967D02*
X99484835Y-64001586D01*
X99484835Y-64001586D02*
X99722930Y-64001586D01*
X99722930Y-64001586D02*
X99818168Y-63953967D01*
X99818168Y-63953967D02*
X99865787Y-63906347D01*
X99865787Y-63906347D02*
X99913406Y-63811109D01*
X99913406Y-63811109D02*
X99913406Y-63715871D01*
X99913406Y-63715871D02*
X99865787Y-63620633D01*
X99865787Y-63620633D02*
X99818168Y-63573014D01*
X99818168Y-63573014D02*
X99722930Y-63525395D01*
X99722930Y-63525395D02*
X99532454Y-63477776D01*
X99532454Y-63477776D02*
X99437216Y-63430157D01*
X99437216Y-63430157D02*
X99389597Y-63382538D01*
X99389597Y-63382538D02*
X99341978Y-63287300D01*
X99341978Y-63287300D02*
X99341978Y-63192062D01*
X99341978Y-63192062D02*
X99389597Y-63096824D01*
X99389597Y-63096824D02*
X99437216Y-63049205D01*
X99437216Y-63049205D02*
X99532454Y-63001586D01*
X99532454Y-63001586D02*
X99770549Y-63001586D01*
X99770549Y-63001586D02*
X99913406Y-63049205D01*
X100865787Y-63049205D02*
X100770549Y-63001586D01*
X100770549Y-63001586D02*
X100627692Y-63001586D01*
X100627692Y-63001586D02*
X100484835Y-63049205D01*
X100484835Y-63049205D02*
X100389597Y-63144443D01*
X100389597Y-63144443D02*
X100341978Y-63239681D01*
X100341978Y-63239681D02*
X100294359Y-63430157D01*
X100294359Y-63430157D02*
X100294359Y-63573014D01*
X100294359Y-63573014D02*
X100341978Y-63763490D01*
X100341978Y-63763490D02*
X100389597Y-63858728D01*
X100389597Y-63858728D02*
X100484835Y-63953967D01*
X100484835Y-63953967D02*
X100627692Y-64001586D01*
X100627692Y-64001586D02*
X100722930Y-64001586D01*
X100722930Y-64001586D02*
X100865787Y-63953967D01*
X100865787Y-63953967D02*
X100913406Y-63906347D01*
X100913406Y-63906347D02*
X100913406Y-63573014D01*
X100913406Y-63573014D02*
X100722930Y-63573014D01*
X98276179Y-104607707D02*
X98276179Y-103607707D01*
X98276179Y-103607707D02*
X98514274Y-103607707D01*
X98514274Y-103607707D02*
X98657131Y-103655326D01*
X98657131Y-103655326D02*
X98752369Y-103750564D01*
X98752369Y-103750564D02*
X98799988Y-103845802D01*
X98799988Y-103845802D02*
X98847607Y-104036278D01*
X98847607Y-104036278D02*
X98847607Y-104179135D01*
X98847607Y-104179135D02*
X98799988Y-104369611D01*
X98799988Y-104369611D02*
X98752369Y-104464849D01*
X98752369Y-104464849D02*
X98657131Y-104560088D01*
X98657131Y-104560088D02*
X98514274Y-104607707D01*
X98514274Y-104607707D02*
X98276179Y-104607707D01*
X99609512Y-104083897D02*
X99752369Y-104131516D01*
X99752369Y-104131516D02*
X99799988Y-104179135D01*
X99799988Y-104179135D02*
X99847607Y-104274373D01*
X99847607Y-104274373D02*
X99847607Y-104417230D01*
X99847607Y-104417230D02*
X99799988Y-104512468D01*
X99799988Y-104512468D02*
X99752369Y-104560088D01*
X99752369Y-104560088D02*
X99657131Y-104607707D01*
X99657131Y-104607707D02*
X99276179Y-104607707D01*
X99276179Y-104607707D02*
X99276179Y-103607707D01*
X99276179Y-103607707D02*
X99609512Y-103607707D01*
X99609512Y-103607707D02*
X99704750Y-103655326D01*
X99704750Y-103655326D02*
X99752369Y-103702945D01*
X99752369Y-103702945D02*
X99799988Y-103798183D01*
X99799988Y-103798183D02*
X99799988Y-103893421D01*
X99799988Y-103893421D02*
X99752369Y-103988659D01*
X99752369Y-103988659D02*
X99704750Y-104036278D01*
X99704750Y-104036278D02*
X99609512Y-104083897D01*
X99609512Y-104083897D02*
X99276179Y-104083897D01*
X100704750Y-103607707D02*
X100514274Y-103607707D01*
X100514274Y-103607707D02*
X100419036Y-103655326D01*
X100419036Y-103655326D02*
X100371417Y-103702945D01*
X100371417Y-103702945D02*
X100276179Y-103845802D01*
X100276179Y-103845802D02*
X100228560Y-104036278D01*
X100228560Y-104036278D02*
X100228560Y-104417230D01*
X100228560Y-104417230D02*
X100276179Y-104512468D01*
X100276179Y-104512468D02*
X100323798Y-104560088D01*
X100323798Y-104560088D02*
X100419036Y-104607707D01*
X100419036Y-104607707D02*
X100609512Y-104607707D01*
X100609512Y-104607707D02*
X100704750Y-104560088D01*
X100704750Y-104560088D02*
X100752369Y-104512468D01*
X100752369Y-104512468D02*
X100799988Y-104417230D01*
X100799988Y-104417230D02*
X100799988Y-104179135D01*
X100799988Y-104179135D02*
X100752369Y-104083897D01*
X100752369Y-104083897D02*
X100704750Y-104036278D01*
X100704750Y-104036278D02*
X100609512Y-103988659D01*
X100609512Y-103988659D02*
X100419036Y-103988659D01*
X100419036Y-103988659D02*
X100323798Y-104036278D01*
X100323798Y-104036278D02*
X100276179Y-104083897D01*
X100276179Y-104083897D02*
X100228560Y-104179135D01*
X98236942Y-86821260D02*
X98236942Y-85821260D01*
X98236942Y-85821260D02*
X98475037Y-85821260D01*
X98475037Y-85821260D02*
X98617894Y-85868879D01*
X98617894Y-85868879D02*
X98713132Y-85964117D01*
X98713132Y-85964117D02*
X98760751Y-86059355D01*
X98760751Y-86059355D02*
X98808370Y-86249831D01*
X98808370Y-86249831D02*
X98808370Y-86392688D01*
X98808370Y-86392688D02*
X98760751Y-86583164D01*
X98760751Y-86583164D02*
X98713132Y-86678402D01*
X98713132Y-86678402D02*
X98617894Y-86773641D01*
X98617894Y-86773641D02*
X98475037Y-86821260D01*
X98475037Y-86821260D02*
X98236942Y-86821260D01*
X99570275Y-86297450D02*
X99713132Y-86345069D01*
X99713132Y-86345069D02*
X99760751Y-86392688D01*
X99760751Y-86392688D02*
X99808370Y-86487926D01*
X99808370Y-86487926D02*
X99808370Y-86630783D01*
X99808370Y-86630783D02*
X99760751Y-86726021D01*
X99760751Y-86726021D02*
X99713132Y-86773641D01*
X99713132Y-86773641D02*
X99617894Y-86821260D01*
X99617894Y-86821260D02*
X99236942Y-86821260D01*
X99236942Y-86821260D02*
X99236942Y-85821260D01*
X99236942Y-85821260D02*
X99570275Y-85821260D01*
X99570275Y-85821260D02*
X99665513Y-85868879D01*
X99665513Y-85868879D02*
X99713132Y-85916498D01*
X99713132Y-85916498D02*
X99760751Y-86011736D01*
X99760751Y-86011736D02*
X99760751Y-86106974D01*
X99760751Y-86106974D02*
X99713132Y-86202212D01*
X99713132Y-86202212D02*
X99665513Y-86249831D01*
X99665513Y-86249831D02*
X99570275Y-86297450D01*
X99570275Y-86297450D02*
X99236942Y-86297450D01*
X100236942Y-86821260D02*
X100236942Y-85821260D01*
X100236942Y-85821260D02*
X100617894Y-85821260D01*
X100617894Y-85821260D02*
X100713132Y-85868879D01*
X100713132Y-85868879D02*
X100760751Y-85916498D01*
X100760751Y-85916498D02*
X100808370Y-86011736D01*
X100808370Y-86011736D02*
X100808370Y-86154593D01*
X100808370Y-86154593D02*
X100760751Y-86249831D01*
X100760751Y-86249831D02*
X100713132Y-86297450D01*
X100713132Y-86297450D02*
X100617894Y-86345069D01*
X100617894Y-86345069D02*
X100236942Y-86345069D01*
X98834951Y-71594432D02*
X98501618Y-71118241D01*
X98263523Y-71594432D02*
X98263523Y-70594432D01*
X98263523Y-70594432D02*
X98644475Y-70594432D01*
X98644475Y-70594432D02*
X98739713Y-70642051D01*
X98739713Y-70642051D02*
X98787332Y-70689670D01*
X98787332Y-70689670D02*
X98834951Y-70784908D01*
X98834951Y-70784908D02*
X98834951Y-70927765D01*
X98834951Y-70927765D02*
X98787332Y-71023003D01*
X98787332Y-71023003D02*
X98739713Y-71070622D01*
X98739713Y-71070622D02*
X98644475Y-71118241D01*
X98644475Y-71118241D02*
X98263523Y-71118241D01*
X99215904Y-71546813D02*
X99358761Y-71594432D01*
X99358761Y-71594432D02*
X99596856Y-71594432D01*
X99596856Y-71594432D02*
X99692094Y-71546813D01*
X99692094Y-71546813D02*
X99739713Y-71499193D01*
X99739713Y-71499193D02*
X99787332Y-71403955D01*
X99787332Y-71403955D02*
X99787332Y-71308717D01*
X99787332Y-71308717D02*
X99739713Y-71213479D01*
X99739713Y-71213479D02*
X99692094Y-71165860D01*
X99692094Y-71165860D02*
X99596856Y-71118241D01*
X99596856Y-71118241D02*
X99406380Y-71070622D01*
X99406380Y-71070622D02*
X99311142Y-71023003D01*
X99311142Y-71023003D02*
X99263523Y-70975384D01*
X99263523Y-70975384D02*
X99215904Y-70880146D01*
X99215904Y-70880146D02*
X99215904Y-70784908D01*
X99215904Y-70784908D02*
X99263523Y-70689670D01*
X99263523Y-70689670D02*
X99311142Y-70642051D01*
X99311142Y-70642051D02*
X99406380Y-70594432D01*
X99406380Y-70594432D02*
X99644475Y-70594432D01*
X99644475Y-70594432D02*
X99787332Y-70642051D01*
X100073047Y-70594432D02*
X100644475Y-70594432D01*
X100358761Y-71594432D02*
X100358761Y-70594432D01*
D10*
X75128572Y-91737374D02*
X75842858Y-91737374D01*
X74985715Y-92165945D02*
X75485715Y-90665945D01*
X75485715Y-90665945D02*
X75985715Y-92165945D01*
X76414286Y-90808802D02*
X76485714Y-90737374D01*
X76485714Y-90737374D02*
X76628572Y-90665945D01*
X76628572Y-90665945D02*
X76985714Y-90665945D01*
X76985714Y-90665945D02*
X77128572Y-90737374D01*
X77128572Y-90737374D02*
X77200000Y-90808802D01*
X77200000Y-90808802D02*
X77271429Y-90951659D01*
X77271429Y-90951659D02*
X77271429Y-91094517D01*
X77271429Y-91094517D02*
X77200000Y-91308802D01*
X77200000Y-91308802D02*
X76342857Y-92165945D01*
X76342857Y-92165945D02*
X77271429Y-92165945D01*
X74818829Y-104797335D02*
X74818829Y-103297335D01*
X74818829Y-103297335D02*
X75175972Y-103297335D01*
X75175972Y-103297335D02*
X75390258Y-103368764D01*
X75390258Y-103368764D02*
X75533115Y-103511621D01*
X75533115Y-103511621D02*
X75604544Y-103654478D01*
X75604544Y-103654478D02*
X75675972Y-103940192D01*
X75675972Y-103940192D02*
X75675972Y-104154478D01*
X75675972Y-104154478D02*
X75604544Y-104440192D01*
X75604544Y-104440192D02*
X75533115Y-104583049D01*
X75533115Y-104583049D02*
X75390258Y-104725907D01*
X75390258Y-104725907D02*
X75175972Y-104797335D01*
X75175972Y-104797335D02*
X74818829Y-104797335D01*
X76175972Y-103297335D02*
X77104544Y-103297335D01*
X77104544Y-103297335D02*
X76604544Y-103868764D01*
X76604544Y-103868764D02*
X76818829Y-103868764D01*
X76818829Y-103868764D02*
X76961687Y-103940192D01*
X76961687Y-103940192D02*
X77033115Y-104011621D01*
X77033115Y-104011621D02*
X77104544Y-104154478D01*
X77104544Y-104154478D02*
X77104544Y-104511621D01*
X77104544Y-104511621D02*
X77033115Y-104654478D01*
X77033115Y-104654478D02*
X76961687Y-104725907D01*
X76961687Y-104725907D02*
X76818829Y-104797335D01*
X76818829Y-104797335D02*
X76390258Y-104797335D01*
X76390258Y-104797335D02*
X76247401Y-104725907D01*
X76247401Y-104725907D02*
X76175972Y-104654478D01*
D11*
X74574572Y-76086315D02*
X74907905Y-76086315D01*
X75050762Y-76610125D02*
X74574572Y-76610125D01*
X74574572Y-76610125D02*
X74574572Y-75610125D01*
X74574572Y-75610125D02*
X75050762Y-75610125D01*
X75669810Y-75610125D02*
X75860286Y-75610125D01*
X75860286Y-75610125D02*
X75955524Y-75657744D01*
X75955524Y-75657744D02*
X76050762Y-75752982D01*
X76050762Y-75752982D02*
X76098381Y-75943458D01*
X76098381Y-75943458D02*
X76098381Y-76276791D01*
X76098381Y-76276791D02*
X76050762Y-76467267D01*
X76050762Y-76467267D02*
X75955524Y-76562506D01*
X75955524Y-76562506D02*
X75860286Y-76610125D01*
X75860286Y-76610125D02*
X75669810Y-76610125D01*
X75669810Y-76610125D02*
X75574572Y-76562506D01*
X75574572Y-76562506D02*
X75479334Y-76467267D01*
X75479334Y-76467267D02*
X75431715Y-76276791D01*
X75431715Y-76276791D02*
X75431715Y-75943458D01*
X75431715Y-75943458D02*
X75479334Y-75752982D01*
X75479334Y-75752982D02*
X75574572Y-75657744D01*
X75574572Y-75657744D02*
X75669810Y-75610125D01*
X76526953Y-76610125D02*
X76526953Y-75610125D01*
X76526953Y-75610125D02*
X76907905Y-75610125D01*
X76907905Y-75610125D02*
X77003143Y-75657744D01*
X77003143Y-75657744D02*
X77050762Y-75705363D01*
X77050762Y-75705363D02*
X77098381Y-75800601D01*
X77098381Y-75800601D02*
X77098381Y-75943458D01*
X77098381Y-75943458D02*
X77050762Y-76038696D01*
X77050762Y-76038696D02*
X77003143Y-76086315D01*
X77003143Y-76086315D02*
X76907905Y-76133934D01*
X76907905Y-76133934D02*
X76526953Y-76133934D01*
X98804167Y-61368535D02*
X98470834Y-60892344D01*
X98232739Y-61368535D02*
X98232739Y-60368535D01*
X98232739Y-60368535D02*
X98613691Y-60368535D01*
X98613691Y-60368535D02*
X98708929Y-60416154D01*
X98708929Y-60416154D02*
X98756548Y-60463773D01*
X98756548Y-60463773D02*
X98804167Y-60559011D01*
X98804167Y-60559011D02*
X98804167Y-60701868D01*
X98804167Y-60701868D02*
X98756548Y-60797106D01*
X98756548Y-60797106D02*
X98708929Y-60844725D01*
X98708929Y-60844725D02*
X98613691Y-60892344D01*
X98613691Y-60892344D02*
X98232739Y-60892344D01*
X99232739Y-60844725D02*
X99566072Y-60844725D01*
X99708929Y-61368535D02*
X99232739Y-61368535D01*
X99232739Y-61368535D02*
X99232739Y-60368535D01*
X99232739Y-60368535D02*
X99708929Y-60368535D01*
X100804167Y-61463773D02*
X100708929Y-61416154D01*
X100708929Y-61416154D02*
X100613691Y-61320916D01*
X100613691Y-61320916D02*
X100470834Y-61178058D01*
X100470834Y-61178058D02*
X100375596Y-61130439D01*
X100375596Y-61130439D02*
X100280358Y-61130439D01*
X100327977Y-61368535D02*
X100232739Y-61320916D01*
X100232739Y-61320916D02*
X100137501Y-61225677D01*
X100137501Y-61225677D02*
X100089882Y-61035201D01*
X100089882Y-61035201D02*
X100089882Y-60701868D01*
X100089882Y-60701868D02*
X100137501Y-60511392D01*
X100137501Y-60511392D02*
X100232739Y-60416154D01*
X100232739Y-60416154D02*
X100327977Y-60368535D01*
X100327977Y-60368535D02*
X100518453Y-60368535D01*
X100518453Y-60368535D02*
X100613691Y-60416154D01*
X100613691Y-60416154D02*
X100708929Y-60511392D01*
X100708929Y-60511392D02*
X100756548Y-60701868D01*
X100756548Y-60701868D02*
X100756548Y-61035201D01*
X100756548Y-61035201D02*
X100708929Y-61225677D01*
X100708929Y-61225677D02*
X100613691Y-61320916D01*
X100613691Y-61320916D02*
X100518453Y-61368535D01*
X100518453Y-61368535D02*
X100327977Y-61368535D01*
X98257008Y-109702067D02*
X98257008Y-108702067D01*
X98257008Y-108702067D02*
X98495103Y-108702067D01*
X98495103Y-108702067D02*
X98637960Y-108749686D01*
X98637960Y-108749686D02*
X98733198Y-108844924D01*
X98733198Y-108844924D02*
X98780817Y-108940162D01*
X98780817Y-108940162D02*
X98828436Y-109130638D01*
X98828436Y-109130638D02*
X98828436Y-109273495D01*
X98828436Y-109273495D02*
X98780817Y-109463971D01*
X98780817Y-109463971D02*
X98733198Y-109559209D01*
X98733198Y-109559209D02*
X98637960Y-109654448D01*
X98637960Y-109654448D02*
X98495103Y-109702067D01*
X98495103Y-109702067D02*
X98257008Y-109702067D01*
X99447484Y-108702067D02*
X99542722Y-108702067D01*
X99542722Y-108702067D02*
X99637960Y-108749686D01*
X99637960Y-108749686D02*
X99685579Y-108797305D01*
X99685579Y-108797305D02*
X99733198Y-108892543D01*
X99733198Y-108892543D02*
X99780817Y-109083019D01*
X99780817Y-109083019D02*
X99780817Y-109321114D01*
X99780817Y-109321114D02*
X99733198Y-109511590D01*
X99733198Y-109511590D02*
X99685579Y-109606828D01*
X99685579Y-109606828D02*
X99637960Y-109654448D01*
X99637960Y-109654448D02*
X99542722Y-109702067D01*
X99542722Y-109702067D02*
X99447484Y-109702067D01*
X99447484Y-109702067D02*
X99352246Y-109654448D01*
X99352246Y-109654448D02*
X99304627Y-109606828D01*
X99304627Y-109606828D02*
X99257008Y-109511590D01*
X99257008Y-109511590D02*
X99209389Y-109321114D01*
X99209389Y-109321114D02*
X99209389Y-109083019D01*
X99209389Y-109083019D02*
X99257008Y-108892543D01*
X99257008Y-108892543D02*
X99304627Y-108797305D01*
X99304627Y-108797305D02*
X99352246Y-108749686D01*
X99352246Y-108749686D02*
X99447484Y-108702067D01*
D10*
X74818829Y-109877335D02*
X74818829Y-108377335D01*
X74818829Y-108377335D02*
X75175972Y-108377335D01*
X75175972Y-108377335D02*
X75390258Y-108448764D01*
X75390258Y-108448764D02*
X75533115Y-108591621D01*
X75533115Y-108591621D02*
X75604544Y-108734478D01*
X75604544Y-108734478D02*
X75675972Y-109020192D01*
X75675972Y-109020192D02*
X75675972Y-109234478D01*
X75675972Y-109234478D02*
X75604544Y-109520192D01*
X75604544Y-109520192D02*
X75533115Y-109663049D01*
X75533115Y-109663049D02*
X75390258Y-109805907D01*
X75390258Y-109805907D02*
X75175972Y-109877335D01*
X75175972Y-109877335D02*
X74818829Y-109877335D01*
X77104544Y-109877335D02*
X76247401Y-109877335D01*
X76675972Y-109877335D02*
X76675972Y-108377335D01*
X76675972Y-108377335D02*
X76533115Y-108591621D01*
X76533115Y-108591621D02*
X76390258Y-108734478D01*
X76390258Y-108734478D02*
X76247401Y-108805907D01*
X69702784Y-137388972D02*
X68452784Y-137388972D01*
X68869451Y-136793734D02*
X69702784Y-136793734D01*
X68988499Y-136793734D02*
X68928975Y-136734211D01*
X68928975Y-136734211D02*
X68869451Y-136615163D01*
X68869451Y-136615163D02*
X68869451Y-136436592D01*
X68869451Y-136436592D02*
X68928975Y-136317544D01*
X68928975Y-136317544D02*
X69048022Y-136258020D01*
X69048022Y-136258020D02*
X69702784Y-136258020D01*
X69702784Y-135662782D02*
X68869451Y-135662782D01*
X68452784Y-135662782D02*
X68512308Y-135722306D01*
X68512308Y-135722306D02*
X68571832Y-135662782D01*
X68571832Y-135662782D02*
X68512308Y-135603259D01*
X68512308Y-135603259D02*
X68452784Y-135662782D01*
X68452784Y-135662782D02*
X68571832Y-135662782D01*
X68869451Y-135246116D02*
X68869451Y-134769925D01*
X68452784Y-135067544D02*
X69524213Y-135067544D01*
X69524213Y-135067544D02*
X69643261Y-135008021D01*
X69643261Y-135008021D02*
X69702784Y-134888973D01*
X69702784Y-134888973D02*
X69702784Y-134769925D01*
X69702784Y-134353258D02*
X68869451Y-134353258D01*
X68452784Y-134353258D02*
X68512308Y-134412782D01*
X68512308Y-134412782D02*
X68571832Y-134353258D01*
X68571832Y-134353258D02*
X68512308Y-134293735D01*
X68512308Y-134293735D02*
X68452784Y-134353258D01*
X68452784Y-134353258D02*
X68571832Y-134353258D01*
X69702784Y-133222306D02*
X69048022Y-133222306D01*
X69048022Y-133222306D02*
X68928975Y-133281830D01*
X68928975Y-133281830D02*
X68869451Y-133400878D01*
X68869451Y-133400878D02*
X68869451Y-133638973D01*
X68869451Y-133638973D02*
X68928975Y-133758020D01*
X69643261Y-133222306D02*
X69702784Y-133341354D01*
X69702784Y-133341354D02*
X69702784Y-133638973D01*
X69702784Y-133638973D02*
X69643261Y-133758020D01*
X69643261Y-133758020D02*
X69524213Y-133817544D01*
X69524213Y-133817544D02*
X69405165Y-133817544D01*
X69405165Y-133817544D02*
X69286118Y-133758020D01*
X69286118Y-133758020D02*
X69226594Y-133638973D01*
X69226594Y-133638973D02*
X69226594Y-133341354D01*
X69226594Y-133341354D02*
X69167070Y-133222306D01*
X69702784Y-132448497D02*
X69643261Y-132567545D01*
X69643261Y-132567545D02*
X69524213Y-132627068D01*
X69524213Y-132627068D02*
X68452784Y-132627068D01*
X69702784Y-131019925D02*
X68452784Y-131019925D01*
X68452784Y-131019925D02*
X68452784Y-130722306D01*
X68452784Y-130722306D02*
X68512308Y-130543735D01*
X68512308Y-130543735D02*
X68631356Y-130424687D01*
X68631356Y-130424687D02*
X68750403Y-130365164D01*
X68750403Y-130365164D02*
X68988499Y-130305640D01*
X68988499Y-130305640D02*
X69167070Y-130305640D01*
X69167070Y-130305640D02*
X69405165Y-130365164D01*
X69405165Y-130365164D02*
X69524213Y-130424687D01*
X69524213Y-130424687D02*
X69643261Y-130543735D01*
X69643261Y-130543735D02*
X69702784Y-130722306D01*
X69702784Y-130722306D02*
X69702784Y-131019925D01*
X69643261Y-129293735D02*
X69702784Y-129412783D01*
X69702784Y-129412783D02*
X69702784Y-129650878D01*
X69702784Y-129650878D02*
X69643261Y-129769925D01*
X69643261Y-129769925D02*
X69524213Y-129829449D01*
X69524213Y-129829449D02*
X69048022Y-129829449D01*
X69048022Y-129829449D02*
X68928975Y-129769925D01*
X68928975Y-129769925D02*
X68869451Y-129650878D01*
X68869451Y-129650878D02*
X68869451Y-129412783D01*
X68869451Y-129412783D02*
X68928975Y-129293735D01*
X68928975Y-129293735D02*
X69048022Y-129234211D01*
X69048022Y-129234211D02*
X69167070Y-129234211D01*
X69167070Y-129234211D02*
X69286118Y-129829449D01*
X69643261Y-128758020D02*
X69702784Y-128638973D01*
X69702784Y-128638973D02*
X69702784Y-128400877D01*
X69702784Y-128400877D02*
X69643261Y-128281830D01*
X69643261Y-128281830D02*
X69524213Y-128222306D01*
X69524213Y-128222306D02*
X69464689Y-128222306D01*
X69464689Y-128222306D02*
X69345641Y-128281830D01*
X69345641Y-128281830D02*
X69286118Y-128400877D01*
X69286118Y-128400877D02*
X69286118Y-128579449D01*
X69286118Y-128579449D02*
X69226594Y-128698496D01*
X69226594Y-128698496D02*
X69107546Y-128758020D01*
X69107546Y-128758020D02*
X69048022Y-128758020D01*
X69048022Y-128758020D02*
X68928975Y-128698496D01*
X68928975Y-128698496D02*
X68869451Y-128579449D01*
X68869451Y-128579449D02*
X68869451Y-128400877D01*
X68869451Y-128400877D02*
X68928975Y-128281830D01*
X69702784Y-127686591D02*
X68869451Y-127686591D01*
X68452784Y-127686591D02*
X68512308Y-127746115D01*
X68512308Y-127746115D02*
X68571832Y-127686591D01*
X68571832Y-127686591D02*
X68512308Y-127627068D01*
X68512308Y-127627068D02*
X68452784Y-127686591D01*
X68452784Y-127686591D02*
X68571832Y-127686591D01*
X68869451Y-126555639D02*
X69881356Y-126555639D01*
X69881356Y-126555639D02*
X70000403Y-126615163D01*
X70000403Y-126615163D02*
X70059927Y-126674687D01*
X70059927Y-126674687D02*
X70119451Y-126793734D01*
X70119451Y-126793734D02*
X70119451Y-126972306D01*
X70119451Y-126972306D02*
X70059927Y-127091353D01*
X69643261Y-126555639D02*
X69702784Y-126674687D01*
X69702784Y-126674687D02*
X69702784Y-126912782D01*
X69702784Y-126912782D02*
X69643261Y-127031830D01*
X69643261Y-127031830D02*
X69583737Y-127091353D01*
X69583737Y-127091353D02*
X69464689Y-127150877D01*
X69464689Y-127150877D02*
X69107546Y-127150877D01*
X69107546Y-127150877D02*
X68988499Y-127091353D01*
X68988499Y-127091353D02*
X68928975Y-127031830D01*
X68928975Y-127031830D02*
X68869451Y-126912782D01*
X68869451Y-126912782D02*
X68869451Y-126674687D01*
X68869451Y-126674687D02*
X68928975Y-126555639D01*
X68869451Y-125960401D02*
X69702784Y-125960401D01*
X68988499Y-125960401D02*
X68928975Y-125900878D01*
X68928975Y-125900878D02*
X68869451Y-125781830D01*
X68869451Y-125781830D02*
X68869451Y-125603259D01*
X68869451Y-125603259D02*
X68928975Y-125484211D01*
X68928975Y-125484211D02*
X69048022Y-125424687D01*
X69048022Y-125424687D02*
X69702784Y-125424687D01*
X69702784Y-123877068D02*
X68452784Y-123877068D01*
X68928975Y-123877068D02*
X68869451Y-123758021D01*
X68869451Y-123758021D02*
X68869451Y-123519926D01*
X68869451Y-123519926D02*
X68928975Y-123400878D01*
X68928975Y-123400878D02*
X68988499Y-123341354D01*
X68988499Y-123341354D02*
X69107546Y-123281830D01*
X69107546Y-123281830D02*
X69464689Y-123281830D01*
X69464689Y-123281830D02*
X69583737Y-123341354D01*
X69583737Y-123341354D02*
X69643261Y-123400878D01*
X69643261Y-123400878D02*
X69702784Y-123519926D01*
X69702784Y-123519926D02*
X69702784Y-123758021D01*
X69702784Y-123758021D02*
X69643261Y-123877068D01*
X68869451Y-122865164D02*
X69702784Y-122567545D01*
X68869451Y-122269926D02*
X69702784Y-122567545D01*
X69702784Y-122567545D02*
X70000403Y-122686593D01*
X70000403Y-122686593D02*
X70059927Y-122746116D01*
X70059927Y-122746116D02*
X70119451Y-122865164D01*
X69583737Y-121793735D02*
X69643261Y-121734212D01*
X69643261Y-121734212D02*
X69702784Y-121793735D01*
X69702784Y-121793735D02*
X69643261Y-121853259D01*
X69643261Y-121853259D02*
X69583737Y-121793735D01*
X69583737Y-121793735D02*
X69702784Y-121793735D01*
X68928975Y-121793735D02*
X68988499Y-121734212D01*
X68988499Y-121734212D02*
X69048022Y-121793735D01*
X69048022Y-121793735D02*
X68988499Y-121853259D01*
X68988499Y-121853259D02*
X68928975Y-121793735D01*
X68928975Y-121793735D02*
X69048022Y-121793735D01*
X71060522Y-136972306D02*
X71120046Y-136793734D01*
X71120046Y-136793734D02*
X71179570Y-136734211D01*
X71179570Y-136734211D02*
X71298618Y-136674687D01*
X71298618Y-136674687D02*
X71477189Y-136674687D01*
X71477189Y-136674687D02*
X71596237Y-136734211D01*
X71596237Y-136734211D02*
X71655761Y-136793734D01*
X71655761Y-136793734D02*
X71715284Y-136912782D01*
X71715284Y-136912782D02*
X71715284Y-137388972D01*
X71715284Y-137388972D02*
X70465284Y-137388972D01*
X70465284Y-137388972D02*
X70465284Y-136972306D01*
X70465284Y-136972306D02*
X70524808Y-136853258D01*
X70524808Y-136853258D02*
X70584332Y-136793734D01*
X70584332Y-136793734D02*
X70703380Y-136734211D01*
X70703380Y-136734211D02*
X70822427Y-136734211D01*
X70822427Y-136734211D02*
X70941475Y-136793734D01*
X70941475Y-136793734D02*
X71000999Y-136853258D01*
X71000999Y-136853258D02*
X71060522Y-136972306D01*
X71060522Y-136972306D02*
X71060522Y-137388972D01*
X71715284Y-136138972D02*
X70881951Y-136138972D01*
X70465284Y-136138972D02*
X70524808Y-136198496D01*
X70524808Y-136198496D02*
X70584332Y-136138972D01*
X70584332Y-136138972D02*
X70524808Y-136079449D01*
X70524808Y-136079449D02*
X70465284Y-136138972D01*
X70465284Y-136138972D02*
X70584332Y-136138972D01*
X70881951Y-135008020D02*
X71893856Y-135008020D01*
X71893856Y-135008020D02*
X72012903Y-135067544D01*
X72012903Y-135067544D02*
X72072427Y-135127068D01*
X72072427Y-135127068D02*
X72131951Y-135246115D01*
X72131951Y-135246115D02*
X72131951Y-135424687D01*
X72131951Y-135424687D02*
X72072427Y-135543734D01*
X71655761Y-135008020D02*
X71715284Y-135127068D01*
X71715284Y-135127068D02*
X71715284Y-135365163D01*
X71715284Y-135365163D02*
X71655761Y-135484211D01*
X71655761Y-135484211D02*
X71596237Y-135543734D01*
X71596237Y-135543734D02*
X71477189Y-135603258D01*
X71477189Y-135603258D02*
X71120046Y-135603258D01*
X71120046Y-135603258D02*
X71000999Y-135543734D01*
X71000999Y-135543734D02*
X70941475Y-135484211D01*
X70941475Y-135484211D02*
X70881951Y-135365163D01*
X70881951Y-135365163D02*
X70881951Y-135127068D01*
X70881951Y-135127068D02*
X70941475Y-135008020D01*
X71060522Y-133996116D02*
X71120046Y-133817544D01*
X71120046Y-133817544D02*
X71179570Y-133758021D01*
X71179570Y-133758021D02*
X71298618Y-133698497D01*
X71298618Y-133698497D02*
X71477189Y-133698497D01*
X71477189Y-133698497D02*
X71596237Y-133758021D01*
X71596237Y-133758021D02*
X71655761Y-133817544D01*
X71655761Y-133817544D02*
X71715284Y-133936592D01*
X71715284Y-133936592D02*
X71715284Y-134412782D01*
X71715284Y-134412782D02*
X70465284Y-134412782D01*
X70465284Y-134412782D02*
X70465284Y-133996116D01*
X70465284Y-133996116D02*
X70524808Y-133877068D01*
X70524808Y-133877068D02*
X70584332Y-133817544D01*
X70584332Y-133817544D02*
X70703380Y-133758021D01*
X70703380Y-133758021D02*
X70822427Y-133758021D01*
X70822427Y-133758021D02*
X70941475Y-133817544D01*
X70941475Y-133817544D02*
X71000999Y-133877068D01*
X71000999Y-133877068D02*
X71060522Y-133996116D01*
X71060522Y-133996116D02*
X71060522Y-134412782D01*
X71715284Y-132627068D02*
X71060522Y-132627068D01*
X71060522Y-132627068D02*
X70941475Y-132686592D01*
X70941475Y-132686592D02*
X70881951Y-132805640D01*
X70881951Y-132805640D02*
X70881951Y-133043735D01*
X70881951Y-133043735D02*
X70941475Y-133162782D01*
X71655761Y-132627068D02*
X71715284Y-132746116D01*
X71715284Y-132746116D02*
X71715284Y-133043735D01*
X71715284Y-133043735D02*
X71655761Y-133162782D01*
X71655761Y-133162782D02*
X71536713Y-133222306D01*
X71536713Y-133222306D02*
X71417665Y-133222306D01*
X71417665Y-133222306D02*
X71298618Y-133162782D01*
X71298618Y-133162782D02*
X71239094Y-133043735D01*
X71239094Y-133043735D02*
X71239094Y-132746116D01*
X71239094Y-132746116D02*
X71179570Y-132627068D01*
X71715284Y-131496116D02*
X70465284Y-131496116D01*
X71655761Y-131496116D02*
X71715284Y-131615164D01*
X71715284Y-131615164D02*
X71715284Y-131853259D01*
X71715284Y-131853259D02*
X71655761Y-131972307D01*
X71655761Y-131972307D02*
X71596237Y-132031830D01*
X71596237Y-132031830D02*
X71477189Y-132091354D01*
X71477189Y-132091354D02*
X71120046Y-132091354D01*
X71120046Y-132091354D02*
X71000999Y-132031830D01*
X71000999Y-132031830D02*
X70941475Y-131972307D01*
X70941475Y-131972307D02*
X70881951Y-131853259D01*
X70881951Y-131853259D02*
X70881951Y-131615164D01*
X70881951Y-131615164D02*
X70941475Y-131496116D01*
X71060522Y-130484212D02*
X71120046Y-130305640D01*
X71120046Y-130305640D02*
X71179570Y-130246117D01*
X71179570Y-130246117D02*
X71298618Y-130186593D01*
X71298618Y-130186593D02*
X71477189Y-130186593D01*
X71477189Y-130186593D02*
X71596237Y-130246117D01*
X71596237Y-130246117D02*
X71655761Y-130305640D01*
X71655761Y-130305640D02*
X71715284Y-130424688D01*
X71715284Y-130424688D02*
X71715284Y-130900878D01*
X71715284Y-130900878D02*
X70465284Y-130900878D01*
X70465284Y-130900878D02*
X70465284Y-130484212D01*
X70465284Y-130484212D02*
X70524808Y-130365164D01*
X70524808Y-130365164D02*
X70584332Y-130305640D01*
X70584332Y-130305640D02*
X70703380Y-130246117D01*
X70703380Y-130246117D02*
X70822427Y-130246117D01*
X70822427Y-130246117D02*
X70941475Y-130305640D01*
X70941475Y-130305640D02*
X71000999Y-130365164D01*
X71000999Y-130365164D02*
X71060522Y-130484212D01*
X71060522Y-130484212D02*
X71060522Y-130900878D01*
X71715284Y-129650878D02*
X70881951Y-129650878D01*
X70465284Y-129650878D02*
X70524808Y-129710402D01*
X70524808Y-129710402D02*
X70584332Y-129650878D01*
X70584332Y-129650878D02*
X70524808Y-129591355D01*
X70524808Y-129591355D02*
X70465284Y-129650878D01*
X70465284Y-129650878D02*
X70584332Y-129650878D01*
X71715284Y-128877069D02*
X71655761Y-128996117D01*
X71655761Y-128996117D02*
X71596237Y-129055640D01*
X71596237Y-129055640D02*
X71477189Y-129115164D01*
X71477189Y-129115164D02*
X71120046Y-129115164D01*
X71120046Y-129115164D02*
X71000999Y-129055640D01*
X71000999Y-129055640D02*
X70941475Y-128996117D01*
X70941475Y-128996117D02*
X70881951Y-128877069D01*
X70881951Y-128877069D02*
X70881951Y-128698498D01*
X70881951Y-128698498D02*
X70941475Y-128579450D01*
X70941475Y-128579450D02*
X71000999Y-128519926D01*
X71000999Y-128519926D02*
X71120046Y-128460402D01*
X71120046Y-128460402D02*
X71477189Y-128460402D01*
X71477189Y-128460402D02*
X71596237Y-128519926D01*
X71596237Y-128519926D02*
X71655761Y-128579450D01*
X71655761Y-128579450D02*
X71715284Y-128698498D01*
X71715284Y-128698498D02*
X71715284Y-128877069D01*
X71715284Y-127746117D02*
X71655761Y-127865165D01*
X71655761Y-127865165D02*
X71536713Y-127924688D01*
X71536713Y-127924688D02*
X70465284Y-127924688D01*
X71715284Y-127091355D02*
X71655761Y-127210403D01*
X71655761Y-127210403D02*
X71596237Y-127269926D01*
X71596237Y-127269926D02*
X71477189Y-127329450D01*
X71477189Y-127329450D02*
X71120046Y-127329450D01*
X71120046Y-127329450D02*
X71000999Y-127269926D01*
X71000999Y-127269926D02*
X70941475Y-127210403D01*
X70941475Y-127210403D02*
X70881951Y-127091355D01*
X70881951Y-127091355D02*
X70881951Y-126912784D01*
X70881951Y-126912784D02*
X70941475Y-126793736D01*
X70941475Y-126793736D02*
X71000999Y-126734212D01*
X71000999Y-126734212D02*
X71120046Y-126674688D01*
X71120046Y-126674688D02*
X71477189Y-126674688D01*
X71477189Y-126674688D02*
X71596237Y-126734212D01*
X71596237Y-126734212D02*
X71655761Y-126793736D01*
X71655761Y-126793736D02*
X71715284Y-126912784D01*
X71715284Y-126912784D02*
X71715284Y-127091355D01*
X70881951Y-125603260D02*
X71893856Y-125603260D01*
X71893856Y-125603260D02*
X72012903Y-125662784D01*
X72012903Y-125662784D02*
X72072427Y-125722308D01*
X72072427Y-125722308D02*
X72131951Y-125841355D01*
X72131951Y-125841355D02*
X72131951Y-126019927D01*
X72131951Y-126019927D02*
X72072427Y-126138974D01*
X71655761Y-125603260D02*
X71715284Y-125722308D01*
X71715284Y-125722308D02*
X71715284Y-125960403D01*
X71715284Y-125960403D02*
X71655761Y-126079451D01*
X71655761Y-126079451D02*
X71596237Y-126138974D01*
X71596237Y-126138974D02*
X71477189Y-126198498D01*
X71477189Y-126198498D02*
X71120046Y-126198498D01*
X71120046Y-126198498D02*
X71000999Y-126138974D01*
X71000999Y-126138974D02*
X70941475Y-126079451D01*
X70941475Y-126079451D02*
X70881951Y-125960403D01*
X70881951Y-125960403D02*
X70881951Y-125722308D01*
X70881951Y-125722308D02*
X70941475Y-125603260D01*
X71715284Y-125008022D02*
X70881951Y-125008022D01*
X70465284Y-125008022D02*
X70524808Y-125067546D01*
X70524808Y-125067546D02*
X70584332Y-125008022D01*
X70584332Y-125008022D02*
X70524808Y-124948499D01*
X70524808Y-124948499D02*
X70465284Y-125008022D01*
X70465284Y-125008022D02*
X70584332Y-125008022D01*
X71655761Y-124472308D02*
X71715284Y-124353261D01*
X71715284Y-124353261D02*
X71715284Y-124115165D01*
X71715284Y-124115165D02*
X71655761Y-123996118D01*
X71655761Y-123996118D02*
X71536713Y-123936594D01*
X71536713Y-123936594D02*
X71477189Y-123936594D01*
X71477189Y-123936594D02*
X71358141Y-123996118D01*
X71358141Y-123996118D02*
X71298618Y-124115165D01*
X71298618Y-124115165D02*
X71298618Y-124293737D01*
X71298618Y-124293737D02*
X71239094Y-124412784D01*
X71239094Y-124412784D02*
X71120046Y-124472308D01*
X71120046Y-124472308D02*
X71060522Y-124472308D01*
X71060522Y-124472308D02*
X70941475Y-124412784D01*
X70941475Y-124412784D02*
X70881951Y-124293737D01*
X70881951Y-124293737D02*
X70881951Y-124115165D01*
X70881951Y-124115165D02*
X70941475Y-123996118D01*
X70881951Y-123579451D02*
X70881951Y-123103260D01*
X70465284Y-123400879D02*
X71536713Y-123400879D01*
X71536713Y-123400879D02*
X71655761Y-123341356D01*
X71655761Y-123341356D02*
X71715284Y-123222308D01*
X71715284Y-123222308D02*
X71715284Y-123103260D01*
X70465284Y-122627070D02*
X70703380Y-122746117D01*
X71655761Y-122150879D02*
X71715284Y-122031832D01*
X71715284Y-122031832D02*
X71715284Y-121793736D01*
X71715284Y-121793736D02*
X71655761Y-121674689D01*
X71655761Y-121674689D02*
X71536713Y-121615165D01*
X71536713Y-121615165D02*
X71477189Y-121615165D01*
X71477189Y-121615165D02*
X71358141Y-121674689D01*
X71358141Y-121674689D02*
X71298618Y-121793736D01*
X71298618Y-121793736D02*
X71298618Y-121972308D01*
X71298618Y-121972308D02*
X71239094Y-122091355D01*
X71239094Y-122091355D02*
X71120046Y-122150879D01*
X71120046Y-122150879D02*
X71060522Y-122150879D01*
X71060522Y-122150879D02*
X70941475Y-122091355D01*
X70941475Y-122091355D02*
X70881951Y-121972308D01*
X70881951Y-121972308D02*
X70881951Y-121793736D01*
X70881951Y-121793736D02*
X70941475Y-121674689D01*
X71060522Y-119710403D02*
X71120046Y-119531831D01*
X71120046Y-119531831D02*
X71179570Y-119472308D01*
X71179570Y-119472308D02*
X71298618Y-119412784D01*
X71298618Y-119412784D02*
X71477189Y-119412784D01*
X71477189Y-119412784D02*
X71596237Y-119472308D01*
X71596237Y-119472308D02*
X71655761Y-119531831D01*
X71655761Y-119531831D02*
X71715284Y-119650879D01*
X71715284Y-119650879D02*
X71715284Y-120127069D01*
X71715284Y-120127069D02*
X70465284Y-120127069D01*
X70465284Y-120127069D02*
X70465284Y-119710403D01*
X70465284Y-119710403D02*
X70524808Y-119591355D01*
X70524808Y-119591355D02*
X70584332Y-119531831D01*
X70584332Y-119531831D02*
X70703380Y-119472308D01*
X70703380Y-119472308D02*
X70822427Y-119472308D01*
X70822427Y-119472308D02*
X70941475Y-119531831D01*
X70941475Y-119531831D02*
X71000999Y-119591355D01*
X71000999Y-119591355D02*
X71060522Y-119710403D01*
X71060522Y-119710403D02*
X71060522Y-120127069D01*
X71715284Y-118877069D02*
X70881951Y-118877069D01*
X70465284Y-118877069D02*
X70524808Y-118936593D01*
X70524808Y-118936593D02*
X70584332Y-118877069D01*
X70584332Y-118877069D02*
X70524808Y-118817546D01*
X70524808Y-118817546D02*
X70465284Y-118877069D01*
X70465284Y-118877069D02*
X70584332Y-118877069D01*
X70881951Y-117746117D02*
X71893856Y-117746117D01*
X71893856Y-117746117D02*
X72012903Y-117805641D01*
X72012903Y-117805641D02*
X72072427Y-117865165D01*
X72072427Y-117865165D02*
X72131951Y-117984212D01*
X72131951Y-117984212D02*
X72131951Y-118162784D01*
X72131951Y-118162784D02*
X72072427Y-118281831D01*
X71655761Y-117746117D02*
X71715284Y-117865165D01*
X71715284Y-117865165D02*
X71715284Y-118103260D01*
X71715284Y-118103260D02*
X71655761Y-118222308D01*
X71655761Y-118222308D02*
X71596237Y-118281831D01*
X71596237Y-118281831D02*
X71477189Y-118341355D01*
X71477189Y-118341355D02*
X71120046Y-118341355D01*
X71120046Y-118341355D02*
X71000999Y-118281831D01*
X71000999Y-118281831D02*
X70941475Y-118222308D01*
X70941475Y-118222308D02*
X70881951Y-118103260D01*
X70881951Y-118103260D02*
X70881951Y-117865165D01*
X70881951Y-117865165D02*
X70941475Y-117746117D01*
X71060522Y-115781832D02*
X71120046Y-115603260D01*
X71120046Y-115603260D02*
X71179570Y-115543737D01*
X71179570Y-115543737D02*
X71298618Y-115484213D01*
X71298618Y-115484213D02*
X71477189Y-115484213D01*
X71477189Y-115484213D02*
X71596237Y-115543737D01*
X71596237Y-115543737D02*
X71655761Y-115603260D01*
X71655761Y-115603260D02*
X71715284Y-115722308D01*
X71715284Y-115722308D02*
X71715284Y-116198498D01*
X71715284Y-116198498D02*
X70465284Y-116198498D01*
X70465284Y-116198498D02*
X70465284Y-115781832D01*
X70465284Y-115781832D02*
X70524808Y-115662784D01*
X70524808Y-115662784D02*
X70584332Y-115603260D01*
X70584332Y-115603260D02*
X70703380Y-115543737D01*
X70703380Y-115543737D02*
X70822427Y-115543737D01*
X70822427Y-115543737D02*
X70941475Y-115603260D01*
X70941475Y-115603260D02*
X71000999Y-115662784D01*
X71000999Y-115662784D02*
X71060522Y-115781832D01*
X71060522Y-115781832D02*
X71060522Y-116198498D01*
X71715284Y-114412784D02*
X71060522Y-114412784D01*
X71060522Y-114412784D02*
X70941475Y-114472308D01*
X70941475Y-114472308D02*
X70881951Y-114591356D01*
X70881951Y-114591356D02*
X70881951Y-114829451D01*
X70881951Y-114829451D02*
X70941475Y-114948498D01*
X71655761Y-114412784D02*
X71715284Y-114531832D01*
X71715284Y-114531832D02*
X71715284Y-114829451D01*
X71715284Y-114829451D02*
X71655761Y-114948498D01*
X71655761Y-114948498D02*
X71536713Y-115008022D01*
X71536713Y-115008022D02*
X71417665Y-115008022D01*
X71417665Y-115008022D02*
X71298618Y-114948498D01*
X71298618Y-114948498D02*
X71239094Y-114829451D01*
X71239094Y-114829451D02*
X71239094Y-114531832D01*
X71239094Y-114531832D02*
X71179570Y-114412784D01*
X71715284Y-113281832D02*
X70465284Y-113281832D01*
X71655761Y-113281832D02*
X71715284Y-113400880D01*
X71715284Y-113400880D02*
X71715284Y-113638975D01*
X71715284Y-113638975D02*
X71655761Y-113758023D01*
X71655761Y-113758023D02*
X71596237Y-113817546D01*
X71596237Y-113817546D02*
X71477189Y-113877070D01*
X71477189Y-113877070D02*
X71120046Y-113877070D01*
X71120046Y-113877070D02*
X71000999Y-113817546D01*
X71000999Y-113817546D02*
X70941475Y-113758023D01*
X70941475Y-113758023D02*
X70881951Y-113638975D01*
X70881951Y-113638975D02*
X70881951Y-113400880D01*
X70881951Y-113400880D02*
X70941475Y-113281832D01*
X71060522Y-111317547D02*
X71120046Y-111138975D01*
X71120046Y-111138975D02*
X71179570Y-111079452D01*
X71179570Y-111079452D02*
X71298618Y-111019928D01*
X71298618Y-111019928D02*
X71477189Y-111019928D01*
X71477189Y-111019928D02*
X71596237Y-111079452D01*
X71596237Y-111079452D02*
X71655761Y-111138975D01*
X71655761Y-111138975D02*
X71715284Y-111258023D01*
X71715284Y-111258023D02*
X71715284Y-111734213D01*
X71715284Y-111734213D02*
X70465284Y-111734213D01*
X70465284Y-111734213D02*
X70465284Y-111317547D01*
X70465284Y-111317547D02*
X70524808Y-111198499D01*
X70524808Y-111198499D02*
X70584332Y-111138975D01*
X70584332Y-111138975D02*
X70703380Y-111079452D01*
X70703380Y-111079452D02*
X70822427Y-111079452D01*
X70822427Y-111079452D02*
X70941475Y-111138975D01*
X70941475Y-111138975D02*
X71000999Y-111198499D01*
X71000999Y-111198499D02*
X71060522Y-111317547D01*
X71060522Y-111317547D02*
X71060522Y-111734213D01*
X71655761Y-110008023D02*
X71715284Y-110127071D01*
X71715284Y-110127071D02*
X71715284Y-110365166D01*
X71715284Y-110365166D02*
X71655761Y-110484213D01*
X71655761Y-110484213D02*
X71536713Y-110543737D01*
X71536713Y-110543737D02*
X71060522Y-110543737D01*
X71060522Y-110543737D02*
X70941475Y-110484213D01*
X70941475Y-110484213D02*
X70881951Y-110365166D01*
X70881951Y-110365166D02*
X70881951Y-110127071D01*
X70881951Y-110127071D02*
X70941475Y-110008023D01*
X70941475Y-110008023D02*
X71060522Y-109948499D01*
X71060522Y-109948499D02*
X71179570Y-109948499D01*
X71179570Y-109948499D02*
X71298618Y-110543737D01*
X70881951Y-109412784D02*
X71715284Y-109412784D01*
X71000999Y-109412784D02*
X70941475Y-109353261D01*
X70941475Y-109353261D02*
X70881951Y-109234213D01*
X70881951Y-109234213D02*
X70881951Y-109055642D01*
X70881951Y-109055642D02*
X70941475Y-108936594D01*
X70941475Y-108936594D02*
X71060522Y-108877070D01*
X71060522Y-108877070D02*
X71715284Y-108877070D01*
X71655761Y-107746118D02*
X71715284Y-107865166D01*
X71715284Y-107865166D02*
X71715284Y-108103261D01*
X71715284Y-108103261D02*
X71655761Y-108222309D01*
X71655761Y-108222309D02*
X71596237Y-108281832D01*
X71596237Y-108281832D02*
X71477189Y-108341356D01*
X71477189Y-108341356D02*
X71120046Y-108341356D01*
X71120046Y-108341356D02*
X71000999Y-108281832D01*
X71000999Y-108281832D02*
X70941475Y-108222309D01*
X70941475Y-108222309D02*
X70881951Y-108103261D01*
X70881951Y-108103261D02*
X70881951Y-107865166D01*
X70881951Y-107865166D02*
X70941475Y-107746118D01*
X71715284Y-107210403D02*
X70465284Y-107210403D01*
X71715284Y-106674689D02*
X71060522Y-106674689D01*
X71060522Y-106674689D02*
X70941475Y-106734213D01*
X70941475Y-106734213D02*
X70881951Y-106853261D01*
X70881951Y-106853261D02*
X70881951Y-107031832D01*
X70881951Y-107031832D02*
X70941475Y-107150880D01*
X70941475Y-107150880D02*
X71000999Y-107210403D01*
X73966749Y-66764426D02*
X73966749Y-65264426D01*
X75538178Y-66764426D02*
X75038178Y-66050140D01*
X74681035Y-66764426D02*
X74681035Y-65264426D01*
X74681035Y-65264426D02*
X75252464Y-65264426D01*
X75252464Y-65264426D02*
X75395321Y-65335855D01*
X75395321Y-65335855D02*
X75466750Y-65407283D01*
X75466750Y-65407283D02*
X75538178Y-65550140D01*
X75538178Y-65550140D02*
X75538178Y-65764426D01*
X75538178Y-65764426D02*
X75466750Y-65907283D01*
X75466750Y-65907283D02*
X75395321Y-65978712D01*
X75395321Y-65978712D02*
X75252464Y-66050140D01*
X75252464Y-66050140D02*
X74681035Y-66050140D01*
X77181035Y-66907283D02*
X77038178Y-66835855D01*
X77038178Y-66835855D02*
X76895321Y-66692998D01*
X76895321Y-66692998D02*
X76681035Y-66478712D01*
X76681035Y-66478712D02*
X76538178Y-66407283D01*
X76538178Y-66407283D02*
X76395321Y-66407283D01*
X76466750Y-66764426D02*
X76323893Y-66692998D01*
X76323893Y-66692998D02*
X76181035Y-66550140D01*
X76181035Y-66550140D02*
X76109607Y-66264426D01*
X76109607Y-66264426D02*
X76109607Y-65764426D01*
X76109607Y-65764426D02*
X76181035Y-65478712D01*
X76181035Y-65478712D02*
X76323893Y-65335855D01*
X76323893Y-65335855D02*
X76466750Y-65264426D01*
X76466750Y-65264426D02*
X76752464Y-65264426D01*
X76752464Y-65264426D02*
X76895321Y-65335855D01*
X76895321Y-65335855D02*
X77038178Y-65478712D01*
X77038178Y-65478712D02*
X77109607Y-65764426D01*
X77109607Y-65764426D02*
X77109607Y-66264426D01*
X77109607Y-66264426D02*
X77038178Y-66550140D01*
X77038178Y-66550140D02*
X76895321Y-66692998D01*
X76895321Y-66692998D02*
X76752464Y-66764426D01*
X76752464Y-66764426D02*
X76466750Y-66764426D01*
D11*
X98205896Y-96997046D02*
X98205896Y-95997046D01*
X98205896Y-95997046D02*
X98443991Y-95997046D01*
X98443991Y-95997046D02*
X98586848Y-96044665D01*
X98586848Y-96044665D02*
X98682086Y-96139903D01*
X98682086Y-96139903D02*
X98729705Y-96235141D01*
X98729705Y-96235141D02*
X98777324Y-96425617D01*
X98777324Y-96425617D02*
X98777324Y-96568474D01*
X98777324Y-96568474D02*
X98729705Y-96758950D01*
X98729705Y-96758950D02*
X98682086Y-96854188D01*
X98682086Y-96854188D02*
X98586848Y-96949427D01*
X98586848Y-96949427D02*
X98443991Y-96997046D01*
X98443991Y-96997046D02*
X98205896Y-96997046D01*
X99539229Y-96473236D02*
X99682086Y-96520855D01*
X99682086Y-96520855D02*
X99729705Y-96568474D01*
X99729705Y-96568474D02*
X99777324Y-96663712D01*
X99777324Y-96663712D02*
X99777324Y-96806569D01*
X99777324Y-96806569D02*
X99729705Y-96901807D01*
X99729705Y-96901807D02*
X99682086Y-96949427D01*
X99682086Y-96949427D02*
X99586848Y-96997046D01*
X99586848Y-96997046D02*
X99205896Y-96997046D01*
X99205896Y-96997046D02*
X99205896Y-95997046D01*
X99205896Y-95997046D02*
X99539229Y-95997046D01*
X99539229Y-95997046D02*
X99634467Y-96044665D01*
X99634467Y-96044665D02*
X99682086Y-96092284D01*
X99682086Y-96092284D02*
X99729705Y-96187522D01*
X99729705Y-96187522D02*
X99729705Y-96282760D01*
X99729705Y-96282760D02*
X99682086Y-96377998D01*
X99682086Y-96377998D02*
X99634467Y-96425617D01*
X99634467Y-96425617D02*
X99539229Y-96473236D01*
X99539229Y-96473236D02*
X99205896Y-96473236D01*
X100110658Y-95997046D02*
X100729705Y-95997046D01*
X100729705Y-95997046D02*
X100396372Y-96377998D01*
X100396372Y-96377998D02*
X100539229Y-96377998D01*
X100539229Y-96377998D02*
X100634467Y-96425617D01*
X100634467Y-96425617D02*
X100682086Y-96473236D01*
X100682086Y-96473236D02*
X100729705Y-96568474D01*
X100729705Y-96568474D02*
X100729705Y-96806569D01*
X100729705Y-96806569D02*
X100682086Y-96901807D01*
X100682086Y-96901807D02*
X100634467Y-96949427D01*
X100634467Y-96949427D02*
X100539229Y-96997046D01*
X100539229Y-96997046D02*
X100253515Y-96997046D01*
X100253515Y-96997046D02*
X100158277Y-96949427D01*
X100158277Y-96949427D02*
X100110658Y-96901807D01*
X98579077Y-78660082D02*
X98721934Y-78707701D01*
X98721934Y-78707701D02*
X98769553Y-78755320D01*
X98769553Y-78755320D02*
X98817172Y-78850558D01*
X98817172Y-78850558D02*
X98817172Y-78993415D01*
X98817172Y-78993415D02*
X98769553Y-79088653D01*
X98769553Y-79088653D02*
X98721934Y-79136273D01*
X98721934Y-79136273D02*
X98626696Y-79183892D01*
X98626696Y-79183892D02*
X98245744Y-79183892D01*
X98245744Y-79183892D02*
X98245744Y-78183892D01*
X98245744Y-78183892D02*
X98579077Y-78183892D01*
X98579077Y-78183892D02*
X98674315Y-78231511D01*
X98674315Y-78231511D02*
X98721934Y-78279130D01*
X98721934Y-78279130D02*
X98769553Y-78374368D01*
X98769553Y-78374368D02*
X98769553Y-78469606D01*
X98769553Y-78469606D02*
X98721934Y-78564844D01*
X98721934Y-78564844D02*
X98674315Y-78612463D01*
X98674315Y-78612463D02*
X98579077Y-78660082D01*
X98579077Y-78660082D02*
X98245744Y-78660082D01*
X99198125Y-79136273D02*
X99340982Y-79183892D01*
X99340982Y-79183892D02*
X99579077Y-79183892D01*
X99579077Y-79183892D02*
X99674315Y-79136273D01*
X99674315Y-79136273D02*
X99721934Y-79088653D01*
X99721934Y-79088653D02*
X99769553Y-78993415D01*
X99769553Y-78993415D02*
X99769553Y-78898177D01*
X99769553Y-78898177D02*
X99721934Y-78802939D01*
X99721934Y-78802939D02*
X99674315Y-78755320D01*
X99674315Y-78755320D02*
X99579077Y-78707701D01*
X99579077Y-78707701D02*
X99388601Y-78660082D01*
X99388601Y-78660082D02*
X99293363Y-78612463D01*
X99293363Y-78612463D02*
X99245744Y-78564844D01*
X99245744Y-78564844D02*
X99198125Y-78469606D01*
X99198125Y-78469606D02*
X99198125Y-78374368D01*
X99198125Y-78374368D02*
X99245744Y-78279130D01*
X99245744Y-78279130D02*
X99293363Y-78231511D01*
X99293363Y-78231511D02*
X99388601Y-78183892D01*
X99388601Y-78183892D02*
X99626696Y-78183892D01*
X99626696Y-78183892D02*
X99769553Y-78231511D01*
X100388601Y-78707701D02*
X100388601Y-79183892D01*
X100055268Y-78183892D02*
X100388601Y-78707701D01*
X100388601Y-78707701D02*
X100721934Y-78183892D01*
D10*
X73350158Y-85524406D02*
X73850158Y-87024406D01*
X73850158Y-87024406D02*
X74350158Y-85524406D01*
X74850157Y-87024406D02*
X74850157Y-85524406D01*
X74850157Y-85524406D02*
X75207300Y-85524406D01*
X75207300Y-85524406D02*
X75421586Y-85595835D01*
X75421586Y-85595835D02*
X75564443Y-85738692D01*
X75564443Y-85738692D02*
X75635872Y-85881549D01*
X75635872Y-85881549D02*
X75707300Y-86167263D01*
X75707300Y-86167263D02*
X75707300Y-86381549D01*
X75707300Y-86381549D02*
X75635872Y-86667263D01*
X75635872Y-86667263D02*
X75564443Y-86810120D01*
X75564443Y-86810120D02*
X75421586Y-86952978D01*
X75421586Y-86952978D02*
X75207300Y-87024406D01*
X75207300Y-87024406D02*
X74850157Y-87024406D01*
X76350157Y-87024406D02*
X76350157Y-85524406D01*
X76350157Y-85524406D02*
X76707300Y-85524406D01*
X76707300Y-85524406D02*
X76921586Y-85595835D01*
X76921586Y-85595835D02*
X77064443Y-85738692D01*
X77064443Y-85738692D02*
X77135872Y-85881549D01*
X77135872Y-85881549D02*
X77207300Y-86167263D01*
X77207300Y-86167263D02*
X77207300Y-86381549D01*
X77207300Y-86381549D02*
X77135872Y-86667263D01*
X77135872Y-86667263D02*
X77064443Y-86810120D01*
X77064443Y-86810120D02*
X76921586Y-86952978D01*
X76921586Y-86952978D02*
X76707300Y-87024406D01*
X76707300Y-87024406D02*
X76350157Y-87024406D01*
X74818829Y-99717335D02*
X74818829Y-98217335D01*
X74818829Y-98217335D02*
X75175972Y-98217335D01*
X75175972Y-98217335D02*
X75390258Y-98288764D01*
X75390258Y-98288764D02*
X75533115Y-98431621D01*
X75533115Y-98431621D02*
X75604544Y-98574478D01*
X75604544Y-98574478D02*
X75675972Y-98860192D01*
X75675972Y-98860192D02*
X75675972Y-99074478D01*
X75675972Y-99074478D02*
X75604544Y-99360192D01*
X75604544Y-99360192D02*
X75533115Y-99503049D01*
X75533115Y-99503049D02*
X75390258Y-99645907D01*
X75390258Y-99645907D02*
X75175972Y-99717335D01*
X75175972Y-99717335D02*
X74818829Y-99717335D01*
X77033115Y-98217335D02*
X76318829Y-98217335D01*
X76318829Y-98217335D02*
X76247401Y-98931621D01*
X76247401Y-98931621D02*
X76318829Y-98860192D01*
X76318829Y-98860192D02*
X76461687Y-98788764D01*
X76461687Y-98788764D02*
X76818829Y-98788764D01*
X76818829Y-98788764D02*
X76961687Y-98860192D01*
X76961687Y-98860192D02*
X77033115Y-98931621D01*
X77033115Y-98931621D02*
X77104544Y-99074478D01*
X77104544Y-99074478D02*
X77104544Y-99431621D01*
X77104544Y-99431621D02*
X77033115Y-99574478D01*
X77033115Y-99574478D02*
X76961687Y-99645907D01*
X76961687Y-99645907D02*
X76818829Y-99717335D01*
X76818829Y-99717335D02*
X76461687Y-99717335D01*
X76461687Y-99717335D02*
X76318829Y-99645907D01*
X76318829Y-99645907D02*
X76247401Y-99574478D01*
D11*
X98233324Y-89426920D02*
X98233324Y-88426920D01*
X98233324Y-88426920D02*
X98471419Y-88426920D01*
X98471419Y-88426920D02*
X98614276Y-88474539D01*
X98614276Y-88474539D02*
X98709514Y-88569777D01*
X98709514Y-88569777D02*
X98757133Y-88665015D01*
X98757133Y-88665015D02*
X98804752Y-88855491D01*
X98804752Y-88855491D02*
X98804752Y-88998348D01*
X98804752Y-88998348D02*
X98757133Y-89188824D01*
X98757133Y-89188824D02*
X98709514Y-89284062D01*
X98709514Y-89284062D02*
X98614276Y-89379301D01*
X98614276Y-89379301D02*
X98471419Y-89426920D01*
X98471419Y-89426920D02*
X98233324Y-89426920D01*
X99566657Y-88903110D02*
X99709514Y-88950729D01*
X99709514Y-88950729D02*
X99757133Y-88998348D01*
X99757133Y-88998348D02*
X99804752Y-89093586D01*
X99804752Y-89093586D02*
X99804752Y-89236443D01*
X99804752Y-89236443D02*
X99757133Y-89331681D01*
X99757133Y-89331681D02*
X99709514Y-89379301D01*
X99709514Y-89379301D02*
X99614276Y-89426920D01*
X99614276Y-89426920D02*
X99233324Y-89426920D01*
X99233324Y-89426920D02*
X99233324Y-88426920D01*
X99233324Y-88426920D02*
X99566657Y-88426920D01*
X99566657Y-88426920D02*
X99661895Y-88474539D01*
X99661895Y-88474539D02*
X99709514Y-88522158D01*
X99709514Y-88522158D02*
X99757133Y-88617396D01*
X99757133Y-88617396D02*
X99757133Y-88712634D01*
X99757133Y-88712634D02*
X99709514Y-88807872D01*
X99709514Y-88807872D02*
X99661895Y-88855491D01*
X99661895Y-88855491D02*
X99566657Y-88903110D01*
X99566657Y-88903110D02*
X99233324Y-88903110D01*
X100423800Y-88426920D02*
X100519038Y-88426920D01*
X100519038Y-88426920D02*
X100614276Y-88474539D01*
X100614276Y-88474539D02*
X100661895Y-88522158D01*
X100661895Y-88522158D02*
X100709514Y-88617396D01*
X100709514Y-88617396D02*
X100757133Y-88807872D01*
X100757133Y-88807872D02*
X100757133Y-89045967D01*
X100757133Y-89045967D02*
X100709514Y-89236443D01*
X100709514Y-89236443D02*
X100661895Y-89331681D01*
X100661895Y-89331681D02*
X100614276Y-89379301D01*
X100614276Y-89379301D02*
X100519038Y-89426920D01*
X100519038Y-89426920D02*
X100423800Y-89426920D01*
X100423800Y-89426920D02*
X100328562Y-89379301D01*
X100328562Y-89379301D02*
X100280943Y-89331681D01*
X100280943Y-89331681D02*
X100233324Y-89236443D01*
X100233324Y-89236443D02*
X100185705Y-89045967D01*
X100185705Y-89045967D02*
X100185705Y-88807872D01*
X100185705Y-88807872D02*
X100233324Y-88617396D01*
X100233324Y-88617396D02*
X100280943Y-88522158D01*
X100280943Y-88522158D02*
X100328562Y-88474539D01*
X100328562Y-88474539D02*
X100423800Y-88426920D01*
X98891604Y-66412482D02*
X98843985Y-66460102D01*
X98843985Y-66460102D02*
X98701128Y-66507721D01*
X98701128Y-66507721D02*
X98605890Y-66507721D01*
X98605890Y-66507721D02*
X98463033Y-66460102D01*
X98463033Y-66460102D02*
X98367795Y-66364863D01*
X98367795Y-66364863D02*
X98320176Y-66269625D01*
X98320176Y-66269625D02*
X98272557Y-66079149D01*
X98272557Y-66079149D02*
X98272557Y-65936292D01*
X98272557Y-65936292D02*
X98320176Y-65745816D01*
X98320176Y-65745816D02*
X98367795Y-65650578D01*
X98367795Y-65650578D02*
X98463033Y-65555340D01*
X98463033Y-65555340D02*
X98605890Y-65507721D01*
X98605890Y-65507721D02*
X98701128Y-65507721D01*
X98701128Y-65507721D02*
X98843985Y-65555340D01*
X98843985Y-65555340D02*
X98891604Y-65602959D01*
X100034461Y-65460102D02*
X99177319Y-66745816D01*
X100367795Y-66507721D02*
X100367795Y-65507721D01*
X100367795Y-65507721D02*
X100605890Y-65507721D01*
X100605890Y-65507721D02*
X100748747Y-65555340D01*
X100748747Y-65555340D02*
X100843985Y-65650578D01*
X100843985Y-65650578D02*
X100891604Y-65745816D01*
X100891604Y-65745816D02*
X100939223Y-65936292D01*
X100939223Y-65936292D02*
X100939223Y-66079149D01*
X100939223Y-66079149D02*
X100891604Y-66269625D01*
X100891604Y-66269625D02*
X100843985Y-66364863D01*
X100843985Y-66364863D02*
X100748747Y-66460102D01*
X100748747Y-66460102D02*
X100605890Y-66507721D01*
X100605890Y-66507721D02*
X100367795Y-66507721D01*
X98342982Y-76395427D02*
X98819172Y-76395427D01*
X98247744Y-76681142D02*
X98581077Y-75681142D01*
X98581077Y-75681142D02*
X98914410Y-76681142D01*
X99819172Y-76585903D02*
X99771553Y-76633523D01*
X99771553Y-76633523D02*
X99628696Y-76681142D01*
X99628696Y-76681142D02*
X99533458Y-76681142D01*
X99533458Y-76681142D02*
X99390601Y-76633523D01*
X99390601Y-76633523D02*
X99295363Y-76538284D01*
X99295363Y-76538284D02*
X99247744Y-76443046D01*
X99247744Y-76443046D02*
X99200125Y-76252570D01*
X99200125Y-76252570D02*
X99200125Y-76109713D01*
X99200125Y-76109713D02*
X99247744Y-75919237D01*
X99247744Y-75919237D02*
X99295363Y-75823999D01*
X99295363Y-75823999D02*
X99390601Y-75728761D01*
X99390601Y-75728761D02*
X99533458Y-75681142D01*
X99533458Y-75681142D02*
X99628696Y-75681142D01*
X99628696Y-75681142D02*
X99771553Y-75728761D01*
X99771553Y-75728761D02*
X99819172Y-75776380D01*
X100247744Y-76681142D02*
X100247744Y-75681142D01*
X100819172Y-76681142D02*
X100390601Y-76109713D01*
X100819172Y-75681142D02*
X100247744Y-76252570D01*
X98813158Y-83300820D02*
X98717920Y-83253201D01*
X98717920Y-83253201D02*
X98575063Y-83253201D01*
X98575063Y-83253201D02*
X98432206Y-83300820D01*
X98432206Y-83300820D02*
X98336968Y-83396058D01*
X98336968Y-83396058D02*
X98289349Y-83491296D01*
X98289349Y-83491296D02*
X98241730Y-83681772D01*
X98241730Y-83681772D02*
X98241730Y-83824629D01*
X98241730Y-83824629D02*
X98289349Y-84015105D01*
X98289349Y-84015105D02*
X98336968Y-84110343D01*
X98336968Y-84110343D02*
X98432206Y-84205582D01*
X98432206Y-84205582D02*
X98575063Y-84253201D01*
X98575063Y-84253201D02*
X98670301Y-84253201D01*
X98670301Y-84253201D02*
X98813158Y-84205582D01*
X98813158Y-84205582D02*
X98860777Y-84157962D01*
X98860777Y-84157962D02*
X98860777Y-83824629D01*
X98860777Y-83824629D02*
X98670301Y-83824629D01*
X99289349Y-84253201D02*
X99289349Y-83253201D01*
X99289349Y-83253201D02*
X99860777Y-84253201D01*
X99860777Y-84253201D02*
X99860777Y-83253201D01*
X100336968Y-84253201D02*
X100336968Y-83253201D01*
X100336968Y-83253201D02*
X100575063Y-83253201D01*
X100575063Y-83253201D02*
X100717920Y-83300820D01*
X100717920Y-83300820D02*
X100813158Y-83396058D01*
X100813158Y-83396058D02*
X100860777Y-83491296D01*
X100860777Y-83491296D02*
X100908396Y-83681772D01*
X100908396Y-83681772D02*
X100908396Y-83824629D01*
X100908396Y-83824629D02*
X100860777Y-84015105D01*
X100860777Y-84015105D02*
X100813158Y-84110343D01*
X100813158Y-84110343D02*
X100717920Y-84205582D01*
X100717920Y-84205582D02*
X100575063Y-84253201D01*
X100575063Y-84253201D02*
X100336968Y-84253201D01*
D10*
X75128572Y-84136470D02*
X75842858Y-84136470D01*
X74985715Y-84565041D02*
X75485715Y-83065041D01*
X75485715Y-83065041D02*
X75985715Y-84565041D01*
X76771429Y-83065041D02*
X76914286Y-83065041D01*
X76914286Y-83065041D02*
X77057143Y-83136470D01*
X77057143Y-83136470D02*
X77128572Y-83207898D01*
X77128572Y-83207898D02*
X77200000Y-83350755D01*
X77200000Y-83350755D02*
X77271429Y-83636470D01*
X77271429Y-83636470D02*
X77271429Y-83993613D01*
X77271429Y-83993613D02*
X77200000Y-84279327D01*
X77200000Y-84279327D02*
X77128572Y-84422184D01*
X77128572Y-84422184D02*
X77057143Y-84493613D01*
X77057143Y-84493613D02*
X76914286Y-84565041D01*
X76914286Y-84565041D02*
X76771429Y-84565041D01*
X76771429Y-84565041D02*
X76628572Y-84493613D01*
X76628572Y-84493613D02*
X76557143Y-84422184D01*
X76557143Y-84422184D02*
X76485714Y-84279327D01*
X76485714Y-84279327D02*
X76414286Y-83993613D01*
X76414286Y-83993613D02*
X76414286Y-83636470D01*
X76414286Y-83636470D02*
X76485714Y-83350755D01*
X76485714Y-83350755D02*
X76557143Y-83207898D01*
X76557143Y-83207898D02*
X76628572Y-83136470D01*
X76628572Y-83136470D02*
X76771429Y-83065041D01*
D11*
X98243730Y-107106215D02*
X98243730Y-106106215D01*
X98243730Y-106106215D02*
X98481825Y-106106215D01*
X98481825Y-106106215D02*
X98624682Y-106153834D01*
X98624682Y-106153834D02*
X98719920Y-106249072D01*
X98719920Y-106249072D02*
X98767539Y-106344310D01*
X98767539Y-106344310D02*
X98815158Y-106534786D01*
X98815158Y-106534786D02*
X98815158Y-106677643D01*
X98815158Y-106677643D02*
X98767539Y-106868119D01*
X98767539Y-106868119D02*
X98719920Y-106963357D01*
X98719920Y-106963357D02*
X98624682Y-107058596D01*
X98624682Y-107058596D02*
X98481825Y-107106215D01*
X98481825Y-107106215D02*
X98243730Y-107106215D01*
X99577063Y-106582405D02*
X99719920Y-106630024D01*
X99719920Y-106630024D02*
X99767539Y-106677643D01*
X99767539Y-106677643D02*
X99815158Y-106772881D01*
X99815158Y-106772881D02*
X99815158Y-106915738D01*
X99815158Y-106915738D02*
X99767539Y-107010976D01*
X99767539Y-107010976D02*
X99719920Y-107058596D01*
X99719920Y-107058596D02*
X99624682Y-107106215D01*
X99624682Y-107106215D02*
X99243730Y-107106215D01*
X99243730Y-107106215D02*
X99243730Y-106106215D01*
X99243730Y-106106215D02*
X99577063Y-106106215D01*
X99577063Y-106106215D02*
X99672301Y-106153834D01*
X99672301Y-106153834D02*
X99719920Y-106201453D01*
X99719920Y-106201453D02*
X99767539Y-106296691D01*
X99767539Y-106296691D02*
X99767539Y-106391929D01*
X99767539Y-106391929D02*
X99719920Y-106487167D01*
X99719920Y-106487167D02*
X99672301Y-106534786D01*
X99672301Y-106534786D02*
X99577063Y-106582405D01*
X99577063Y-106582405D02*
X99243730Y-106582405D01*
X100148492Y-106106215D02*
X100815158Y-106106215D01*
X100815158Y-106106215D02*
X100386587Y-107106215D01*
X98233324Y-94473671D02*
X98233324Y-93473671D01*
X98233324Y-93473671D02*
X98471419Y-93473671D01*
X98471419Y-93473671D02*
X98614276Y-93521290D01*
X98614276Y-93521290D02*
X98709514Y-93616528D01*
X98709514Y-93616528D02*
X98757133Y-93711766D01*
X98757133Y-93711766D02*
X98804752Y-93902242D01*
X98804752Y-93902242D02*
X98804752Y-94045099D01*
X98804752Y-94045099D02*
X98757133Y-94235575D01*
X98757133Y-94235575D02*
X98709514Y-94330813D01*
X98709514Y-94330813D02*
X98614276Y-94426052D01*
X98614276Y-94426052D02*
X98471419Y-94473671D01*
X98471419Y-94473671D02*
X98233324Y-94473671D01*
X99566657Y-93949861D02*
X99709514Y-93997480D01*
X99709514Y-93997480D02*
X99757133Y-94045099D01*
X99757133Y-94045099D02*
X99804752Y-94140337D01*
X99804752Y-94140337D02*
X99804752Y-94283194D01*
X99804752Y-94283194D02*
X99757133Y-94378432D01*
X99757133Y-94378432D02*
X99709514Y-94426052D01*
X99709514Y-94426052D02*
X99614276Y-94473671D01*
X99614276Y-94473671D02*
X99233324Y-94473671D01*
X99233324Y-94473671D02*
X99233324Y-93473671D01*
X99233324Y-93473671D02*
X99566657Y-93473671D01*
X99566657Y-93473671D02*
X99661895Y-93521290D01*
X99661895Y-93521290D02*
X99709514Y-93568909D01*
X99709514Y-93568909D02*
X99757133Y-93664147D01*
X99757133Y-93664147D02*
X99757133Y-93759385D01*
X99757133Y-93759385D02*
X99709514Y-93854623D01*
X99709514Y-93854623D02*
X99661895Y-93902242D01*
X99661895Y-93902242D02*
X99566657Y-93949861D01*
X99566657Y-93949861D02*
X99233324Y-93949861D01*
X100185705Y-93568909D02*
X100233324Y-93521290D01*
X100233324Y-93521290D02*
X100328562Y-93473671D01*
X100328562Y-93473671D02*
X100566657Y-93473671D01*
X100566657Y-93473671D02*
X100661895Y-93521290D01*
X100661895Y-93521290D02*
X100709514Y-93568909D01*
X100709514Y-93568909D02*
X100757133Y-93664147D01*
X100757133Y-93664147D02*
X100757133Y-93759385D01*
X100757133Y-93759385D02*
X100709514Y-93902242D01*
X100709514Y-93902242D02*
X100138086Y-94473671D01*
X100138086Y-94473671D02*
X100757133Y-94473671D01*
D10*
X72211324Y-74372635D02*
X72211324Y-72872635D01*
X72211324Y-72872635D02*
X72568467Y-72872635D01*
X72568467Y-72872635D02*
X72782753Y-72944064D01*
X72782753Y-72944064D02*
X72925610Y-73086921D01*
X72925610Y-73086921D02*
X72997039Y-73229778D01*
X72997039Y-73229778D02*
X73068467Y-73515492D01*
X73068467Y-73515492D02*
X73068467Y-73729778D01*
X73068467Y-73729778D02*
X72997039Y-74015492D01*
X72997039Y-74015492D02*
X72925610Y-74158349D01*
X72925610Y-74158349D02*
X72782753Y-74301207D01*
X72782753Y-74301207D02*
X72568467Y-74372635D01*
X72568467Y-74372635D02*
X72211324Y-74372635D01*
X73639896Y-73944064D02*
X74354182Y-73944064D01*
X73497039Y-74372635D02*
X73997039Y-72872635D01*
X73997039Y-72872635D02*
X74497039Y-74372635D01*
X75854181Y-74229778D02*
X75782753Y-74301207D01*
X75782753Y-74301207D02*
X75568467Y-74372635D01*
X75568467Y-74372635D02*
X75425610Y-74372635D01*
X75425610Y-74372635D02*
X75211324Y-74301207D01*
X75211324Y-74301207D02*
X75068467Y-74158349D01*
X75068467Y-74158349D02*
X74997038Y-74015492D01*
X74997038Y-74015492D02*
X74925610Y-73729778D01*
X74925610Y-73729778D02*
X74925610Y-73515492D01*
X74925610Y-73515492D02*
X74997038Y-73229778D01*
X74997038Y-73229778D02*
X75068467Y-73086921D01*
X75068467Y-73086921D02*
X75211324Y-72944064D01*
X75211324Y-72944064D02*
X75425610Y-72872635D01*
X75425610Y-72872635D02*
X75568467Y-72872635D01*
X75568467Y-72872635D02*
X75782753Y-72944064D01*
X75782753Y-72944064D02*
X75854181Y-73015492D01*
X76497038Y-74372635D02*
X76497038Y-72872635D01*
X77354181Y-74372635D02*
X76711324Y-73515492D01*
X77354181Y-72872635D02*
X76497038Y-73729778D01*
X74818829Y-94637335D02*
X74818829Y-93137335D01*
X74818829Y-93137335D02*
X75175972Y-93137335D01*
X75175972Y-93137335D02*
X75390258Y-93208764D01*
X75390258Y-93208764D02*
X75533115Y-93351621D01*
X75533115Y-93351621D02*
X75604544Y-93494478D01*
X75604544Y-93494478D02*
X75675972Y-93780192D01*
X75675972Y-93780192D02*
X75675972Y-93994478D01*
X75675972Y-93994478D02*
X75604544Y-94280192D01*
X75604544Y-94280192D02*
X75533115Y-94423049D01*
X75533115Y-94423049D02*
X75390258Y-94565907D01*
X75390258Y-94565907D02*
X75175972Y-94637335D01*
X75175972Y-94637335D02*
X74818829Y-94637335D01*
X76175972Y-93137335D02*
X77175972Y-93137335D01*
X77175972Y-93137335D02*
X76533115Y-94637335D01*
D11*
X98211282Y-99513348D02*
X98211282Y-98513348D01*
X98211282Y-98513348D02*
X98449377Y-98513348D01*
X98449377Y-98513348D02*
X98592234Y-98560967D01*
X98592234Y-98560967D02*
X98687472Y-98656205D01*
X98687472Y-98656205D02*
X98735091Y-98751443D01*
X98735091Y-98751443D02*
X98782710Y-98941919D01*
X98782710Y-98941919D02*
X98782710Y-99084776D01*
X98782710Y-99084776D02*
X98735091Y-99275252D01*
X98735091Y-99275252D02*
X98687472Y-99370490D01*
X98687472Y-99370490D02*
X98592234Y-99465729D01*
X98592234Y-99465729D02*
X98449377Y-99513348D01*
X98449377Y-99513348D02*
X98211282Y-99513348D01*
X99544615Y-98989538D02*
X99687472Y-99037157D01*
X99687472Y-99037157D02*
X99735091Y-99084776D01*
X99735091Y-99084776D02*
X99782710Y-99180014D01*
X99782710Y-99180014D02*
X99782710Y-99322871D01*
X99782710Y-99322871D02*
X99735091Y-99418109D01*
X99735091Y-99418109D02*
X99687472Y-99465729D01*
X99687472Y-99465729D02*
X99592234Y-99513348D01*
X99592234Y-99513348D02*
X99211282Y-99513348D01*
X99211282Y-99513348D02*
X99211282Y-98513348D01*
X99211282Y-98513348D02*
X99544615Y-98513348D01*
X99544615Y-98513348D02*
X99639853Y-98560967D01*
X99639853Y-98560967D02*
X99687472Y-98608586D01*
X99687472Y-98608586D02*
X99735091Y-98703824D01*
X99735091Y-98703824D02*
X99735091Y-98799062D01*
X99735091Y-98799062D02*
X99687472Y-98894300D01*
X99687472Y-98894300D02*
X99639853Y-98941919D01*
X99639853Y-98941919D02*
X99544615Y-98989538D01*
X99544615Y-98989538D02*
X99211282Y-98989538D01*
X100639853Y-98846681D02*
X100639853Y-99513348D01*
X100401758Y-98465729D02*
X100163663Y-99180014D01*
X100163663Y-99180014D02*
X100782710Y-99180014D01*
X98211282Y-102044304D02*
X98211282Y-101044304D01*
X98211282Y-101044304D02*
X98449377Y-101044304D01*
X98449377Y-101044304D02*
X98592234Y-101091923D01*
X98592234Y-101091923D02*
X98687472Y-101187161D01*
X98687472Y-101187161D02*
X98735091Y-101282399D01*
X98735091Y-101282399D02*
X98782710Y-101472875D01*
X98782710Y-101472875D02*
X98782710Y-101615732D01*
X98782710Y-101615732D02*
X98735091Y-101806208D01*
X98735091Y-101806208D02*
X98687472Y-101901446D01*
X98687472Y-101901446D02*
X98592234Y-101996685D01*
X98592234Y-101996685D02*
X98449377Y-102044304D01*
X98449377Y-102044304D02*
X98211282Y-102044304D01*
X99544615Y-101520494D02*
X99687472Y-101568113D01*
X99687472Y-101568113D02*
X99735091Y-101615732D01*
X99735091Y-101615732D02*
X99782710Y-101710970D01*
X99782710Y-101710970D02*
X99782710Y-101853827D01*
X99782710Y-101853827D02*
X99735091Y-101949065D01*
X99735091Y-101949065D02*
X99687472Y-101996685D01*
X99687472Y-101996685D02*
X99592234Y-102044304D01*
X99592234Y-102044304D02*
X99211282Y-102044304D01*
X99211282Y-102044304D02*
X99211282Y-101044304D01*
X99211282Y-101044304D02*
X99544615Y-101044304D01*
X99544615Y-101044304D02*
X99639853Y-101091923D01*
X99639853Y-101091923D02*
X99687472Y-101139542D01*
X99687472Y-101139542D02*
X99735091Y-101234780D01*
X99735091Y-101234780D02*
X99735091Y-101330018D01*
X99735091Y-101330018D02*
X99687472Y-101425256D01*
X99687472Y-101425256D02*
X99639853Y-101472875D01*
X99639853Y-101472875D02*
X99544615Y-101520494D01*
X99544615Y-101520494D02*
X99211282Y-101520494D01*
X100687472Y-101044304D02*
X100211282Y-101044304D01*
X100211282Y-101044304D02*
X100163663Y-101520494D01*
X100163663Y-101520494D02*
X100211282Y-101472875D01*
X100211282Y-101472875D02*
X100306520Y-101425256D01*
X100306520Y-101425256D02*
X100544615Y-101425256D01*
X100544615Y-101425256D02*
X100639853Y-101472875D01*
X100639853Y-101472875D02*
X100687472Y-101520494D01*
X100687472Y-101520494D02*
X100735091Y-101615732D01*
X100735091Y-101615732D02*
X100735091Y-101853827D01*
X100735091Y-101853827D02*
X100687472Y-101949065D01*
X100687472Y-101949065D02*
X100639853Y-101996685D01*
X100639853Y-101996685D02*
X100544615Y-102044304D01*
X100544615Y-102044304D02*
X100306520Y-102044304D01*
X100306520Y-102044304D02*
X100211282Y-101996685D01*
X100211282Y-101996685D02*
X100163663Y-101949065D01*
D10*
X74519933Y-71728647D02*
X74019933Y-71014361D01*
X73662790Y-71728647D02*
X73662790Y-70228647D01*
X73662790Y-70228647D02*
X74234219Y-70228647D01*
X74234219Y-70228647D02*
X74377076Y-70300076D01*
X74377076Y-70300076D02*
X74448505Y-70371504D01*
X74448505Y-70371504D02*
X74519933Y-70514361D01*
X74519933Y-70514361D02*
X74519933Y-70728647D01*
X74519933Y-70728647D02*
X74448505Y-70871504D01*
X74448505Y-70871504D02*
X74377076Y-70942933D01*
X74377076Y-70942933D02*
X74234219Y-71014361D01*
X74234219Y-71014361D02*
X73662790Y-71014361D01*
X75162790Y-71728647D02*
X75162790Y-70228647D01*
X75162790Y-70228647D02*
X75519933Y-70228647D01*
X75519933Y-70228647D02*
X75734219Y-70300076D01*
X75734219Y-70300076D02*
X75877076Y-70442933D01*
X75877076Y-70442933D02*
X75948505Y-70585790D01*
X75948505Y-70585790D02*
X76019933Y-70871504D01*
X76019933Y-70871504D02*
X76019933Y-71085790D01*
X76019933Y-71085790D02*
X75948505Y-71371504D01*
X75948505Y-71371504D02*
X75877076Y-71514361D01*
X75877076Y-71514361D02*
X75734219Y-71657219D01*
X75734219Y-71657219D02*
X75519933Y-71728647D01*
X75519933Y-71728647D02*
X75162790Y-71728647D01*
X76948505Y-71014361D02*
X76948505Y-71728647D01*
X76448505Y-70228647D02*
X76948505Y-71014361D01*
X76948505Y-71014361D02*
X77448505Y-70228647D01*
D11*
X98338967Y-73914105D02*
X98815157Y-73914105D01*
X98243729Y-74199820D02*
X98577062Y-73199820D01*
X98577062Y-73199820D02*
X98910395Y-74199820D01*
X99100872Y-73199820D02*
X99672300Y-73199820D01*
X99386586Y-74199820D02*
X99386586Y-73199820D01*
X100005634Y-74199820D02*
X100005634Y-73199820D01*
X100005634Y-73199820D02*
X100577062Y-74199820D01*
X100577062Y-74199820D02*
X100577062Y-73199820D01*
D10*
X74818829Y-107337335D02*
X74818829Y-105837335D01*
X74818829Y-105837335D02*
X75175972Y-105837335D01*
X75175972Y-105837335D02*
X75390258Y-105908764D01*
X75390258Y-105908764D02*
X75533115Y-106051621D01*
X75533115Y-106051621D02*
X75604544Y-106194478D01*
X75604544Y-106194478D02*
X75675972Y-106480192D01*
X75675972Y-106480192D02*
X75675972Y-106694478D01*
X75675972Y-106694478D02*
X75604544Y-106980192D01*
X75604544Y-106980192D02*
X75533115Y-107123049D01*
X75533115Y-107123049D02*
X75390258Y-107265907D01*
X75390258Y-107265907D02*
X75175972Y-107337335D01*
X75175972Y-107337335D02*
X74818829Y-107337335D01*
X76247401Y-105980192D02*
X76318829Y-105908764D01*
X76318829Y-105908764D02*
X76461687Y-105837335D01*
X76461687Y-105837335D02*
X76818829Y-105837335D01*
X76818829Y-105837335D02*
X76961687Y-105908764D01*
X76961687Y-105908764D02*
X77033115Y-105980192D01*
X77033115Y-105980192D02*
X77104544Y-106123049D01*
X77104544Y-106123049D02*
X77104544Y-106265907D01*
X77104544Y-106265907D02*
X77033115Y-106480192D01*
X77033115Y-106480192D02*
X76175972Y-107337335D01*
X76175972Y-107337335D02*
X77104544Y-107337335D01*
D11*
X98233324Y-91895439D02*
X98233324Y-90895439D01*
X98233324Y-90895439D02*
X98471419Y-90895439D01*
X98471419Y-90895439D02*
X98614276Y-90943058D01*
X98614276Y-90943058D02*
X98709514Y-91038296D01*
X98709514Y-91038296D02*
X98757133Y-91133534D01*
X98757133Y-91133534D02*
X98804752Y-91324010D01*
X98804752Y-91324010D02*
X98804752Y-91466867D01*
X98804752Y-91466867D02*
X98757133Y-91657343D01*
X98757133Y-91657343D02*
X98709514Y-91752581D01*
X98709514Y-91752581D02*
X98614276Y-91847820D01*
X98614276Y-91847820D02*
X98471419Y-91895439D01*
X98471419Y-91895439D02*
X98233324Y-91895439D01*
X99566657Y-91371629D02*
X99709514Y-91419248D01*
X99709514Y-91419248D02*
X99757133Y-91466867D01*
X99757133Y-91466867D02*
X99804752Y-91562105D01*
X99804752Y-91562105D02*
X99804752Y-91704962D01*
X99804752Y-91704962D02*
X99757133Y-91800200D01*
X99757133Y-91800200D02*
X99709514Y-91847820D01*
X99709514Y-91847820D02*
X99614276Y-91895439D01*
X99614276Y-91895439D02*
X99233324Y-91895439D01*
X99233324Y-91895439D02*
X99233324Y-90895439D01*
X99233324Y-90895439D02*
X99566657Y-90895439D01*
X99566657Y-90895439D02*
X99661895Y-90943058D01*
X99661895Y-90943058D02*
X99709514Y-90990677D01*
X99709514Y-90990677D02*
X99757133Y-91085915D01*
X99757133Y-91085915D02*
X99757133Y-91181153D01*
X99757133Y-91181153D02*
X99709514Y-91276391D01*
X99709514Y-91276391D02*
X99661895Y-91324010D01*
X99661895Y-91324010D02*
X99566657Y-91371629D01*
X99566657Y-91371629D02*
X99233324Y-91371629D01*
X100757133Y-91895439D02*
X100185705Y-91895439D01*
X100471419Y-91895439D02*
X100471419Y-90895439D01*
X100471419Y-90895439D02*
X100376181Y-91038296D01*
X100376181Y-91038296D02*
X100280943Y-91133534D01*
X100280943Y-91133534D02*
X100185705Y-91181153D01*
D12*
%TO.C,TermPWR*%
X66588095Y-88564819D02*
X67159523Y-88564819D01*
X66873809Y-89564819D02*
X66873809Y-88564819D01*
X67873809Y-89517200D02*
X67778571Y-89564819D01*
X67778571Y-89564819D02*
X67588095Y-89564819D01*
X67588095Y-89564819D02*
X67492857Y-89517200D01*
X67492857Y-89517200D02*
X67445238Y-89421961D01*
X67445238Y-89421961D02*
X67445238Y-89041009D01*
X67445238Y-89041009D02*
X67492857Y-88945771D01*
X67492857Y-88945771D02*
X67588095Y-88898152D01*
X67588095Y-88898152D02*
X67778571Y-88898152D01*
X67778571Y-88898152D02*
X67873809Y-88945771D01*
X67873809Y-88945771D02*
X67921428Y-89041009D01*
X67921428Y-89041009D02*
X67921428Y-89136247D01*
X67921428Y-89136247D02*
X67445238Y-89231485D01*
X68350000Y-89564819D02*
X68350000Y-88898152D01*
X68350000Y-89088628D02*
X68397619Y-88993390D01*
X68397619Y-88993390D02*
X68445238Y-88945771D01*
X68445238Y-88945771D02*
X68540476Y-88898152D01*
X68540476Y-88898152D02*
X68635714Y-88898152D01*
X68969048Y-89564819D02*
X68969048Y-88898152D01*
X68969048Y-88993390D02*
X69016667Y-88945771D01*
X69016667Y-88945771D02*
X69111905Y-88898152D01*
X69111905Y-88898152D02*
X69254762Y-88898152D01*
X69254762Y-88898152D02*
X69350000Y-88945771D01*
X69350000Y-88945771D02*
X69397619Y-89041009D01*
X69397619Y-89041009D02*
X69397619Y-89564819D01*
X69397619Y-89041009D02*
X69445238Y-88945771D01*
X69445238Y-88945771D02*
X69540476Y-88898152D01*
X69540476Y-88898152D02*
X69683333Y-88898152D01*
X69683333Y-88898152D02*
X69778572Y-88945771D01*
X69778572Y-88945771D02*
X69826191Y-89041009D01*
X69826191Y-89041009D02*
X69826191Y-89564819D01*
X70302381Y-89564819D02*
X70302381Y-88564819D01*
X70302381Y-88564819D02*
X70683333Y-88564819D01*
X70683333Y-88564819D02*
X70778571Y-88612438D01*
X70778571Y-88612438D02*
X70826190Y-88660057D01*
X70826190Y-88660057D02*
X70873809Y-88755295D01*
X70873809Y-88755295D02*
X70873809Y-88898152D01*
X70873809Y-88898152D02*
X70826190Y-88993390D01*
X70826190Y-88993390D02*
X70778571Y-89041009D01*
X70778571Y-89041009D02*
X70683333Y-89088628D01*
X70683333Y-89088628D02*
X70302381Y-89088628D01*
X71207143Y-88564819D02*
X71445238Y-89564819D01*
X71445238Y-89564819D02*
X71635714Y-88850533D01*
X71635714Y-88850533D02*
X71826190Y-89564819D01*
X71826190Y-89564819D02*
X72064286Y-88564819D01*
X73016666Y-89564819D02*
X72683333Y-89088628D01*
X72445238Y-89564819D02*
X72445238Y-88564819D01*
X72445238Y-88564819D02*
X72826190Y-88564819D01*
X72826190Y-88564819D02*
X72921428Y-88612438D01*
X72921428Y-88612438D02*
X72969047Y-88660057D01*
X72969047Y-88660057D02*
X73016666Y-88755295D01*
X73016666Y-88755295D02*
X73016666Y-88898152D01*
X73016666Y-88898152D02*
X72969047Y-88993390D01*
X72969047Y-88993390D02*
X72921428Y-89041009D01*
X72921428Y-89041009D02*
X72826190Y-89088628D01*
X72826190Y-89088628D02*
X72445238Y-89088628D01*
D13*
X67250000Y-92710000D02*
X67250000Y-92770000D01*
X67250000Y-91440000D02*
X67250000Y-90110000D01*
X69850000Y-90110000D02*
X72450000Y-90110000D01*
X67250000Y-92770000D02*
X72450000Y-92770000D01*
X67250000Y-92710000D02*
X69850000Y-92710000D01*
X72450000Y-90110000D02*
X72450000Y-92770000D01*
X69850000Y-92710000D02*
X69850000Y-90110000D01*
X67250000Y-90110000D02*
X68580000Y-90110000D01*
%TO.C,<-Socket*%
X79950000Y-59570000D02*
X79950000Y-110610000D01*
X82440000Y-110550000D02*
X87900000Y-110550000D01*
X95360000Y-110550000D02*
X95360000Y-59630000D01*
X97850000Y-59570000D02*
X79950000Y-59570000D01*
X79950000Y-110610000D02*
X97850000Y-110610000D01*
X97850000Y-110610000D02*
X97850000Y-59570000D01*
X82440000Y-59630000D02*
X82440000Y-110550000D01*
X89900000Y-110550000D02*
X95360000Y-110550000D01*
X95360000Y-59630000D02*
X82440000Y-59630000D01*
X89900000Y-110550000D02*
G75*
G03*
X87900000Y-110550000I-1000000J0D01*
G01*
X92820000Y-59630000D02*
X79900000Y-59630000D01*
X79900000Y-59630000D02*
X79900000Y-110550000D01*
X79900000Y-110550000D02*
X85360000Y-110550000D01*
X92820000Y-110550000D02*
X92820000Y-59630000D01*
X87360000Y-110550000D02*
X92820000Y-110550000D01*
X87360000Y-110550000D02*
G75*
G03*
X85360000Y-110550000I-1000000J0D01*
G01*
%TD*%
M02*
